<svg width="161" height="302" viewBox="0 0 161 302" fill="none" xmlns="http://www.w3.org/2000/svg">
<path d="M67.644 211.104C67.644 211.104 92.9712 202.147 76.4535 152.015C59.9358 101.883 81.0155 102.983 90.4542 77.6811C99.893 52.3794 85.8922 35.0925 85.8922 35.0925" stroke="#263238" stroke-width="2.55294" stroke-miterlimit="10" stroke-linecap="round" stroke-linejoin="round"/>
<path d="M80.0718 198.689H75.3525H6.13525C6.13525 198.689 16.0459 273.809 19.0348 295.496C19.5068 299.425 22.653 301.468 26.4285 301.468C35.3953 301.468 64.026 301.468 75.3525 301.468C78.3414 301.468 80.0718 301.468 80.0718 301.468C91.3983 301.468 120.029 301.468 128.996 301.468C132.771 301.468 135.918 299.582 136.389 295.496C139.221 273.809 149.289 198.689 149.289 198.689H80.0718Z" fill="#263238"/>
<path d="M155.581 201.518C155.581 203.404 154.008 204.975 152.121 204.975H3.46086C1.57312 204.975 0 203.404 0 201.518V196.018C0 194.132 1.57312 192.56 3.46086 192.56H152.121C154.008 192.56 155.581 194.132 155.581 196.018V201.518Z" fill="#263238"/>
<path d="M14.1577 204.975H89.0382" stroke="white" stroke-width="0.850981" stroke-miterlimit="10" stroke-linecap="round" stroke-linejoin="round"/>
<path d="M98.4766 204.975H104.297" stroke="white" stroke-width="0.850981" stroke-miterlimit="10" stroke-linecap="round" stroke-linejoin="round"/>
<path d="M138.906 204.975H128.366" stroke="white" stroke-width="0.850981" stroke-miterlimit="10" stroke-linecap="round" stroke-linejoin="round"/>
<path d="M19.8208 229.649H49.2381" stroke="white" stroke-width="0.850981" stroke-miterlimit="10" stroke-linecap="round" stroke-linejoin="round"/>
<path d="M66.0708 229.649H73.9364" stroke="white" stroke-width="0.850981" stroke-miterlimit="10" stroke-linecap="round" stroke-linejoin="round"/>
<path d="M136.861 229.649H108.545" stroke="white" stroke-width="0.850981" stroke-miterlimit="10" stroke-linecap="round" stroke-linejoin="round"/>
<path d="M133.715 250.079H128.366" stroke="white" stroke-width="0.850981" stroke-miterlimit="10" stroke-linecap="round" stroke-linejoin="round"/>
<path d="M49.2384 250.079H38.2266" stroke="white" stroke-width="0.850981" stroke-miterlimit="10" stroke-linecap="round" stroke-linejoin="round"/>
<path d="M101.466 269.88H119.557" stroke="white" stroke-width="0.850981" stroke-miterlimit="10" stroke-linecap="round" stroke-linejoin="round"/>
<path d="M59.1491 269.88H30.833" stroke="white" stroke-width="0.850981" stroke-miterlimit="10" stroke-linecap="round" stroke-linejoin="round"/>
<path d="M25.1699 287.795H34.6086" stroke="white" stroke-width="0.850981" stroke-miterlimit="10" stroke-linecap="round" stroke-linejoin="round"/>
<path d="M49.2378 287.795H104.297" stroke="white" stroke-width="0.850981" stroke-miterlimit="10" stroke-linecap="round" stroke-linejoin="round"/>
<path d="M131.04 287.795H122.703" stroke="white" stroke-width="0.850981" stroke-miterlimit="10" stroke-linecap="round" stroke-linejoin="round"/>
<path d="M104.769 246.935C104.769 261.865 92.6561 273.966 77.7114 273.966C62.7668 273.966 50.6538 261.865 50.6538 246.935C50.6538 232.006 62.7668 219.905 77.7114 219.905C92.6561 219.905 104.769 232.006 104.769 246.935Z" fill="#A23834" stroke="#263238" stroke-width="0.850981" stroke-miterlimit="10" stroke-linecap="round" stroke-linejoin="round"/>
<path d="M75.6665 234.52V232.791H79.9139V234.52C83.5321 235.149 85.4198 237.192 85.4198 240.492V241.278H80.5432V240.335C80.5432 238.606 79.5993 237.977 78.0262 237.977C76.453 237.977 75.5092 238.606 75.5092 240.335C75.5092 242.063 76.453 243.32 79.9139 245.363C84.1613 247.878 85.5771 249.764 85.5771 252.593C85.5771 255.893 83.6894 257.936 80.0712 258.564V260.293H75.8238V258.564C72.2056 257.936 70.3179 255.893 70.3179 252.593V250.864H75.1945V252.75C75.1945 254.478 76.2957 255.107 77.8688 255.107C79.442 255.107 80.5432 254.478 80.5432 252.75C80.5432 251.021 79.5993 249.764 76.1384 247.721C71.891 245.206 70.4752 243.32 70.4752 240.492C70.3179 237.192 72.0483 234.991 75.6665 234.52Z" fill="white" stroke="#263238" stroke-width="0.850981" stroke-miterlimit="10" stroke-linecap="round" stroke-linejoin="round"/>
<path d="M100.208 246.935C100.208 259.35 90.1396 269.408 77.7119 269.408C65.2843 269.408 55.2163 259.35 55.2163 246.935C55.2163 234.52 65.2843 224.462 77.7119 224.462C90.1396 224.462 100.208 234.52 100.208 246.935Z" stroke="#263238" stroke-width="0.850981" stroke-miterlimit="10" stroke-linecap="round" stroke-linejoin="round"/>
<path d="M74.4082 145.572C74.4082 145.572 79.7568 117.598 102.41 115.398C125.063 113.198 127.58 95.5969 127.58 95.5969" stroke="#263238" stroke-width="2.55294" stroke-miterlimit="10" stroke-linecap="round" stroke-linejoin="round"/>
<path d="M76.7679 97.0112C76.7679 97.0112 71.262 94.3396 50.9688 81.9245C30.6755 69.5094 31.4621 49.8652 31.4621 49.8652" stroke="#263238" stroke-width="2.55294" stroke-miterlimit="10" stroke-linecap="round" stroke-linejoin="round"/>
<path d="M81.0155 170.559C81.0155 170.559 41.2156 168.987 35.2378 136.3" stroke="#263238" stroke-width="2.55294" stroke-miterlimit="10" stroke-linecap="round" stroke-linejoin="round"/>
<path d="M106.185 21.106C104.927 31.0066 95.9602 37.9214 86.2069 36.6641C76.2962 35.4069 69.3745 26.4492 70.633 16.7057C71.8915 6.80502 80.8583 -0.10971 90.6116 1.14752C100.522 2.24759 107.444 11.2053 106.185 21.106Z" fill="white"/>
<path d="M106.185 21.106C104.927 31.0066 95.9602 37.9214 86.2069 36.6641C76.2962 35.4069 69.3745 26.4492 70.633 16.7057C71.8915 6.80502 80.8583 -0.10971 90.6116 1.14752C100.522 2.24759 107.444 11.2053 106.185 21.106Z" stroke="#263238" stroke-width="0.850981" stroke-miterlimit="10" stroke-linecap="round" stroke-linejoin="round"/>
<path d="M102.882 20.6347C101.939 28.6495 94.7023 34.3071 86.6794 33.207C78.6565 32.2641 72.9933 25.035 74.0944 17.0201C75.0383 9.00528 82.2746 3.34774 90.2975 4.44782C98.1631 5.5479 103.826 12.777 102.882 20.6347Z" stroke="#263238" stroke-width="0.850981" stroke-miterlimit="10" stroke-linecap="round" stroke-linejoin="round"/>
<path d="M86.2067 11.6769C86.6786 11.0483 87.4652 10.734 88.4091 10.5768L88.5664 9.31958L90.6114 9.63388L90.4541 10.8911C91.2407 11.2054 91.8699 11.6769 92.3419 12.4626C92.6565 13.2484 92.8138 14.0342 92.6565 15.1342V15.6057L90.2968 15.2914L90.4541 14.6628C90.4541 14.1913 90.4541 13.7199 90.2968 13.4055C90.1395 13.0912 89.8249 12.9341 89.3529 12.9341C88.881 12.9341 88.5664 12.9341 88.4091 13.2484C88.0944 13.4056 87.9371 13.877 87.9371 14.3485C87.9371 14.8199 87.9371 15.2914 88.0944 15.6057C88.2517 16.0772 88.4091 16.3915 88.7237 16.7058C89.0383 17.0201 89.3529 17.4915 89.8249 17.963C90.2968 18.4345 90.7687 19.0631 91.0834 19.3774C91.398 19.8488 91.7126 20.3203 91.8699 20.9489C92.0272 21.5775 92.1845 22.2061 92.0272 22.9919C91.8699 24.092 91.5553 24.8778 90.9261 25.5064C90.4541 26.135 89.6676 26.4493 88.7237 26.6064L88.5664 27.7065L86.5213 27.3922L86.6786 26.2921C85.7348 25.9778 85.1055 25.5064 84.7909 24.7206C84.4763 23.9348 84.319 23.149 84.4763 22.049L84.6336 20.9489L86.9933 21.2632L86.8359 22.5204C86.6786 23.6205 87.1506 24.092 87.9371 24.2491C88.881 24.4063 89.3529 23.9348 89.5102 22.8347C89.5102 22.3633 89.5102 21.8918 89.3529 21.5775C89.1956 21.1061 89.0383 20.7917 88.7237 20.4774C88.4091 20.1631 88.0944 19.6917 87.6225 19.2202C87.1506 18.7488 86.6786 18.1201 86.364 17.8058C86.0494 17.3344 85.7348 16.8629 85.5774 16.2343C85.4201 15.6057 85.2628 14.9771 85.4201 14.1913C85.4201 13.2484 85.7348 12.3055 86.2067 11.6769Z" fill="#263238"/>
<path d="M49.7099 35.4073C51.1257 45.1508 44.204 54.2657 34.2934 55.68C24.54 57.0944 15.4159 50.1797 14.0001 40.279C12.5843 30.5355 19.5061 21.4207 29.4167 20.0063C39.3273 18.5919 48.4514 25.5066 49.7099 35.4073Z" fill="white"/>
<path d="M49.7099 35.4073C51.1257 45.1508 44.204 54.2657 34.2934 55.6801C24.54 57.0944 15.4159 50.1797 14.0001 40.279C12.5843 30.5355 19.5061 21.4207 29.4167 20.0063C39.3273 18.5919 48.4514 25.5066 49.7099 35.4073Z" stroke="#263238" stroke-width="0.850981" stroke-miterlimit="10" stroke-linecap="round" stroke-linejoin="round"/>
<path d="M46.2495 35.8783C47.3507 43.736 41.8447 51.1222 33.8218 52.2223C25.9562 53.3224 18.5626 47.822 17.4614 39.8072C16.3602 31.9495 21.8661 24.5633 29.889 23.4632C37.9119 22.3631 45.1483 27.8635 46.2495 35.8783Z" stroke="#263238" stroke-width="0.850981" stroke-miterlimit="10" stroke-linecap="round" stroke-linejoin="round"/>
<path d="M28.0017 31.3213C28.3163 30.5355 28.9456 30.0641 29.7322 29.7498L29.5748 28.4925L31.6199 28.1782L31.7772 29.4355C32.7211 29.4355 33.3503 29.9069 33.9796 30.3784C34.4515 31.007 34.9235 31.7928 35.0808 32.8928V33.3643L32.7211 33.6786L32.5638 33.05C32.5638 32.5785 32.2491 32.107 32.0918 31.9499C31.7772 31.7927 31.4626 31.6356 31.148 31.6356C30.676 31.6356 30.3614 31.7928 30.2041 32.1071C30.0468 32.4214 30.0468 32.7357 30.0468 33.3643C30.0468 33.8358 30.2041 34.3072 30.5187 34.6215C30.8333 34.9358 30.9907 35.2501 31.3053 35.5644C31.6199 35.8787 32.0918 36.0359 32.5638 36.5074C33.193 36.8217 33.8223 37.2931 34.1369 37.6074C34.6088 37.9217 34.9234 38.3932 35.2381 38.8647C35.5527 39.3361 35.8673 40.1219 35.8673 40.7505C36.0246 41.8506 35.8673 42.7935 35.5527 43.4221C35.2381 44.2079 34.6088 44.6793 33.665 44.9936L33.8223 46.0937L31.7772 46.408L31.6199 45.3079C30.676 45.3079 29.8895 44.8365 29.4175 44.365C28.9456 43.7364 28.4737 42.9506 28.3163 41.8506L28.159 40.7505L30.5187 40.4362L30.676 41.6934C30.8333 42.7935 31.3053 43.2649 32.2491 43.1078C33.193 42.9506 33.5076 42.4792 33.3503 41.3791C33.3503 40.9076 33.193 40.4362 32.8784 40.1219C32.5638 39.8076 32.4065 39.4933 32.0918 39.179C31.7772 38.8647 31.3053 38.7075 30.8333 38.236C30.2041 37.9217 29.5749 37.4503 29.2602 37.136C28.9456 36.8217 28.4737 36.3502 28.159 35.8787C27.8444 35.4073 27.5298 34.6215 27.5298 33.9929C27.5298 32.8928 27.6871 32.1071 28.0017 31.3213Z" fill="#263238"/>
<path d="M48.609 121.212C49.3956 131.113 42.0019 139.756 32.0913 140.542C22.1806 141.328 13.5285 133.942 12.7419 124.041C11.9554 114.141 19.349 105.497 29.2597 104.711C39.1703 103.926 47.8225 111.312 48.609 121.212Z" fill="white"/>
<path d="M48.609 121.212C49.3956 131.113 42.0019 139.756 32.0913 140.542C22.1806 141.328 13.5285 133.942 12.7419 124.041C11.9554 114.141 19.349 105.497 29.2597 104.711C39.1703 103.926 47.8225 111.312 48.609 121.212Z" stroke="#263238" stroke-width="0.850981" stroke-miterlimit="10" stroke-linecap="round" stroke-linejoin="round"/>
<path d="M45.3053 121.527C45.9345 129.542 39.9567 136.456 31.9338 137.085C23.9109 137.714 16.9892 131.742 16.3599 123.727C15.7307 115.712 21.7085 108.797 29.7314 108.169C37.597 107.54 44.676 113.512 45.3053 121.527Z" stroke="#263238" stroke-width="0.850981" stroke-miterlimit="10" stroke-linecap="round" stroke-linejoin="round"/>
<path d="M27.2141 116.027C27.6861 115.398 28.3153 114.77 29.1019 114.612L28.9446 113.355L30.9896 113.198L31.1469 114.455C32.0908 114.612 32.7201 114.927 33.3493 115.555C33.8212 116.184 34.1359 117.127 34.2932 118.227V118.698L31.9335 118.856V118.227C31.9335 117.598 31.7762 117.284 31.4616 116.97C31.1469 116.655 30.8323 116.655 30.5177 116.655C30.0458 116.655 29.7311 116.813 29.5738 117.127C29.4165 117.441 29.2592 117.755 29.4165 118.384C29.4165 118.856 29.5738 119.327 29.7311 119.641C29.8884 119.956 30.2031 120.27 30.5177 120.584C30.8323 120.899 31.3043 121.213 31.7762 121.527C32.4054 121.999 32.8774 122.313 33.3493 122.784C33.8212 123.099 34.1359 123.57 34.4505 124.199C34.7651 124.827 34.9224 125.456 35.0797 126.242C35.237 127.342 35.0797 128.285 34.6078 128.913C34.1359 129.699 33.5066 130.171 32.7201 130.328L32.8774 131.428L30.8323 131.585L30.675 130.485C29.7311 130.328 29.1019 130.013 28.4726 129.385C28.0007 128.756 27.6861 127.813 27.5288 126.713L27.3715 125.613L29.7311 125.456L29.8884 126.713C30.0458 127.813 30.5177 128.285 31.3043 128.128C32.2481 128.128 32.5627 127.499 32.5627 126.399C32.5627 125.927 32.4054 125.456 32.2481 125.142C32.0908 124.827 31.7762 124.513 31.4616 124.199C31.1469 123.884 30.675 123.57 30.2031 123.256C29.5738 122.784 29.1019 122.47 28.63 121.999C28.158 121.684 27.8434 121.213 27.5288 120.584C27.2141 119.956 27.0568 119.327 26.8995 118.541C26.5849 117.598 26.7422 116.813 27.2141 116.027Z" fill="#263238"/>
<path d="M153.379 90.4109C149.131 99.3687 138.591 103.298 129.467 99.2115C120.5 94.9684 116.568 84.4391 120.658 75.3242C124.905 66.3665 135.445 62.4376 144.569 66.5236C153.693 70.7667 157.626 81.4532 153.379 90.4109Z" fill="white"/>
<path d="M153.379 90.4109C149.131 99.3687 138.591 103.297 129.467 99.2115C120.5 94.9684 116.568 84.4391 120.658 75.3242C124.905 66.3665 135.445 62.4376 144.569 66.5236C153.693 70.7667 157.626 81.4532 153.379 90.4109Z" stroke="#263238" stroke-width="0.850981" stroke-miterlimit="10" stroke-linecap="round" stroke-linejoin="round"/>
<path d="M150.232 88.9961C146.929 96.2252 138.277 99.3682 131.04 96.068C123.804 92.7678 120.658 84.1243 123.961 76.8953C127.265 69.6662 135.917 66.5232 143.153 69.8234C150.547 72.9664 153.693 81.6099 150.232 88.9961Z" stroke="#263238" stroke-width="0.850981" stroke-miterlimit="10" stroke-linecap="round" stroke-linejoin="round"/>
<path d="M137.175 75.3236C137.804 74.8521 138.591 74.8521 139.535 75.0093L140.007 73.9092L141.895 74.8521L141.423 75.9522C142.209 76.4237 142.524 77.2094 142.681 77.9952C142.838 78.781 142.681 79.7239 142.209 80.6668L142.052 81.1383L139.849 80.1953L140.164 79.5667C140.321 79.0953 140.479 78.6238 140.321 78.3095C140.164 77.9952 140.007 77.6809 139.692 77.5237C139.378 77.3666 138.906 77.3666 138.748 77.5237C138.434 77.6809 138.119 77.9952 137.962 78.4667C137.804 78.9381 137.647 79.2524 137.647 79.7239C137.647 80.1954 137.804 80.5097 137.804 80.9811C137.962 81.2954 138.119 81.7669 138.434 82.3955C138.748 83.0241 139.063 83.6527 139.22 84.1242C139.378 84.5957 139.535 85.2243 139.535 85.8529C139.535 86.4815 139.378 87.1102 139.063 87.8959C138.591 88.8388 137.962 89.6246 137.332 90.0961C136.546 90.5675 135.759 90.5675 134.973 90.4104L134.501 91.5105L132.613 90.5675L133.085 89.4675C132.299 88.996 131.827 88.2102 131.827 87.4245C131.669 86.6387 131.827 85.6958 132.299 84.7528L132.77 83.8099L134.973 84.7528L134.501 85.8529C134.029 86.7958 134.186 87.4245 134.973 87.8959C135.759 88.2102 136.389 87.8959 136.861 86.953C137.018 86.4815 137.175 86.1672 137.175 85.6957C137.175 85.2243 137.018 84.91 137.018 84.4385C136.861 84.1242 136.703 83.6527 136.389 83.0241C136.074 82.3955 135.759 81.7669 135.602 81.2954C135.445 80.824 135.287 80.1954 135.287 79.5667C135.287 78.9381 135.445 78.3095 135.759 77.5237C135.917 76.4237 136.546 75.795 137.175 75.3236Z" fill="#263238"/>
<path d="M126.793 98.5827C126.793 99.6828 143.625 87.5819 159.828 95.2825C159.828 95.2825 142.839 110.684 126.321 101.097C109.803 91.5108 112.163 67.9377 112.163 67.9377C112.163 67.9377 128.209 79.0956 126.793 98.5827Z" fill="#A23834" stroke="#263238" stroke-width="0.850981" stroke-miterlimit="10" stroke-linecap="round" stroke-linejoin="round"/>
<path d="M88.4088 37.2929C88.8807 38.2358 96.4317 18.9059 114.365 16.5486C114.365 16.5486 108.387 38.7073 89.3526 39.6502C70.3179 40.4359 59.4634 19.3774 59.4634 19.3774C59.4634 19.3774 78.9701 20.1631 88.4088 37.2929Z" fill="#A23834" stroke="#263238" stroke-width="0.850981" stroke-miterlimit="10" stroke-linecap="round" stroke-linejoin="round"/>
<path d="M33.9793 57.5654C34.6085 58.5083 39.0133 38.2356 56.4749 33.0496C56.4749 33.0496 54.1152 55.9939 35.5524 59.7656C16.8323 63.5372 2.83154 44.5217 2.83154 44.5217C2.83154 44.5217 21.8663 42.1644 33.9793 57.5654Z" fill="#A23834" stroke="#263238" stroke-width="0.850981" stroke-miterlimit="10" stroke-linecap="round" stroke-linejoin="round"/>
<path d="M37.5969 143.057C38.3835 143.843 39.3273 123.099 55.5304 115.084C55.5304 115.084 57.1036 138.028 39.4847 144.943C21.7084 151.858 4.71875 135.514 4.71875 135.514C4.71875 135.514 23.1242 130.013 37.5969 143.057Z" fill="#A23834" stroke="#263238" stroke-width="0.850981" stroke-miterlimit="10" stroke-linecap="round" stroke-linejoin="round"/>
</svg>
