<svg width="546" height="493" viewBox="0 0 546 493" fill="none" xmlns="http://www.w3.org/2000/svg">
<g clip-path="url(#clip0_53_3492)">
<path d="M370.915 51.4307C330.037 45.1573 287.852 51.9959 256.331 77.4287C225.672 102.172 211.762 143.588 179.786 166.59C130.402 202.185 60.2616 190.361 31.6126 254.26C21.3929 277.07 18.7586 302.559 19.1219 327.529C19.5421 358.805 24.6632 390.455 38.2326 418.657C51.802 446.859 74.3987 471.467 103.309 483.697C145.981 501.783 195.433 490.965 238.265 473.321C255.933 466.053 273.67 457.496 292.769 456.524C316.819 455.269 339.586 466.064 362.433 473.648C389.844 482.77 420.208 487.36 447.426 477.661C468.728 470.077 486.238 454.354 500.284 436.698C525.38 405.024 540.81 366.842 544.74 326.692C555.629 212.934 496.662 70.7031 370.915 51.4307Z" fill="#A23834"/>
<path opacity="0.9" d="M370.915 51.4307C330.037 45.1573 287.852 51.9959 256.331 77.4287C225.672 102.172 211.762 143.588 179.786 166.59C130.402 202.185 60.2616 190.361 31.6126 254.26C21.3929 277.07 18.7586 302.559 19.1219 327.529C19.5421 358.805 24.6632 390.455 38.2326 418.657C51.802 446.859 74.3987 471.467 103.309 483.697C145.981 501.783 195.433 490.965 238.265 473.321C255.933 466.053 273.67 457.496 292.769 456.524C316.819 455.269 339.586 466.064 362.433 473.648C389.844 482.77 420.208 487.36 447.426 477.661C468.728 470.077 486.238 454.354 500.284 436.698C525.38 405.024 540.81 366.842 544.74 326.692C555.629 212.934 496.662 70.7031 370.915 51.4307Z" fill="white"/>
<path d="M312.14 230.07C305.713 232.421 290.418 231.201 290.406 231.201C290.395 231.201 294.301 221.412 294.63 220.824C298.412 214.042 309.744 203.112 318.317 204.796C324.506 206.005 327.594 212.426 325.834 218.179C324.074 223.933 317.613 228.07 312.14 230.07Z" fill="#A23834"/>
<path d="M114.63 166.127C123.362 165.72 132.957 178.176 135.705 185.444C135.932 186.077 138.51 196.341 138.351 196.33H138.158C139.691 198.285 141.314 200.399 143.029 202.75C146.174 207.102 149.683 212.053 153.135 217.693C156.932 223.729 160.367 229.983 163.423 236.423C166.887 243.612 169.699 251.094 171.826 258.781L171.894 259.064C171.996 256.52 172.541 249.411 172.643 248.891C174.119 241.261 181.455 227.414 190.13 226.284C196.387 225.515 201.326 230.647 201.485 236.66C201.644 242.674 196.796 248.653 192.219 252.259C187.064 256.317 173.211 259.708 172.109 259.979C174.082 267.855 175.524 275.853 176.424 283.92C176.981 288.622 177.39 293.37 177.73 298.14C177.901 295.879 178.06 293.969 178.116 293.697C179.581 286.068 186.928 272.221 195.603 271.091C201.86 270.322 206.799 275.465 206.958 281.478C207.117 287.492 202.269 293.46 197.704 297.066C193.139 300.672 181.318 303.848 178.196 304.639C178.309 306.47 178.446 308.29 178.548 310.121C179.07 318.904 179.547 327.676 180.285 336.255C180.546 339.273 180.91 342.246 181.262 345.219C181.409 343.263 181.557 341.624 181.602 341.375C183.067 333.746 190.414 319.899 199.089 318.769C205.335 318 210.285 323.132 210.444 329.145C210.603 335.159 205.755 341.138 201.179 344.744C196.602 348.35 185.94 351.221 182.238 352.17C182.692 355.2 183.147 358.24 183.726 361.156C184.157 363.146 184.452 365.079 184.998 367.057C185.543 369.035 186.008 370.957 186.508 372.878C187.643 376.54 188.711 380.327 189.858 383.876C190.652 386.352 191.447 388.692 192.242 391.054C191.947 388.047 191.504 382.147 191.515 381.65C192.029 374.834 194.284 368.262 198.067 362.558C198.094 361.798 198.189 361.041 198.351 360.297C199.668 354.42 205.528 350.35 211.512 352.328C219.812 355.075 224.264 370.131 224.195 377.897C224.195 378.36 223.582 383.323 223.151 386.454C223.696 384.656 224.184 382.904 224.763 381.051C225.899 377.388 227.034 373.771 228.374 369.871L230.475 364.22C231.133 362.321 232.065 360.41 232.871 358.478C234.812 354.035 236.993 349.627 239.298 345.241C236.073 344.269 224.706 340.641 220.278 336.82C215.849 333 211.33 326.952 211.739 320.826C212.148 314.699 217.326 309.918 223.537 310.969C232.155 312.427 238.855 326.636 239.968 334.322C240.036 334.808 240.206 340.415 240.252 343.5C241.648 340.867 243.034 338.244 244.544 335.588C248.893 328.037 253.526 320.543 258.17 313.038C259.578 310.777 260.952 308.437 262.337 306.143C261.202 305.803 247.576 301.791 242.625 297.507C238.219 293.697 233.666 287.639 234.086 281.512C234.506 275.386 239.661 270.605 245.872 271.656C254.491 273.114 261.19 287.322 262.303 295.009C262.394 295.596 262.633 303.667 262.587 305.713C265.642 300.649 268.628 295.54 271.376 290.431C275.122 283.523 278.41 276.379 281.221 269.045C280.687 268.886 266.459 264.761 261.383 260.375C256.978 256.577 252.436 250.507 252.844 244.381C253.253 238.254 258.431 233.473 264.642 234.524C273.261 235.982 279.949 250.191 281.073 257.888C281.153 258.487 281.414 267.168 281.346 268.751C281.505 268.321 281.721 267.903 281.879 267.473C284.492 260.041 286.438 252.393 287.693 244.618C288.443 240.334 288.908 236.197 289.283 232.184C286.558 231.687 274.113 229.268 269.105 225.82C264.302 222.52 259.112 216.992 258.885 210.854C258.658 204.717 263.234 199.404 269.514 199.766C278.246 200.274 286.467 213.669 288.42 221.242C288.534 221.649 289.147 225.922 289.556 229.053C289.692 227.222 289.874 225.346 289.976 223.593C290.362 217.026 290.305 210.99 290.214 205.632C290.135 202.592 290.01 199.845 289.862 197.279C287.443 195.391 277.78 187.694 274.976 182.449C272.171 177.204 270.206 170.015 272.807 164.454C275.407 158.893 281.97 156.293 287.375 159.492C294.892 164.013 295.994 179.612 294.245 187.185C294.086 187.841 290.555 197.799 290.419 197.709L290.271 197.596C290.464 200.06 290.646 202.716 290.782 205.621C290.986 210.979 291.179 217.026 290.93 223.627C290.746 230.747 290.147 237.85 289.135 244.9C288.035 252.802 286.23 260.591 283.742 268.174C283.715 268.263 283.68 268.35 283.64 268.434C285.138 266.377 289.544 260.737 289.93 260.341C295.381 254.791 309.234 247.229 317.024 251.106C322.701 253.909 323.95 260.906 320.714 265.993C317.478 271.079 310.165 273.419 304.351 273.905C297.799 274.459 284.366 269.689 283.299 269.305C280.53 276.967 277.248 284.437 273.477 291.663C271.342 295.879 269.048 300.061 266.664 304.232C268.015 302.492 269.253 300.943 269.446 300.74C274.896 295.178 288.749 287.628 296.539 291.505C302.217 294.297 303.454 301.293 300.241 306.391C297.027 311.489 289.68 313.818 283.867 314.304C278.053 314.79 266.437 310.969 263.427 309.907C262.508 311.5 261.611 313.094 260.679 314.688C256.251 322.295 251.788 329.869 247.644 337.431C246.19 340.087 244.85 342.766 243.488 345.445C244.703 343.896 245.759 342.608 245.906 342.415C251.357 336.865 265.21 329.303 273.011 333.18C278.689 335.984 279.926 342.981 276.702 348.067C273.477 353.154 266.141 355.493 260.339 355.98C254.661 356.454 244.033 353.007 240.411 351.775C239.116 354.555 237.81 357.336 236.675 360.083C235.937 361.982 235.096 363.756 234.472 365.734C233.847 367.712 233.155 369.544 232.507 371.386C231.372 375.048 230.236 378.812 229.203 382.407C228.488 384.905 227.852 387.301 227.205 389.709C228.624 387.03 231.531 381.864 231.815 381.469C236.357 375.15 248.847 365.644 257.205 368.244C263.2 370.165 265.528 376.88 263.109 382.396C260.691 387.912 253.81 391.337 248.143 392.693C241.898 394.185 228.431 391.676 226.75 391.348C225.694 395.338 224.706 399.26 223.832 402.9C223.639 403.691 223.48 404.403 223.298 405.161H217.837C218.132 404.03 218.427 402.832 218.745 401.634C219.801 397.576 221.016 393.27 222.299 388.861C218.317 386.98 214.446 384.874 210.706 382.554C205.948 387.075 194.161 392.049 192.64 392.727C193.968 396.627 195.297 400.413 196.602 403.963L197.068 405.206H191.606C190.289 401.374 188.972 397.294 187.655 393.077C185.985 393.315 172.393 395.225 166.216 393.45C160.618 391.834 153.93 388.217 151.727 382.475C149.524 376.733 152.215 370.244 158.29 368.617C166.727 366.356 178.786 376.45 183.044 382.972C183.294 383.356 185.543 387.833 186.917 390.681C186.36 388.884 185.781 387.143 185.259 385.289C184.123 381.627 183.169 377.942 182.091 373.986C181.625 372.053 181.171 370.098 180.705 368.131C180.24 366.164 179.922 364.073 179.513 362.016C178.673 357.245 178.06 352.374 177.537 347.457C174.324 348.406 162.776 351.628 157.018 350.848C151.261 350.068 144.085 347.536 141.03 342.189C137.976 336.843 139.645 330.027 145.402 327.495C153.351 323.979 166.863 332.152 172.053 337.962C172.382 338.324 175.63 342.901 177.367 345.456C177.083 342.495 176.788 339.533 176.595 336.526C176.038 327.857 175.754 319.051 175.459 310.268C175.368 307.578 175.232 304.899 175.119 302.22C173.983 302.571 160.357 306.742 153.884 305.849C148.105 305.103 140.951 302.537 137.896 297.19C134.842 291.844 136.511 285.028 142.268 282.496C150.274 278.98 163.729 287.153 168.919 292.963C169.316 293.404 173.983 299.993 175.096 301.734C174.823 295.823 174.505 289.945 173.96 284.157C173.258 276.34 172.04 268.576 170.315 260.917C169.793 261.087 155.633 265.439 148.968 264.58C143.188 263.822 136.034 261.268 132.991 255.921C129.948 250.575 131.594 243.759 137.363 241.227C145.311 237.712 158.813 245.884 164.013 251.694C164.411 252.146 169.441 259.245 170.259 260.601C170.156 260.16 170.1 259.685 169.986 259.245C168.055 251.608 165.44 244.16 162.174 236.988C160.425 233.009 158.529 229.29 156.598 225.685C154.043 226.815 142.325 231.596 136.25 231.472C130.413 231.348 123.021 229.584 119.399 224.611C115.777 219.637 116.685 212.674 122.124 209.532C129.687 205.158 143.971 211.793 149.774 217.015C150.081 217.297 152.976 220.53 155.043 222.904C154.146 221.31 153.249 219.649 152.363 218.134C149.047 212.482 145.652 207.43 142.62 203.021C140.871 200.523 139.214 198.308 137.681 196.239C134.626 196.002 122.306 194.883 117.048 192.046C111.791 189.208 106.193 184.303 105.273 178.233C104.353 172.163 108.339 166.387 114.63 166.127Z" fill="#A23834"/>
<path d="M157.007 224.125C156.871 224.204 154.838 213.827 154.736 213.161C154.123 205.406 157.529 190.079 165.614 186.778C171.439 184.393 177.571 188.044 179.24 193.809C180.909 199.574 177.9 206.616 174.448 211.284C170.474 216.778 157.018 224.114 157.007 224.125Z" fill="#A23834"/>
<path d="M152.171 386.262C152.171 386.262 117.742 385.832 109.691 373.014H19.7588C19.7588 373.014 27.0715 386.149 38.4266 386.262H152.171Z" fill="white" stroke="#263238" stroke-miterlimit="10"/>
<path d="M107.08 377.241H33.8166C33.8166 377.241 35.1792 380.203 31.4434 381.831C33.7984 383.997 36.7541 385.407 39.9256 385.877H133.197C133.197 385.877 121.319 384.747 114.881 381.017C114.881 381.017 107.421 382.102 107.08 377.241Z" fill="white" stroke="#263238" stroke-miterlimit="10"/>
<path d="M138.59 488.727H345.276V463.272H138.59V488.727Z" fill="#263238" stroke="#263238" stroke-miterlimit="10"/>
<path d="M24.8462 488.727H231.532V463.272H24.8462V488.727Z" fill="white" stroke="#263238" stroke-miterlimit="10"/>
<path d="M230.101 470.065H179.628" stroke="#263238" stroke-miterlimit="10"/>
<path d="M220.154 475.728H146.925" stroke="#263238" stroke-miterlimit="10"/>
<path d="M190.994 480.815H203.791" stroke="#263238" stroke-miterlimit="10"/>
<path d="M208.776 480.815H229.386" stroke="#263238" stroke-miterlimit="10"/>
<path d="M26.0605 479.685H90.7507" stroke="#263238" stroke-miterlimit="10"/>
<path d="M31.75 476.293H40.2777" stroke="#263238" stroke-miterlimit="10"/>
<path d="M80.0895 475.728H51.6562" stroke="#263238" stroke-miterlimit="10"/>
<path d="M26.0605 468.935H50.9396" stroke="#263238" stroke-miterlimit="10"/>
<path d="M342.438 474.033H329.641" stroke="#8A8A8A" stroke-miterlimit="10"/>
<path d="M345.276 479.685H305.465" stroke="#8A8A8A" stroke-miterlimit="10"/>
<path d="M233.655 483.076H252.857" stroke="#8A8A8A" stroke-miterlimit="10"/>
<path d="M231.521 474.033H283.425" stroke="#8A8A8A" stroke-miterlimit="10"/>
<path d="M328.209 466.674H298.356" stroke="#8A8A8A" stroke-miterlimit="10"/>
<path d="M119.184 488.162H143.359V463.272H119.184V488.162Z" fill="white" stroke="#263238" stroke-miterlimit="10"/>
<path d="M135.933 463.069H342.619V437.613H135.933V463.069Z" fill="#263238" stroke="#263238" stroke-miterlimit="10"/>
<path d="M22.1889 463.069H228.875V437.613H22.1889V463.069Z" fill="white" stroke="#263238" stroke-miterlimit="10"/>
<path d="M227.456 444.395H176.971" stroke="#263238" stroke-miterlimit="10"/>
<path d="M217.497 450.058H144.268" stroke="#263238" stroke-miterlimit="10"/>
<path d="M188.349 455.145H201.146" stroke="#263238" stroke-miterlimit="10"/>
<path d="M206.119 455.145H226.74" stroke="#263238" stroke-miterlimit="10"/>
<path d="M23.4033 454.014H88.1048" stroke="#263238" stroke-miterlimit="10"/>
<path d="M29.0928 450.624H37.6318" stroke="#263238" stroke-miterlimit="10"/>
<path d="M77.4426 450.058H48.998" stroke="#263238" stroke-miterlimit="10"/>
<path d="M23.4033 443.265H48.2938" stroke="#263238" stroke-miterlimit="10"/>
<path d="M339.781 448.363H326.983" stroke="#8A8A8A" stroke-miterlimit="10"/>
<path d="M342.62 454.014H302.809" stroke="#8A8A8A" stroke-miterlimit="10"/>
<path d="M231.01 457.406H250.2" stroke="#8A8A8A" stroke-miterlimit="10"/>
<path d="M228.875 448.363H280.768" stroke="#8A8A8A" stroke-miterlimit="10"/>
<path d="M325.563 441.004H295.699" stroke="#8A8A8A" stroke-miterlimit="10"/>
<path d="M116.539 462.503H140.714V437.613H116.539V462.503Z" fill="white" stroke="#263238" stroke-miterlimit="10"/>
<path d="M144.335 437.398H351.021V411.943H144.335V437.398Z" fill="#263238" stroke="#263238" stroke-miterlimit="10"/>
<path d="M30.5913 437.398H237.277V411.943H30.5913V437.398Z" fill="white" stroke="#263238" stroke-miterlimit="10"/>
<path d="M235.847 418.725H185.373" stroke="#263238" stroke-miterlimit="10"/>
<path d="M225.9 424.377H152.671" stroke="#263238" stroke-miterlimit="10"/>
<path d="M196.739 429.475H209.536" stroke="#263238" stroke-miterlimit="10"/>
<path d="M214.521 429.475H235.131" stroke="#263238" stroke-miterlimit="10"/>
<path d="M31.8066 428.344H96.4968" stroke="#263238" stroke-miterlimit="10"/>
<path d="M37.4951 424.953H46.0228" stroke="#263238" stroke-miterlimit="10"/>
<path d="M85.8346 424.377H57.4014" stroke="#263238" stroke-miterlimit="10"/>
<path d="M31.8066 417.595H56.6857" stroke="#263238" stroke-miterlimit="10"/>
<path d="M348.183 422.681H335.386" stroke="#8A8A8A" stroke-miterlimit="10"/>
<path d="M351.021 428.344H311.21" stroke="#8A8A8A" stroke-miterlimit="10"/>
<path d="M239.401 431.735H258.603" stroke="#8A8A8A" stroke-miterlimit="10"/>
<path d="M237.267 422.681H289.171" stroke="#8A8A8A" stroke-miterlimit="10"/>
<path d="M333.955 415.334H304.103" stroke="#8A8A8A" stroke-miterlimit="10"/>
<path d="M124.93 436.833H149.105V411.943H124.93V436.833Z" fill="white" stroke="#263238" stroke-miterlimit="10"/>
<path d="M137.92 411.717H344.606V386.262H137.92V411.717Z" fill="#263238" stroke="#263238" stroke-miterlimit="10"/>
<path d="M24.1763 411.717H230.862V386.262H24.1763V411.717Z" fill="white" stroke="#263238" stroke-miterlimit="10"/>
<path d="M229.443 393.055H178.958" stroke="#263238" stroke-miterlimit="10"/>
<path d="M219.484 398.707H146.255" stroke="#263238" stroke-miterlimit="10"/>
<path d="M190.336 403.804H203.133" stroke="#263238" stroke-miterlimit="10"/>
<path d="M208.106 403.804H228.727" stroke="#263238" stroke-miterlimit="10"/>
<path d="M25.3906 402.674H90.0921" stroke="#263238" stroke-miterlimit="10"/>
<path d="M31.0801 399.272H39.6191" stroke="#263238" stroke-miterlimit="10"/>
<path d="M79.4309 398.707H50.9863" stroke="#263238" stroke-miterlimit="10"/>
<path d="M25.3906 391.925H50.2811" stroke="#263238" stroke-miterlimit="10"/>
<path d="M341.768 397.011H328.971" stroke="#8A8A8A" stroke-miterlimit="10"/>
<path d="M344.606 402.674H304.795" stroke="#8A8A8A" stroke-miterlimit="10"/>
<path d="M232.996 406.065H252.186" stroke="#8A8A8A" stroke-miterlimit="10"/>
<path d="M230.862 397.011H282.755" stroke="#8A8A8A" stroke-miterlimit="10"/>
<path d="M327.55 389.664H297.687" stroke="#8A8A8A" stroke-miterlimit="10"/>
<path d="M118.526 411.152H142.701V386.262H118.526V411.152Z" fill="white" stroke="#263238" stroke-miterlimit="10"/>
<path d="M509.118 99.2668H311.267V488.739H509.118V99.2668Z" fill="#263238" stroke="#263238" stroke-miterlimit="10"/>
<path d="M487.725 101.042V168.467" stroke="#8A8A8A" stroke-miterlimit="10"/>
<path d="M500.205 117.895V146.289" stroke="#8A8A8A" stroke-miterlimit="10"/>
<path d="M493.971 111.689V212.833" stroke="#8A8A8A" stroke-miterlimit="10"/>
<path d="M504.667 99.2668V231.461" stroke="#8A8A8A" stroke-miterlimit="10"/>
<path d="M489.509 487.846V418.646" stroke="#8A8A8A" stroke-miterlimit="10"/>
<path d="M496.639 488.739V473.66" stroke="#8A8A8A" stroke-miterlimit="10"/>
<path d="M498.422 468.336V407.116" stroke="#8A8A8A" stroke-miterlimit="10"/>
<path d="M490.405 409.784V309.533" stroke="#8A8A8A" stroke-miterlimit="10"/>
<path d="M481.491 99.2668H283.64V488.739H481.491V99.2668Z" fill="#A23834" stroke="#263238" stroke-miterlimit="10"/>
<path d="M464.561 126.825C460.694 126.816 456.977 125.334 454.173 122.684C451.369 120.033 449.69 116.415 449.481 112.571H315.672C315.468 116.421 313.788 120.045 310.978 122.698C308.168 125.35 304.442 126.827 300.57 126.825C299.675 126.823 298.781 126.739 297.901 126.576V453.494C298.782 453.337 299.675 453.254 300.57 453.246C303.186 453.246 305.757 453.92 308.034 455.203C310.311 456.486 312.214 458.334 313.56 460.568C314.906 462.801 315.648 465.343 315.714 467.946C315.779 470.55 315.166 473.126 313.935 475.423H451.196C449.961 473.126 449.345 470.549 449.409 467.945C449.473 465.34 450.215 462.796 451.561 460.562C452.907 458.328 454.813 456.479 457.091 455.197C459.37 453.915 461.943 453.242 464.561 453.246C465.456 453.254 466.348 453.337 467.229 453.494V126.519C466.351 126.702 465.458 126.804 464.561 126.825ZM378.557 352.995C347.296 352.995 321.963 325.596 321.963 291.787C321.963 257.979 347.296 230.568 378.557 230.568C409.818 230.568 435.151 257.979 435.151 291.787C435.151 325.596 409.806 352.995 378.557 352.995Z" fill="white" stroke="#263238" stroke-miterlimit="10"/>
<path d="M508.755 270.491H284.525V310.415H508.755V270.491Z" fill="white" stroke="#263238" stroke-miterlimit="10"/>
<path d="M508.755 270.491H481.923V310.415H508.755V270.491Z" fill="#3D3D3D" stroke="#8A8A8A" stroke-miterlimit="10"/>
<path d="M67.5859 464.515L60.9772 474.383L48.0664 484.556V488.75H92.2265L90.7163 474.055V467.477C90.7163 467.477 72.6957 459.723 67.5859 464.515Z" fill="#263238" stroke="#263238" stroke-miterlimit="10"/>
<path d="M91.8291 484.85H48.0664V488.738H92.2265L91.8291 484.85Z" fill="white" stroke="#263238" stroke-miterlimit="10"/>
<path d="M140.508 464.515L147.548 474.383L161.322 484.556V488.75H114.255L115.856 474.055V467.477C115.856 467.477 135.069 459.723 140.508 464.515Z" fill="#263238" stroke="#263238" stroke-miterlimit="10"/>
<path d="M114.675 484.85H161.322V488.738H114.255L114.675 484.85Z" fill="white" stroke="#263238" stroke-miterlimit="10"/>
<path d="M47.8848 259.844C47.8848 259.844 58.1952 375.681 58.9333 397.678C59.6714 419.674 66.6661 449.369 66.6661 449.369L63.4072 454.5L66.7229 465.86C66.7229 465.86 74.4558 464.029 78.5095 465.499C82.5633 466.968 89.8647 468.799 89.8647 468.799C89.8647 468.799 93.5551 458.897 93.9185 454.5C94.2818 450.103 89.524 439.467 89.524 439.467L88.7859 307.137H95.4173L112.336 447.164L111.598 455.597L114.914 468.799C114.914 468.799 134.434 464.764 135.898 464.391C137.017 464.223 138.161 464.352 139.214 464.764C139.214 464.764 141.485 459.994 141.485 458.524C141.485 457.055 138.533 448.634 138.533 448.634L137.795 383.017V258.747L47.9415 256.916L47.8848 259.844Z" fill="#A23834" stroke="#263238" stroke-miterlimit="10"/>
<path d="M134.628 311.003L136.638 354.826L128.064 355.595V361.032L134.298 361.416" stroke="#263238" stroke-linecap="round" stroke-linejoin="round"/>
<path d="M133.128 278.404L134.434 306.719" stroke="#263238" stroke-linecap="round" stroke-linejoin="round"/>
<path d="M129.381 387.042C129.665 394.875 130.289 401.668 131.572 402.143C134.695 403.273 135.467 404.471 135.467 404.471" stroke="#263238" stroke-linecap="round" stroke-linejoin="round"/>
<path d="M129.268 362.581C129.268 362.581 129.063 372.483 129.268 382.384" stroke="#263238" stroke-linecap="round" stroke-linejoin="round"/>
<path d="M79.748 303.226L95.3273 304.391" stroke="#263238" stroke-linecap="round" stroke-linejoin="round"/>
<path d="M84.8115 265.993L85.1976 287.718L92.2151 292.759" stroke="#263238" stroke-linecap="round" stroke-linejoin="round"/>
<path d="M92.2158 273.747L93.3854 300.513" stroke="#263238" stroke-linecap="round" stroke-linejoin="round"/>
<path d="M87.4004 397.893L87.9227 424.648" stroke="#263238" stroke-linecap="round" stroke-linejoin="round"/>
<path d="M85.584 304.786L87.2759 391.291" stroke="#263238" stroke-linecap="round" stroke-linejoin="round"/>
<path d="M117.151 277.24C117.151 277.24 122.613 288.487 132.742 284.994" stroke="#263238" stroke-linecap="round" stroke-linejoin="round"/>
<path d="M62.6011 277.24C62.6011 277.24 58.6949 285.774 52.4609 286.938" stroke="#263238" stroke-linecap="round" stroke-linejoin="round"/>
<path d="M85.7436 130.6L74.0364 134.115L64.2256 259.369L115.971 260.183L118.696 131.414L85.7436 130.6Z" fill="white" stroke="#263238" stroke-miterlimit="10"/>
<path d="M81.5766 125.694H78.8287L77.4434 129.266L77.9998 159.503L95.1233 148.516L111.963 164.454L114.177 128.441C114.177 128.441 115.006 126.791 112.519 125.694C110.033 124.598 109.204 124.315 109.204 124.315L81.5766 125.694Z" fill="white" stroke="#263238" stroke-miterlimit="10"/>
<path d="M79.9294 116.878L80.7583 129.311C80.7583 129.311 88.7069 146.628 94.0097 149.104C99.3126 151.579 111.417 128.486 111.417 128.486L110.588 114.741H79.6455L79.9294 116.878Z" fill="white" stroke="#263238" stroke-miterlimit="10"/>
<path d="M79.9297 116.878C79.9297 116.878 89.8654 138.354 95.6679 139.157C101.47 139.959 110.861 119.353 110.861 117.432C110.861 115.51 79.9297 116.878 79.9297 116.878Z" fill="#263238" stroke="#263238" stroke-miterlimit="10"/>
<path d="M74.6828 98.4755C74.6828 98.4755 69.8909 94.5645 69.2323 99.9902C68.5737 105.416 75.5571 110.412 75.5571 110.412L74.6828 98.4755Z" fill="white" stroke="#263238" stroke-miterlimit="10"/>
<path d="M113.631 98.4755C113.631 98.4755 118.434 94.5645 119.092 99.9902C119.751 105.416 112.768 110.412 112.768 110.412L113.631 98.4755Z" fill="white" stroke="#263238" stroke-miterlimit="10"/>
<path d="M73.8083 99.1198C73.8083 99.1198 76.4313 114.323 78.6115 117.138C80.7917 119.952 87.548 129.73 93.8728 131.47C100.198 133.211 110.02 121.049 111.973 116.923C113.926 112.797 114.596 94.5645 114.596 94.5645L114.38 84.7984C114.38 84.7984 113.722 77.632 110.883 73.721C108.044 69.81 95.8372 67.2102 87.7751 70.3073C79.713 73.4045 72.9453 87.3981 72.9453 90.224C72.9453 93.0499 73.8083 99.1198 73.8083 99.1198Z" fill="white" stroke="#263238" stroke-miterlimit="10"/>
<path d="M88.2073 82.1874C88.2073 82.1874 81.3942 90.0093 78.3964 91.524C77.0343 92.1489 75.721 92.8743 74.4676 93.6943L74.8991 102.816L71.413 90.3824C71.413 90.3824 67.0527 77.1912 67.9497 71.336C68.8468 65.4809 88.6615 59.8291 95.6449 57.6589C102.628 55.4886 105.24 59.8291 109.816 63.3106C114.392 66.792 119.195 69.3918 118.548 75.2583C117.984 79.3389 116.96 83.343 115.494 87.1948C115.494 87.1948 114.358 103.472 114.358 104.15C114.358 104.828 112.394 88.0878 112.394 88.0878C111.28 87.7962 110.275 87.1893 109.501 86.3406C108.727 85.4919 108.217 84.4379 108.033 83.3064C107.454 80.4423 107.074 77.5417 106.898 74.6253C106.898 74.6253 104.059 80.4918 101.22 83.3064C98.3815 86.121 91.4094 88.732 90.3193 88.5173C89.2292 88.3025 91.4548 83.0916 91.4548 83.0916L87.526 86.7879L88.2073 82.1874Z" fill="#263238" stroke="#263238" stroke-miterlimit="10"/>
<path d="M89.9561 112.582C91.0361 113.539 92.2936 114.276 93.6578 114.753C95.4065 115.182 98.461 112.582 99.3354 111.927" stroke="#263238" stroke-miterlimit="10"/>
<path d="M89.2969 118.664C89.2969 118.664 94.3158 122.563 101.072 118.008L89.2969 118.664Z" fill="white"/>
<path d="M89.2969 118.664C89.2969 118.664 94.3158 122.563 101.072 118.008" stroke="#263238" stroke-miterlimit="10"/>
<path d="M85.9135 104.772C86.6974 104.772 87.3329 103.704 87.3329 102.387C87.3329 101.07 86.6974 100.002 85.9135 100.002C85.1296 100.002 84.4941 101.07 84.4941 102.387C84.4941 103.704 85.1296 104.772 85.9135 104.772Z" fill="#263238"/>
<path d="M102.492 104.772C103.276 104.772 103.911 103.704 103.911 102.387C103.911 101.07 103.276 100.002 102.492 100.002C101.708 100.002 101.072 101.07 101.072 102.387C101.072 103.704 101.708 104.772 102.492 104.772Z" fill="#263238"/>
<path d="M99.1074 94.7795C100.513 94.0464 102.117 93.7772 103.687 94.0109C105.256 94.2445 106.711 94.969 107.84 96.0794" stroke="#263238" stroke-miterlimit="10"/>
<path d="M87.5492 94.5647C86.4383 93.9097 85.1315 93.664 83.8571 93.8706C82.5828 94.0772 81.4218 94.723 80.5771 95.6951" stroke="#263238" stroke-miterlimit="10"/>
<path d="M103.037 106.501L107.84 105.416" stroke="#263238" stroke-miterlimit="10"/>
<path d="M81.0078 105.201L84.9367 106.501" stroke="#263238" stroke-miterlimit="10"/>
<path d="M77.7148 157.344L75.228 276.03L46.8402 274.663L45.1255 271.396C45.1255 271.396 41.2648 271.396 40.7084 268.367C40.152 265.337 44.5691 198.816 44.5691 198.816L20.2578 196.612L36.5524 164.963C36.5524 164.963 41.526 142.966 42.6274 141.316C43.7289 139.665 78.2598 127.842 78.2598 127.842L77.7148 157.344Z" fill="#263238" stroke="#263238" stroke-miterlimit="10"/>
<path d="M113.075 127.141L109.021 276.347L145.471 275.974L146.948 270.48L150.627 267.914V256.181C150.627 250.315 143.632 207.791 143.632 207.791C143.632 207.791 162.05 205.225 162.413 201.563C162.777 197.901 154.68 142.548 150.263 138.512C145.846 134.477 113.075 127.141 113.075 127.141Z" fill="#263238" stroke="#263238" stroke-miterlimit="10"/>
<path d="M122.216 212.222L127.064 226.126C127.064 226.126 129.869 219.411 129.449 215.184C129.029 210.956 129.018 209.679 127.746 209.464C126.474 209.249 122.454 208.413 122.216 212.222Z" fill="white" stroke="#263238" stroke-miterlimit="10"/>
<path d="M73.7637 176.108L89.2861 206.797L105.66 198.749L91.841 166.364L73.7637 176.108Z" fill="#A23834" stroke="#263238" stroke-miterlimit="10"/>
<path d="M100.686 197.516C100.5 197.027 100.515 196.485 100.728 196.007C100.94 195.529 101.333 195.154 101.822 194.962C101.912 194.951 102.004 194.951 102.094 194.962L91.8746 171.123C91.7816 171.345 91.6394 171.544 91.4585 171.705C91.2777 171.865 91.0628 171.983 90.8299 172.05C90.4807 172.131 90.1152 172.105 89.7809 171.976C89.4467 171.847 89.1593 171.62 88.9563 171.326L78.1689 177.102C78.308 177.31 78.4116 177.539 78.4755 177.781C78.6261 178.213 78.6298 178.683 78.4862 179.118C78.3426 179.553 78.0596 179.929 77.6807 180.188L88.4567 201.427C88.6493 201.215 88.8967 201.058 89.1721 200.975C89.6292 200.889 90.1023 200.968 90.5061 201.198C90.91 201.428 91.2181 201.794 91.3749 202.23L100.72 197.641L100.686 197.516ZM91.4658 192.023C89.4786 192.577 87.3325 191.119 86.6626 188.756C85.9926 186.394 87.0486 184.02 89.0244 183.466C91.0002 182.912 93.1577 184.37 93.8277 186.733C94.4976 189.095 93.4416 191.458 91.4658 192.023Z" fill="white" stroke="#263238" stroke-miterlimit="10"/>
<path d="M80.4062 172.332L88.6955 205.678L106.455 201.461L100.198 166.828L80.4062 172.332Z" fill="#A23834" stroke="#263238" stroke-miterlimit="10"/>
<path d="M101.879 199.167C101.84 198.908 101.853 198.643 101.917 198.389C101.982 198.135 102.096 197.897 102.253 197.687C102.41 197.477 102.607 197.299 102.834 197.165C103.06 197.032 103.31 196.943 103.571 196.906C103.661 196.895 103.753 196.895 103.843 196.906L99.301 171.417C99.1588 171.612 98.9753 171.774 98.7634 171.891C98.5516 172.009 98.3164 172.078 98.0746 172.095C97.7137 172.093 97.3615 171.984 97.0625 171.783C96.7634 171.582 96.5308 171.297 96.3941 170.965L84.5166 174.299C84.6104 174.533 84.6642 174.782 84.6756 175.034C84.7251 175.489 84.6231 175.948 84.3851 176.34C84.1472 176.732 83.7864 177.036 83.3584 177.204L89.0927 200.297C89.3269 200.134 89.6023 200.04 89.8876 200.026C90.3515 200.037 90.7957 200.214 91.1381 200.526C91.4805 200.838 91.6978 201.262 91.7498 201.721L101.89 199.314L101.879 199.167ZM94.0663 191.752C92.011 191.865 90.2396 189.966 90.1147 187.513C89.9898 185.06 91.5454 182.991 93.6007 182.878C95.656 182.765 97.416 184.676 97.5523 187.129C97.6886 189.581 96.167 191.65 94.0663 191.752Z" fill="white" stroke="#263238" stroke-miterlimit="10"/>
<path d="M90.228 169.744L88.3203 204.05L106.545 205.203L110.769 170.264L90.228 169.744Z" fill="#A23834" stroke="#263238" stroke-miterlimit="10"/>
<path d="M102.844 201.665C102.928 201.147 103.214 200.684 103.639 200.375C104.064 200.066 104.595 199.936 105.115 200.014C105.21 200.037 105.302 200.071 105.388 200.116L108.499 174.39C108.307 174.538 108.084 174.641 107.846 174.692C107.608 174.743 107.362 174.74 107.125 174.683C106.78 174.58 106.475 174.377 106.248 174.098C106.021 173.82 105.884 173.481 105.853 173.124L93.5785 172.818C93.6005 173.065 93.5774 173.314 93.5104 173.553C93.4247 174.004 93.1927 174.413 92.8501 174.72C92.5074 175.026 92.0732 175.212 91.6141 175.249L90.2969 198.986C90.5751 198.906 90.8702 198.906 91.1485 198.986C91.5892 199.136 91.9606 199.439 92.1943 199.84C92.428 200.241 92.5083 200.712 92.4203 201.167L102.833 201.823C102.823 201.77 102.827 201.716 102.844 201.665ZM97.5982 192.317C95.6111 191.819 94.4756 189.491 95.0774 187.106C95.6792 184.721 97.7799 183.195 99.7784 183.715C101.777 184.235 102.89 186.552 102.299 188.937C101.709 191.322 99.5967 192.814 97.5982 192.317Z" fill="white" stroke="#263238" stroke-miterlimit="10"/>
<path d="M127.746 203.326C125.739 203.026 123.751 202.604 121.796 202.06C120.944 201.642 114.779 199.517 109.884 196.985C104.99 194.453 100.959 196.985 93.9873 198.251C87.0152 199.517 85.0508 199.947 85.0508 201.642C85.0508 203.338 88.6731 203.756 88.6731 203.756C88.6731 203.756 85.2665 204.174 86.9698 206.503C87.9731 207.886 89.3869 208.922 91.0122 209.464C91.9539 211.018 93.1785 212.382 94.6232 213.488C96.7466 214.969 98.2341 216.246 98.2341 216.246C99.5656 217.897 101.336 219.143 103.344 219.841C106.319 220.689 123.113 215.602 123.113 215.602C123.113 215.602 128.212 217.083 129.495 214.336C130.778 211.589 127.746 203.326 127.746 203.326Z" fill="white" stroke="#263238" stroke-linecap="round" stroke-linejoin="round"/>
<path d="M88.627 203.756C88.627 203.756 101.379 203.327 105.421 202.061" stroke="#263238" stroke-linecap="round" stroke-linejoin="round"/>
<path d="M90.9668 209.464C94.4817 210.024 98.0355 210.308 101.595 210.312C103.691 210.27 105.741 209.69 107.545 208.628" stroke="#263238" stroke-linecap="round" stroke-linejoin="round"/>
<path d="M96.3379 214.766C96.3379 214.766 103.775 217.026 108.829 215.399" stroke="#263238" stroke-linecap="round" stroke-linejoin="round"/>
<path d="M134.059 167.099L138.113 198.624L126.689 201.925C126.689 201.925 128.54 211.454 127.825 215.862C127.345 219.262 127.098 222.692 127.087 226.125C127.087 226.125 139.578 222.09 147.708 221.355C155.838 220.621 162.81 216.958 165.013 211.092C167.216 205.225 160.233 185.094 160.233 185.094" fill="#263238"/>
<path d="M134.059 167.099L138.113 198.624L126.689 201.925C126.689 201.925 128.54 211.454 127.825 215.862C127.345 219.262 127.098 222.692 127.087 226.125C127.087 226.125 139.578 222.09 147.708 221.355C155.838 220.621 162.81 216.958 165.013 211.092C167.216 205.225 160.233 185.094 160.233 185.094" stroke="#263238" stroke-miterlimit="10"/>
<path d="M132.549 200.998L138.113 198.635L152.193 194.871" stroke="#6B6B6B" stroke-miterlimit="10"/>
<path d="M138.113 198.635L133.741 161.402" stroke="#6B6B6B" stroke-miterlimit="10"/>
<path d="M66.1105 197.901C66.1105 197.901 63.567 186.688 62.4996 184.563C61.4322 182.438 55.6865 188.383 55.2664 190.282C54.8462 192.181 64.4072 198.116 66.1105 197.901Z" fill="white" stroke="#263238" stroke-miterlimit="10"/>
<path d="M60.5574 174.299L55.0615 180.72C55.0615 180.72 56.5945 190.124 57.8208 190.497C59.0472 190.87 67.8133 184.145 67.8133 184.145L60.5574 174.299Z" fill="white" stroke="#263238" stroke-miterlimit="10"/>
<path d="M70.7658 161.425C70.7658 161.425 61.1935 170.739 60.5462 174.333C59.899 177.928 66.712 184.71 67.5637 185.343C68.4153 185.976 74.5811 181.104 74.7855 180.256C74.9899 179.408 70.7545 172.852 70.7545 172.852C72.7055 173.804 74.6011 174.864 76.432 176.029C77.0679 176.662 81.1103 182.381 82.5979 181.952C84.0854 181.522 83.4495 178.775 82.5979 176.243C81.7462 173.711 72.6054 165.234 72.6054 165.234L78.7712 166.715C78.7712 166.715 86.0044 173.7 87.7077 173.7C89.4109 173.7 88.5593 172.005 87.4919 170.524C86.4245 169.043 81.3261 163.12 80.0543 161.639C78.7826 160.159 73.8885 159.311 73.2412 159.311C72.594 159.311 70.7658 161.425 70.7658 161.425Z" fill="white" stroke="#263238" stroke-linecap="round" stroke-linejoin="round"/>
<path d="M70.7661 172.852L67.791 169.891" stroke="#263238" stroke-linecap="round" stroke-linejoin="round"/>
<path d="M63.9648 173.497L71.6182 182.799" stroke="#263238" stroke-linecap="round" stroke-linejoin="round"/>
<path d="M54.8459 179.702C54.8459 179.702 56.3334 184.777 57.185 187.954C58.0367 191.13 66.1101 197.901 66.1101 197.901C66.1101 197.901 54.6301 209.961 44.4218 215.251C34.2136 220.542 22.2226 217.885 18.6116 213.658C15.0007 209.43 16.4882 197.155 19.4633 194.611C22.4383 192.068 39.7435 188.801 44.0017 186.473C48.2599 184.144 54.8459 179.702 54.8459 179.702Z" fill="#263238" stroke="#263238" stroke-miterlimit="10"/>
<path d="M54.8462 179.702L26.8672 193.312" stroke="#6B6B6B" stroke-miterlimit="10"/>
<path d="M51.2119 181.488V168.489" stroke="#6B6B6B" stroke-miterlimit="10"/>
<path d="M237.413 467.398C237.413 467.398 234.007 468.358 224.922 461.656C215.838 454.953 205.21 445.379 205.21 445.379C205.21 445.379 215.702 443.977 220.551 441.434C225.888 438.619 232.133 431.973 232.133 431.973C232.133 431.973 253.288 460.695 279.745 458.784C279.286 461.233 278.212 463.526 276.624 465.451C275.036 467.376 272.985 468.87 270.661 469.794C262.417 473.14 237.413 467.398 237.413 467.398Z" fill="#A23834" stroke="#263238" stroke-linejoin="round"/>
<path d="M271.74 462.074C271.74 462.074 249.279 456.207 237.141 443.378C236.556 443.537 235.943 443.564 235.346 443.458C234.749 443.352 234.184 443.115 233.69 442.764C233.197 442.414 232.788 441.958 232.493 441.431C232.198 440.904 232.025 440.318 231.986 439.716C227.742 443.682 222.301 446.142 216.509 446.712C216.509 446.712 216.872 449.278 215.771 450.013C215.771 450.013 233.076 465.047 243.023 466.878C249.927 468.253 256.994 468.633 264.007 468.008C267.036 467.69 269.88 466.405 272.115 464.346C272.115 464.346 268.424 463.543 271.74 462.074ZM250.529 461.249C249.722 463.227 245.714 463.509 241.569 461.791C237.425 460.073 234.756 457.168 235.506 455.201C236.255 453.235 240.32 452.941 244.465 454.659C248.61 456.377 251.323 459.282 250.529 461.249Z" fill="white" stroke="#263238" stroke-miterlimit="10"/>
<path d="M234.007 466.799C234.007 466.799 245.589 471.546 254.73 471.546C260.079 471.576 265.414 470.988 270.627 469.794C270.627 469.794 267.504 471.49 262.429 468.246C259.533 466.392 257.671 462.266 257.671 462.266C250.032 464.861 242.068 466.386 234.007 466.799Z" fill="#A23834" stroke="#263238" stroke-linejoin="round"/>
<path d="M364.113 418.522C364.113 418.522 385.2 411.615 397.531 403.42L410.647 424.897C410.647 424.897 379.284 449.21 371.051 442.813L364.113 418.522Z" fill="#A23834" stroke="#263238" stroke-linejoin="round"/>
<path d="M401.654 423.642C401.681 423.023 401.909 422.429 402.304 421.949C402.699 421.47 403.24 421.132 403.846 420.986L398.02 411.366C397.534 411.531 397.024 411.615 396.51 411.615C395.886 411.648 395.263 411.53 394.695 411.27C394.128 411.01 393.632 410.616 393.251 410.123C382.362 417.708 365.658 421.596 365.658 421.596L368.997 434.652C368.997 434.652 368.486 441.818 377.479 440.021C384.451 438.63 397.566 429.848 403.141 426.016C402.703 425.788 402.334 425.448 402.073 425.031C401.811 424.613 401.667 424.134 401.654 423.642ZM379.182 433.25C375.242 434.143 371.574 432.809 370.984 430.266C370.393 427.723 373.119 424.919 377.059 424.015C380.999 423.111 384.678 424.456 385.269 426.999C385.859 429.542 383.134 432.346 379.182 433.25Z" fill="white" stroke="#263238" stroke-miterlimit="10"/>
<path d="M361.025 408.801L375.423 437.206C375.423 437.206 370.541 439.761 371.052 442.858L357.176 415.73C357.176 415.73 355.37 411.355 361.025 408.801Z" fill="#A23834" stroke="#263238" stroke-linejoin="round"/>
<path d="M358.402 418.115L369.099 439.003C369.554 438 370.362 437.196 371.37 436.743L359.481 415.967L358.402 418.115Z" fill="white" stroke="#263238" stroke-miterlimit="10"/>
<path d="M204.767 259.979L204.994 314.417L233.54 314.292L233.631 258.747L204.767 259.979Z" fill="#A23834" stroke="#263238" stroke-miterlimit="10"/>
<path d="M227.285 309.07C227.309 308.664 227.415 308.266 227.595 307.9C227.776 307.535 228.028 307.209 228.337 306.942C228.646 306.674 229.005 306.471 229.393 306.343C229.782 306.216 230.192 306.167 230.6 306.199C230.744 306.229 230.884 306.27 231.021 306.324L230.964 264.874C230.711 265.101 230.411 265.268 230.085 265.364C229.758 265.46 229.415 265.482 229.079 265.428C228.578 265.305 228.125 265.04 227.774 264.664C227.423 264.289 227.19 263.82 227.103 263.314L209.889 264.049C209.945 264.401 209.945 264.759 209.889 265.111C209.831 265.755 209.56 266.361 209.118 266.834C208.676 267.307 208.088 267.619 207.447 267.722V306.154C207.865 305.987 208.32 305.936 208.764 306.007C209.472 306.212 210.086 306.655 210.501 307.262C210.915 307.868 211.104 308.6 211.035 309.33L227.341 309.262C227.285 309.172 227.273 309.116 227.285 309.07ZM217.837 294.76C214.669 294.184 212.58 290.601 213.17 286.746C213.761 282.892 216.838 280.235 219.983 280.823C223.129 281.411 225.252 284.983 224.65 288.837C224.048 292.692 220.971 295.348 217.837 294.76Z" fill="white" stroke="#263238" stroke-miterlimit="10"/>
<path d="M471.692 29.5811L431.881 69.2109L452.661 89.8963L493.517 49.7012L471.692 29.5811Z" fill="#A23834" stroke="#263238" stroke-miterlimit="10"/>
<path d="M451.958 81.6111C452.274 81.3291 452.645 81.1135 453.047 80.977C453.449 80.8405 453.875 80.7859 454.298 80.8165C454.722 80.8471 455.135 80.9622 455.514 81.155C455.892 81.3479 456.227 81.6144 456.5 81.9389C456.585 82.0669 456.657 82.2032 456.715 82.3458L487.09 52.2221C486.739 52.204 486.396 52.1072 486.087 51.9389C485.779 51.7706 485.512 51.5351 485.308 51.25C485.035 50.7962 484.902 50.2732 484.924 49.745C484.946 49.2169 485.123 48.7067 485.432 48.2772L472.397 36.239C472.174 36.5344 471.91 36.797 471.613 37.019C471.099 37.4452 470.455 37.687 469.786 37.7055C469.116 37.7239 468.46 37.518 467.923 37.1207L439.683 64.9272C440.106 65.1022 440.472 65.392 440.739 65.7636C441.112 66.4258 441.239 67.1975 441.098 67.9436C440.957 68.6897 440.556 69.3625 439.966 69.8442L451.833 81.6676L451.958 81.6111ZM455.591 64.3394C453.706 61.6153 454.83 57.4895 458.089 55.1271C461.348 52.7647 465.527 53.0812 467.4 55.8053C469.274 58.5294 468.15 62.6665 464.891 65.0176C461.632 67.3687 457.431 67.0183 455.591 64.2829V64.3394Z" fill="white" stroke="#263238" stroke-miterlimit="10"/>
<path d="M197.397 195.719L252.799 173.904L241.353 145.125L184.702 167.042L197.397 195.719Z" fill="#A23834" stroke="#263238" stroke-miterlimit="10"/>
<path d="M238.503 153.512C236.494 153.953 234.597 152.97 234.268 151.251C234.256 151.09 234.256 150.927 234.268 150.765L192.038 167.246C192.372 167.411 192.664 167.65 192.892 167.944C193.12 168.237 193.278 168.578 193.355 168.941C193.427 169.494 193.335 170.056 193.091 170.558C192.847 171.06 192.461 171.48 191.981 171.767L199.533 188.994C199.889 188.8 200.271 188.659 200.668 188.575C201.346 188.376 202.072 188.41 202.728 188.67C203.385 188.93 203.935 189.402 204.29 190.011L243.454 174.842C243.114 174.496 242.882 174.061 242.784 173.587C242.696 172.787 242.896 171.981 243.349 171.314C243.803 170.647 244.48 170.163 245.26 169.947L238.719 153.501L238.503 153.512ZM227.693 168.76C228.363 172.152 225.536 175.735 221.369 176.673C217.201 177.611 213.295 175.543 212.625 172.152C211.955 168.76 214.783 165.189 218.95 164.239C223.117 163.29 227.023 165.324 227.693 168.76Z" fill="white" stroke="#263238" stroke-miterlimit="10"/>
<path d="M392.898 29.4004C392.898 29.4004 396.305 30.2933 400.688 40.7038C405.071 51.1143 409.272 64.7236 409.272 64.7236C409.272 64.7236 399.529 60.5866 394.056 60.304C388.015 59.9988 379.238 62.5647 379.238 62.5647C379.238 62.5647 375.831 27.1058 352.11 15.2937C353.761 13.404 355.867 11.9633 358.231 11.1071C360.595 10.2509 363.138 10.0073 365.623 10.3993C374.366 11.7331 392.898 29.4004 392.898 29.4004Z" fill="#A23834" stroke="#263238" stroke-linejoin="round"/>
<path d="M360.673 16.4917C360.673 16.4917 376.956 33.006 380.805 50.1759C381.389 50.3394 381.928 50.6295 382.385 51.0254C382.842 51.4213 383.206 51.9131 383.449 52.4655C383.692 53.0179 383.809 53.617 383.792 54.2199C383.775 54.8228 383.623 55.4143 383.349 55.952C389.033 54.7241 394.965 55.3996 400.223 57.8736C400.223 57.8736 401.222 55.4773 402.551 55.4094C402.551 55.4094 395.397 33.6842 387.789 27.0491C382.552 22.3579 376.667 18.4372 370.313 15.4065C367.546 14.1469 364.445 13.8062 361.468 14.4344C361.468 14.4344 364.318 16.9212 360.673 16.4917ZM378.478 27.9986C380.17 26.7213 383.746 28.5524 386.426 32.1017C389.106 35.651 389.946 39.562 388.243 40.8506C386.54 42.1392 382.974 40.2967 380.295 36.7474C377.615 33.1982 376.808 29.2872 378.478 27.9986Z" fill="white" stroke="#263238" stroke-miterlimit="10"/>
<path d="M395.522 31.6497C395.522 31.6497 388.005 21.7026 380.147 17.0117C375.578 14.2584 370.705 12.0395 365.624 10.3992C365.624 10.3992 369.178 10.5348 371.869 15.9039C373.402 18.9785 372.891 23.466 372.891 23.466C380.779 25.1397 388.395 27.8938 395.522 31.6497Z" fill="#A23834" stroke="#263238" stroke-linejoin="round"/>
<path d="M99.0508 0.904297L104.535 20.9114C104.535 20.9114 77.1241 41.122 35.7119 35.4589L37.9829 13.8354C37.9829 13.8354 54.2208 17.0682 69.0392 14.0389C83.8577 11.0096 99.0508 0.904297 99.0508 0.904297Z" fill="#A23834" stroke="#263238" stroke-miterlimit="10"/>
<path d="M95.9172 20.0296C95.9744 19.5377 96.1812 19.0749 96.51 18.7032C96.8387 18.3315 97.2737 18.0686 97.7567 17.9498L94.5205 9.054C94.0483 9.21135 93.5536 9.29151 93.0557 9.29137C92.199 9.3054 91.36 9.04811 90.6597 8.55664C86.1177 10.9304 77.59 15.0674 69.085 16.8195C61.338 18.2032 53.4369 18.5227 45.6026 17.769C45.2992 18.0926 44.9258 18.3432 44.5107 18.5018C44.0956 18.6604 43.6496 18.7229 43.2067 18.6845L42.1279 30.8018C42.4005 30.8018 42.6843 30.8018 42.9682 30.8018C45.2392 30.8018 47.022 31.48 47.022 32.3165C47.0078 32.4507 46.9625 32.5798 46.8896 32.6936C46.8166 32.8074 46.7182 32.9027 46.6019 32.9721C72.9117 33.9668 91.3297 24.9127 96.9164 21.7478C96.6199 21.5662 96.3733 21.3142 96.1989 21.0143C96.0245 20.7144 95.9277 20.376 95.9172 20.0296ZM69.8799 26.3483C65.8601 27.1508 62.3401 26.4726 62.0108 24.8336C61.6815 23.1946 64.6679 21.2278 68.6876 20.4253C72.7073 19.6227 76.2274 20.3009 76.5567 21.9399C76.886 23.5789 73.8996 25.5457 69.8799 26.3483Z" fill="white" stroke="#263238" stroke-miterlimit="10"/>
<path d="M468.877 446.453L474.35 466.46C474.35 466.46 446.95 486.67 405.526 481.007L407.797 459.384C407.797 459.384 424.035 462.617 438.865 459.587C453.695 456.558 468.877 446.453 468.877 446.453Z" fill="#A23834" stroke="#263238" stroke-miterlimit="10"/>
<path d="M465.73 465.589C465.785 465.095 465.991 464.63 466.32 464.256C466.649 463.882 467.085 463.618 467.569 463.498L464.333 454.625C463.859 454.773 463.365 454.849 462.868 454.851C461.995 454.874 461.136 454.621 460.416 454.127C455.976 456.49 447.403 460.627 438.909 462.379C431.162 463.763 423.261 464.082 415.427 463.328C415.123 463.652 414.75 463.903 414.335 464.061C413.92 464.22 413.474 464.282 413.031 464.244L412.009 476.361C412.281 476.361 412.565 476.361 412.86 476.361C415.131 476.361 416.903 477.028 416.903 477.865C416.889 477.999 416.843 478.128 416.77 478.242C416.698 478.356 416.599 478.451 416.483 478.52C442.793 479.526 461.211 470.472 466.809 467.296C466.499 467.125 466.238 466.879 466.049 466.581C465.86 466.282 465.751 465.941 465.73 465.589ZM439.693 471.896C435.673 472.699 432.153 472.021 431.824 470.393C431.494 468.765 434.481 466.776 438.5 465.973C442.52 465.171 446.04 465.86 446.369 467.488C446.699 469.116 443.712 471.105 439.693 471.896Z" fill="white" stroke="#263238" stroke-miterlimit="10"/>
<path d="M181.773 26.4049C181.773 26.4049 202.849 19.4985 215.192 11.3035L228.307 32.78C228.307 32.78 196.944 57.1164 188.711 50.7186L181.773 26.4049Z" fill="#A23834" stroke="#263238" stroke-linejoin="round"/>
<path d="M219.302 31.5253C219.331 30.9049 219.561 30.3107 219.959 29.8317C220.356 29.3528 220.898 29.015 221.505 28.869L215.668 19.2497C215.186 19.4158 214.679 19.4999 214.169 19.4984C213.545 19.5317 212.922 19.4133 212.355 19.1533C211.787 18.8934 211.291 18.4997 210.91 18.0063C200.021 25.591 183.317 29.4794 183.317 29.4794L186.656 42.5348C186.656 42.5348 186.145 49.7012 195.138 47.904C202.099 46.5137 215.214 37.7309 220.801 33.899C220.36 33.6729 219.989 33.3334 219.726 32.9159C219.462 32.4984 219.316 32.0182 219.302 31.5253ZM196.841 41.1332C192.901 42.0262 189.222 40.6924 188.643 38.1491C188.064 35.6058 190.778 32.8026 194.718 31.8983C198.658 30.994 202.337 32.3391 202.928 34.8937C203.518 37.4483 200.804 40.2289 196.841 41.1332Z" fill="white" stroke="#263238" stroke-miterlimit="10"/>
<path d="M178.684 16.6838L193.082 45.0894C193.082 45.0894 188.199 47.644 188.71 50.7411L174.823 23.6129C174.823 23.6129 173.029 19.2384 178.684 16.6838Z" fill="#A23834" stroke="#263238" stroke-linejoin="round"/>
<path d="M176.061 25.998L186.746 46.8868C187.201 45.883 188.008 45.0792 189.017 44.6261L177.139 23.8503L176.061 25.998Z" fill="white" stroke="#263238" stroke-miterlimit="10"/>
<path d="M358.085 152.393L318.273 192.023L339.065 212.709L379.92 172.513L358.085 152.393Z" fill="#A23834" stroke="#263238" stroke-miterlimit="10"/>
<path d="M338.361 204.366C338.677 204.084 339.048 203.869 339.45 203.732C339.852 203.596 340.278 203.541 340.701 203.572C341.125 203.602 341.538 203.717 341.917 203.91C342.295 204.103 342.63 204.37 342.903 204.694C342.984 204.823 343.053 204.959 343.107 205.101L373.516 175.011C373.165 174.996 372.823 174.901 372.516 174.732C372.208 174.564 371.944 174.326 371.745 174.039C371.471 173.587 371.335 173.064 371.356 172.536C371.376 172.008 371.55 171.497 371.858 171.066L358.823 159.051C358.602 159.345 358.338 159.605 358.039 159.819C357.527 160.249 356.883 160.494 356.214 160.515C355.544 160.535 354.887 160.33 354.349 159.932L326.108 187.728C326.532 187.908 326.898 188.201 327.164 188.575C327.538 189.238 327.665 190.009 327.523 190.755C327.382 191.501 326.982 192.174 326.392 192.656L338.202 204.468L338.361 204.366ZM341.983 187.095C340.109 184.359 341.233 180.245 344.492 177.882C347.751 175.52 351.919 175.836 353.792 178.561C355.666 181.285 354.553 185.41 351.283 187.773C348.012 190.135 343.879 189.819 341.983 187.095Z" fill="white" stroke="#263238" stroke-miterlimit="10"/>
<path d="M430.859 249.094L485.262 254.734L488.214 226.476L432.756 220.383L430.859 249.094Z" fill="#A23834" stroke="#263238" stroke-miterlimit="10"/>
<path d="M482.32 232.094C481.917 232.026 481.532 231.879 481.187 231.661C480.842 231.443 480.544 231.159 480.311 230.826C480.077 230.492 479.913 230.116 479.827 229.718C479.741 229.321 479.735 228.91 479.81 228.511C479.859 228.37 479.92 228.234 479.992 228.104L438.58 223.684C438.781 223.959 438.917 224.276 438.978 224.61C439.039 224.945 439.023 225.289 438.932 225.617C438.76 226.091 438.454 226.505 438.052 226.81C437.649 227.115 437.166 227.297 436.661 227.335L435.525 244.482C435.885 244.47 436.244 244.508 436.593 244.595C437.231 244.723 437.807 245.06 438.231 245.551C438.655 246.043 438.902 246.661 438.932 247.308L477.278 251.502C477.153 251.074 477.153 250.619 477.278 250.191C477.551 249.505 478.058 248.936 478.71 248.585C479.362 248.233 480.117 248.122 480.844 248.269L482.524 232.128L482.32 232.094ZM467.013 240.006C466.093 243.081 462.289 244.765 458.508 243.759C454.727 242.753 452.399 239.43 453.319 236.355C454.239 233.281 458.054 231.596 461.835 232.603C465.616 233.609 467.933 236.864 467.013 239.95V240.006Z" fill="white" stroke="#263238" stroke-miterlimit="10"/>
<path d="M492.835 300.254C492.835 300.254 496.242 301.147 500.625 311.557C505.008 321.967 509.198 335.577 509.198 335.577C509.198 335.577 499.466 331.44 493.982 331.157C487.952 330.852 479.22 333.418 479.22 333.418C479.22 333.418 475.814 297.959 452.093 286.147C453.75 284.272 455.858 282.847 458.219 282.005C460.581 281.163 463.118 280.931 465.594 281.332C474.292 282.586 492.835 300.254 492.835 300.254Z" fill="#A23834" stroke="#263238" stroke-linejoin="round"/>
<path d="M460.598 287.334C460.598 287.334 476.892 303.814 480.742 321.029C481.326 321.19 481.866 321.477 482.325 321.872C482.783 322.266 483.147 322.757 483.391 323.31C483.634 323.862 483.751 324.461 483.733 325.064C483.715 325.666 483.562 326.258 483.285 326.794C488.963 325.559 494.891 326.227 500.148 328.693C500.148 328.693 501.158 326.297 502.475 326.229C502.475 326.229 495.333 304.504 487.714 297.869C482.487 293.168 476.609 289.24 470.261 286.203C467.493 284.944 464.392 284.603 461.415 285.231C461.415 285.231 464.243 287.775 460.598 287.334ZM478.402 298.841C480.106 297.563 483.671 299.395 486.351 302.944C489.031 306.493 489.871 310.404 488.168 311.693C486.465 312.981 482.899 311.139 480.219 307.59C477.54 304.04 476.733 300.141 478.402 298.852V298.841Z" fill="white" stroke="#263238" stroke-miterlimit="10"/>
<path d="M495.447 302.503C495.447 302.503 487.93 292.522 480.083 287.865C475.509 285.126 470.632 282.922 465.549 281.298C465.549 281.298 469.114 281.433 471.794 286.803C473.338 289.877 472.816 294.365 472.816 294.365C480.702 296.022 488.318 298.761 495.447 302.503Z" fill="#A23834" stroke="#263238" stroke-linejoin="round"/>
<path d="M466.514 169.586C466.514 169.586 448.13 181.963 438.501 193.198L419.958 176.085C419.958 176.085 443.452 144.164 453.126 148.086L466.514 169.586Z" fill="#A23834" stroke="#263238" stroke-linejoin="round"/>
<path d="M429.043 174.876C429.187 175.478 429.129 176.111 428.879 176.678C428.629 177.245 428.2 177.715 427.658 178.018L435.902 185.693C436.325 185.405 436.793 185.187 437.287 185.049C437.877 184.846 438.508 184.79 439.126 184.885C439.743 184.979 440.328 185.222 440.83 185.591C449.233 175.339 464.233 167.054 464.233 167.054L457.42 155.4C457.42 155.4 455.943 148.369 447.779 152.54C441.466 155.773 431.246 167.743 426.942 172.999C427.43 173.095 427.882 173.32 428.252 173.65C428.622 173.98 428.895 174.404 429.043 174.876ZM448.017 159.526C451.56 157.581 455.466 157.875 456.727 160.159C457.987 162.442 456.136 165.89 452.594 167.822C449.051 169.755 445.145 169.473 443.873 167.178C442.601 164.884 444.429 161.459 447.983 159.526H448.017Z" fill="white" stroke="#263238" stroke-miterlimit="10"/>
<path d="M472.192 178.097L450.549 154.688C450.549 154.688 454.546 150.901 453.206 148.086L474.009 170.399C474.009 170.399 476.893 174.096 472.192 178.097Z" fill="#A23834" stroke="#263238" stroke-linejoin="round"/>
<path d="M472.123 168.421L456.113 151.24C455.966 152.332 455.43 153.335 454.603 154.066L471.635 170.784L472.123 168.421Z" fill="white" stroke="#263238" stroke-miterlimit="10"/>
<path d="M0.567383 488.739H543.729" stroke="#263238" stroke-linecap="round" stroke-linejoin="round"/>
</g>
<defs>
<clipPath id="clip0_53_3492">
<rect width="546" height="493" fill="white"/>
</clipPath>
</defs>
</svg>
