<svg width="90" height="90" viewBox="0 0 90 90" fill="none" xmlns="http://www.w3.org/2000/svg">
<circle opacity="0.2" cx="50" cy="40" r="40" fill="#C0655D"/>
<path d="M67.5002 24.0625C67.5002 23.1997 66.8006 22.5 65.9377 22.5C65.0747 22.5 64.3752 23.1997 64.3752 24.0625V25.8387C62.572 26.4934 61.2767 28.2266 61.2767 30.2469C61.2767 32.8316 63.3795 34.9344 65.9642 34.9344C66.8258 34.9344 67.5267 35.6353 67.5267 36.4969C67.5267 37.3623 66.8255 38.0595 65.9664 38.0595C65.9617 38.0595 65.9569 38.0595 65.952 38.0594C65.2756 38.0533 64.5787 37.6452 63.9367 36.8791C63.3823 36.2175 62.3969 36.1308 61.7355 36.6855C61.0742 37.2398 60.9875 38.2252 61.5419 38.8866C62.368 39.872 63.3416 40.562 64.3753 40.9145V42.8125C64.3753 43.6753 65.0748 44.375 65.9378 44.375C66.8008 44.375 67.5003 43.6753 67.5003 42.8125V40.928C69.2997 40.3058 70.6519 38.5853 70.6519 36.4969C70.6519 33.9122 68.5491 31.8094 65.9644 31.8094C65.1028 31.8094 64.4019 31.1084 64.4019 30.2469C64.4019 29.3922 65.0966 28.6914 65.9487 28.6844C66.5016 28.683 67.0981 28.9628 67.6544 29.5009C68.2745 30.1011 69.2636 30.0852 69.8639 29.4648C70.4641 28.8447 70.4478 27.8556 69.8278 27.2555C69.0262 26.4797 68.2233 26.0434 67.5005 25.8081V24.0625H67.5002Z" fill="#21737C"/>
<path d="M73.6098 12.2094C73.8298 11.7256 73.7889 11.1636 73.5012 10.7167C73.2136 10.2698 72.7188 10 72.1875 10H59.6875C59.1562 10 58.6614 10.27 58.3738 10.7167C58.0861 11.1634 58.0452 11.7256 58.2652 12.2094L60.663 17.4823C56.2172 22.1927 51.875 30.2823 51.875 36.5625V39.6875C51.875 46.6384 57.0006 50.625 65.9375 50.625C74.8744 50.625 80 46.6384 80 39.6875V36.5625C80 30.2823 75.6578 22.1927 71.212 17.4822L73.6098 12.2094ZM69.7605 13.125L68.3394 16.25H63.5356L62.1145 13.125H69.7605ZM76.875 36.5625V39.6875C76.875 45.6583 71.9023 47.5 65.9375 47.5C59.9705 47.5 55 45.657 55 39.6875V36.5625C55 31.0242 59.1616 23.4972 63.1753 19.375H68.6995C72.7134 23.4972 76.875 31.0242 76.875 36.5625Z" fill="#21737C"/>
<path d="M46.2766 51.4969C45.415 51.4969 44.7141 50.7959 44.7141 49.9344C44.7141 49.0797 45.4087 48.3789 46.2609 48.3719C46.2647 48.3719 46.2686 48.3717 46.2725 48.3717C46.8289 48.3717 47.4144 48.6541 47.9666 49.1884C48.5867 49.7888 49.5758 49.7725 50.1761 49.1523C50.7762 48.5322 50.76 47.5431 50.14 46.943C49.3384 46.1672 48.5355 45.7309 47.8127 45.4956V43.75C47.8127 42.8872 47.1131 42.1875 46.2502 42.1875C45.3872 42.1875 44.6877 42.8872 44.6877 43.75V45.5262C42.8845 46.1809 41.5892 47.9141 41.5892 49.9344C41.5892 52.5191 43.692 54.6219 46.2767 54.6219C47.1383 54.6219 47.8392 55.3228 47.8392 56.1844C47.8392 57.0498 47.138 57.747 46.2789 57.747C46.2742 57.747 46.2694 57.747 46.2645 57.7469C45.5881 57.7408 44.8912 57.3327 44.2492 56.5666C43.6948 55.9052 42.7092 55.8183 42.048 56.373C41.3867 56.9273 41.3 57.9127 41.8544 58.5741C42.6805 59.5595 43.6541 60.2495 44.6878 60.602V62.5C44.6878 63.3628 45.3873 64.0625 46.2503 64.0625C47.1133 64.0625 47.8128 63.3628 47.8128 62.5V60.6155C49.6122 59.9933 50.9644 58.2728 50.9644 56.1844C50.9641 53.5997 48.8612 51.4969 46.2766 51.4969Z" fill="#21737C"/>
<path d="M27.5145 60.8719C26.8381 60.8658 26.1412 60.4577 25.4992 59.6916C24.9448 59.03 23.9594 58.9434 23.298 59.498C22.6367 60.0523 22.55 61.0377 23.1044 61.6991C23.9305 62.6845 24.9041 63.3745 25.9378 63.727V65.625C25.9378 66.4878 26.6373 67.1875 27.5003 67.1875C28.3633 67.1875 29.0628 66.4878 29.0628 65.625V63.7405C30.8622 63.1183 32.2144 61.3978 32.2144 59.3094C32.2144 56.7247 30.1116 54.6219 27.5269 54.6219C26.6653 54.6219 25.9644 53.9209 25.9644 53.0594C25.9644 52.2047 26.6591 51.5039 27.5112 51.4969C27.515 51.4969 27.5189 51.4967 27.5228 51.4967C28.0792 51.4967 28.6647 51.7791 29.2169 52.3134C29.837 52.9138 30.8261 52.8975 31.4264 52.2773C32.0266 51.6572 32.0103 50.6681 31.3903 50.068C30.5887 49.2922 29.7858 48.8559 29.063 48.6206V46.875C29.063 46.0122 28.3634 45.3125 27.5005 45.3125C26.6375 45.3125 25.938 46.0122 25.938 46.875V48.6512C24.1348 49.3059 22.8395 51.0391 22.8395 53.0594C22.8395 55.6441 24.9423 57.7469 27.527 57.7469C28.3886 57.7469 29.0895 58.4478 29.0895 59.3094C29.0892 60.1756 28.3789 60.8856 27.5145 60.8719Z" fill="#21737C"/>
<path d="M4.35434 67.9491C5.18043 68.9345 6.15403 69.6245 7.18778 69.977V71.875C7.18778 72.7378 7.88731 73.4375 8.75028 73.4375C9.61325 73.4375 10.3128 72.7378 10.3128 71.875V69.9905C12.1122 69.3683 13.4643 67.6478 13.4643 65.5594C13.4643 62.9747 11.3615 60.8719 8.77684 60.8719C7.91528 60.8719 7.21434 60.1709 7.21434 59.3094C7.21434 58.4547 7.90903 57.7539 8.76122 57.7469C8.76497 57.7469 8.76887 57.7467 8.77278 57.7467C9.32918 57.7467 9.91465 58.0291 10.4668 58.5634C11.087 59.1638 12.0761 59.1475 12.6764 58.5273C13.2765 57.9072 13.2603 56.9181 12.6403 56.318C11.8387 55.5422 11.0357 55.1059 10.3129 54.8706V53.125C10.3129 52.2622 9.6134 51.5625 8.75043 51.5625C7.88747 51.5625 7.18793 52.2622 7.18793 53.125V54.9013C5.38481 55.5559 4.0895 57.2891 4.0895 59.3094C4.0895 61.8941 6.19231 63.9969 8.777 63.9969C9.63856 63.9969 10.3395 64.6978 10.3395 65.5594C10.3395 66.4248 9.63825 67.122 8.77918 67.122C8.7745 67.122 8.76965 67.122 8.76481 67.1219C8.0884 67.1158 7.39153 66.7077 6.7495 65.9416C6.19512 65.28 5.20965 65.1933 4.54825 65.748C3.88668 66.3023 3.79997 67.2878 4.35434 67.9491Z" fill="#21737C"/>
<path d="M54.5312 88.4375V68.75C54.5312 67.8872 53.8317 67.1875 52.9688 67.1875H40C39.137 67.1875 38.4375 67.8872 38.4375 68.75V88.4375C38.4375 89.3003 39.137 90 40 90H52.9688C53.8317 90 54.5312 89.3003 54.5312 88.4375ZM51.4062 86.875H41.5625V70.3125H51.4062V86.875Z" fill="#21737C"/>
<path d="M19.2188 71.875V88.4375C19.2188 89.3003 19.9183 90 20.7812 90H33.75C34.613 90 35.3125 89.3003 35.3125 88.4375V71.875C35.3125 71.0122 34.613 70.3125 33.75 70.3125H20.7812C19.9183 70.3125 19.2188 71.0122 19.2188 71.875ZM22.3438 73.4375H32.1875V86.875H22.3438V73.4375Z" fill="#21737C"/>
<path d="M1.5625 90H14.5312C15.3942 90 16.0938 89.3003 16.0938 88.4375V78.125C16.0938 77.2622 15.3942 76.5625 14.5312 76.5625H1.5625C0.699531 76.5625 0 77.2622 0 78.125V88.4375C0 89.3003 0.699531 90 1.5625 90ZM3.125 79.6875H12.9688V86.875H3.125V79.6875Z" fill="#21737C"/>
<path d="M5.50762 42.1919C4.64715 42.2567 4.00215 43.007 4.06699 43.8675C4.12887 44.688 4.81387 45.3125 5.6234 45.3125C5.66277 45.3125 5.70262 45.3111 5.74262 45.3081C23.6495 43.958 35.5731 35.7334 47.8126 22.7359V25C47.8126 25.8628 48.5121 26.5625 49.3751 26.5625C50.2381 26.5625 50.9376 25.8628 50.9376 25V18.75C50.9376 17.8872 50.2381 17.1875 49.3751 17.1875H43.1251C42.2621 17.1875 41.5626 17.8872 41.5626 18.75C41.5626 19.6128 42.2621 20.3109 43.1251 20.3109H45.8003C35.509 31.2661 24.2587 40.7781 5.50762 42.1919Z" fill="#A23834"/>
<path d="M72.1875 73.4375C73.0504 73.4375 73.75 72.7379 73.75 71.875C73.75 71.0121 73.0504 70.3125 72.1875 70.3125C71.3246 70.3125 70.625 71.0121 70.625 71.875C70.625 72.7379 71.3246 73.4375 72.1875 73.4375Z" fill="#21737C"/>
<path d="M73.75 56.25C73.75 55.3872 73.0505 54.6875 72.1875 54.6875H59.2188C58.3558 54.6875 57.6562 55.3872 57.6562 56.25V88.4375C57.6562 89.3003 58.3558 90 59.2188 90H72.1875C73.0505 90 73.75 89.3003 73.75 88.4375V78.9064C73.75 78.0436 73.0505 77.3439 72.1875 77.3439C71.3245 77.3439 70.625 78.0436 70.625 78.9064V86.875H60.7812V57.8125H70.625V64.8438C70.625 65.7066 71.3245 66.4062 72.1875 66.4062C73.0505 66.4062 73.75 65.7066 73.75 64.8438V56.25Z" fill="#21737C"/>
</svg>
