<svg width="90" height="90" viewBox="0 0 90 90" fill="none" xmlns="http://www.w3.org/2000/svg">
<circle opacity="0.2" cx="50" cy="40" r="40" fill="#C0655D"/>
<g clip-path="url(#clip0_41_1176)">
<path d="M49.6872 55.4887C48.8244 55.4887 48.1247 56.1884 48.1247 57.0512V71.9917L19.9997 59.0076V41.0064L48.1247 28.0095V42.9886C48.1247 43.8514 48.8244 44.5511 49.6872 44.5511C50.55 44.5511 51.2497 43.8514 51.2497 42.9886V25.5662C51.2497 25.0333 50.9781 24.537 50.5291 24.2498C50.08 23.9628 49.5159 23.9243 49.0317 24.1479L18.0938 38.4448H5.38719C2.41672 38.4448 0 40.8614 0 43.8317V56.1826C0 59.1531 2.41672 61.5698 5.38719 61.5698H8.85156L13.613 76.7945C13.8169 77.4467 14.4209 77.8908 15.1042 77.8908H23.5417C24.0389 77.8908 24.5063 77.6542 24.8008 77.2537C25.0952 76.8533 25.1816 76.3364 25.033 75.862L20.98 62.9022L49.0323 75.8526C49.2409 75.9489 49.4644 75.9965 49.687 75.9965C49.9811 75.9965 50.2739 75.9136 50.5292 75.7503C50.9781 75.4631 51.2497 74.9669 51.2497 74.434V57.0512C51.2497 56.1883 50.5502 55.4887 49.6872 55.4887ZM3.125 56.1826V43.8317C3.125 42.5845 4.13969 41.5697 5.38719 41.5697H16.8748V58.4447H5.38719C4.13969 58.4448 3.125 57.4301 3.125 56.1826ZM16.2528 74.7658L12.1259 61.5698H17.2891L21.4159 74.7658H16.2528Z" fill="#21737C"/>
<path d="M61.5625 48.4375H56.5625C55.6997 48.4375 55 49.1372 55 50C55 50.8628 55.6997 51.5625 56.5625 51.5625H61.5625C62.4253 51.5625 63.125 50.8628 63.125 50C63.125 49.1372 62.4255 48.4375 61.5625 48.4375Z" fill="#21737C"/>
<path d="M73.4375 43.4375C69.8189 43.4375 66.875 46.3814 66.875 50C66.875 53.6186 69.8189 56.5625 73.4375 56.5625C77.0561 56.5625 80 53.6186 80 50C80 46.3814 77.0561 43.4375 73.4375 43.4375ZM73.4375 53.4375C71.542 53.4375 70 51.8955 70 50C70 48.1045 71.542 46.5625 73.4375 46.5625C75.333 46.5625 76.875 48.1045 76.875 50C76.875 51.8955 75.333 53.4375 73.4375 53.4375Z" fill="#A23834"/>
<path d="M61.5625 23.4375H56.5625C55.6997 23.4375 55 24.1372 55 25C55 25.8628 55.6997 26.5625 56.5625 26.5625H61.5625C62.4253 26.5625 63.125 25.8628 63.125 25C63.125 24.1372 62.4255 23.4375 61.5625 23.4375Z" fill="#21737C"/>
<path d="M73.4375 31.5625C77.0561 31.5625 80 28.6186 80 25C80 21.3814 77.0561 18.4375 73.4375 18.4375C69.8189 18.4375 66.875 21.3814 66.875 25C66.875 28.6186 69.8189 31.5625 73.4375 31.5625ZM73.4375 21.5625C75.333 21.5625 76.875 23.1045 76.875 25C76.875 26.8955 75.333 28.4375 73.4375 28.4375C71.542 28.4375 70 26.8955 70 25C70 23.1045 71.542 21.5625 73.4375 21.5625Z" fill="#A23834"/>
<path d="M61.5625 73.4375H56.5625C55.6997 73.4375 55 74.1372 55 75C55 75.8628 55.6997 76.5625 56.5625 76.5625H61.5625C62.4253 76.5625 63.125 75.8628 63.125 75C63.125 74.1372 62.4255 73.4375 61.5625 73.4375Z" fill="#21737C"/>
<path d="M73.4375 68.4375C69.8189 68.4375 66.875 71.3814 66.875 75C66.875 78.6186 69.8189 81.5625 73.4375 81.5625C77.0561 81.5625 80 78.6186 80 75C80 71.3814 77.0561 68.4375 73.4375 68.4375ZM73.4375 78.4375C71.542 78.4375 70 76.8955 70 75C70 73.1045 71.542 71.5625 73.4375 71.5625C75.333 71.5625 76.875 73.1045 76.875 75C76.875 76.8955 75.333 78.4375 73.4375 78.4375Z" fill="#A23834"/>
<path d="M31.5213 47.8358C31.2282 47.5428 30.8309 47.3781 30.4165 47.3781C30.0021 47.3781 29.6046 47.5428 29.3116 47.8358L23.9645 53.1831C23.3543 53.7933 23.3543 54.7826 23.9645 55.393C24.2696 55.698 24.6695 55.8506 25.0693 55.8506C25.4691 55.8506 25.869 55.698 26.1741 55.393L30.4163 51.1506L33.8671 54.6014C34.4774 55.2114 35.4665 55.2114 36.077 54.6014L41.891 48.7873C41.9957 49.5486 42.6471 50.1355 43.4371 50.1355C44.2999 50.1355 44.9996 49.4358 44.9996 48.573V45.0312C44.9996 44.1684 44.2999 43.4688 43.4371 43.4688H39.8955C39.0327 43.4688 38.333 44.1684 38.333 45.0312C38.333 45.8212 38.9201 46.4727 39.6812 46.5773L34.972 51.2866L31.5213 47.8358Z" fill="#A23834"/>
<path d="M49.6875 48.4579C49.2766 48.4579 48.8734 48.6235 48.5828 48.9157C48.2906 49.2063 48.125 49.6094 48.125 50.0204C48.125 50.4313 48.2906 50.8344 48.5828 51.1251C48.8734 51.4155 49.2766 51.5829 49.6875 51.5829C50.0984 51.5829 50.5016 51.4157 50.792 51.1251C51.0827 50.8344 51.25 50.4313 51.25 50.0204C51.25 49.6079 51.0828 49.2063 50.792 48.9157C50.5016 48.6234 50.0984 48.4579 49.6875 48.4579Z" fill="#21737C"/>
</g>
<defs>
<clipPath id="clip0_41_1176">
<rect width="80" height="80" fill="white" transform="translate(0 10)"/>
</clipPath>
</defs>
</svg>
