<svg width="90" height="90" viewBox="0 0 90 90" fill="none" xmlns="http://www.w3.org/2000/svg">
<circle opacity="0.2" cx="50" cy="40" r="40" fill="#C0655D"/>
<path d="M69.2389 63.1277C70.2592 61.7935 70.867 60.1279 70.867 58.3224V55.5547C70.867 51.1833 67.3106 47.6271 62.9394 47.6271C58.5681 47.6271 55.0117 51.1835 55.0117 55.5547V58.3224C55.0117 60.1268 55.6187 61.7913 56.6378 63.1251H47.7689C49.9116 61.0755 51.25 58.1921 51.25 55.0001V47.8047C51.25 41.6015 46.2033 36.5547 40 36.5547C33.7967 36.5547 28.75 41.6015 28.75 47.8047V55.0001C28.75 58.1921 30.0884 61.0755 32.2309 63.1251H23.362C24.3811 61.7912 24.9881 60.1266 24.9881 58.3224V55.5547C24.9881 51.1833 21.4317 47.6271 17.0605 47.6271C12.6892 47.6271 9.13281 51.1833 9.13281 55.5547V58.3224C9.13281 60.128 9.74078 61.7935 10.7609 63.1277C4.81781 63.1849 0 68.0352 0 73.9916V79.9088C0 80.7716 0.699688 81.4713 1.5625 81.4713H14.0625V88.4376C14.0625 89.3004 14.7622 90.0001 15.625 90.0001H20.0002C20.863 90.0001 21.5627 89.3004 21.5627 88.4376C21.5627 87.5747 20.863 86.8751 20.0002 86.8751H17.1875V79.2626C17.1875 72.4335 22.4766 66.8204 29.1728 66.2943L37.665 86.8751H34.0617C33.1989 86.8751 32.4992 87.5747 32.4992 88.4376C32.4992 89.3004 33.1989 90.0001 34.0617 90.0001H64.375C65.2378 90.0001 65.9375 89.3004 65.9375 88.4376V81.4713H78.4375C79.3003 81.4713 80 80.7716 80 79.9088V73.9916C80 68.0352 75.1822 63.1849 69.2389 63.1277ZM58.1367 58.3224V55.5547C58.1367 52.9066 60.2913 50.7521 62.9394 50.7521C65.5875 50.7521 67.742 52.9066 67.742 55.5547V58.3224C67.742 60.9705 65.5875 63.1251 62.9394 63.1251C60.2913 63.1251 58.1367 60.9705 58.1367 58.3224ZM40 39.6797C44.4802 39.6797 48.125 43.3246 48.125 47.8047V47.8204H48.1183C45.5323 47.8204 43.0211 47.0713 40.8556 45.6544C40.3359 45.3141 39.6642 45.3141 39.1445 45.6544C36.9791 47.0713 34.4677 47.8204 31.8819 47.8204H31.875V47.8047C31.875 43.3246 35.5198 39.6797 40 39.6797ZM31.875 55.0001V50.9454H31.8817C34.742 50.9454 37.5281 50.204 40 48.7929C42.4719 50.204 45.258 50.9454 48.1183 50.9454H48.125V55.0001C48.125 59.4802 44.4802 63.1251 40 63.1251C35.5198 63.1251 31.875 59.4802 31.875 55.0001ZM12.2578 55.5547C12.2578 52.9066 14.4123 50.7521 17.0605 50.7521C19.7086 50.7521 21.8631 52.9066 21.8631 55.5547V58.3224C21.8631 60.9705 19.7086 63.1251 17.0605 63.1251C14.4123 63.1251 12.2578 60.9705 12.2578 58.3224V55.5547ZM14.0891 78.3463H3.125V73.9916C3.125 69.723 6.59797 66.2501 10.8666 66.2501H20.6675C16.8962 69.0202 14.3681 73.3874 14.0891 78.3463ZM32.5586 66.2501H38.4375V70.0001C38.4375 70.8629 39.1372 71.5626 40 71.5626C40.8628 71.5626 41.5625 70.8629 41.5625 70.0001V66.2501H47.4414H47.4648L40 84.3412L32.5352 66.2501H32.5586ZM62.8125 86.8751H42.335L50.8272 66.2944C57.5234 66.8204 62.8125 72.4335 62.8125 79.2626V86.8751ZM76.875 78.3463H65.9109C65.6319 73.3874 63.1037 69.0202 59.3325 66.2501H69.1334C73.402 66.2501 76.875 69.723 76.875 73.9916V78.3463Z" fill="#21737C"/>
<path d="M29.2663 22.0383L32.996 24.7358L31.5695 29.0939C31.1471 30.3844 31.584 31.7339 32.6826 32.532C33.781 33.3302 35.1996 33.3287 36.2963 32.5281L40.0002 29.8245L43.7041 32.528C44.2535 32.9289 44.8834 33.1295 45.5137 33.1295C46.1415 33.1295 46.7696 32.9303 47.3179 32.532C48.4165 31.7341 48.8534 30.3844 48.431 29.0938L47.0045 24.7358L50.7341 22.0383C51.8332 21.2434 52.2735 19.8959 51.8557 18.6055C51.4379 17.3152 50.2916 16.4814 48.9356 16.4814H44.3293L42.9212 12.1253C42.5035 10.8342 41.3573 10 40.0002 10C38.6432 10 37.497 10.8342 37.0795 12.1255L35.6713 16.4816H31.0651C29.7088 16.4816 28.5626 17.3153 28.1449 18.6056C27.727 19.8959 28.1673 21.2434 29.2663 22.0383ZM36.8084 19.6064C37.4862 19.6064 38.0866 19.1694 38.2952 18.5245L40.0006 13.2503L41.7052 18.5245C41.9138 19.1694 42.5143 19.6064 43.1921 19.6064L48.7635 19.6069L44.249 22.8717C43.6985 23.27 43.4684 23.9783 43.6796 24.6241L45.4068 29.9019L40.9213 26.628C40.647 26.4277 40.3235 26.3275 40.0001 26.3275C39.6766 26.3275 39.3532 26.4277 39.0788 26.628L34.5929 29.9017L36.3205 24.6241C36.532 23.9783 36.3018 23.27 35.7512 22.8717L31.2368 19.6066H36.8084V19.6064Z" fill="#A23834"/>
<path d="M27.0312 86.875C26.6203 86.875 26.2172 87.042 25.9266 87.3328C25.6359 87.6236 25.4688 88.0266 25.4688 88.4375C25.4688 88.8484 25.6358 89.2516 25.9266 89.542C26.2172 89.8327 26.6203 90 27.0312 90C27.4422 90 27.8453 89.8328 28.1358 89.542C28.4266 89.2516 28.5938 88.8484 28.5938 88.4375C28.5938 88.0266 28.4266 87.6234 28.1358 87.3328C27.8453 87.042 27.4422 86.875 27.0312 86.875Z" fill="#21737C"/>
</svg>
