<svg width="90" height="90" viewBox="0 0 90 90" fill="none" xmlns="http://www.w3.org/2000/svg">
<circle opacity="0.2" cx="50" cy="40" r="40" fill="#C0655D"/>
<g clip-path="url(#clip0_41_1191)">
<path d="M21.9507 21.2167C22.3278 21.2167 22.7062 21.0809 23.006 20.8061L23.0089 20.8036C23.6449 20.2204 23.6867 19.2333 23.1034 18.5972C22.5207 17.9611 21.5307 17.9194 20.8945 18.5025C20.2582 19.0856 20.2153 20.074 20.7985 20.7101C21.1067 21.0462 21.5279 21.2167 21.9507 21.2167Z" fill="#21737C"/>
<path d="M74.677 41.4897C74.5312 32.9083 71.0709 24.9156 64.9338 18.9844C58.798 13.0549 50.685 9.86474 42.108 10.0043C36.489 10.095 30.9819 11.6636 26.182 14.5408C25.442 14.9844 25.2015 15.9441 25.6451 16.6843C26.0885 17.4244 27.048 17.6649 27.7887 17.2211C32.1183 14.6258 37.0874 13.2107 42.1583 13.1288C42.3169 13.1263 42.4743 13.125 42.6324 13.125C58.3561 13.125 71.2847 25.7764 71.5525 41.543C71.6731 48.645 69.1925 56.9139 65.233 62.6089C63.4136 65.2256 62.452 68.2974 62.452 71.4926V75.953L35.5346 86.1729V82.1949C35.5346 78.8351 32.8012 76.1015 29.4412 76.1015H24.1512C20.769 76.1015 18.0171 73.3498 18.0171 69.9674V61.0342C18.0171 60.1712 17.3174 59.4717 16.4546 59.4717H8.93527L13.6567 42.4647C13.6943 42.3286 13.7135 42.188 13.7135 42.0467C13.7135 35.9898 15.5654 30.1911 19.0687 25.2771C19.5696 24.5744 19.406 23.5986 18.7034 23.0977C18.0012 22.5967 17.0253 22.7602 16.5242 23.4628C12.6824 28.8513 10.6326 35.198 10.5893 41.8312L5.37434 60.6162C5.24371 61.0867 5.34059 61.591 5.63606 61.9798C5.93152 62.3685 6.39168 62.5967 6.87996 62.5967H14.8921V69.9673C14.8921 75.0727 19.0457 79.2263 24.1512 79.2263H29.441C31.0779 79.2263 32.4094 80.5579 32.4094 82.1948V88.4372C32.4094 88.9508 32.6618 89.4316 33.0846 89.7233C33.3491 89.9058 33.6593 89.9997 33.9721 89.9997C34.159 89.9997 34.3469 89.9661 34.5266 89.898L64.5691 78.4918C65.1758 78.2613 65.5769 77.6799 65.5769 77.031V71.4924C65.5769 68.9381 66.3452 66.4831 67.7987 64.3926C72.1747 58.099 74.8103 49.3233 74.677 41.4897Z" fill="#21737C"/>
<path d="M25.9902 43.0898C25.9909 48.7122 28.8013 53.913 33.5084 57.0018C34.3685 57.5662 34.9779 58.4533 35.197 59.4498V66.2421C35.197 66.6565 35.3616 67.054 35.6546 67.3469L38.7235 70.4157C39.0166 70.7087 39.414 70.8733 39.8284 70.8733H45.4171C45.8315 70.8733 46.2288 70.7087 46.522 70.4157L49.5909 67.3469C49.8838 67.054 50.0485 66.6565 50.0485 66.2421V59.4493C50.267 58.4505 50.8649 57.571 51.7049 57.0227C56.4327 53.936 59.2552 48.7268 59.2552 43.088C59.2552 38.6446 57.5246 34.4673 54.3821 31.3257C51.2407 28.1849 47.0649 26.4557 42.6227 26.4557C42.6213 26.4557 42.6195 26.4557 42.6182 26.4557C33.4484 26.458 25.9891 33.9201 25.9902 43.0898ZM46.9232 65.5949L44.7698 67.7483H40.4754L38.322 65.5949V60.8508H46.9234V65.5949H46.9232ZM42.6188 29.5805C42.6201 29.5805 42.6212 29.5805 42.6224 29.5805C46.2296 29.5805 49.6213 30.9851 52.1724 33.5355C54.7243 36.0869 56.1298 39.4793 56.1298 43.0879C56.1298 47.6673 53.8368 51.8983 49.996 54.406C48.7787 55.2007 47.8418 56.3721 47.3135 57.7258H37.9293C37.398 56.373 36.4526 55.196 35.2226 54.389C31.3987 51.8797 29.1154 47.6555 29.1149 43.0894C29.1145 35.6426 35.1721 29.5826 42.6188 29.5805Z" fill="#21737C"/>
<path d="M44.1855 22.0045V17.8126C44.1855 16.9497 43.4859 16.2501 42.623 16.2501C41.7602 16.2501 41.0605 16.9497 41.0605 17.8126V22.0047C41.0605 22.8676 41.7602 23.5672 42.623 23.5672C43.4859 23.5672 44.1855 22.8675 44.1855 22.0045Z" fill="#21737C"/>
<path d="M17.9854 43.1006C17.9854 43.9636 18.685 44.6631 19.5479 44.6631H21.9533C22.8161 44.6631 23.5158 43.9636 23.5158 43.1006C23.5158 42.2376 22.8161 41.5381 21.9533 41.5381H19.5479C18.685 41.5381 17.9854 42.2376 17.9854 43.1006Z" fill="#21737C"/>
<path d="M65.7234 44.6377C66.5863 44.6377 67.2859 43.9382 67.2859 43.0752C67.2859 42.2122 66.5863 41.5127 65.7234 41.5127H62.9688C62.1059 41.5127 61.4062 42.2122 61.4062 43.0752C61.4062 43.9382 62.1059 44.6377 62.9688 44.6377H65.7234Z" fill="#21737C"/>
<path d="M58.3266 29.5884L60.0568 27.8583C60.6669 27.2481 60.6669 26.2587 60.0568 25.6484C59.4465 25.0384 58.4574 25.0384 57.8469 25.6484L56.1168 27.3786C55.5066 27.9887 55.5066 28.9781 56.1168 29.5884C56.422 29.8934 56.8218 30.0461 57.2216 30.0461C57.6215 30.0461 58.0215 29.8934 58.3266 29.5884Z" fill="#21737C"/>
<path d="M26.9082 29.5884C27.2134 29.8935 27.6132 30.046 28.0131 30.046C28.4129 30.046 28.8128 29.8935 29.1179 29.5884C29.7281 28.9782 29.7281 27.9889 29.1179 27.3785L27.4057 25.6664C26.7954 25.0562 25.8064 25.0562 25.1959 25.6664C24.5857 26.2765 24.5857 27.2659 25.1959 27.8762L26.9082 29.5884Z" fill="#21737C"/>
<path d="M42.6357 47.6114C41.6623 47.6114 40.8701 46.9573 40.8701 46.1534C40.8701 45.2904 40.1704 44.5909 39.3076 44.5909C38.4448 44.5909 37.7451 45.2904 37.7451 46.1534C37.7451 48.1697 39.1423 49.8847 41.0765 50.4961C41.1112 51.3283 41.795 51.9928 42.6357 51.9928C43.4765 51.9928 44.1601 51.3283 44.195 50.4961C46.1293 49.8847 47.5265 48.1695 47.5265 46.1534C47.5265 43.6264 45.3326 41.5704 42.6357 41.5704C42.3789 41.5704 42.1315 41.5256 41.9004 41.437C41.9004 41.437 41.9003 41.437 41.9003 41.4369C41.2745 41.1967 40.8701 40.6769 40.8701 40.1125C40.8701 39.3086 41.6622 38.6545 42.6357 38.6545C43.6093 38.6545 44.4015 39.3086 44.4015 40.1125C44.4015 40.9754 45.1012 41.675 45.964 41.675C46.8268 41.675 47.5265 40.9754 47.5265 40.1125C47.5265 38.0973 46.1309 36.3831 44.1982 35.7708V35.72C44.1982 34.857 43.4986 34.1575 42.6357 34.1575C41.7729 34.1575 41.0732 34.857 41.0732 35.72V35.7708C39.1407 36.3831 37.7451 38.0973 37.7451 40.1125C37.7451 41.9815 38.9365 43.6465 40.7803 44.3544C40.7807 44.3545 40.7811 44.3547 40.7815 44.3548C41.3711 44.5809 41.9948 44.6954 42.6357 44.6954C43.6093 44.6954 44.4015 45.3495 44.4015 46.1534C44.4015 46.9573 43.6093 47.6114 42.6357 47.6114Z" fill="#A23834"/>
</g>
<defs>
<clipPath id="clip0_41_1191">
<rect width="80" height="80" fill="white" transform="translate(0 10)"/>
</clipPath>
</defs>
</svg>
