<svg width="90" height="89" viewBox="0 0 90 89" fill="none" xmlns="http://www.w3.org/2000/svg">
<circle opacity="0.2" cx="50" cy="40" r="40" fill="#C0655D"/>
<path d="M40 74.3171C26.0427 74.3171 14.6875 62.962 14.6875 49.0046C14.6875 35.0473 26.0427 23.6921 40 23.6921C44.12 23.6921 48.2102 24.7046 51.8284 26.6204C52.5911 27.0242 52.882 27.9698 52.4783 28.7325C52.0747 29.4951 51.1289 29.7859 50.3662 29.3823C47.1967 27.7042 43.6122 26.8171 40 26.8171C27.7658 26.8171 17.8125 36.7704 17.8125 49.0046C17.8125 61.2389 27.7658 71.1921 40 71.1921C52.2342 71.1921 62.1875 61.2389 62.1875 49.0046C62.1875 45.3523 61.2817 41.7325 59.5678 38.5362C59.16 37.7756 59.4459 36.8285 60.2064 36.4207C60.967 36.0131 61.9141 36.299 62.3219 37.0593C64.2784 40.7082 65.3125 44.8389 65.3125 49.0046C65.3125 62.962 53.9573 74.3171 40 74.3171Z" fill="#21737C"/>
<path d="M47.1875 89H32.8125C31.9495 89 31.25 88.3005 31.25 87.4375V82.4103C28.1995 81.6142 25.2873 80.4072 22.5642 78.8102L19.0078 82.3666C18.3978 82.9766 17.4083 82.9766 16.7981 82.3666L6.63344 72.2019C6.02328 71.5917 6.02328 70.6023 6.63344 69.9922L10.1911 66.4345C8.59484 63.7117 7.38859 60.7998 6.59312 57.75H1.5625C0.699531 57.75 0 57.0505 0 56.1875V41.8125C0 40.9495 0.699531 40.25 1.5625 40.25H6.59547C7.39156 37.2013 8.59828 34.2903 10.1944 31.5688L6.63328 28.0077C6.02312 27.3975 6.02312 26.4081 6.63328 25.798L16.798 15.6333C17.4081 15.0233 18.3977 15.0233 19.0077 15.6333L22.57 19.1956C25.2919 17.6003 28.2016 16.3945 31.25 15.5991V10.5625C31.25 9.69953 31.9495 9 32.8125 9H47.1875C48.0505 9 48.75 9.69953 48.75 10.5625V15.5991C51.7984 16.3945 54.7081 17.6003 57.43 19.1958L60.9923 15.6334C61.6023 15.0234 62.5919 15.0234 63.202 15.6334L73.3667 25.7981C73.9769 26.4083 73.9769 27.3977 73.3667 28.0078L69.8056 31.5689C71.4017 34.2905 72.6084 37.2014 73.4045 40.2502H78.4375C79.3005 40.2502 80 40.9497 80 41.8127V56.1877C80 57.0506 79.3005 57.7502 78.4375 57.7502H73.4069C72.6114 60.8002 71.405 63.712 69.8091 66.4348L73.3667 69.9925C73.9769 70.6027 73.9769 71.592 73.3667 72.2022L63.202 82.3669C62.9091 82.6598 62.5116 82.8245 62.0972 82.8245C61.6828 82.8245 61.2853 82.6598 60.9923 82.3669L57.4361 78.8105C54.713 80.4075 51.8008 81.6145 48.7502 82.4106V87.4375C48.75 88.3005 48.0505 89 47.1875 89ZM34.375 85.875H45.625V81.1806C45.625 80.4483 46.1334 79.8144 46.8483 79.6553C50.3989 78.8656 53.758 77.4734 56.8322 75.5173C57.45 75.1241 58.258 75.2128 58.7758 75.7308L62.0969 79.052L70.0519 71.097L66.7295 67.7747C66.2119 67.2569 66.1231 66.4491 66.5159 65.8312C68.4711 62.757 69.8623 59.3983 70.6514 55.8483C70.8103 55.1334 71.4444 54.6247 72.1767 54.6247H76.875V43.3747H72.1748C71.4427 43.3747 70.8087 42.8662 70.6497 42.1516C69.8598 38.6028 68.468 35.2452 66.5127 32.172C66.1195 31.5542 66.2083 30.7463 66.7261 30.2284L70.052 26.9025L62.097 18.9475L58.7702 22.275C58.2523 22.7927 57.4447 22.8816 56.8267 22.4886C53.7536 20.5342 50.3964 19.1431 46.8483 18.3541C46.1334 18.195 45.625 17.5611 45.625 16.8288V12.125H34.375V16.8288C34.375 17.5611 33.8666 18.195 33.1517 18.3541C29.6036 19.1431 26.2464 20.5342 23.1733 22.4886C22.5556 22.8817 21.7477 22.7927 21.2298 22.275L17.903 18.948L9.94797 26.903L13.2739 30.2289C13.7917 30.7467 13.8805 31.5547 13.4873 32.1725C11.532 35.2455 10.1402 38.603 9.35031 42.152C9.19125 42.8667 8.55719 43.3752 7.82516 43.3752H3.125V54.6252H7.82312C8.55547 54.6252 9.18953 55.1338 9.34844 55.8488C10.1373 59.3986 11.5287 62.7572 13.4839 65.8317C13.8769 66.4495 13.7881 67.2573 13.2703 67.7752L9.94797 71.0975L17.903 79.0525L21.2242 75.7312C21.7419 75.2136 22.5498 75.1245 23.1678 75.5178C26.2422 77.4741 29.6013 78.8662 33.1517 79.6558C33.8666 79.8148 34.375 80.4488 34.375 81.1811V85.875Z" fill="#21737C"/>
<path d="M27.7605 55.198C24.3428 55.198 21.5625 52.4175 21.5625 49C21.5625 45.5825 24.3428 42.802 27.7605 42.802C31.1781 42.802 33.9584 45.5823 33.9584 49C33.9584 52.4176 31.178 55.198 27.7605 55.198ZM27.7605 45.927C26.0659 45.927 24.6875 47.3056 24.6875 49C24.6875 50.6944 26.0659 52.0729 27.7605 52.0729C29.455 52.0729 30.8334 50.6945 30.8334 49C30.8334 47.3054 29.4548 45.927 27.7605 45.927Z" fill="#A23834"/>
<path d="M51.1559 56.277C50.7561 56.277 50.3561 56.1245 50.0511 55.8194L44.3365 50.1048C43.7264 49.4947 43.7264 48.5053 44.3365 47.895L50.0511 42.1805C50.6612 41.5703 51.6506 41.5703 52.2609 42.1805L57.9754 47.895C58.5856 48.5051 58.5856 49.4945 57.9754 50.1048L52.2609 55.8194C51.9557 56.1245 51.5559 56.277 51.1559 56.277ZM47.6512 49L51.1561 52.5048L54.6608 49L51.1559 45.4951L47.6512 49Z" fill="#A23834"/>
<path d="M44.375 42.4375H35.625C34.762 42.4375 34.0625 41.738 34.0625 40.875V32.125C34.0625 31.262 34.762 30.5625 35.625 30.5625H44.375C45.238 30.5625 45.9375 31.262 45.9375 32.125V40.875C45.9375 41.738 45.238 42.4375 44.375 42.4375ZM37.1875 39.3125H42.8125V33.6875H37.1875V39.3125Z" fill="#A23834"/>
<path d="M46.1558 66.2571H33.8829C33.3246 66.2571 32.8088 65.9593 32.5297 65.4759C32.2505 64.9924 32.2505 64.3968 32.5297 63.9134L38.6661 53.2848C38.9452 52.8014 39.461 52.5035 40.0193 52.5035C40.5775 52.5035 41.0933 52.8014 41.3724 53.2848L47.5088 63.9134C47.788 64.3968 47.788 64.9924 47.5088 65.4759C47.2299 65.9593 46.7141 66.2571 46.1558 66.2571ZM36.5893 63.1321H43.4494L40.0193 57.191L36.5893 63.1321Z" fill="#A23834"/>
<path d="M56.791 33.6875C56.3801 33.6875 55.977 33.5203 55.6863 33.2297C55.3957 32.9391 55.2285 32.5359 55.2285 32.125C55.2285 31.7141 55.3957 31.3109 55.6863 31.0203C55.977 30.7297 56.3801 30.5625 56.791 30.5625C57.202 30.5625 57.6051 30.7297 57.8957 31.0203C58.1863 31.3109 58.3535 31.7141 58.3535 32.125C58.3535 32.5359 58.1863 32.9391 57.8957 33.2297C57.6051 33.5203 57.202 33.6875 56.791 33.6875Z" fill="#21737C"/>
</svg>
