<svg width="90" height="90" viewBox="0 0 90 90" fill="none" xmlns="http://www.w3.org/2000/svg">
<circle opacity="0.2" cx="50" cy="40" r="40" fill="#C0655D"/>
<g clip-path="url(#clip0_41_1139)">
<path d="M48.3685 60.7522C48.1495 60.687 47.9191 60.6725 47.6943 60.7055C47.668 60.7042 47.6416 60.7036 47.6154 60.7025C49.6437 58.7209 50.9062 55.9586 50.9062 52.9058V37.3438C50.9062 36.4809 50.2065 35.7812 49.3437 35.7812H37.7695C32.9855 35.7812 29.0935 39.6733 29.0935 44.4572V52.9056C29.0935 55.9584 30.356 58.7208 32.3843 60.7023C32.358 60.7034 32.3316 60.7041 32.3054 60.7053C32.0807 60.6725 31.8502 60.6869 31.6312 60.752C23.5537 61.4772 17.2012 68.2833 17.2012 76.5464V84.2188C17.2012 85.0816 17.9009 85.7812 18.7637 85.7812H61.2362C62.099 85.7812 62.7987 85.0816 62.7987 84.2188V76.5466C62.7984 68.2836 56.446 61.4773 48.3685 60.7522ZM32.2182 46.6458V44.4572C32.2182 41.3964 34.7085 38.9062 37.7691 38.9062H47.7809V43.0877C47.7809 45.2005 46.062 46.9194 43.9491 46.9194H32.2182V46.6458ZM32.2182 52.9058V50.0444H43.9491C45.3643 50.0444 46.6812 49.6186 47.7809 48.89V52.9056C47.7809 57.1963 44.2901 60.687 39.9995 60.687C35.7088 60.687 32.2182 57.1964 32.2182 52.9058ZM44.1493 63.812L39.9996 67.9617L35.8499 63.812H44.1493ZM59.6734 82.6562H20.3259V78.1594H33.0765C33.9393 78.1594 34.639 77.4597 34.639 76.5969C34.639 75.7341 33.9393 75.0344 33.0765 75.0344H20.4188C21.1095 69.227 25.7218 64.6084 31.5262 63.9078L38.8948 71.2764C39.1999 71.5814 39.5998 71.7341 39.9996 71.7341C40.3995 71.7341 40.7993 71.5814 41.1045 71.2764L48.473 63.9078C54.7735 64.6683 59.6734 70.0444 59.6734 76.5466V82.6562Z" fill="#21737C"/>
<path d="M41.1045 75.4922C40.8141 75.2016 40.4109 75.0344 40 75.0344C39.5891 75.0344 39.1859 75.2016 38.8953 75.4922C38.6047 75.7829 38.4375 76.186 38.4375 76.5969C38.4375 77.0079 38.6045 77.411 38.8953 77.7016C39.1859 77.9921 39.5891 78.1594 40 78.1594C40.4109 78.1594 40.8141 77.9922 41.1045 77.7016C41.3952 77.411 41.5625 77.0079 41.5625 76.5969C41.5625 76.186 41.3953 75.7829 41.1045 75.4922Z" fill="#21737C"/>
<path d="M40.0195 14.2188C36.7456 14.2188 34.082 16.8823 34.082 20.1562C34.082 22.8894 35.9389 25.1958 38.457 25.8836V29.6997C38.457 30.5625 39.1567 31.2622 40.0195 31.2622C40.8824 31.2622 41.582 30.5625 41.582 29.6997V25.8836C44.1002 25.1958 45.957 22.8894 45.957 20.1562C45.957 16.8823 43.2934 14.2188 40.0195 14.2188ZM40.0195 22.9688C38.4688 22.9688 37.207 21.707 37.207 20.1562C37.207 18.6055 38.4688 17.3438 40.0195 17.3438C41.5703 17.3438 42.832 18.6055 42.832 20.1562C42.832 21.707 41.5703 22.9688 40.0195 22.9688Z" fill="#A23834"/>
<path d="M71.3881 26.4063C70.2665 25.2849 68.7756 24.6672 67.1897 24.6672C65.6037 24.6672 64.1128 25.2849 62.9912 26.4065C61.0587 28.3391 60.7409 31.2829 62.035 33.5499L59.3365 36.2483C58.7264 36.8585 58.7264 37.8479 59.3365 38.4582C59.6418 38.763 60.0417 38.9157 60.4415 38.9157C60.8415 38.9157 61.2412 38.763 61.5464 38.458L64.2436 35.7608C65.1311 36.2697 66.139 36.5424 67.1897 36.5424C68.7756 36.5424 70.2665 35.9247 71.3879 34.8033C72.5097 33.6819 73.1273 32.1908 73.1273 30.6049C73.1273 29.019 72.5097 27.5279 71.3881 26.4063ZM69.1786 32.5938C68.082 33.6904 66.2976 33.6904 65.2012 32.5938C64.1045 31.4971 64.1045 29.7127 65.2011 28.6161C65.7493 28.0677 66.4695 27.7936 67.1898 27.7936C67.9101 27.7936 68.6303 28.0677 69.1786 28.6161C69.7098 29.1474 70.0025 29.8536 70.0025 30.605C70.0025 31.3563 69.7098 32.0625 69.1786 32.5938Z" fill="#A23834"/>
<path d="M74.063 51.8489C71.3298 51.8489 69.0234 53.7058 68.3356 56.2239H64.5195C63.6567 56.2239 62.957 56.9236 62.957 57.7864C62.957 58.6492 63.6567 59.3489 64.5195 59.3489H68.3356C69.0234 61.867 71.3298 63.7239 74.063 63.7239C77.3369 63.7239 80.0005 61.0603 80.0005 57.7864C80.0005 54.5125 77.3369 51.8489 74.063 51.8489ZM74.063 60.5989C72.5122 60.5989 71.2505 59.3372 71.2505 57.7864C71.2505 56.2356 72.5122 54.9739 74.063 54.9739C75.6138 54.9739 76.8755 56.2356 76.8755 57.7864C76.8755 59.3372 75.6138 60.5989 74.063 60.5989Z" fill="#A23834"/>
<path d="M59.6983 56.6812C59.4078 56.3906 59.0047 56.2234 58.5938 56.2234C58.1828 56.2234 57.7797 56.3904 57.4891 56.6812C57.1984 56.972 57.0312 57.375 57.0312 57.7859C57.0312 58.1984 57.1983 58.6 57.4891 58.8904C57.7797 59.1828 58.1828 59.3484 58.5938 59.3484C59.0047 59.3484 59.4078 59.1826 59.6983 58.8904C59.9889 58.6 60.1562 58.1968 60.1562 57.7859C60.1562 57.375 59.9891 56.9734 59.6983 56.6812Z" fill="#A23834"/>
<path d="M15.4809 56.1841H11.6648C10.977 53.666 8.67062 51.8091 5.9375 51.8091C2.66359 51.8091 0 54.4727 0 57.7466C0 61.0205 2.66359 63.6841 5.9375 63.6841C8.67062 63.6841 10.977 61.8272 11.6648 59.3091H15.4809C16.3438 59.3091 17.0434 58.6094 17.0434 57.7466C17.0434 56.8838 16.3439 56.1841 15.4809 56.1841ZM5.9375 60.5591C4.38672 60.5591 3.125 59.2974 3.125 57.7466C3.125 56.1958 4.38672 54.9341 5.9375 54.9341C7.48828 54.9341 8.75 56.1958 8.75 57.7466C8.75 59.2974 7.48828 60.5591 5.9375 60.5591Z" fill="#A23834"/>
<path d="M20.5691 36.0977L17.8719 33.4006C18.381 32.5131 18.6535 31.505 18.6535 30.4544C18.6535 28.8684 18.0358 27.3773 16.9143 26.2558C15.7927 25.1344 14.3018 24.5167 12.7158 24.5167C11.1299 24.5167 9.63895 25.1344 8.51738 26.2559C6.20254 28.5709 6.20254 32.3378 8.51738 34.6528C9.63895 35.7742 11.1299 36.3919 12.716 36.3919C13.7666 36.3919 14.7747 36.1192 15.6622 35.6103L18.3594 38.3075C18.6646 38.6125 19.0644 38.7652 19.4643 38.7652C19.8641 38.7652 20.2639 38.6125 20.5691 38.3075C21.1793 37.6973 21.1793 36.708 20.5691 36.0977ZM14.7055 32.4425C14.7054 32.4428 14.705 32.443 14.7047 32.4433C13.6082 33.5402 11.8238 33.5402 10.7274 32.4433C9.63066 31.3466 9.63066 29.5622 10.7272 28.4656C11.2755 27.9173 11.9957 27.6431 12.716 27.6431C13.4363 27.6431 14.1564 27.9173 14.7047 28.4656C15.236 28.9969 15.5286 29.7031 15.5286 30.4545C15.5286 31.2053 15.2361 31.9114 14.7055 32.4425Z" fill="#A23834"/>
</g>
<defs>
<clipPath id="clip0_41_1139">
<rect y="10" width="80" height="80" rx="10" fill="white"/>
</clipPath>
</defs>
</svg>
