<svg width="523" height="504" viewBox="0 0 523 504" fill="none" xmlns="http://www.w3.org/2000/svg">
<g clip-path="url(#clip0_20_1129)">
<path d="M520.926 192.898C533.474 324.795 490.142 364.536 360.458 416.72C230.773 468.904 138.548 543.774 51.3036 381.892C-11.5746 265.208 66.8406 116.951 196.525 64.7552C326.209 12.5594 504.949 24.7829 520.926 192.898Z" fill="#A23834"/>
<path opacity="0.9" d="M520.926 192.898C533.474 324.795 490.142 364.536 360.458 416.72C230.773 468.904 138.548 543.774 51.3036 381.892C-11.5746 265.208 66.8406 116.951 196.525 64.7552C326.209 12.5594 504.949 24.7829 520.926 192.898Z" fill="white"/>
<path d="M280.652 417.056C280.652 418.635 280.183 420.179 279.306 421.492C278.428 422.805 277.181 423.829 275.721 424.432C274.262 425.036 272.656 425.194 271.107 424.885C269.559 424.576 268.136 423.814 267.02 422.697C265.904 421.579 265.145 420.156 264.838 418.606C264.531 417.057 264.691 415.452 265.297 413.993C265.903 412.535 266.928 411.289 268.242 410.413C269.557 409.537 271.101 409.071 272.681 409.073C274.796 409.076 276.823 409.919 278.318 411.415C279.812 412.912 280.652 414.941 280.652 417.056Z" fill="white"/>
<path d="M432.628 273.399C432.63 274.979 432.164 276.524 431.287 277.838C430.411 279.153 429.164 280.178 427.705 280.784C426.246 281.389 424.64 281.548 423.09 281.241C421.541 280.933 420.117 280.173 419 279.055C417.883 277.938 417.123 276.515 416.815 274.965C416.507 273.416 416.666 271.81 417.272 270.35C417.878 268.891 418.903 267.645 420.217 266.768C421.532 265.892 423.077 265.426 424.657 265.428C426.771 265.428 428.798 266.268 430.293 267.763C431.788 269.257 432.628 271.285 432.628 273.399Z" fill="white"/>
<path d="M507.393 183.444C507.393 185.023 506.925 186.566 506.048 187.879C505.171 189.192 503.924 190.215 502.466 190.819C501.007 191.423 499.402 191.581 497.853 191.273C496.305 190.965 494.882 190.205 493.766 189.089C492.649 187.972 491.889 186.55 491.581 185.001C491.273 183.453 491.431 181.848 492.035 180.389C492.64 178.93 493.663 177.684 494.976 176.806C496.288 175.929 497.832 175.461 499.411 175.461C500.459 175.46 501.498 175.665 502.467 176.066C503.437 176.466 504.317 177.054 505.059 177.796C505.8 178.537 506.388 179.418 506.789 180.387C507.19 181.356 507.395 182.395 507.393 183.444Z" fill="white"/>
<path d="M420.671 191.717C420.671 193.295 420.203 194.839 419.326 196.152C418.448 197.464 417.202 198.488 415.743 199.092C414.284 199.696 412.679 199.854 411.131 199.546C409.582 199.238 408.16 198.478 407.043 197.361C405.927 196.245 405.167 194.822 404.859 193.274C404.551 191.725 404.709 190.12 405.313 188.662C405.917 187.203 406.94 185.956 408.253 185.079C409.566 184.202 411.109 183.734 412.688 183.734C414.805 183.734 416.836 184.575 418.333 186.072C419.83 187.569 420.671 189.599 420.671 191.717Z" fill="white"/>
<path d="M353.309 83.5364C353.311 85.1157 352.845 86.6603 351.969 87.9746C351.093 89.2889 349.847 90.3139 348.389 90.9198C346.93 91.5258 345.325 91.6856 343.776 91.3788C342.226 91.0721 340.803 90.3128 339.685 89.1968C338.568 88.0808 337.806 86.6584 337.497 85.1096C337.188 83.5608 337.346 81.9551 337.95 80.4957C338.554 79.0364 339.577 77.7889 340.89 76.9112C342.203 76.0336 343.747 75.5651 345.326 75.5651C346.374 75.5635 347.412 75.7686 348.38 76.1685C349.348 76.5684 350.229 77.1554 350.97 77.8957C351.711 78.6361 352.3 79.5153 352.701 80.4832C353.102 81.4511 353.309 82.4886 353.309 83.5364Z" fill="white"/>
<path d="M299.456 41.27C299.459 42.8494 298.992 44.3939 298.117 45.7082C297.241 47.0225 295.995 48.0475 294.536 48.6535C293.078 49.2595 291.472 49.4192 289.923 49.1125C288.374 48.8058 286.95 48.0464 285.833 46.9304C284.715 45.8145 283.954 44.3921 283.645 42.8432C283.336 41.2944 283.493 39.6887 284.097 38.2294C284.701 36.77 285.724 35.5226 287.037 34.6449C288.35 33.7672 289.894 33.2987 291.473 33.2987C292.521 33.2972 293.559 33.5023 294.527 33.9022C295.496 34.3021 296.376 34.889 297.117 35.6294C297.859 36.3697 298.447 37.249 298.848 38.2168C299.25 39.1847 299.456 40.2222 299.456 41.27Z" fill="white"/>
<path d="M150.609 146.113C150.609 147.693 150.14 149.236 149.263 150.55C148.385 151.863 147.137 152.886 145.678 153.49C144.219 154.093 142.613 154.251 141.064 153.942C139.515 153.633 138.093 152.871 136.977 151.754C135.861 150.636 135.102 149.213 134.795 147.664C134.488 146.114 134.648 144.509 135.254 143.05C135.86 141.592 136.885 140.346 138.199 139.47C139.513 138.594 141.058 138.128 142.637 138.13C143.685 138.13 144.723 138.337 145.691 138.738C146.658 139.14 147.538 139.728 148.278 140.469C149.018 141.211 149.605 142.091 150.005 143.059C150.405 144.028 150.61 145.065 150.609 146.113Z" fill="white"/>
<path d="M137.099 250.192C137.102 251.772 136.635 253.317 135.759 254.631C134.882 255.946 133.636 256.971 132.177 257.577C130.718 258.182 129.111 258.341 127.562 258.034C126.012 257.726 124.589 256.965 123.472 255.848C122.355 254.731 121.594 253.308 121.286 251.758C120.979 250.208 121.138 248.602 121.743 247.143C122.349 245.684 123.374 244.437 124.689 243.561C126.003 242.685 127.548 242.218 129.128 242.221C131.241 242.224 133.267 243.065 134.761 244.559C136.255 246.053 137.096 248.079 137.099 250.192Z" fill="white"/>
<path d="M153.285 312.479C153.285 314.059 152.817 315.602 151.939 316.915C151.061 318.228 149.814 319.252 148.354 319.856C146.895 320.459 145.289 320.617 143.741 320.308C142.192 319.999 140.769 319.237 139.653 318.12C138.537 317.002 137.778 315.579 137.471 314.029C137.165 312.48 137.324 310.875 137.93 309.416C138.536 307.958 139.561 306.712 140.876 305.836C142.19 304.96 143.734 304.494 145.314 304.496C146.362 304.496 147.399 304.703 148.367 305.104C149.335 305.506 150.214 306.094 150.954 306.835C151.695 307.577 152.282 308.457 152.682 309.425C153.082 310.394 153.287 311.431 153.285 312.479Z" fill="white"/>
<path d="M95.9683 396.676C100.377 396.676 103.951 393.102 103.951 388.693C103.951 384.284 100.377 380.71 95.9683 380.71C91.5595 380.71 87.9854 384.284 87.9854 388.693C87.9854 393.102 91.5595 396.676 95.9683 396.676Z" fill="white"/>
<path d="M145.302 312.479L95.9683 388.693L272.658 417.056L424.645 273.411L412.688 191.716L499.411 183.421L345.326 83.5479L142.637 146.113L129.128 250.192L145.302 312.479Z" stroke="white" stroke-width="1.15862" stroke-linecap="round" stroke-linejoin="round"/>
<path d="M291.473 41.2816L345.326 83.548" stroke="white" stroke-width="1.15862" stroke-linecap="round" stroke-linejoin="round"/>
<path d="M272.658 417.056L258.974 332.987" stroke="white" stroke-width="1.15862" stroke-linecap="round" stroke-linejoin="round"/>
<path d="M142.626 146.113L189.156 188.206" stroke="white" stroke-width="1.15862" stroke-linecap="round" stroke-linejoin="round"/>
<path d="M394.509 503.616C427.649 503.616 454.514 499.269 454.514 493.907C454.514 488.545 427.649 484.198 394.509 484.198C361.37 484.198 334.504 488.545 334.504 493.907C334.504 499.269 361.37 503.616 394.509 503.616Z" fill="#A23834"/>
<path d="M364.738 316.941C413.695 267.984 413.695 188.609 364.738 139.652C315.781 90.695 236.405 90.6949 187.448 139.652C138.491 188.609 138.491 267.984 187.448 316.941C236.405 365.898 315.781 365.898 364.738 316.941Z" fill="white"/>
<path d="M364.738 316.941C413.695 267.984 413.695 188.609 364.738 139.652C315.781 90.695 236.405 90.6949 187.448 139.652C138.491 188.609 138.491 267.984 187.448 316.941C236.405 365.898 315.781 365.898 364.738 316.941Z" stroke="#263238" stroke-width="1.15862" stroke-linecap="round" stroke-linejoin="round"/>
<path d="M212.294 154.397C210.845 153.308 203.905 155.672 203.882 153.61C203.882 152.242 208.516 148.396 209.432 146.658C210.729 144.12 210.057 140.587 211.262 138.2C212.267 136.142 213.593 134.257 215.19 132.615C222.234 126.66 232.986 120.207 241.954 119.755C245.175 119.593 249.589 125.131 250.319 129.452C250.748 132.013 250.319 139.625 248.002 142.29C244.596 146.31 237.111 146.357 233.137 149.485C228.503 153.123 226.255 161.708 220.925 164.547C219.442 165.335 216.627 163.782 215.665 162.971C213.881 161.5 213.904 155.637 212.294 154.397Z" fill="#A23834" stroke="#263238" stroke-width="1.15862" stroke-linecap="round" stroke-linejoin="round"/>
<path d="M357.584 283.421C356.753 283.224 355.883 283.276 355.082 283.572C353.008 284.73 349.984 289.284 348.918 291.508C347.69 294.046 346.218 299.549 346.334 301.936C346.404 303.268 347.168 305.91 348.269 306.049C349.103 306.153 351.304 304.508 352.081 303.581C356.09 298.784 360.886 291.323 360.527 285.379C360.481 284.475 358.488 283.641 357.584 283.421Z" fill="#A23834" stroke="#263238" stroke-width="1.15862" stroke-linecap="round" stroke-linejoin="round"/>
<path d="M281.579 168.706C283.085 168.556 286.41 167.745 287.372 166.389C288.855 164.199 289.423 157.607 287.882 155.741C287.221 154.965 284.788 155.127 283.954 155.811C282.877 156.703 283.166 160.445 282.089 161.442C281.011 162.438 277.964 161.048 277.037 162.102C276.11 163.157 275.878 166.621 276.562 167.687C277.246 168.753 280.258 168.834 281.579 168.706Z" fill="#A23834" stroke="#263238" stroke-width="1.15862" stroke-linecap="round" stroke-linejoin="round"/>
<path d="M356.356 132.001C355.15 132.932 354.343 134.287 354.097 135.79C354.039 136.81 356.113 139.753 355.858 140.656C355.209 142.869 350.065 144.433 347.4 143.043C346.6 142.614 345.905 140.181 345.141 139.648C341.908 137.401 335.756 138.918 332.628 138.733C331.136 138.778 329.643 138.689 328.167 138.466C322.872 136.844 317.369 131.364 311.946 131.144C309.27 131.04 303.21 134.886 301.322 137.713C298.698 141.723 297.249 146.386 297.139 151.176C297.139 153.169 298.947 157.398 300.522 158.464C302.098 159.53 306.512 159.75 307.961 158.464C308.969 157.595 308.389 153.922 309.212 152.868C310.034 151.814 313.383 149.798 314.368 150.713C317.369 153.528 318.087 161.326 316.279 164.732C314.345 168.382 306.292 172.147 302.121 170.201C300.58 169.483 301.855 163.724 300.545 162.346C299.236 160.967 295.297 160.028 294.022 161.187C292.47 162.658 295.112 168.359 293.849 170.155C292.435 172.147 286.839 171.522 284.927 173.028C283.514 174.187 281.127 177.408 280.953 179.238C280.803 180.802 284.232 183.467 283.386 184.8C282.228 186.723 276.249 183.166 274.778 184.904C272.82 187.221 274.233 194.729 276.435 196.606C278.08 198.019 283.456 197.915 285.229 196.606C286.503 195.633 285.727 191.369 287.013 190.43C288.704 189.202 293.177 191.462 295.123 190.963C296.676 190.569 299.016 187.314 300.569 187.592C302.654 187.963 305.667 192.168 306.06 194.335C306.362 195.945 302.712 199.387 303.905 200.499C305.377 201.854 310.313 198.993 311.043 197.15C311.969 194.833 306.732 189.944 307.567 187.603C307.921 187.082 308.401 186.657 308.961 186.368C309.522 186.079 310.145 185.934 310.776 185.947C313.8 186.665 315.642 195.216 318.689 196.073C320.844 196.687 324.598 192.284 326.8 192.806C329.372 193.42 333.52 198.112 334.319 200.684C334.875 202.48 334.18 206.779 332.917 207.902C328.584 211.761 320.508 212.664 314.576 212.294C311.749 212.108 306.003 209.803 303.929 207.787C302.492 206.385 302.191 201.426 300.58 200.487C296.386 198.054 289.712 198.448 285.101 199.966C276.991 202.654 267.05 210.393 262.473 217.924C260.828 220.659 262.473 227.981 260.84 230.669C260.318 231.515 257.978 231.99 257.526 232.871C256.136 235.547 256.506 242.464 258.001 245.059C261.28 250.249 266.149 254.24 271.881 256.437C277.57 258.383 285.402 255.278 291.427 256.611C293.339 257.039 297.452 259.264 298.506 261.106C299.885 263.528 297.753 269.888 299.062 272.333C300.128 274.349 306.014 274.28 306.814 276.238C309.78 283.305 302.7 292.817 303.778 300.36C304.149 302.909 308.088 306.871 308.412 309.281C309.096 313.754 306.617 319.813 308.355 323.834C309.513 326.464 316.21 327.518 318.724 326.151C324.158 323.312 330.125 316.453 332.628 310.985C334.945 305.991 332.964 298.24 335.489 293.837C337.54 290.361 344.109 288.635 346.288 285.09C349.532 279.841 347.029 270.19 350.076 264.709C352.463 260.434 359.403 257.943 361.663 253.448C362.566 251.675 362.114 246.345 360.828 245.337C357.677 242.765 350.25 244.561 347.238 241.722C345.917 240.483 347.852 234.921 347.029 232.894C346.207 230.866 342.209 228.769 341.537 226.834C340.865 224.899 340.471 219.489 342.082 217.971C342.8 217.31 345.199 217.519 346.01 217.971C350.366 220.415 354.027 225.791 355.487 230.623C355.985 232.268 353.726 236.289 354.664 237.76C355.348 238.837 358.314 239.544 359.589 239.347C365.173 238.478 374.755 234.296 375.659 229.939C376.817 224.598 362.242 218.55 363.794 212.56C364.281 210.66 371.673 210.729 373.828 212.12C375.334 213.093 375.207 217.322 376.296 218.608C379.262 222.084 383.896 224.459 388.079 226.626C390.049 227.634 395.286 227.923 396.386 229.731C397.823 232.048 393.617 238.316 394.428 240.761C395.618 243.994 397.341 247.006 399.526 249.671C403.285 227.994 401.275 205.71 393.697 185.055C386.12 164.401 373.242 146.104 356.356 132.001Z" fill="#A23834" stroke="#263238" stroke-width="1.15862" stroke-linecap="round" stroke-linejoin="round"/>
<path d="M210.498 309.328C205.863 304.879 200.383 297.834 199.873 292.227C199.282 285.738 211.946 282.795 212.618 275.543C212.861 272.924 206.558 266.065 207.068 263.319C207.578 260.573 214.599 257.793 214.286 254.826C213.661 248.767 207.23 241.943 202.179 238.687C199.456 236.926 191.577 239.116 189.214 236.833C188.055 235.744 189.897 232.199 188.75 231.191C187.279 229.893 182.749 231.816 180.907 231.075C178.775 230.217 176.527 225.652 174.488 224.98C167.594 222.663 157.526 228.352 150.759 225.652C150.759 226.533 150.759 227.414 150.759 228.294V228.908C151.948 229.496 152.936 230.424 153.598 231.573C153.782 232.566 153.745 233.588 153.489 234.566C153.232 235.543 152.763 236.452 152.115 237.227C151.809 237.419 151.456 237.523 151.095 237.528C151.35 241.108 151.767 244.642 152.323 248.13C155.799 250.319 160.318 251.779 162.577 254.792C163.956 256.634 161.013 260.874 162.577 262.67C165.694 266.204 172.715 266.505 176.168 269.622C184.278 276.933 185.564 291.717 194.648 300.07C196.235 301.53 200.035 302.932 201.599 304.438C203.789 306.57 204.693 310.544 207.045 312.549C211.077 316.025 217.901 321.818 221.644 321.493C222.316 321.435 219.743 315.7 217.588 313.383C215.978 311.738 212.201 310.892 210.498 309.328Z" fill="#A23834" stroke="#263238" stroke-width="1.15862" stroke-linecap="round" stroke-linejoin="round"/>
<path d="M155.394 205.759C156.485 206.129 157.674 206.079 158.731 205.62C160.318 204.38 158.916 200.29 160.237 198.877C165.833 192.875 177.106 193.292 182.355 186.816C183.826 184.997 181.579 180.293 183.513 178.914C189.782 174.592 199.734 183.641 205.226 179.667C208.47 177.35 211.355 169.239 209.86 165.59C209.582 164.906 206.06 166.54 205.353 166.03C203.928 164.999 206.303 158.661 205.006 158.221C201.263 156.946 195.03 160.248 191.102 162.392C190.025 162.994 188.125 165.381 187.07 165.717C184.834 166.424 180.455 164.895 181.625 163.284C184.243 159.704 191.021 158.765 194.752 155.892C198.031 153.355 203.812 148.083 203.743 145.383C203.639 141.699 187.986 145.847 184.046 147.816C181.729 148.975 176.747 153.783 174.384 154.93C164.113 169.112 156.944 185.298 153.343 202.434C153.969 203.789 154.432 205.353 155.394 205.759Z" fill="#A23834" stroke="#263238" stroke-width="1.15862" stroke-linecap="round" stroke-linejoin="round"/>
<path d="M197.174 365.567L212.711 342.545" stroke="#263238" stroke-width="1.15862" stroke-linecap="round" stroke-linejoin="round"/>
<path d="M122.362 222.918L146.669 223.277" stroke="#263238" stroke-width="1.15862" stroke-linecap="round" stroke-linejoin="round"/>
<path d="M194.555 91.8553L209.548 115.908" stroke="#263238" stroke-width="1.15862" stroke-linecap="round" stroke-linejoin="round"/>
<path d="M436.59 226.139L406.223 226.498" stroke="#263238" stroke-width="1.15862" stroke-linecap="round" stroke-linejoin="round"/>
<path d="M114.889 311.981L140.378 346.728L154.189 365.556" stroke="#263238" stroke-width="1.15862" stroke-linecap="round" stroke-linejoin="round"/>
<path d="M158.65 93.5584L99.2124 168.984" stroke="#263238" stroke-width="1.15862" stroke-linecap="round" stroke-linejoin="round"/>
<path d="M360.214 381.765L214.842 388.137" stroke="#263238" stroke-width="1.15862" stroke-linecap="round" stroke-linejoin="round"/>
<path d="M420.659 349.717L466.923 262.508" stroke="#263238" stroke-width="1.15862" stroke-linecap="round" stroke-linejoin="round"/>
<path d="M470.526 192.134L468.997 163.863" stroke="#263238" stroke-width="1.15862" stroke-linecap="round" stroke-linejoin="round"/>
<path d="M368.081 135.396L382.761 124.702" stroke="#263238" stroke-width="1.15862" stroke-linecap="round" stroke-linejoin="round"/>
<path d="M214.611 61.2678L382.158 64.1527" stroke="#263238" stroke-width="1.15862" stroke-linecap="round" stroke-linejoin="round"/>
<path d="M500.524 240.462C507.948 224.614 501.119 205.748 485.271 198.324C469.422 190.9 450.557 197.73 443.133 213.578C435.709 229.426 442.538 248.292 458.387 255.716C474.235 263.14 493.101 256.31 500.524 240.462Z" fill="#A23834"/>
<path opacity="0.2" d="M500.524 240.462C507.948 224.614 501.119 205.748 485.271 198.324C469.422 190.9 450.557 197.73 443.133 213.578C435.709 229.426 442.538 248.292 458.387 255.716C474.235 263.14 493.101 256.31 500.524 240.462Z" fill="white"/>
<path d="M471.974 258.905C474.845 258.906 477.702 258.516 480.467 257.746L478.694 247.4L463.771 248.28L463.192 257.665C466.047 258.486 469.004 258.903 471.974 258.905Z" fill="white"/>
<path d="M460.84 247.573C463.551 252.104 467.537 254.965 471.998 254.965C476.458 254.965 480.444 252.104 483.167 247.573H460.84Z" fill="#263238" stroke="#263238" stroke-width="1.15862" stroke-linecap="round" stroke-linejoin="round"/>
<path d="M471.974 258.905C474.845 258.906 477.702 258.516 480.467 257.746L478.694 247.4L463.771 248.28L463.192 257.665C466.047 258.486 469.004 258.903 471.974 258.905V258.905Z" stroke="#263238" stroke-width="1.15862" stroke-linecap="round" stroke-linejoin="round"/>
<path d="M489.678 230.773C489.055 230.48 488.346 230.427 487.685 230.623C487.28 219.222 480.201 210.138 471.465 210.138C462.729 210.138 455.696 219.222 455.244 230.623C454.58 230.426 453.867 230.479 453.24 230.773C451.536 231.608 451.085 234.145 452.208 236.428C452.542 237.248 453.103 237.955 453.826 238.467C454.548 238.978 455.402 239.271 456.287 239.312C458.604 247.423 464.501 253.146 471.407 253.146C478.312 253.146 484.152 247.353 486.538 239.312C487.421 239.269 488.272 238.975 488.993 238.464C489.713 237.952 490.273 237.246 490.605 236.428C491.845 234.145 491.381 231.608 489.678 230.773Z" fill="white" stroke="#263238" stroke-width="1.15862" stroke-linecap="round" stroke-linejoin="round"/>
<path d="M469.298 233.044L469.171 233.658C468.764 235.595 468.006 237.44 466.935 239.104V239.104L470.179 240.877" stroke="#263238" stroke-width="1.15862" stroke-linecap="round" stroke-linejoin="round"/>
<path d="M466.506 245.175C467.884 245.768 469.368 246.074 470.868 246.074C472.368 246.074 473.852 245.768 475.23 245.175" stroke="#263238" stroke-width="1.15862" stroke-linecap="round" stroke-linejoin="round"/>
<path d="M463.157 231.422C463.157 232.28 462.833 232.975 462.428 232.975C462.022 232.975 461.686 232.28 461.686 231.422C461.686 230.565 462.01 229.87 462.428 229.87C462.845 229.87 463.157 230.565 463.157 231.422Z" fill="#263238"/>
<path d="M475.508 231.422C475.508 232.28 475.172 232.975 474.767 232.975C474.361 232.975 474.025 232.28 474.025 231.422C474.025 230.565 474.361 229.87 474.767 229.87C475.172 229.87 475.508 230.565 475.508 231.422Z" fill="#263238"/>
<path d="M460.979 228.41C461.537 227.346 462.443 226.505 463.546 226.029C464.649 225.552 465.882 225.468 467.039 225.791" stroke="#263238" stroke-width="1.15862" stroke-linecap="round" stroke-linejoin="round"/>
<path d="M480.12 228.41C479.562 227.346 478.656 226.505 477.553 226.029C476.45 225.552 475.217 225.468 474.06 225.791" stroke="#263238" stroke-width="1.15862" stroke-linecap="round" stroke-linejoin="round"/>
<path d="M458.708 228.862H455.429" stroke="#263238" stroke-width="1.15862" stroke-linecap="round" stroke-linejoin="round"/>
<path d="M468.51 228.862H459.392V234.736H468.51V228.862Z" stroke="#263238" stroke-width="1.15862" stroke-linecap="round" stroke-linejoin="round"/>
<path d="M481.626 228.862H472.507V234.736H481.626V228.862Z" stroke="#263238" stroke-width="1.15862" stroke-linecap="round" stroke-linejoin="round"/>
<path d="M468.522 230.588H472.507" stroke="#263238" stroke-width="1.15862" stroke-linecap="round" stroke-linejoin="round"/>
<path d="M487.118 228.862H481.637" stroke="#263238" stroke-width="1.15862" stroke-linecap="round" stroke-linejoin="round"/>
<path d="M456.484 230.588C457.642 230.692 461.037 223.08 459.728 218.017C458.419 212.954 471.082 216.801 478.984 215.885C486.886 214.97 481.719 227.066 486.179 229.939C490.64 232.813 489.655 212.34 485.368 211.726C485.368 211.726 482.17 205.643 469.831 206.153C457.492 206.663 455.858 214.472 455.858 214.472C455.858 214.472 449.81 229.939 456.484 230.588Z" fill="#263238" stroke="#263238" stroke-width="1.15862" stroke-linecap="round" stroke-linejoin="round"/>
<path d="M175.6 93.9871C195.046 93.9871 210.81 78.2229 210.81 58.7767C210.81 39.3306 195.046 23.5663 175.6 23.5663C156.154 23.5663 140.39 39.3306 140.39 58.7767C140.39 78.2229 156.154 93.9871 175.6 93.9871Z" fill="#A23834"/>
<path opacity="0.3" d="M175.6 93.9871C195.046 93.9871 210.81 78.2229 210.81 58.7767C210.81 39.3306 195.046 23.5663 175.6 23.5663C156.154 23.5663 140.39 39.3306 140.39 58.7767C140.39 78.2229 156.154 93.9871 175.6 93.9871Z" fill="white"/>
<path d="M175.218 94.2305C178.405 94.2312 181.578 93.7985 184.649 92.9444L182.633 81.4857L166.041 82.4705L165.404 92.898C168.596 93.8017 171.9 94.2502 175.218 94.2305Z" fill="white"/>
<path d="M162.786 82.9802C165.81 88.0086 170.236 91.1948 175.195 91.1948C180.153 91.1948 184.579 88.0086 187.592 82.9802H162.786Z" fill="#263238" stroke="#263238" stroke-width="1.15862" stroke-linecap="round" stroke-linejoin="round"/>
<path d="M175.218 94.2305C178.405 94.2312 181.578 93.7985 184.649 92.9444L182.633 81.4857L166.041 82.4705L165.404 92.898C168.596 93.8017 171.9 94.2502 175.218 94.2305Z" stroke="#263238" stroke-width="1.15862" stroke-linecap="round" stroke-linejoin="round"/>
<path d="M191.635 43.9348C191.635 43.9348 207.636 76.7121 197.718 83.4669C187.175 90.6503 161.905 91.0211 153.911 82.3083C145.916 73.5955 153.98 53.2501 157.387 48.9748C159.874 46.0723 162.821 43.5984 166.111 41.6524L177.083 39.3351L188.275 43.3903L191.635 43.9348Z" fill="#263238" stroke="#263238" stroke-width="1.15862" stroke-linecap="round" stroke-linejoin="round"/>
<path d="M195.436 62.9478C194.739 62.6236 193.949 62.5619 193.211 62.774C192.771 50.1103 184.892 40.0071 175.252 40.0071C165.613 40.0071 157.734 50.1103 157.282 62.774C156.544 62.5619 155.754 62.6236 155.058 62.9478C153.181 63.8747 152.659 66.6901 153.899 69.2275C154.272 70.1359 154.897 70.9191 155.699 71.4855C156.501 72.0518 157.448 72.3778 158.429 72.4253C161.013 81.4161 167.559 87.8117 175.241 87.8117C182.923 87.8117 189.457 81.4161 192.041 72.4253C193.022 72.3778 193.969 72.0518 194.771 71.4855C195.574 70.9191 196.198 70.1359 196.571 69.2275C197.834 66.7017 197.324 63.8863 195.436 62.9478Z" fill="white" stroke="#263238" stroke-width="1.15862" stroke-linecap="round" stroke-linejoin="round"/>
<path d="M172.785 65.4851L170.155 72.2167L173.769 74.1863" stroke="#263238" stroke-width="1.15862" stroke-linecap="round" stroke-linejoin="round"/>
<path d="M170.155 78.9482C171.685 79.6118 173.335 79.9542 175.003 79.9542C176.671 79.9542 178.322 79.6118 179.852 78.9482" stroke="#263238" stroke-width="1.15862" stroke-linecap="round" stroke-linejoin="round"/>
<path d="M162.473 59.3212C163.396 58.3517 164.627 57.7319 165.955 57.5671C167.284 57.4024 168.629 57.7029 169.761 58.4175" stroke="#263238" stroke-width="1.15862" stroke-linecap="round" stroke-linejoin="round"/>
<path d="M184.324 59.4719C183.436 58.4703 182.227 57.8075 180.905 57.5962C179.583 57.385 178.228 57.6384 177.072 58.3133" stroke="#263238" stroke-width="1.15862" stroke-linecap="round" stroke-linejoin="round"/>
<path d="M166.099 67.3621C164.756 67.3621 163.466 66.829 162.515 65.8798C161.564 64.9306 161.028 63.6428 161.025 62.2989V60.8275H169.703C170.091 60.8305 170.462 60.9869 170.736 61.2625C171.009 61.5381 171.163 61.9107 171.163 62.2989C171.163 63.6417 170.629 64.9296 169.68 65.8791C168.73 66.8286 167.442 67.3621 166.099 67.3621Z" fill="#263238" stroke="#263238" stroke-width="1.15862" stroke-linecap="round" stroke-linejoin="round"/>
<path d="M180.663 67.3621C179.32 67.3621 178.033 66.8286 177.083 65.8791C176.134 64.9296 175.6 63.6417 175.6 62.2989C175.6 61.9107 175.754 61.5381 176.027 61.2625C176.3 60.9869 176.672 60.8305 177.06 60.8275H185.738V62.2989C185.735 63.6428 185.199 64.9306 184.248 65.8798C183.296 66.829 182.007 67.3621 180.663 67.3621Z" fill="#263238" stroke="#263238" stroke-width="1.15862" stroke-linecap="round" stroke-linejoin="round"/>
<path d="M171.163 62.7508H175.6" stroke="#263238" stroke-width="1.15862" stroke-linecap="round" stroke-linejoin="round"/>
<path d="M161.025 60.8275H157.375" stroke="#263238" stroke-width="1.15862" stroke-linecap="round" stroke-linejoin="round"/>
<path d="M193.084 60.8275H186.317" stroke="#263238" stroke-width="1.15862" stroke-linecap="round" stroke-linejoin="round"/>
<path d="M169.749 46.1942C169.749 46.1942 178.033 56.7955 185.738 57.5139C193.443 58.2322 188.391 73.7345 185.738 74.1864C185.738 74.1864 192.69 74.4413 193.211 62.7856C193.211 62.7856 202.828 47.0284 186.537 40.3316C173.966 35.1641 167.652 40.0187 167.652 40.0187C167.652 40.0187 151.663 43.9928 155.822 60.2714C155.822 60.2714 158.638 68.8104 161.674 69.83C161.674 69.83 157.178 60.1555 161.569 54.9765C165.96 49.7975 169.425 50.0176 169.749 46.1942Z" fill="#263238" stroke="#263238" stroke-width="1.15862" stroke-linecap="round" stroke-linejoin="round"/>
<path d="M231.781 34.5963H237.575C239.904 34.5963 242.138 33.6711 243.785 32.0241C245.432 30.3771 246.357 28.1432 246.357 25.814C246.357 23.4848 245.432 21.251 243.785 19.604C242.138 17.957 239.904 17.0317 237.575 17.0317H237.088C236.405 14.9412 235.079 13.1202 233.298 11.829C231.518 10.5378 229.375 9.84247 227.176 9.84247C224.977 9.84247 222.834 10.5378 221.054 11.829C219.273 13.1202 217.947 14.9412 217.264 17.0317H216.777C215.624 17.0317 214.482 17.2589 213.416 17.7002C212.351 18.1416 211.383 18.7885 210.567 19.604C209.752 20.4195 209.105 21.3877 208.664 22.4532C208.222 23.5187 207.995 24.6607 207.995 25.814C207.995 26.9673 208.222 28.1094 208.664 29.1749C209.105 30.2404 209.752 31.2085 210.567 32.0241C211.383 32.8396 212.351 33.4865 213.416 33.9278C214.482 34.3692 215.624 34.5963 216.777 34.5963H219.187" stroke="#263238" stroke-width="1.15862" stroke-linecap="round" stroke-linejoin="round"/>
<path d="M236.254 31.9547L225.502 21.1911L214.738 31.9547H221.169V40.6443H229.835V31.9547H236.254Z" fill="#A23834" stroke="#263238" stroke-width="1.15862" stroke-linecap="round" stroke-linejoin="round"/>
<path d="M177.072 432.79C196.518 432.79 212.282 417.026 212.282 397.58C212.282 378.134 196.518 362.369 177.072 362.369C157.625 362.369 141.861 378.134 141.861 397.58C141.861 417.026 157.625 432.79 177.072 432.79Z" fill="#A23834"/>
<path opacity="0.2" d="M177.072 432.79C196.518 432.79 212.282 417.026 212.282 397.58C212.282 378.134 196.518 362.369 177.072 362.369C157.625 362.369 141.861 378.134 141.861 397.58C141.861 417.026 157.625 432.79 177.072 432.79Z" fill="white"/>
<path d="M177.083 432.79C180.271 432.791 183.443 432.358 186.514 431.504L184.556 419.999L167.965 420.984L167.328 431.411C170.499 432.326 173.783 432.79 177.083 432.79Z" fill="white"/>
<path d="M164.709 421.551C167.721 426.58 172.159 429.766 177.106 429.766C182.054 429.766 186.503 426.58 189.515 421.551H164.709Z" fill="#263238" stroke="#263238" stroke-width="1.15862" stroke-linecap="round" stroke-linejoin="round"/>
<path d="M177.083 432.79C180.271 432.791 183.443 432.358 186.514 431.504L184.556 419.999L167.965 420.984L167.328 431.411C170.499 432.326 173.783 432.79 177.083 432.79Z" stroke="#263238" stroke-width="1.15862" stroke-linecap="round" stroke-linejoin="round"/>
<path d="M197.231 402.203C196.535 401.878 195.745 401.817 195.007 402.029C194.567 389.365 186.688 379.262 177.048 379.262C167.409 379.262 159.518 389.365 159.078 402.029C158.34 401.817 157.55 401.878 156.854 402.203C154.977 403.129 154.455 405.945 155.695 408.482C156.07 409.4 156.7 410.19 157.512 410.759C158.323 411.328 159.281 411.652 160.272 411.692C162.855 420.683 169.401 427.078 177.083 427.078C184.765 427.078 191.299 420.683 193.883 411.692C194.864 411.644 195.811 411.318 196.613 410.752C197.416 410.185 198.04 409.402 198.413 408.494C199.665 405.899 199.155 403.129 197.231 402.203Z" fill="white" stroke="#263238" stroke-width="1.15862" stroke-linecap="round" stroke-linejoin="round"/>
<path d="M176.701 404.728L179.331 411.46L175.716 413.43" stroke="#263238" stroke-width="1.15862" stroke-linecap="round" stroke-linejoin="round"/>
<path d="M171.985 418.191C173.516 418.855 175.166 419.197 176.834 419.197C178.502 419.197 180.152 418.855 181.683 418.191" stroke="#263238" stroke-width="1.15862" stroke-linecap="round" stroke-linejoin="round"/>
<path d="M171.081 403.164C171.081 404.114 170.711 404.891 170.259 404.891C169.807 404.891 169.436 404.114 169.436 403.164C169.436 402.214 169.807 401.438 170.259 401.438C170.711 401.438 171.081 402.214 171.081 403.164Z" fill="#263238"/>
<path d="M184.718 403.164C184.718 404.114 184.348 404.891 183.896 404.891C183.444 404.891 183.073 404.114 183.073 403.164C183.073 402.214 183.444 401.438 183.896 401.438C184.348 401.438 184.718 402.214 184.718 403.164Z" fill="#263238"/>
<path d="M165.949 399.573C166.563 398.386 167.569 397.448 168.796 396.918C170.023 396.388 171.395 396.298 172.68 396.664" stroke="#263238" stroke-width="1.15862" stroke-linecap="round" stroke-linejoin="round"/>
<path d="M187.221 399.573C186.607 398.386 185.601 397.448 184.374 396.918C183.147 396.388 181.775 396.298 180.489 396.664" stroke="#263238" stroke-width="1.15862" stroke-linecap="round" stroke-linejoin="round"/>
<path d="M157.363 399.573C157.363 399.573 160.156 405.215 161.639 404.728C163.122 404.242 160.978 393.791 164.593 391.126C168.208 388.461 180.698 391.914 185.865 387.477C185.865 387.477 185.784 393.594 189.237 396.456C192.69 399.318 191.369 405.053 193.014 404.728C194.659 404.404 195.146 400.233 195.47 398.472C196.467 393.189 197.938 378.277 189.075 378.277C189.075 378.277 186.931 375.16 174.013 375.485C161.094 375.809 160.793 372.206 160.793 372.206C160.793 372.206 150.956 385.878 157.363 399.573Z" fill="#263238" stroke="#263238" stroke-width="1.15862" stroke-linecap="round" stroke-linejoin="round"/>
<path d="M410.823 149.346L473.388 157.12C488.126 158.951 501.369 148.303 502.249 133.948L507.59 46.0783C508.459 31.723 496.63 19.6502 481.788 19.7545L412.549 20.2875C398.298 20.4033 386.874 31.7462 387.059 45.5569L388.403 125.096C388.586 131.163 390.956 136.959 395.076 141.416C399.196 145.872 404.789 148.689 410.823 149.346Z" fill="#A23834"/>
<path opacity="0.3" d="M410.823 149.346L473.388 157.12C488.126 158.951 501.369 148.303 502.249 133.948L507.59 46.0783C508.459 31.723 496.63 19.6502 481.788 19.7545L412.549 20.2875C398.298 20.4033 386.874 31.7462 387.059 45.5569L388.403 125.096C388.586 131.163 390.956 136.959 395.076 141.416C399.196 145.872 404.789 148.689 410.823 149.346Z" fill="white"/>
<path d="M497.823 116.731V121.238H433.114V116.731C433.114 114.514 433.994 112.388 435.56 110.82C437.127 109.251 439.251 108.369 441.468 108.366H489.458C491.677 108.366 493.804 109.247 495.373 110.816C496.942 112.384 497.823 114.512 497.823 116.731Z" stroke="#263238" stroke-width="1.15862" stroke-miterlimit="10"/>
<path d="M499.422 143.854V121.238H431.492V151.918" stroke="#263238" stroke-width="1.15862" stroke-miterlimit="10"/>
<path d="M420.092 67.6633C420.092 67.6633 422.756 60.5494 429.453 61.6848C436.15 62.8203 431.029 68.4164 427.808 68.9146C427.796 68.9146 427.321 66.9566 420.092 67.6633Z" fill="white" stroke="#263238" stroke-width="1.15862" stroke-linecap="round" stroke-linejoin="round"/>
<path d="M415.654 71.6953C414.774 72.5759 412.653 72.6454 414.078 70.7336C415.25 69.2 416.833 68.0307 418.643 67.3621C421.818 65.9486 423.058 66.2035 425.931 65.601C428.804 64.9985 429.337 66.1455 430.334 66.6901C432.709 67.9877 433.277 68.2079 433.868 69.5171C434.458 70.8263 435.119 72.5179 433.277 72.5179C431.434 72.5179 431.481 69.7372 429.801 69.8415C428.121 69.9458 427.356 72.5179 426.209 72.5179H425.78C424.796 72.5179 424.749 71.7069 425.34 70.4208C425.931 69.1348 426.591 67.9877 426.591 67.9877C425.626 68.5015 424.854 69.3146 424.39 70.305C423.602 71.9734 423.463 72.6222 422.073 72.6222C420.682 72.6222 420.729 71.5563 422.166 69.1463C421.33 69.6389 420.639 70.3421 420.161 71.1855C419.466 72.5179 419.095 72.4252 418.168 72.4252C417.01 72.4252 417.01 70.4324 419.188 69.1232C419.188 69.2159 418.713 68.6366 415.654 71.6953Z" fill="white" stroke="#263238" stroke-width="1.15862" stroke-linecap="round" stroke-linejoin="round"/>
<path d="M424.042 66.9218C424.042 66.9218 423.197 66.9218 422.675 68.3006L424.042 66.9218Z" fill="white"/>
<path d="M424.042 66.9218C424.042 66.9218 423.197 66.9218 422.675 68.3006" stroke="#263238" stroke-width="1.15862" stroke-linecap="round" stroke-linejoin="round"/>
<path d="M440.958 159.461L445.593 167.559H449.555L451.282 165.115L447.006 154.675L440.958 159.461Z" fill="white" stroke="#263238" stroke-width="1.15862" stroke-linecap="round" stroke-linejoin="round"/>
<path d="M451.942 89.3411L447.157 91.1369C447.157 91.1369 413.07 101.008 411.576 109.374C410.081 117.739 441.607 161.43 441.607 161.43C441.607 161.43 445.407 161.986 448.362 156.946C448.362 156.946 437.239 123.451 432.141 116.881C432.141 116.881 469.541 110.3 471.337 105.515C473.133 100.73 468.151 88.8776 468.151 88.8776L451.942 89.3411Z" fill="#263238" stroke="#263238" stroke-width="1.15862" stroke-linecap="round" stroke-linejoin="round"/>
<path d="M443.067 167.397C443.148 167.251 443.265 167.127 443.407 167.038C443.549 166.949 443.711 166.897 443.878 166.887C445.308 166.797 446.698 166.377 447.939 165.659C449.179 164.942 450.236 163.946 451.027 162.751C451.168 162.55 451.378 162.407 451.618 162.352C451.857 162.296 452.109 162.331 452.324 162.45C454.09 163.489 455.574 164.945 456.646 166.69C457.032 167.304 457.167 168.042 457.022 168.752C456.877 169.462 456.465 170.089 455.87 170.502L441.086 180.443C440.298 180.974 439.37 181.256 438.421 181.254H434.748C434.542 181.255 434.339 181.206 434.156 181.112C433.972 181.017 433.814 180.88 433.695 180.712C433.576 180.544 433.499 180.35 433.47 180.146C433.442 179.942 433.463 179.734 433.532 179.539C433.679 179.092 433.936 178.688 434.28 178.366C434.625 178.044 435.045 177.814 435.501 177.697C437.934 177.106 442.58 168.382 443.067 167.397Z" fill="#263238"/>
<path d="M443.067 167.397C443.148 167.251 443.265 167.127 443.407 167.038C443.549 166.949 443.711 166.897 443.878 166.887C445.308 166.797 446.698 166.377 447.939 165.659C449.179 164.942 450.236 163.946 451.027 162.751C451.168 162.55 451.378 162.407 451.618 162.352C451.857 162.296 452.109 162.331 452.324 162.45C454.09 163.489 455.574 164.945 456.646 166.69C457.032 167.304 457.167 168.042 457.022 168.752C456.877 169.462 456.465 170.089 455.87 170.502L441.086 180.443C440.298 180.974 439.37 181.256 438.421 181.254H434.748C434.542 181.255 434.339 181.206 434.156 181.112C433.972 181.017 433.814 180.88 433.695 180.712C433.576 180.544 433.499 180.35 433.47 180.146C433.442 179.942 433.463 179.734 433.532 179.539C433.679 179.092 433.936 178.688 434.28 178.366C434.625 178.044 435.045 177.814 435.501 177.697C437.934 177.106 442.58 168.382 443.067 167.397Z" fill="#BFBFBF" stroke="#263238" stroke-width="1.15862" stroke-linecap="round" stroke-linejoin="round"/>
<path d="M443.067 167.397C443.148 167.251 443.265 167.127 443.407 167.038C443.549 166.949 443.711 166.897 443.878 166.887C445.308 166.797 446.698 166.377 447.939 165.659C449.179 164.942 450.236 163.946 451.027 162.751C451.168 162.55 451.378 162.407 451.618 162.352C451.857 162.296 452.109 162.331 452.324 162.45C454.09 163.489 455.574 164.945 456.646 166.69C457.032 167.304 457.167 168.042 457.022 168.752C456.877 169.462 456.465 170.089 455.87 170.502L441.086 180.443C440.298 180.974 439.37 181.256 438.421 181.254H434.748C434.542 181.255 434.339 181.206 434.156 181.112C433.972 181.017 433.814 180.88 433.695 180.712C433.576 180.544 433.499 180.35 433.47 180.146C433.442 179.942 433.463 179.734 433.532 179.539C433.679 179.092 433.936 178.688 434.28 178.366C434.625 178.044 435.045 177.814 435.501 177.697C437.934 177.106 442.58 168.382 443.067 167.397Z" stroke="#263238" stroke-width="1.15862" stroke-linecap="round" stroke-linejoin="round"/>
<path d="M424.888 112.768C424.888 112.768 427.009 112.919 430.577 115.607" stroke="#7F7F7F" stroke-width="1.15862" stroke-linecap="round" stroke-linejoin="round"/>
<path d="M438.931 161.43L437.367 173.213L444.376 174.418L447.98 162.832L438.931 161.43Z" fill="white" stroke="#263238" stroke-width="1.15862" stroke-linecap="round" stroke-linejoin="round"/>
<path d="M463.157 92.4925C463.586 94.1146 462.845 99.4443 461.35 100.197C455.557 103.268 445.987 111.424 443.866 120.149C441.178 131.202 438.189 164.999 438.189 164.999C438.189 164.999 440.588 168.88 446.867 167.084C446.867 167.084 458.523 138.976 459.415 125.223C465.449 121.221 471.865 117.826 478.567 115.086C484.221 112.954 487.303 109.408 488.427 106.373C491.416 98.2625 485.438 85.1469 485.438 85.1469L463.308 89.596L463.157 92.4925Z" fill="#263238" stroke="#263238" stroke-width="1.15862" stroke-linecap="round" stroke-linejoin="round"/>
<path d="M453.981 121.643C455.522 121.814 456.962 122.495 458.071 123.578" stroke="#7F7F7F" stroke-width="1.15862" stroke-linecap="round" stroke-linejoin="round"/>
<path d="M437.065 170.305C436.939 170.195 436.785 170.12 436.621 170.088C436.456 170.055 436.286 170.066 436.127 170.12C434.122 170.803 426.742 173.179 422.478 172.982C419.373 172.831 418.4 174.592 418.11 175.936C418.072 176.122 418.072 176.313 418.11 176.498C418.148 176.684 418.224 176.859 418.333 177.014C418.441 177.169 418.58 177.301 418.741 177.4C418.902 177.5 419.082 177.565 419.269 177.593L443.241 181.219C443.955 181.332 444.685 181.165 445.278 180.753C445.872 180.341 446.284 179.715 446.427 179.007C446.865 176.998 446.801 174.913 446.242 172.935C446.167 172.7 446.006 172.502 445.791 172.379C445.576 172.257 445.324 172.22 445.083 172.275C443.685 172.588 442.234 172.574 440.843 172.232C439.452 171.89 438.159 171.231 437.065 170.305Z" fill="#263238"/>
<path d="M437.065 170.305C436.939 170.195 436.785 170.12 436.621 170.088C436.456 170.055 436.286 170.066 436.127 170.12C434.122 170.803 426.742 173.179 422.478 172.982C419.373 172.831 418.4 174.592 418.11 175.936C418.072 176.122 418.072 176.313 418.11 176.498C418.148 176.684 418.224 176.859 418.333 177.014C418.441 177.169 418.58 177.301 418.741 177.4C418.902 177.5 419.082 177.565 419.269 177.593L443.241 181.219C443.955 181.332 444.685 181.165 445.278 180.753C445.872 180.341 446.284 179.715 446.427 179.007C446.865 176.998 446.801 174.913 446.242 172.935C446.167 172.7 446.006 172.502 445.791 172.379C445.576 172.257 445.324 172.22 445.083 172.275C443.685 172.588 442.234 172.574 440.843 172.232C439.452 171.89 438.159 171.231 437.065 170.305Z" fill="#BFBFBF" stroke="#263238" stroke-width="1.15862" stroke-linecap="round" stroke-linejoin="round"/>
<path d="M437.065 170.305C436.939 170.195 436.785 170.12 436.621 170.088C436.456 170.055 436.286 170.066 436.127 170.12C434.122 170.803 426.742 173.179 422.478 172.982C419.373 172.831 418.4 174.592 418.11 175.936C418.072 176.122 418.072 176.313 418.11 176.498C418.148 176.684 418.224 176.859 418.333 177.014C418.441 177.169 418.58 177.301 418.741 177.4C418.902 177.5 419.082 177.565 419.269 177.593L443.241 181.219C443.955 181.332 444.685 181.165 445.278 180.753C445.872 180.341 446.284 179.715 446.427 179.007C446.865 176.998 446.801 174.913 446.242 172.935C446.167 172.7 446.006 172.502 445.791 172.379C445.576 172.257 445.324 172.22 445.083 172.275C443.685 172.588 442.234 172.574 440.843 172.232C439.452 171.89 438.159 171.231 437.065 170.305Z" stroke="#263238" stroke-width="1.15862" stroke-linecap="round" stroke-linejoin="round"/>
<path d="M448.373 111.865C452.451 105.92 458.605 101.717 465.625 100.081" stroke="#7F7F7F" stroke-width="1.15862" stroke-linecap="round" stroke-linejoin="round"/>
<path d="M488.728 89.9436C470.48 95.0299 447.157 91.1022 447.157 91.1022C447.554 87.716 447.464 84.2903 446.89 80.9295H468.348C469.114 80.9324 469.873 80.7834 470.581 80.4911C471.289 80.1987 471.932 79.7689 472.473 79.2264C473.544 78.1398 474.144 76.6742 474.141 75.148H445.813C445.048 71.6722 444.005 67.7097 442.673 63.3301C441.502 59.2154 440.726 54.9982 440.356 50.736L433.057 63.921C433.057 63.921 432.13 67.1304 427.46 67.2231C422.791 67.3158 423.324 65.6242 427.368 52.4507C429.909 44.828 433.903 37.7696 439.128 31.6651C439.344 31.4104 439.637 31.2318 439.962 31.1553C439.962 31.051 439.962 30.9931 439.962 30.9931C469.877 23.2651 482.75 32.8237 482.75 32.8237C474.373 57.1547 488.728 89.9436 488.728 89.9436Z" fill="#A23834" stroke="#263238" stroke-width="1.15862" stroke-linecap="round" stroke-linejoin="round"/>
<path d="M446.937 69.3434C446.937 69.3434 442.974 71.7417 444.121 72.2978C446.045 73.2363 450.227 70.2818 450.227 70.2818C450.227 70.2818 454.781 69.9806 452.463 68.9378L450.146 67.8951L446.937 69.3434Z" fill="white"/>
<path opacity="0.2" d="M446.937 69.3434C446.937 69.3434 442.974 71.7417 444.121 72.2978C446.045 73.2363 450.227 70.2818 450.227 70.2818C450.227 70.2818 454.781 69.9806 452.463 68.9378L450.146 67.8951L446.937 69.3434Z" fill="black"/>
<path d="M446.937 69.3434C446.937 69.3434 442.974 71.7417 444.121 72.2978C446.045 73.2363 450.227 70.2818 450.227 70.2818C450.227 70.2818 454.781 69.9806 452.463 68.9378L450.146 67.8951L446.937 69.3434Z" stroke="#263238" stroke-width="1.15862" stroke-linecap="round" stroke-linejoin="round"/>
<path d="M452.127 33.4262C452.127 33.4262 454.445 43.9696 457.341 43.9696C460.238 43.9696 466.274 28.1081 466.274 28.1081L462.265 25.3622L452.127 33.4262Z" fill="white"/>
<path d="M445.674 24.4237C445.941 25.7416 446.369 27.0218 446.948 28.2356C448.93 32.0127 451.733 38.1417 455.453 37.1801C458.743 36.3343 463.621 31.387 464.154 28.4209C464.448 26.7437 464.626 25.048 464.687 23.3462L445.674 24.4237Z" fill="#263238" stroke="#263238" stroke-width="1.15862" stroke-linecap="round" stroke-linejoin="round"/>
<path d="M452.127 33.4262C452.127 33.4262 454.445 43.9696 457.341 43.9696C460.238 43.9696 466.274 28.1081 466.274 28.1081L462.265 25.3622L452.127 33.4262Z" stroke="#263238" stroke-width="1.15862" stroke-linecap="round" stroke-linejoin="round"/>
<path d="M446.636 2.47949C446.636 2.47949 438.34 4.79672 439.811 17.7269C441.341 31.2132 443.287 25.9763 442.43 28.7453C441.572 31.5144 454.688 31.7462 454.688 31.7462C454.688 31.7462 466.147 30.3327 469.623 32.8353C473.098 35.3379 475.114 29.3594 473.77 25.3622C472.426 21.365 467.607 13.9035 466.228 7.86706C464.247 -0.776229 451.791 -0.544502 446.636 2.47949Z" fill="#263238" stroke="#263238" stroke-width="1.15862" stroke-linecap="round" stroke-linejoin="round"/>
<path d="M444.121 13.3937C444.121 13.3937 444.121 22.9639 446.045 26.8569C447.968 30.7498 450.505 37.018 454.445 36.2996C457.92 35.6392 463.424 31.0163 464.165 28.0618C464.609 26.3011 464.907 24.507 465.058 22.6974C465.486 22.5121 466.83 23.5432 467.444 20.1601C467.676 18.9319 468.846 15.3055 466.181 14.7725C463.296 14.2164 463.32 18.3642 463.32 18.3642L459.079 7.56589L449.277 5.92065L445.998 7.41527L444.121 13.3937Z" fill="white" stroke="#263238" stroke-width="1.15862" stroke-linecap="round" stroke-linejoin="round"/>
<path d="M450.308 22.709C450.158 23.9453 449.886 25.1639 449.497 26.347C449.443 26.5436 449.467 26.7537 449.564 26.9331C449.661 27.1125 449.824 27.2471 450.019 27.3087L452.023 27.8996" stroke="#263238" stroke-width="1.15862" stroke-linecap="round" stroke-linejoin="round"/>
<path d="M453.587 29.9156C453.587 29.9156 457.295 29.8113 458.801 27.7374" stroke="#263238" stroke-width="1.15862" stroke-linecap="round" stroke-linejoin="round"/>
<path d="M445.882 19.7313C445.969 19.5422 446.091 19.3719 446.244 19.2304C446.396 19.0889 446.575 18.9789 446.769 18.9067C446.964 18.8346 447.172 18.8017 447.379 18.81C447.587 18.8183 447.791 18.8676 447.98 18.955" stroke="#263238" stroke-width="1.15862" stroke-linecap="round" stroke-linejoin="round"/>
<path d="M452.359 18.283C452.359 18.283 454.201 16.9622 456.669 18.8044" stroke="#263238" stroke-width="1.15862" stroke-linecap="round" stroke-linejoin="round"/>
<path d="M447.898 22.6511C447.968 23.1608 447.829 23.6243 447.562 23.6591C447.296 23.6938 447.029 23.2999 446.948 22.7785C446.867 22.2571 447.029 21.8053 447.284 21.7705C447.539 21.7357 447.817 22.1297 447.898 22.6511Z" fill="#263238"/>
<path d="M454.549 22.2571C454.63 22.7785 454.479 23.2304 454.224 23.2651C453.97 23.2999 453.68 22.906 453.61 22.3962C453.541 21.8864 453.68 21.4113 453.946 21.3766C454.213 21.3418 454.445 21.7358 454.549 22.2571Z" fill="#263238"/>
<path d="M443.496 7.56584C443.496 7.56584 440.286 16.0122 444.99 15.792C449.694 15.5719 453.692 12.5479 458.372 15.0389C463.053 17.53 457.631 10.4045 457.631 10.4045C457.631 10.4045 462.416 15.4908 462.265 19.0014C462.115 22.512 463.98 16.8348 463.679 14.9694C463.378 13.104 460.238 3.85826 460.238 3.85826L455.163 2.69965L446.473 3.59178L443.496 7.56584Z" fill="#263238" stroke="#263238" stroke-width="1.15862" stroke-linecap="round" stroke-linejoin="round"/>
<path d="M464.525 26.6714C464.212 28.027 459.311 32.87 462.555 33.878C465.799 34.886 472.867 33.878 473.933 30.2747C474.999 26.6714 471.615 24.7713 471.615 24.7713C471.615 24.7713 464.93 24.864 464.525 26.6714Z" fill="#263238" stroke="#263238" stroke-width="1.15862" stroke-linecap="round" stroke-linejoin="round"/>
<path d="M465.255 66.0876L454.491 66.6205C454.491 66.6205 445.442 64.4076 442.372 64.5929C439.983 64.8755 437.66 65.5611 435.501 66.6205C434.527 67.3445 433.776 68.3283 433.335 69.4591C433.245 70.0156 433.245 70.5827 433.335 71.1391C433.334 71.4329 433.445 71.7159 433.645 71.931C433.845 72.1461 434.119 72.2772 434.412 72.2977C436.474 72.4484 439.892 72.6338 440.703 71.6142C440.703 71.6142 440.031 72.4136 441.248 72.4136C442.465 72.4136 444.121 70.4903 444.121 70.4903L447.759 70.3397C447.759 70.3397 449.324 72.2862 454.039 72.4136C454.805 72.3024 455.555 72.1042 456.275 71.8227L465.023 72.9813L466.181 71.4867V66.4236L465.255 66.0876Z" fill="white" stroke="#263238" stroke-width="1.15862" stroke-linecap="round" stroke-linejoin="round"/>
<path d="M434.98 71.4752C434.98 71.4752 435.988 67.8603 437.146 67.142C438.167 66.635 439.215 66.1862 440.286 65.798" stroke="#263238" stroke-width="1.15862" stroke-linecap="round" stroke-linejoin="round"/>
<path d="M437.482 71.4752C437.602 70.6232 437.852 69.7948 438.224 69.0189C439.176 67.9548 440.367 67.1327 441.7 66.6206C442.513 66.5427 443.331 66.5427 444.144 66.6206" stroke="#263238" stroke-width="1.15862" stroke-linecap="round" stroke-linejoin="round"/>
<path d="M440.947 70.8032C440.947 70.8032 441.271 69.2623 441.677 68.9378C442.429 68.4915 443.258 68.1889 444.121 68.0457C444.762 67.9977 445.404 67.9977 446.045 68.0457" stroke="#263238" stroke-width="1.15862" stroke-linecap="round" stroke-linejoin="round"/>
<path d="M463.366 73.1204C463.366 73.1204 484.094 75.82 488.577 76.0401C493.061 76.2603 491.937 54.2813 491.486 44.8617C491.034 35.4422 481.834 32.256 481.834 32.256C475.323 45.7886 482.738 63.4807 482.738 63.4807L464.351 65.7284C464.351 65.7284 465.753 70.4324 463.366 73.1204Z" fill="#A23834" stroke="#263238" stroke-width="1.15862" stroke-linecap="round" stroke-linejoin="round"/>
<path d="M473.979 41.0499C474.23 45.6731 475.947 50.0962 478.88 53.6788" stroke="#263238" stroke-width="1.15862" stroke-linecap="round" stroke-linejoin="round"/>
<path d="M442.175 38.8253C441.303 43.1171 440.834 47.4808 440.773 51.8598" stroke="#263238" stroke-width="1.15862" stroke-linecap="round" stroke-linejoin="round"/>
<path d="M428.55 45.0935H423.915L430.299 75.1481H434.934C435.241 75.1599 435.547 75.0987 435.826 74.9695C436.105 74.8404 436.349 74.6469 436.539 74.405C436.729 74.163 436.859 73.8795 436.918 73.5777C436.978 73.2759 436.964 72.9644 436.88 72.6686L431.539 47.5614C431.376 46.8813 430.996 46.2726 430.457 45.8274C429.918 45.3822 429.248 45.1246 428.55 45.0935Z" fill="#263238"/>
<path opacity="0.2" d="M428.55 45.0935H423.915L430.299 75.1481H434.934C435.241 75.1599 435.547 75.0987 435.826 74.9695C436.105 74.8404 436.349 74.6469 436.539 74.405C436.729 74.163 436.859 73.8795 436.918 73.5777C436.978 73.2759 436.964 72.9644 436.88 72.6686L431.539 47.5614C431.376 46.8813 430.996 46.2726 430.457 45.8274C429.918 45.3822 429.248 45.1246 428.55 45.0935Z" fill="white"/>
<path d="M428.55 45.0935H423.915L430.299 75.148H434.934C435.241 75.1599 435.547 75.0987 435.826 74.9695C436.105 74.8404 436.349 74.6469 436.539 74.405C436.729 74.163 436.859 73.8795 436.918 73.5777C436.978 73.2759 436.964 72.9644 436.88 72.6686L431.539 47.5614C431.376 46.8813 430.996 46.2726 430.457 45.8274C429.918 45.3822 429.248 45.1246 428.55 45.0935Z" stroke="#263238" stroke-width="1.15862" stroke-linecap="round" stroke-linejoin="round"/>
<path d="M436.892 72.6686H461.223V73.8272C461.223 74.1898 461.078 74.5375 460.822 74.7939C460.566 75.0503 460.218 75.1944 459.855 75.1944H438.247C437.885 75.1944 437.537 75.0503 437.28 74.7939C437.024 74.5375 436.88 74.1898 436.88 73.8272V72.6686H436.892Z" fill="#263238"/>
<path opacity="0.2" d="M436.892 72.6686H461.223V73.8272C461.223 74.1898 461.078 74.5375 460.822 74.7939C460.566 75.0503 460.218 75.1944 459.855 75.1944H438.247C437.885 75.1944 437.537 75.0503 437.28 74.7939C437.024 74.5375 436.88 74.1898 436.88 73.8272V72.6686H436.892Z" fill="white"/>
<path d="M436.892 72.6686H461.223V73.8272C461.223 74.1898 461.078 74.5375 460.822 74.7939C460.566 75.0503 460.218 75.1944 459.855 75.1944H438.247C437.885 75.1944 437.537 75.0503 437.28 74.7939C437.024 74.5375 436.88 74.1898 436.88 73.8272V72.6686H436.892Z" stroke="#263238" stroke-width="1.15862" stroke-linecap="round" stroke-linejoin="round"/>
<path d="M433.149 75.148H395.471C394.769 75.1168 394.097 74.858 393.556 74.4106C393.014 73.9632 392.633 73.3517 392.47 72.6686L387.141 47.5613C387.056 47.2661 387.042 46.955 387.101 46.6536C387.161 46.3522 387.291 46.0693 387.481 45.8281C387.671 45.587 387.916 45.3946 388.195 45.2668C388.474 45.1391 388.78 45.0796 389.087 45.0934H426.765C427.464 45.1227 428.135 45.3796 428.675 45.8251C429.214 46.2706 429.593 46.8803 429.754 47.5613L435.096 72.6686C435.18 72.9643 435.193 73.2758 435.134 73.5777C435.075 73.8795 434.945 74.163 434.755 74.4049C434.565 74.6468 434.321 74.8403 434.041 74.9695C433.762 75.0986 433.457 75.1598 433.149 75.148Z" fill="#263238"/>
<path d="M433.149 75.148H395.471C394.769 75.1168 394.097 74.858 393.556 74.4106C393.014 73.9632 392.633 73.3517 392.47 72.6686L387.141 47.5613C387.056 47.2661 387.042 46.955 387.101 46.6536C387.161 46.3522 387.291 46.0693 387.481 45.8281C387.671 45.587 387.916 45.3946 388.195 45.2668C388.474 45.1391 388.78 45.0796 389.087 45.0934H426.765C427.464 45.1227 428.135 45.3796 428.675 45.8251C429.214 46.2706 429.593 46.8803 429.754 47.5613L435.096 72.6686C435.18 72.9643 435.193 73.2758 435.134 73.5777C435.075 73.8795 434.945 74.163 434.755 74.4049C434.565 74.6468 434.321 74.8403 434.041 74.9695C433.762 75.0986 433.457 75.1598 433.149 75.148Z" fill="#BFBFBF" stroke="#263238" stroke-width="1.15862" stroke-linecap="round" stroke-linejoin="round"/>
<path d="M433.149 75.148H395.471C394.769 75.1168 394.097 74.858 393.556 74.4106C393.014 73.9632 392.633 73.3517 392.47 72.6686L387.141 47.5613C387.056 47.2661 387.042 46.955 387.101 46.6536C387.161 46.3522 387.291 46.0693 387.481 45.8281C387.671 45.587 387.916 45.3946 388.195 45.2668C388.474 45.1391 388.78 45.0796 389.087 45.0934H426.765C427.464 45.1227 428.135 45.3796 428.675 45.8251C429.214 46.2706 429.593 46.8803 429.754 47.5613L435.096 72.6686C435.18 72.9643 435.193 73.2758 435.134 73.5777C435.075 73.8795 434.945 74.163 434.755 74.4049C434.565 74.6468 434.321 74.8403 434.041 74.9695C433.762 75.0986 433.457 75.1598 433.149 75.148Z" stroke="#263238" stroke-width="1.15862" stroke-linecap="round" stroke-linejoin="round"/>
<path d="M361.651 35.3147C359.882 35.242 358.21 34.4881 356.984 33.2109C355.758 31.9336 355.074 30.2318 355.074 28.4615C355.074 26.6912 355.758 24.9894 356.984 23.7121C358.21 22.4349 359.882 21.681 361.651 21.6083H412.827C414.596 21.681 416.268 22.4349 417.494 23.7121C418.72 24.9894 419.404 26.6912 419.404 28.4615C419.404 30.2318 418.72 31.9336 417.494 33.2109C416.268 34.4881 414.596 35.242 412.827 35.3147H361.651Z" fill="white"/>
<path d="M361.651 35.3147C359.882 35.242 358.21 34.4881 356.984 33.2109C355.758 31.9336 355.074 30.2318 355.074 28.4615C355.074 26.6912 355.758 24.9894 356.984 23.7121C358.21 22.4349 359.882 21.681 361.651 21.6083H412.827C414.596 21.681 416.268 22.4349 417.494 23.7121C418.72 24.9894 419.404 26.6912 419.404 28.4615C419.404 30.2318 418.72 31.9336 417.494 33.2109C416.268 34.4881 414.596 35.242 412.827 35.3147H361.651Z" stroke="#263238" stroke-width="1.15862" stroke-miterlimit="10"/>
<path d="M392.262 23.9487H361.651C360.494 24.0074 359.403 24.5084 358.605 25.3483C357.806 26.1882 357.361 27.3027 357.361 28.4615C357.361 29.6204 357.806 30.7349 358.605 31.5748C359.403 32.4147 360.494 32.9157 361.651 32.9744H390.176L392.262 23.9487Z" fill="#A23834"/>
<path d="M391.427 136.323V75.1364H474.141C474.142 75.9032 473.992 76.6626 473.697 77.3707C473.403 78.0787 472.971 78.7213 472.426 79.2611C471.886 79.8036 471.243 80.2334 470.535 80.5258C469.827 80.8181 469.068 80.9672 468.302 80.9643H399.99V145.418" stroke="#263238" stroke-width="1.15862" stroke-linecap="round" stroke-linejoin="round"/>
<path d="M409.363 349.057H371.731C370.888 349.054 370.079 348.726 369.472 348.141C368.865 347.556 368.508 346.759 368.475 345.917L365.891 276.493C365.874 276.037 365.953 275.582 366.123 275.159C366.293 274.736 366.55 274.353 366.878 274.036C367.206 273.719 367.598 273.474 368.027 273.319C368.455 273.163 368.912 273.1 369.367 273.133L413.395 276.238C414.242 276.291 415.035 276.674 415.604 277.304C416.173 277.934 416.474 278.761 416.442 279.609L412.619 345.94C412.58 346.778 412.22 347.569 411.614 348.15C411.008 348.73 410.202 349.055 409.363 349.057Z" fill="#A23834" stroke="#263238" stroke-width="1.15862" stroke-linecap="round" stroke-linejoin="round"/>
<path d="M382.668 307.625C382.938 306.685 383.124 305.724 383.224 304.751C383.224 304.126 382.877 302.735 382.344 302.434C381.811 302.133 379.065 302.631 379.065 302.631C379.065 302.631 379.714 300.487 379.273 300.001C378.833 299.514 377.431 299.711 376.887 300.001C375.995 300.406 374.917 302.191 374.315 302.967C373.585 303.917 372.31 305.945 371.627 306.918C371.302 307.404 370.283 308.841 370.283 308.841L361.906 311.83L362.358 320.311L371.8 314.611C371.8 314.611 380.27 314.611 382.054 312.699C382.923 311.703 382.471 308.864 382.668 307.625Z" fill="white" stroke="#263238" stroke-width="1.15862" stroke-linecap="round" stroke-linejoin="round"/>
<path d="M369.043 290.454C368.568 297.174 367.56 304.23 365.509 308.285H368.985C368.985 308.285 365.834 313.927 367.826 319.257C367.826 319.257 358.256 325.687 356.124 321.574C353.992 317.461 356.46 300.835 358.65 292.841C360.84 284.846 361.512 272.565 369.321 273.144" fill="#A23834"/>
<path d="M369.043 290.454C368.568 297.174 367.56 304.23 365.509 308.285H368.985C368.985 308.285 365.834 313.927 367.826 319.257C367.826 319.257 358.256 325.687 356.124 321.574C353.992 317.461 356.46 300.835 358.65 292.841C360.84 284.846 361.512 272.565 369.321 273.144" stroke="#263238" stroke-width="1.15862" stroke-linecap="round" stroke-linejoin="round"/>
<path d="M364.072 308.841C362.482 309.462 361.123 310.558 360.18 311.981" stroke="#263238" stroke-width="1.15862" stroke-linecap="round" stroke-linejoin="round"/>
<path d="M382.761 287.013L384.337 286.804C384.594 286.768 384.856 286.784 385.107 286.849C385.358 286.915 385.594 287.03 385.801 287.187C386.008 287.344 386.181 287.541 386.312 287.766C386.442 287.99 386.527 288.238 386.561 288.496L388.334 301.507C388.37 301.765 388.355 302.027 388.289 302.28C388.223 302.532 388.109 302.768 387.952 302.976C387.795 303.184 387.598 303.358 387.373 303.49C387.149 303.622 386.9 303.708 386.642 303.743L385.067 303.952L382.761 287.013Z" fill="white" stroke="#263238" stroke-width="1.15862" stroke-linecap="round" stroke-linejoin="round"/>
<path d="M380.08 304.641L385.281 303.932C386.517 303.764 387.383 302.625 387.214 301.388L385.515 288.921C385.347 287.685 384.208 286.819 382.971 286.987L377.771 287.696C376.535 287.865 375.669 289.003 375.837 290.24L377.536 302.707C377.705 303.944 378.844 304.809 380.08 304.641Z" fill="#BFBFBF"/>
<path d="M380.08 304.641L385.281 303.932C386.517 303.764 387.383 302.625 387.214 301.388L385.515 288.921C385.347 287.685 384.208 286.819 382.971 286.987L377.771 287.696C376.535 287.865 375.669 289.003 375.837 290.24L377.536 302.707C377.705 303.944 378.844 304.809 380.08 304.641Z" stroke="#263238" stroke-width="1.15862" stroke-linecap="round" stroke-linejoin="round"/>
<path d="M377.037 289.828C377.05 289.922 377.082 290.012 377.129 290.093C377.177 290.175 377.24 290.246 377.316 290.303C377.391 290.36 377.477 290.402 377.568 290.426C377.66 290.45 377.755 290.455 377.848 290.442C377.942 290.429 378.032 290.398 378.114 290.35C378.195 290.303 378.266 290.239 378.323 290.164C378.38 290.089 378.422 290.003 378.446 289.911C378.47 289.82 378.475 289.725 378.463 289.631C378.434 289.443 378.333 289.274 378.182 289.16C378.03 289.045 377.84 288.994 377.651 289.017C377.558 289.03 377.468 289.061 377.386 289.109C377.305 289.157 377.233 289.22 377.176 289.295C377.119 289.371 377.077 289.456 377.054 289.548C377.03 289.639 377.024 289.735 377.037 289.828Z" fill="white" stroke="#263238" stroke-width="1.15862" stroke-linecap="round" stroke-linejoin="round"/>
<path d="M378.358 302.654C378.196 301.69 378.118 300.713 378.126 299.734C378.242 299.109 378.694 297.765 379.285 297.487C379.876 297.209 382.529 298.054 382.529 298.054C382.529 298.054 382.112 295.841 382.61 295.413C383.109 294.984 384.476 295.332 384.928 295.633C385.773 296.131 386.642 298.031 387.152 298.865C387.766 299.897 388.809 302.04 389.377 303.094C389.655 303.616 390.535 305.145 390.535 305.145L398.02 308.575L394.544 314.866L388.403 310.718C388.403 310.718 379.98 309.756 378.416 307.671C377.651 306.663 378.416 303.94 378.358 302.654Z" fill="white" stroke="#263238" stroke-width="1.15862" stroke-linecap="round" stroke-linejoin="round"/>
<path d="M412.734 279.806C412.92 278.972 413.117 278.149 413.337 277.338C413.382 277.128 413.484 276.935 413.633 276.779C413.781 276.624 413.97 276.513 414.178 276.459C414.386 276.405 414.605 276.41 414.81 276.473C415.016 276.536 415.2 276.655 415.341 276.817L415.631 277.13C417.165 278.764 418.268 280.755 418.84 282.923C420.879 290.651 425.294 310.069 422.166 324.32C421.986 325.121 421.53 325.832 420.877 326.328C420.224 326.824 419.416 327.073 418.597 327.031C412.862 326.684 402.828 325.247 391.856 314.379C391.856 314.379 394.173 308.945 396.896 307.08L412.074 313.209C411.354 307.778 411.014 302.304 411.054 296.826" fill="#A23834"/>
<path d="M412.734 279.806C412.92 278.972 413.117 278.149 413.337 277.338C413.382 277.128 413.484 276.935 413.633 276.779C413.781 276.624 413.97 276.513 414.178 276.459C414.386 276.405 414.605 276.41 414.81 276.473C415.016 276.536 415.2 276.655 415.341 276.817L415.631 277.13C417.165 278.764 418.268 280.755 418.84 282.923C420.879 290.651 425.294 310.069 422.166 324.32C421.986 325.121 421.53 325.832 420.877 326.328C420.224 326.824 419.416 327.073 418.597 327.031C412.862 326.684 402.828 325.247 391.856 314.379C391.856 314.379 394.173 308.945 396.896 307.08L412.074 313.209C411.354 307.778 411.014 302.304 411.054 296.826" stroke="#263238" stroke-width="1.15862" stroke-linecap="round" stroke-linejoin="round"/>
<path d="M413.383 314.194C414.011 314.532 414.565 314.993 415.012 315.548C415.46 316.103 415.792 316.741 415.99 317.427" stroke="#263238" stroke-width="1.15862" stroke-linecap="round" stroke-linejoin="round"/>
<path d="M392.957 264.327L402.817 248.512C402.817 248.512 407.926 246.392 405.192 243.669C405.192 243.669 409.583 236.068 403.883 236.068C403.883 236.068 403.153 229.893 397.638 232.384C397.638 232.384 392.841 226.684 389.632 230.843C389.632 230.843 383.051 227.634 381.359 231.666C381.359 231.666 376.551 231.666 376.725 235.234C376.725 235.234 373.701 239.266 377.686 239.741C377.686 239.741 376.632 242.951 381.347 242.951C386.063 242.951 391.879 248.744 391.879 248.744L393.038 254.676L392.957 264.327Z" fill="#263238" stroke="#263238" stroke-width="1.15862" stroke-linecap="round" stroke-linejoin="round"/>
<path d="M399.376 275.45C399.376 275.45 388.658 281.336 380.838 273.793C380.838 273.793 382.807 270.085 383.491 260.874L394.857 258.847C394.529 261.98 394.646 265.143 395.204 268.243C395.958 271.754 398.008 274.975 399.376 275.45Z" fill="white"/>
<path d="M395.668 259.125L395.344 260.283C395.153 260.976 394.83 261.625 394.393 262.195C392.656 264.512 387.778 270.306 383.016 269.784C378.602 269.344 377.373 262.531 377.049 259.113L395.668 259.125Z" fill="#263238" stroke="#263238" stroke-width="1.15862" stroke-linecap="round" stroke-linejoin="round"/>
<path d="M399.376 275.45C399.376 275.45 388.658 281.336 380.838 273.793C380.838 273.793 382.807 270.085 383.491 260.874L394.857 258.847C394.529 261.98 394.646 265.143 395.204 268.243C395.958 271.754 398.008 274.975 399.376 275.45Z" stroke="#263238" stroke-width="1.15862" stroke-linecap="round" stroke-linejoin="round"/>
<path d="M378.613 241.282L376.817 247.006C376.619 247.61 376.563 248.253 376.655 248.883L376.91 250.574L375.971 254.34C375.925 254.535 375.891 254.732 375.867 254.931C375.67 256.912 374.905 267.478 380.502 268.834C385.449 269.993 391.474 264.663 393.652 262.496C394.194 261.959 394.627 261.321 394.926 260.619L396.178 257.769C396.892 257.875 397.622 257.756 398.266 257.428C398.91 257.1 399.435 256.579 399.769 255.939C400.928 253.621 402.434 252.312 400.198 250.713C397.962 249.114 396.548 252.359 396.548 252.359C396.548 252.359 396.618 248.28 396.085 247.052C395.552 245.824 393.71 244.399 393.235 243.333C393.002 242.507 392.846 241.662 392.771 240.807C392.771 240.807 385.125 241.016 379.691 238.942L378.613 241.282Z" fill="white" stroke="#263238" stroke-width="1.15862" stroke-linecap="round" stroke-linejoin="round"/>
<path d="M378.613 241.282L376.817 247.006C376.619 247.61 376.563 248.253 376.655 248.883L376.91 250.574L375.971 254.34C375.925 254.535 375.891 254.732 375.867 254.931C375.67 256.912 374.905 267.478 380.502 268.834C385.449 269.993 391.474 264.663 393.652 262.496C394.194 261.959 394.627 261.321 394.926 260.619L396.178 257.769C396.892 257.875 397.622 257.756 398.266 257.428C398.91 257.1 399.435 256.579 399.769 255.939C400.928 253.621 402.434 252.312 400.198 250.713C397.962 249.114 396.548 252.359 396.548 252.359C396.548 252.359 396.618 248.28 396.085 247.052C395.552 245.824 393.71 244.399 393.235 243.333C393.002 242.507 392.846 241.662 392.771 240.807C392.771 240.807 385.125 241.016 379.691 238.942L378.613 241.282Z" fill="white" stroke="#263238" stroke-width="1.15862" stroke-linecap="round" stroke-linejoin="round"/>
<path d="M382.17 252.59L379.366 257.097C379.287 257.248 379.242 257.414 379.235 257.584C379.227 257.754 379.257 257.923 379.322 258.08C379.387 258.237 379.486 258.378 379.612 258.492C379.738 258.607 379.887 258.692 380.05 258.742L382.518 259.322" stroke="#263238" stroke-width="1.15862" stroke-linecap="round" stroke-linejoin="round"/>
<path d="M386.248 261.906C384.534 263.273 382.355 263.47 381.301 262.508" stroke="#263238" stroke-width="1.15862" stroke-linecap="round" stroke-linejoin="round"/>
<path d="M385.947 254.12C385.843 254.792 385.495 255.278 385.171 255.278C384.846 255.278 384.684 254.641 384.8 253.981C384.916 253.32 385.252 252.822 385.576 252.822C385.901 252.822 386.086 253.482 385.947 254.12Z" fill="#263238"/>
<path d="M379.702 253.112C379.586 253.784 379.239 254.27 378.926 254.27C378.613 254.27 378.439 253.633 378.544 252.973C378.648 252.312 379.007 251.814 379.32 251.814C379.633 251.814 379.806 252.451 379.702 253.112Z" fill="#263238"/>
<path d="M377.084 249.068C377.169 248.784 377.317 248.524 377.517 248.305C377.716 248.086 377.963 247.915 378.237 247.803C378.512 247.692 378.808 247.644 379.103 247.662C379.399 247.681 379.687 247.765 379.946 247.909" stroke="#263238" stroke-width="1.15862" stroke-linecap="round" stroke-linejoin="round"/>
<path d="M384.603 248.327C385.323 248.336 386.023 248.562 386.612 248.976C387.201 249.389 387.651 249.97 387.905 250.644" stroke="#263238" stroke-width="1.15862" stroke-linecap="round" stroke-linejoin="round"/>
<path d="M395.054 240.714C395.054 240.714 388.786 245.279 388.044 241.977C388.044 241.977 382.83 243.229 382.483 241.479C382.483 241.479 377.269 243.565 376.69 241.943C376.111 240.321 380.849 236.01 380.849 236.01L391.868 237.412L395.054 240.714Z" fill="#263238" stroke="#263238" stroke-width="1.15862" stroke-linecap="round" stroke-linejoin="round"/>
<path d="M382.251 235.095C381.548 236.489 380.668 237.786 379.633 238.953" stroke="#7F7F7F" stroke-width="1.15862" stroke-linecap="round" stroke-linejoin="round"/>
<path d="M385.553 233.6C384.637 233.472 383.706 233.705 382.958 234.249" stroke="#7F7F7F" stroke-width="1.15862" stroke-linecap="round" stroke-linejoin="round"/>
<path d="M398.31 237.436C395.262 237.146 394.834 239.753 390.118 239.602C385.669 239.417 387.731 235.976 387.025 234.388" stroke="#7F7F7F" stroke-width="1.15862" stroke-linecap="round" stroke-linejoin="round"/>
<path d="M400.499 247.643C400.499 247.643 405.748 240.031 400.499 238.003" stroke="#7F7F7F" stroke-width="1.15862" stroke-linecap="round" stroke-linejoin="round"/>
<path d="M362.589 487.5C361.506 487.849 360.511 488.432 359.677 489.206C358.842 489.981 358.187 490.929 357.758 491.984C357.674 492.168 357.64 492.372 357.659 492.573C357.678 492.775 357.75 492.968 357.868 493.134C357.985 493.299 358.143 493.431 358.327 493.516C358.512 493.601 358.715 493.636 358.917 493.617H375.96C376.288 493.621 376.606 493.505 376.855 493.292C377.104 493.079 377.268 492.783 377.315 492.459C377.594 490.321 377.307 488.148 376.481 486.156L377.42 475.659H367.467L366.702 485.704L362.589 487.5Z" fill="white" stroke="#263238" stroke-width="1.15862" stroke-linecap="round" stroke-linejoin="round"/>
<path d="M373.446 487.396C375.23 489.887 374.79 486.156 376.435 486.156C377.26 488.148 377.548 490.321 377.269 492.459C377.221 492.783 377.058 493.079 376.809 493.292C376.559 493.505 376.241 493.621 375.913 493.617H358.87C358.668 493.636 358.465 493.601 358.281 493.516C358.097 493.431 357.938 493.299 357.821 493.134C357.704 492.968 357.632 492.775 357.613 492.573C357.594 492.372 357.628 492.168 357.712 491.984C358.141 490.929 358.796 489.981 359.63 489.206C360.465 488.432 361.459 487.849 362.543 487.5L366.61 485.704C366.61 485.704 371.673 484.905 373.446 487.396Z" fill="#BFBFBF" stroke="#263238" stroke-width="1.15862" stroke-linecap="round" stroke-linejoin="round"/>
<path d="M377.315 492.1C377.315 492.227 377.315 492.355 377.315 492.459C377.268 492.783 377.104 493.079 376.855 493.292C376.606 493.505 376.288 493.621 375.96 493.617H358.87C358.685 493.625 358.501 493.589 358.333 493.511C358.165 493.433 358.018 493.316 357.904 493.17C357.791 493.023 357.714 492.852 357.681 492.67C357.647 492.488 357.658 492.3 357.712 492.123C358.87 492.123 359.681 492.123 359.681 492.123L377.315 492.1Z" fill="white" stroke="#263238" stroke-width="1.15862" stroke-linecap="round" stroke-linejoin="round"/>
<path d="M369.599 347.585L366.123 481.985H378.405C378.405 481.985 382.205 448.385 382.645 437.077C382.842 432.025 383.873 423.174 384.221 418.076C384.835 408.934 386.26 398.75 389.771 381C390.338 378.138 393.779 373.191 394.509 370.352C395.934 364.826 396.537 347.551 396.537 347.551L369.599 347.585Z" fill="#263238" stroke="#263238" stroke-width="1.15862" stroke-linecap="round" stroke-linejoin="round"/>
<path d="M378.115 427.333C378.115 427.333 375.311 431.041 371.418 430.542" stroke="#7F7F7F" stroke-width="1.15862" stroke-linecap="round" stroke-linejoin="round"/>
<path d="M368.139 423.799C368.139 423.799 372.577 426.441 379.181 423.799" stroke="#7F7F7F" stroke-width="1.15862" stroke-linecap="round" stroke-linejoin="round"/>
<path d="M422.467 487.5C424.054 488.195 426.499 489.226 427.426 492.343C427.465 492.493 427.468 492.651 427.437 492.803C427.406 492.955 427.34 493.098 427.245 493.221C427.15 493.344 427.028 493.444 426.889 493.513C426.749 493.581 426.596 493.617 426.441 493.617H409.398C408.992 493.617 408.601 493.469 408.298 493.2C407.995 492.931 407.801 492.56 407.752 492.158C407.548 490.115 407.85 488.054 408.633 486.156L407.683 475.659H417.647L418.4 485.704L422.467 487.5Z" fill="white" stroke="#263238" stroke-width="1.15862" stroke-linecap="round" stroke-linejoin="round"/>
<path d="M427.426 492.343C427.464 492.493 427.468 492.651 427.437 492.803C427.406 492.955 427.34 493.098 427.245 493.221C427.15 493.344 427.028 493.444 426.889 493.513C426.749 493.581 426.596 493.617 426.441 493.617H409.398C408.992 493.617 408.601 493.469 408.298 493.2C407.995 492.931 407.801 492.56 407.752 492.158C407.548 490.115 407.85 488.054 408.633 486.156C410.232 485.889 409.201 489.354 411.831 487.222C414.461 485.09 418.4 485.704 418.4 485.704L422.467 487.5C424.054 488.16 426.499 489.226 427.426 492.343Z" fill="#BFBFBF" stroke="#263238" stroke-width="1.15862" stroke-linecap="round" stroke-linejoin="round"/>
<path d="M427.333 492.1C427.333 492.192 427.402 492.262 427.426 492.343C427.464 492.493 427.468 492.651 427.437 492.803C427.406 492.955 427.34 493.098 427.245 493.221C427.15 493.344 427.028 493.444 426.889 493.513C426.749 493.581 426.596 493.617 426.441 493.617H409.398C408.992 493.617 408.601 493.469 408.298 493.2C407.995 492.931 407.801 492.56 407.752 492.158V492.1H427.333Z" fill="white" stroke="#263238" stroke-width="1.15862" stroke-linecap="round" stroke-linejoin="round"/>
<path d="M411.437 347.608C411.437 347.608 413.175 360.967 413.43 365.451C413.569 368.104 413.337 373.434 413.43 376.087C413.754 386.306 415.028 406.733 416.036 416.894C416.558 422.247 418.539 432.848 418.898 438.212C419.64 449.138 418.898 482.031 418.898 482.031H406.559C406.559 482.031 401.554 444.956 400.256 432.512C399.793 428.098 394.672 384.232 391.184 374.674C390.524 372.843 389.017 369.773 388.392 367.931C387.144 364.067 386.236 360.1 385.681 356.078C385.495 353.969 385.368 347.632 385.368 347.632L411.437 347.608Z" fill="#263238" stroke="#263238" stroke-width="1.15862" stroke-linecap="round" stroke-linejoin="round"/>
<path d="M413.708 422.305C413.708 422.305 411.39 426.51 403.28 426.51" stroke="#7F7F7F" stroke-width="1.15862" stroke-linecap="round" stroke-linejoin="round"/>
<path d="M390.952 375.554C390.292 373.805 388.786 370.92 388.16 369.124C387.198 366.424 385.681 356.043 385.368 347.597" stroke="#7F7F7F" stroke-width="1.15862" stroke-linecap="round" stroke-linejoin="round"/>
<path d="M402.029 435.652C404.383 447.321 408.966 458.426 415.527 468.36" stroke="#7F7F7F" stroke-width="1.15862" stroke-linecap="round" stroke-linejoin="round"/>
<path d="M367.27 433.995C368.057 444.832 370.875 455.425 375.578 465.22" stroke="#7F7F7F" stroke-width="1.15862" stroke-linecap="round" stroke-linejoin="round"/>
<path d="M400.476 260.527H431.967C434.435 260.527 436.44 263.389 436.44 266.922V277.57C436.44 281.046 434.435 283.954 431.967 283.954H406.849L396.711 290.697L400.476 283.954C398.008 283.954 396.016 281.092 396.016 277.57V266.922C396.016 263.389 398.008 260.527 400.476 260.527Z" fill="white" stroke="#263238" stroke-width="1.15862" stroke-linecap="round" stroke-linejoin="round"/>
<path d="M429.326 267.061H402.701" stroke="#263238" stroke-width="1.15862" stroke-linecap="round" stroke-linejoin="round"/>
<path d="M429.326 271.8H404.751" stroke="#263238" stroke-width="1.15862" stroke-linecap="round" stroke-linejoin="round"/>
<path d="M429.326 276.527H402.701" stroke="#263238" stroke-width="1.15862" stroke-linecap="round" stroke-linejoin="round"/>
<path d="M95.0414 304.276L32.6151 312.282C29.4155 312.693 26.1657 312.441 23.0676 311.542C19.9695 310.644 17.0894 309.117 14.6063 307.058C12.1233 304.999 10.0904 302.451 8.63402 299.572C7.17765 296.694 6.32895 293.547 6.14068 290.326L0.0463474 187.024C-0.161536 183.546 0.406257 180.065 1.70865 176.834C3.01104 173.602 5.01546 170.701 7.5769 168.339C10.1383 165.977 13.1927 164.214 16.5191 163.178C19.8455 162.141 23.3607 161.857 26.8104 162.346L99.2704 172.565C105.061 173.382 110.34 176.328 114.078 180.826C117.816 185.324 119.744 191.053 119.488 196.896L115.549 281.984C115.305 287.521 113.113 292.793 109.361 296.871C105.609 300.949 100.538 303.572 95.0414 304.276Z" fill="#A23834"/>
<path opacity="0.3" d="M115.549 282.031C115.294 287.559 113.098 292.82 109.347 296.889C105.596 300.957 100.531 303.573 95.0414 304.276L32.6151 312.282C29.4155 312.693 26.1657 312.441 23.0676 311.542C19.9695 310.644 17.0894 309.117 14.6063 307.058C12.1233 304.999 10.0904 302.451 8.63402 299.572C7.17765 296.694 6.32895 293.547 6.14068 290.326L0.0463474 187.024C-0.161536 183.546 0.406257 180.065 1.70865 176.834C3.01104 173.602 5.01546 170.701 7.5769 168.339C10.1383 165.977 13.1927 164.214 16.5191 163.178C19.8455 162.141 23.3607 161.857 26.8104 162.346L99.2704 172.565C105.061 173.382 110.34 176.328 114.078 180.826C117.816 185.324 119.744 191.053 119.488 196.896L115.549 282.031Z" fill="white"/>
<path d="M22.7089 200.58H51.7555C53.0723 200.685 54.3102 201.25 55.2527 202.175C56.1952 203.101 56.7823 204.328 56.9113 205.643L63.7587 267.386C64.0188 269.772 65.1516 271.978 66.9395 273.58C68.7274 275.182 71.0443 276.067 73.4448 276.064" stroke="#263238" stroke-width="1.15862" stroke-linecap="round" stroke-linejoin="round"/>
<path d="M101.646 283.838V289.527H32.7078C30.2585 289.526 27.8995 288.603 26.1003 286.941C24.3011 285.279 23.1937 283.001 22.9986 280.559L17.0085 206.466C16.9485 205.692 17.0536 204.915 17.3171 204.185C17.5805 203.456 17.9961 202.791 18.5363 202.234C19.0766 201.677 19.729 201.242 20.4504 200.957C21.1718 200.672 21.9457 200.543 22.7205 200.58C24.036 200.685 25.2724 201.251 26.213 202.176C27.1536 203.102 27.7384 204.329 27.8648 205.643L34.7122 267.386C34.9776 269.774 36.1152 271.981 37.9069 273.582C39.6986 275.183 42.0183 276.067 44.4214 276.064H93.8828C95.9427 276.067 97.9171 276.887 99.3726 278.345C100.828 279.803 101.646 281.778 101.646 283.838V283.838Z" stroke="#263238" stroke-width="1.15862" stroke-linecap="round" stroke-linejoin="round"/>
<path d="M86.6414 344.295H69.0304V287.523H59.9469V344.295H42.3359C40.8763 344.295 39.4765 344.875 38.4444 345.907C37.4123 346.939 36.8325 348.339 36.8325 349.798H92.1449C92.1464 349.075 92.0051 348.359 91.7291 347.69C91.453 347.022 91.0477 346.415 90.5364 345.903C90.025 345.392 89.4177 344.987 88.7493 344.711C88.0809 344.435 87.3646 344.293 86.6414 344.295V344.295Z" stroke="#263238" stroke-width="1.15862" stroke-linecap="round" stroke-linejoin="round"/>
<path d="M69.0304 307.625V289.527H59.9469V308.772" stroke="#263238" stroke-width="1.15862" stroke-linecap="round" stroke-linejoin="round"/>
<path d="M100.997 328.48L101.877 340.993L111.332 340.715L110.822 327.194L100.997 328.48Z" fill="white" stroke="#263238" stroke-width="1.15862" stroke-linecap="round" stroke-linejoin="round"/>
<path d="M101.182 345.65C101.182 345.65 116.395 346.264 121.412 345.65C122.976 345.465 126.625 345.43 127.517 344.133C127.958 343.507 127.17 341.109 127.17 341.109L119.233 338.699L113.753 335.686C113.329 335.45 112.841 335.353 112.359 335.41C111.876 335.466 111.424 335.672 111.065 335.999L110.439 336.567C110.182 336.801 109.98 337.091 109.85 337.414C109.72 337.736 109.664 338.085 109.686 338.432V338.699L108.783 338.073C108.392 337.8 107.927 337.655 107.45 337.656H100.904C99.7606 339.539 99.219 341.725 99.3515 343.924C99.3725 344.393 99.5753 344.836 99.917 345.158C100.259 345.48 100.712 345.657 101.182 345.65Z" fill="#263238" stroke="#263238" stroke-width="1.15862" stroke-linecap="round" stroke-linejoin="round"/>
<path d="M70.4324 314.032L64.1526 324.39L71.7764 329.997L78.9714 319.083L70.4324 314.032Z" fill="white" stroke="#263238" stroke-width="1.15862" stroke-linecap="round" stroke-linejoin="round"/>
<path d="M96.7909 268.023C96.7909 268.023 86.4329 272.843 67.3736 317.38C68.4188 319.095 69.8283 320.558 71.5021 321.668C73.176 322.777 75.0733 323.505 77.0597 323.799C77.0597 323.799 122.617 267.652 116.8 257.758C111.343 248.489 60.642 251.965 60.642 251.965L61.3025 274.21C61.3025 274.21 91.7973 272.657 96.7909 268.023Z" fill="#A23834" stroke="#263238" stroke-width="1.15862" stroke-linecap="round" stroke-linejoin="round"/>
<path d="M73.5722 148.118C73.5722 148.118 64.4655 141.27 55.5557 147.202C46.646 153.135 41.0035 167.154 45.7654 172.692C47.2044 174.325 48.9939 175.612 51.0002 176.457C53.0064 177.302 55.1776 177.682 57.3516 177.57C57.3516 177.57 66.3772 184.521 70.0964 183.363C73.8155 182.204 80.1184 172.541 80.3965 163.886C80.6746 155.232 83.4784 148.848 73.5722 148.118Z" fill="#263238" stroke="#263238" stroke-width="1.15862" stroke-linecap="round" stroke-linejoin="round"/>
<path d="M64.5118 178.81C64.5118 178.81 61.9861 182.285 62.1135 185.251L50.2261 181.127C50.2261 181.127 55.1966 173.909 56.3783 166.841C57.5601 159.773 64.5118 178.81 64.5118 178.81Z" fill="white"/>
<path d="M56.1118 170.05C56.2972 173.63 57.2705 175.148 60.2481 178.161C63.724 181.637 65.9601 184.44 71.0001 178.161C74.3369 173.99 75.3681 171.336 75.6346 170.05H56.1118Z" fill="#263238" stroke="#263238" stroke-width="1.15862" stroke-linecap="round" stroke-linejoin="round"/>
<path d="M64.5118 178.81C64.5118 178.81 61.9861 182.285 62.1135 185.251L50.2261 181.127C50.2261 181.127 55.1966 173.909 56.3783 166.841C57.5601 159.773 64.5118 178.81 64.5118 178.81Z" stroke="#263238" stroke-width="1.15862" stroke-linecap="round" stroke-linejoin="round"/>
<path d="M38.4082 253.332C38.4082 253.332 29.6027 272.553 44.4446 275.751C59.2865 278.949 90.6387 271.974 90.6387 271.974C90.6387 271.974 93.1876 296.792 100.417 332.825C104.358 333.199 108.334 332.881 112.166 331.886C112.166 331.886 111.714 264.802 105.666 256.576C99.618 248.35 54.3392 248.987 38.4082 253.332Z" fill="#A23834" stroke="#263238" stroke-width="1.15862" stroke-linecap="round" stroke-linejoin="round"/>
<path d="M36.1836 253.355C36.1836 253.355 38.3734 255.811 52.9025 250.899L71.2086 250.192C71.2086 250.192 78.0445 219.234 75.8431 207.705C74.6129 201.011 72.9723 194.398 70.9306 187.905C61.2379 184.235 50.8389 182.813 40.5169 183.745C39.9577 183.801 39.4436 184.076 39.0873 184.511C38.731 184.945 38.5618 185.503 38.6167 186.062C39.5204 194.683 42.1969 222.837 36.1836 253.355Z" fill="#263238" stroke="#263238" stroke-width="1.15862" stroke-linecap="round" stroke-linejoin="round"/>
<path d="M71.0233 187.905C71.0233 187.905 78.6238 189.596 78.6238 198.657C78.6238 207.717 77.7432 222.431 77.7432 222.431L87.5683 235.744C87.5683 235.744 83.3625 238.061 82.7253 241.989C82.7253 241.989 68.034 229.905 67.1998 225.768C66.3656 221.632 71.0233 187.905 71.0233 187.905Z" fill="#263238" stroke="#263238" stroke-width="1.15862" stroke-linecap="round" stroke-linejoin="round"/>
<path d="M72.599 220.126L73.3289 222.825L71.3013 220.902L65.2302 210.683C65.1282 210.509 65.099 210.302 65.1489 210.107C65.1988 209.912 65.3238 209.744 65.4967 209.64C65.6705 209.538 65.8776 209.509 66.0729 209.559C66.2681 209.609 66.4358 209.734 66.5394 209.907L72.599 220.126Z" fill="white" stroke="#263238" stroke-width="1.15862" stroke-linecap="round" stroke-linejoin="round"/>
<path d="M56.7607 221.806C58.5372 220.574 60.1289 219.096 61.4878 217.415C63.3996 214.912 64.0368 213.441 65.543 213.939C67.0492 214.437 72.4947 215.885 71.6837 217.623C71.7098 218.367 71.4672 219.095 71.0001 219.674C70.6196 220.457 70.0647 221.143 69.378 221.678C68.3005 222.466 67.9529 222.13 67.9529 222.13C67.9529 222.13 67.1998 222.756 66.7132 222.594C66.7132 222.594 65.5546 224.621 61.6732 225.398L51.2457 229.847L50.1797 223.15L56.7607 221.806Z" fill="white" stroke="#263238" stroke-width="1.15862" stroke-linecap="round" stroke-linejoin="round"/>
<path d="M64.1063 216.198C64.5668 216.626 65.0629 217.013 65.5894 217.357C66.2961 217.797 68.7755 219.095 68.6944 219.917C68.6133 220.74 66.9218 222.339 66.3772 222.234C65.8327 222.13 63.8862 221.4 63.9325 220.96C63.755 221.302 63.6301 221.67 63.5618 222.049C63.5597 222.561 63.4563 223.067 63.2574 223.538C63.0585 224.009 62.7682 224.437 62.4032 224.795" stroke="#263238" stroke-width="1.15862" stroke-linecap="round" stroke-linejoin="round"/>
<path d="M71.0001 219.685C70.8749 219.243 70.59 218.864 70.2006 218.62C68.9701 217.917 67.8066 217.102 66.7248 216.186" stroke="#263238" stroke-width="1.15862" stroke-linecap="round" stroke-linejoin="round"/>
<path d="M71.6837 217.635C71.4104 217.364 71.1027 217.13 70.7684 216.94C69.5 216.085 68.1585 215.345 66.7596 214.727" stroke="#263238" stroke-width="1.15862" stroke-linecap="round" stroke-linejoin="round"/>
<path d="M64.4887 220.45C64.4887 220.45 65.3113 220.161 65.6473 220.45C65.9833 220.74 65.9369 221.145 66.3077 221.539" stroke="#263238" stroke-width="1.15862" stroke-linecap="round" stroke-linejoin="round"/>
<path d="M65.6125 220.427C65.1034 220.081 64.6698 219.636 64.338 219.118" stroke="#263238" stroke-width="1.15862" stroke-linecap="round" stroke-linejoin="round"/>
<path d="M41.548 210.22C41.3974 213.116 39.8565 224.911 39.8565 224.911C44.9662 223.252 50.2234 222.088 55.5557 221.435C55.5557 221.435 54.7447 224.54 57.1199 228.978C57.1199 228.978 35.2683 237.551 30.7729 236.636C26.2775 235.721 27.0074 226.023 28.7337 204.484C30.4601 182.946 40.6096 183.757 40.6096 183.757" fill="#263238"/>
<path d="M41.548 210.22C41.3974 213.116 39.8565 224.911 39.8565 224.911C44.9662 223.252 50.2234 222.088 55.5557 221.435C55.5557 221.435 54.7447 224.54 57.1199 228.978C57.1199 228.978 35.2683 237.551 30.7729 236.636C26.2775 235.721 27.0074 226.023 28.7337 204.484C30.4601 182.946 40.6096 183.757 40.6096 183.757" stroke="#263238" stroke-width="1.15862" stroke-linecap="round" stroke-linejoin="round"/>
<path d="M56.1582 228.966C56.1582 228.966 47.2137 232.442 39.59 234.759" stroke="#7F7F7F" stroke-width="1.15862" stroke-linecap="round" stroke-linejoin="round"/>
<path d="M40.5864 210.22C40.4358 213.116 38.8948 224.911 38.8948 224.911C44.0004 223.252 49.2539 222.088 54.5825 221.435" stroke="#7F7F7F" stroke-width="1.15862" stroke-linecap="round" stroke-linejoin="round"/>
<path d="M47.5265 183.444C47.5265 183.444 50.087 181.88 50.087 179.806C50.087 177.732 61.5226 183.768 64.1411 183.421C66.7596 183.073 65.2997 185.333 65.0216 185.97C64.3612 188.078 62.4611 190.685 47.5265 183.444Z" fill="#263238" stroke="#263238" stroke-width="1.15862" stroke-linecap="round" stroke-linejoin="round"/>
<path d="M65.01 185.97C64.338 187.916 62.6001 190.407 49.7279 184.533" stroke="#7F7F7F" stroke-width="1.15862" stroke-linecap="round" stroke-linejoin="round"/>
<path d="M77.3377 160.434L76.1791 167.629C76.1791 167.629 76.3761 170.502 71.3477 176.782C66.3193 183.062 64.0484 180.258 60.5957 176.782C57.143 173.306 56.4015 171.8 56.4247 166.829C56.4247 166.829 54.652 166.574 53.5629 163.353C52.4738 160.133 56.4479 158.881 57.4559 160.932L63.3996 157.954L67.1071 153.494L69.2274 150.667L73.5722 152.289L78.2067 155.069L77.3377 160.434Z" fill="white" stroke="#263238" stroke-width="1.15862" stroke-linecap="round" stroke-linejoin="round"/>
<path d="M72.0197 167.861C72.0197 167.861 70.1659 169.761 71.7184 171.591C73.8155 174.082 69.4012 173.318 69.4012 174.059" stroke="#263238" stroke-width="1.15862" stroke-linecap="round" stroke-linejoin="round"/>
<path d="M67.0724 174.882C67.0724 174.882 65.6473 175.241 63.1794 172.785" stroke="#263238" stroke-width="1.15862" stroke-linecap="round" stroke-linejoin="round"/>
<path d="M67.8834 167.467C67.6169 168.081 67.1998 168.498 66.9565 168.393C66.7132 168.289 66.7364 167.698 66.9565 167.084C67.1767 166.47 67.6401 166.053 67.8834 166.157C68.1267 166.262 68.1499 166.841 67.8834 167.467Z" fill="#263238"/>
<path d="M73.3173 169.935C73.0856 170.491 72.7148 170.861 72.4947 170.769C72.2746 170.676 72.2861 170.143 72.4947 169.61C72.7032 169.077 73.0972 168.672 73.3173 168.776C73.5375 168.88 73.5606 169.378 73.3173 169.935Z" fill="#263238"/>
<path d="M70.8379 162.855C70.2562 162.43 69.5542 162.2 68.8335 162.2C68.1128 162.2 67.4107 162.43 66.8291 162.855" stroke="#263238" stroke-width="1.15862" stroke-linecap="round" stroke-linejoin="round"/>
<path d="M74.5802 164.976C74.8686 165.074 75.1267 165.245 75.3297 165.473C75.5326 165.7 75.6735 165.976 75.7388 166.273" stroke="#263238" stroke-width="1.15862" stroke-linecap="round" stroke-linejoin="round"/>
<path d="M57.7455 157.954C57.7455 157.954 55.1386 164.582 58.7419 167.455C58.7419 167.455 61.7312 158.916 67.9182 157.954C74.1052 156.993 76.6426 155.069 76.6426 155.069C76.6426 155.069 75.901 163.504 77.5926 165.578C79.2842 167.652 79.2495 155.869 79.2495 155.869L77.5926 151.825L68.6249 148.292L60.9433 151.895L57.7455 157.954Z" fill="#263238" stroke="#263238" stroke-width="1.15862" stroke-linecap="round" stroke-linejoin="round"/>
<path d="M56.1582 167.942C56.1582 167.942 54.9301 175.31 57.7455 176.052C60.561 176.793 53.7135 176.932 50.1682 175.299C46.6228 173.665 54.8606 167.026 54.8606 167.026L56.1582 167.942Z" fill="#263238" stroke="#263238" stroke-width="1.15862" stroke-linecap="round" stroke-linejoin="round"/>
<path d="M72.2862 219.709H73.6186L69.1926 247.678H67.8602C67.6865 247.681 67.5141 247.646 67.356 247.574C67.1979 247.501 67.058 247.395 66.9467 247.261C66.8354 247.128 66.7556 246.971 66.7132 246.802C66.6708 246.634 66.6668 246.458 66.7016 246.287L70.6873 221.099C70.7576 220.721 70.9539 220.377 71.2442 220.125C71.5345 219.873 71.9018 219.726 72.2862 219.709Z" fill="white" stroke="#263238" stroke-width="1.15862" stroke-linecap="round" stroke-linejoin="round"/>
<path d="M68.7756 247.678H84.9962C85.3839 247.667 85.756 247.523 86.0496 247.27C86.3431 247.017 86.54 246.669 86.6067 246.287L90.5923 221.099C90.6271 220.929 90.6232 220.753 90.5807 220.584C90.5383 220.416 90.4585 220.259 90.3472 220.125C90.236 219.992 90.0961 219.885 89.938 219.813C89.7798 219.741 89.6075 219.705 89.4337 219.709H73.2594C72.8724 219.721 72.5013 219.866 72.2082 220.119C71.9151 220.372 71.7177 220.718 71.6489 221.099L67.6633 246.287C67.6293 246.454 67.6323 246.626 67.6721 246.791C67.7119 246.956 67.7876 247.11 67.8937 247.243C67.9999 247.376 68.1339 247.483 68.2863 247.559C68.4387 247.634 68.6057 247.674 68.7756 247.678Z" fill="white" stroke="#263238" stroke-width="1.15862" stroke-linecap="round" stroke-linejoin="round"/>
<path d="M85.8304 224.644H87.3018C87.5489 224.637 87.7856 224.544 87.9716 224.381C88.1576 224.218 88.2812 223.996 88.3214 223.752L88.5647 222.281C88.5857 222.172 88.5817 222.059 88.5532 221.951C88.5247 221.844 88.4723 221.744 88.4 221.659C88.3276 221.575 88.2372 221.508 88.1353 221.463C88.0335 221.418 87.9229 221.397 87.8116 221.4H86.3402C86.0941 221.409 85.8581 221.501 85.6709 221.66C85.4836 221.82 85.356 222.039 85.309 222.281L85.0773 223.752C85.0544 223.862 85.0568 223.976 85.0844 224.085C85.112 224.194 85.1641 224.296 85.2366 224.382C85.3092 224.468 85.4004 224.536 85.5032 224.581C85.6061 224.627 85.718 224.649 85.8304 224.644V224.644Z" stroke="#263238" stroke-width="1.15862" stroke-linecap="round" stroke-linejoin="round"/>
<path d="M86.2359 223.022C86.2218 223.094 86.2243 223.169 86.2431 223.24C86.262 223.311 86.2967 223.377 86.3446 223.433C86.3926 223.488 86.4525 223.533 86.52 223.562C86.5874 223.591 86.6607 223.605 86.7341 223.602C86.8942 223.592 87.0468 223.53 87.1682 223.426C87.2897 223.321 87.3733 223.179 87.4061 223.022C87.4199 222.95 87.4173 222.875 87.3985 222.803C87.3797 222.731 87.3452 222.665 87.2975 222.608C87.2498 222.552 87.1901 222.507 87.1227 222.476C87.0553 222.445 86.9819 222.43 86.9079 222.431C86.7462 222.441 86.5924 222.505 86.4708 222.612C86.3491 222.719 86.2665 222.863 86.2359 223.022V223.022Z" stroke="#263238" stroke-width="1.15862" stroke-linecap="round" stroke-linejoin="round"/>
<path d="M87.3366 238.362C87.3366 238.362 88.8776 233.867 90.0246 234.887C90.9283 235.709 89.3874 238.362 89.3874 238.362H87.3366Z" fill="white" stroke="#263238" stroke-width="1.15862" stroke-linecap="round" stroke-linejoin="round"/>
<path d="M91.0905 240.1C91.357 239.591 92.2491 238.42 91.9015 237.934C91.3338 237.03 88.6806 237.25 87.661 237.551C87.0007 237.686 86.379 237.967 85.842 238.374C85.6913 238.583 85.4828 239.197 85.6566 239.382C85.8304 239.567 86.9774 239.231 87.4177 239.22C88.1978 239.283 88.9722 239.403 89.7349 239.579C88.8712 239.85 87.9881 240.055 87.0933 240.193C86.1664 240.193 82.7716 239.625 83.6174 241.595C83.6174 241.595 82.3661 241.977 83.0845 242.916C83.8028 243.854 86.2359 243.773 86.2359 243.773C85.6809 243.928 85.1088 244.014 84.5327 244.028C83.5595 244.028 82.8064 243.287 82.7137 243.808C82.5747 244.607 83.3046 245.279 84.3358 245.662C84.8411 245.878 85.385 245.989 85.9347 245.989C86.4843 245.989 87.0282 245.878 87.5335 245.662C89.2599 245.036 90.349 241.572 91.0905 240.1Z" fill="white" stroke="#263238" stroke-width="1.15862" stroke-linecap="round" stroke-linejoin="round"/>
<path d="M84.3937 241.896C85.2912 242.092 86.2008 242.228 87.1165 242.302C87.7491 242.315 88.3772 242.192 88.9587 241.943" stroke="#263238" stroke-width="1.15862" stroke-linecap="round" stroke-linejoin="round"/>
<path d="M76.5151 217.948C76.8135 214.534 76.7241 211.098 76.2486 207.705C74.9742 200.893 73.4911 195.204 72.4831 191.705" stroke="#7F7F7F" stroke-width="1.15862" stroke-linecap="round" stroke-linejoin="round"/>
<path d="M59.8426 326.753C59.8426 326.753 70.1427 337.911 74.1052 341.016C75.3449 341.989 77.9402 344.492 79.4696 344.272C80.2227 344.144 81.3466 341.896 81.3466 341.896L77.4652 334.597L75.7041 328.619C75.5697 328.156 75.2944 327.746 74.9165 327.447C74.5385 327.148 74.0767 326.975 73.5954 326.95H72.7496C72.4069 326.934 72.0649 326.995 71.7483 327.127C71.4317 327.259 71.1485 327.46 70.919 327.715L70.7336 327.924L70.5366 326.834C70.451 326.368 70.2246 325.94 69.8878 325.606L65.2533 320.972C63.1324 321.487 61.2201 322.64 59.7731 324.274C59.4609 324.615 59.2936 325.065 59.3065 325.528C59.3195 325.99 59.5117 326.43 59.8426 326.753Z" fill="#263238" stroke="#263238" stroke-width="1.15862" stroke-linecap="round" stroke-linejoin="round"/>
<path d="M91.9595 269.321C91.9595 269.321 95.2268 264.825 97.0226 263.933" stroke="#263238" stroke-width="1.15862" stroke-linecap="round" stroke-linejoin="round"/>
<path d="M85.2858 130.287C84.6973 130.278 84.1339 130.046 83.7101 129.638C79.1224 125.059 72.9054 122.487 66.4236 122.487C59.9417 122.487 53.7247 125.059 49.137 129.638C48.7171 130.044 48.1541 130.269 47.5697 130.264C46.9853 130.258 46.4265 130.023 46.014 129.609C45.6015 129.195 45.3685 128.636 45.3654 128.051C45.3622 127.467 45.5892 126.905 45.9971 126.486C51.4247 121.088 58.7685 118.058 66.4236 118.058C74.0786 118.058 81.4225 121.088 86.85 126.486C87.1615 126.797 87.374 127.193 87.4607 127.624C87.5473 128.055 87.5042 128.502 87.3369 128.909C87.1695 129.315 86.8853 129.663 86.5202 129.909C86.1552 130.154 85.7256 130.285 85.2858 130.287Z" fill="#A23834" stroke="#263238" stroke-width="1.15862" stroke-linecap="round" stroke-linejoin="round"/>
<path d="M79.3653 136.207C79.0721 136.206 78.782 136.148 78.5115 136.034C78.2411 135.921 77.9958 135.755 77.7896 135.547C74.7742 132.534 70.686 130.842 66.4236 130.842C62.1611 130.842 58.073 132.534 55.0575 135.547C54.8683 135.802 54.6267 136.013 54.3488 136.167C54.071 136.321 53.7634 136.414 53.4468 136.439C53.1301 136.464 52.8118 136.421 52.5131 136.313C52.2145 136.205 51.9425 136.034 51.7154 135.812C51.4883 135.59 51.3114 135.322 51.1966 135.026C51.0818 134.729 51.0317 134.412 51.0498 134.095C51.0678 133.778 51.1536 133.468 51.3013 133.187C51.449 132.906 51.6552 132.66 51.9061 132.465C53.8125 130.558 56.0758 129.046 58.5667 128.014C61.0577 126.982 63.7274 126.451 66.4236 126.451C69.1197 126.451 71.7895 126.982 74.2804 128.014C76.7713 129.046 79.0346 130.558 80.941 132.465C81.2477 132.778 81.4555 133.174 81.5386 133.605C81.6218 134.035 81.5766 134.481 81.4087 134.885C81.2408 135.29 80.9576 135.637 80.5943 135.882C80.231 136.128 79.8036 136.261 79.3653 136.265V136.207Z" fill="#A23834" stroke="#263238" stroke-width="1.15862" stroke-linecap="round" stroke-linejoin="round"/>
<path d="M74.1863 141.386C73.8934 141.39 73.6028 141.335 73.332 141.223C73.0611 141.112 72.8157 140.946 72.6106 140.737C70.967 139.102 68.7424 138.183 66.4235 138.183C64.1047 138.183 61.8801 139.102 60.2365 140.737C59.8121 141.112 59.261 141.31 58.6953 141.293C58.1296 141.275 57.5919 141.042 57.1917 140.642C56.7915 140.242 56.5589 139.704 56.5413 139.139C56.5236 138.573 56.7222 138.022 57.0967 137.597C59.5727 135.128 62.9267 133.742 66.4235 133.742C69.9203 133.742 73.2744 135.128 75.7504 137.597C75.9574 137.803 76.1218 138.048 76.2339 138.317C76.346 138.587 76.4037 138.876 76.4037 139.167C76.4037 139.459 76.346 139.748 76.2339 140.018C76.1218 140.287 75.9574 140.532 75.7504 140.737C75.5466 140.945 75.3031 141.109 75.0344 141.221C74.7656 141.332 74.4772 141.389 74.1863 141.386Z" fill="#A23834" stroke="#263238" stroke-width="1.15862" stroke-linecap="round" stroke-linejoin="round"/>
</g>
<defs>
<clipPath id="clip0_20_1129">
<rect width="523" height="503.605" fill="white"/>
</clipPath>
</defs>
</svg>
