<svg width="553" height="338" viewBox="0 0 553 338" fill="none" xmlns="http://www.w3.org/2000/svg">
<g clip-path="url(#clip0_10_5415)">
<path d="M512.431 189.696C496.49 161.638 476.855 135.845 454.052 113.011C429.514 88.441 404.501 71.828 372.231 61.0893C350.423 53.7962 327.679 49.6798 304.699 48.8666C262.133 47.4291 226.995 57.5694 192.029 83.1416C154.576 110.555 119.609 141.582 83.0417 170.379C79.229 173.389 75.3983 176.37 71.5494 179.323C7.83252 228.237 -23.1168 315.156 19.9698 336.362H515.772C515.772 336.362 560.84 333.976 549.752 285.512C542.033 251.93 529.461 219.652 512.431 189.696Z" fill="#A23834"/>
<path opacity="0.9" d="M512.431 189.696C496.49 161.638 476.855 135.845 454.052 113.011C429.514 88.441 404.501 71.828 372.231 61.0893C350.423 53.7962 327.679 49.6798 304.699 48.8666C262.133 47.4291 226.995 57.5694 192.029 83.1416C154.576 110.555 119.609 141.582 83.0417 170.379C79.229 173.389 75.3983 176.37 71.5494 179.323C7.83252 228.237 -23.1168 315.156 19.9698 336.362H515.772C515.772 336.362 560.84 333.976 549.752 285.512C542.033 251.93 529.461 219.652 512.431 189.696Z" fill="white"/>
<path d="M538.159 336.362H552.612" stroke="black" stroke-width="0.777035" stroke-linecap="round" stroke-linejoin="round"/>
<path d="M2.77403 336.362H531.966" stroke="black" stroke-width="0.777035" stroke-linecap="round" stroke-linejoin="round"/>
<path d="M451.309 237.507C453.431 238.432 458.629 238.284 458.637 238.284C458.645 238.284 457.518 234.881 457.417 234.679C456.275 232.293 452.669 228.346 449.732 228.75C449.247 228.829 448.784 229.01 448.373 229.28C447.962 229.55 447.612 229.904 447.347 230.318C447.082 230.732 446.906 231.197 446.833 231.684C446.759 232.17 446.788 232.666 446.919 233.14C447.409 235.207 449.499 236.715 451.309 237.507Z" fill="#263238"/>
<path d="M453.097 252.566C455.303 252.885 459.942 251.541 460.315 251.432C461.077 254.082 462.017 256.678 463.128 259.202C463.765 260.686 464.457 262.155 465.164 263.616C464.744 262.994 464.387 262.443 464.294 262.373C462.569 260.376 458.077 257.524 455.319 258.682C454.871 258.886 454.472 259.183 454.146 259.552C453.821 259.922 453.577 260.355 453.43 260.825C453.284 261.295 453.238 261.791 453.295 262.28C453.353 262.768 453.513 263.24 453.765 263.662C454.775 265.496 457.184 266.405 459.142 266.685C461.1 266.965 465.102 265.908 466.135 265.613L466.967 267.291C468.311 269.964 469.663 272.629 470.906 275.279C471.349 276.219 471.746 277.152 472.15 278.092C471.769 277.54 471.45 277.082 471.373 277.012C469.64 275.015 465.156 272.163 462.398 273.321C461.95 273.526 461.55 273.822 461.225 274.192C460.9 274.561 460.656 274.995 460.509 275.465C460.362 275.934 460.316 276.43 460.374 276.919C460.432 277.408 460.592 277.879 460.844 278.302C461.846 280.136 464.263 281.045 466.213 281.324C468.163 281.604 471.792 280.648 473.035 280.307C473.424 281.278 473.812 282.249 474.131 283.205C474.341 283.865 474.589 284.487 474.76 285.155C474.931 285.824 475.133 286.476 475.312 287.129C475.615 288.395 475.934 289.701 476.198 290.936C476.392 291.799 476.555 292.63 476.726 293.462C476.299 292.522 475.429 290.711 475.335 290.563C473.929 288.326 469.896 284.829 467.021 285.559C466.551 285.695 466.115 285.927 465.74 286.242C465.366 286.556 465.061 286.945 464.846 287.384C464.631 287.823 464.51 288.303 464.491 288.791C464.472 289.28 464.556 289.767 464.737 290.222C465.451 292.187 467.697 293.446 469.585 294.021C471.668 294.658 476.268 294.083 476.843 294.021C477.123 295.397 477.379 296.733 477.62 298.007C477.744 298.676 477.845 299.305 477.946 299.942H479.78C479.64 299.212 479.5 298.466 479.345 297.681C479.073 296.282 478.754 294.798 478.405 293.267C479.794 292.716 481.149 292.08 482.461 291.364C484.015 293.003 487.9 294.93 488.358 295.171C487.83 296.477 487.309 297.735 486.804 298.917C486.649 299.274 486.501 299.6 486.346 299.942H488.281C488.327 299.826 488.374 299.717 488.421 299.593C488.965 298.279 489.516 296.857 490.076 295.397C490.627 295.513 495.189 296.438 497.31 295.956C499.237 295.521 501.576 294.402 502.438 292.529C502.656 292.088 502.779 291.606 502.798 291.114C502.817 290.622 502.733 290.131 502.55 289.674C502.368 289.217 502.092 288.803 501.739 288.46C501.386 288.116 500.965 287.851 500.504 287.681C497.698 286.74 493.409 289.926 491.84 292.055C491.746 292.18 490.892 293.656 490.371 294.596C490.596 293.998 490.814 293.423 491.039 292.801C491.49 291.581 491.902 290.346 492.345 289.025C492.539 288.372 492.733 287.719 492.935 287.059C493.137 286.398 493.277 285.699 493.464 285.008C493.844 283.407 494.147 281.76 494.427 280.105C495.492 280.493 499.315 281.822 501.296 281.659C503.278 281.495 505.741 280.796 506.883 279.04C507.165 278.637 507.36 278.179 507.454 277.696C507.547 277.212 507.538 276.715 507.427 276.236C507.315 275.756 507.104 275.306 506.807 274.913C506.51 274.521 506.133 274.195 505.702 273.958C503.068 272.606 498.351 275.108 496.479 276.973C496.362 277.09 495.165 278.582 494.52 279.405C494.684 278.411 494.839 277.408 494.971 276.39C495.336 273.453 495.608 270.469 495.904 267.493C495.989 266.584 496.09 265.675 496.183 264.766C496.564 264.913 501.071 266.592 503.285 266.436C505.259 266.297 507.73 265.574 508.872 263.818C509.156 263.415 509.351 262.957 509.446 262.474C509.54 261.99 509.531 261.492 509.42 261.013C509.308 260.533 509.096 260.082 508.799 259.69C508.501 259.297 508.123 258.972 507.691 258.736C505.065 257.376 500.34 259.886 498.468 261.751C498.328 261.891 496.611 264.035 496.199 264.603C496.409 262.598 496.642 260.609 496.976 258.658C497.376 256.016 497.947 253.402 498.685 250.834C498.864 250.904 503.557 252.675 505.834 252.512C507.8 252.372 510.271 251.65 511.413 249.901C511.696 249.499 511.891 249.041 511.985 248.558C512.079 248.075 512.071 247.578 511.96 247.099C511.849 246.619 511.639 246.169 511.343 245.776C511.046 245.383 510.67 245.057 510.24 244.819C507.606 243.46 502.881 245.962 501.009 247.827C500.861 247.974 499.019 250.282 498.716 250.725C498.716 250.577 498.786 250.422 498.833 250.274C499.644 247.717 500.684 245.239 501.941 242.869C502.609 241.548 503.332 240.328 504.055 239.155C504.894 239.574 508.763 241.486 510.823 241.533C512.882 241.579 515.329 241.167 516.658 239.551C516.984 239.182 517.228 238.748 517.374 238.277C517.521 237.807 517.566 237.312 517.508 236.823C517.45 236.334 517.29 235.862 517.038 235.439C516.786 235.017 516.447 234.652 516.044 234.368C513.573 232.729 508.608 234.702 506.541 236.35C506.432 236.435 505.391 237.476 504.637 238.246C504.972 237.717 505.313 237.173 505.64 236.692C506.883 234.827 508.134 233.187 509.253 231.757C509.89 230.98 510.488 230.203 511.056 229.551C512.097 229.551 516.285 229.403 518.119 228.548C519.953 227.694 521.95 226.139 522.385 224.096C522.503 223.618 522.519 223.121 522.432 222.636C522.346 222.152 522.158 221.691 521.882 221.284C521.606 220.876 521.247 220.532 520.829 220.272C520.411 220.012 519.943 219.843 519.455 219.776C516.51 219.457 513.006 223.498 511.934 225.914C511.84 226.124 510.76 229.558 510.815 229.551H510.877C510.317 230.188 509.727 230.872 509.098 231.633C507.948 233.047 506.658 234.656 505.376 236.505C503.961 238.479 502.664 240.533 501.49 242.659C500.168 245.031 499.063 247.517 498.188 250.088V250.181C498.188 249.311 498.188 246.886 498.141 246.7C497.799 244.073 495.6 239.209 492.702 238.665C492.216 238.589 491.719 238.617 491.244 238.746C490.768 238.875 490.326 239.103 489.945 239.414C489.563 239.726 489.252 240.114 489.031 240.554C488.81 240.994 488.684 241.476 488.662 241.968C488.491 244.05 489.998 246.133 491.474 247.454C493.137 248.938 497.745 250.375 498.118 250.484C497.288 253.12 496.636 255.81 496.168 258.534C495.88 260.088 495.647 261.72 495.429 263.336C495.429 262.559 495.43 261.914 495.391 261.782C495.057 259.156 492.858 254.291 489.951 253.748C489.465 253.672 488.968 253.699 488.493 253.828C488.018 253.957 487.575 254.185 487.194 254.497C486.813 254.808 486.501 255.197 486.28 255.637C486.059 256.077 485.933 256.558 485.911 257.05C485.74 259.132 487.247 261.215 488.724 262.536C490.2 263.857 494.124 265.17 495.165 265.504C495.088 266.126 495.002 266.74 494.932 267.361C494.575 270.337 494.233 273.305 493.806 276.204C493.658 277.222 493.471 278.224 493.293 279.226C493.293 278.566 493.293 277.999 493.293 277.913C492.951 275.295 490.752 270.423 487.853 269.887C487.367 269.809 486.871 269.836 486.395 269.964C485.92 270.092 485.478 270.319 485.096 270.63C484.715 270.941 484.403 271.329 484.182 271.769C483.961 272.208 483.835 272.69 483.813 273.181C483.642 275.264 485.149 277.354 486.626 278.667C488.102 279.98 491.645 281.177 492.842 281.581C492.624 282.599 492.407 283.624 492.15 284.604C491.964 285.264 491.832 285.925 491.599 286.577C491.366 287.23 491.179 287.883 490.969 288.528C490.526 289.748 490.076 291.014 489.61 292.195C489.299 293.019 488.98 293.804 488.662 294.588C488.825 293.571 489.097 291.574 489.097 291.41C489.064 289.081 488.435 286.799 487.271 284.782C487.279 284.522 487.263 284.262 487.224 284.005C487.163 283.516 487 283.046 486.745 282.624C486.49 282.203 486.149 281.84 485.744 281.559C485.339 281.278 484.88 281.086 484.396 280.995C483.912 280.903 483.414 280.915 482.935 281.029C480.075 281.806 478.273 286.818 478.125 289.46C478.125 289.615 478.218 291.309 478.296 292.382C478.156 291.76 478.024 291.154 477.869 290.517C477.565 289.25 477.231 287.999 476.874 286.632C476.68 285.979 476.478 285.334 476.283 284.673C476.089 284.013 475.817 283.337 475.592 282.669C475.025 281.115 474.372 279.561 473.688 278.007C474.791 277.742 478.715 276.748 480.285 275.536C481.855 274.323 483.518 272.365 483.502 270.275C483.514 269.784 483.423 269.295 483.235 268.841C483.047 268.387 482.765 267.977 482.408 267.639C482.051 267.3 481.628 267.041 481.164 266.876C480.701 266.712 480.208 266.647 479.718 266.685C476.773 267.004 474.216 271.697 473.68 274.285C473.68 274.448 473.471 276.351 473.401 277.393C472.981 276.468 472.561 275.551 472.103 274.626C470.79 271.977 469.376 269.335 467.977 266.693C467.55 265.916 467.13 265.077 466.71 264.261C467.099 264.175 471.792 263.087 473.556 261.735C475.11 260.531 476.781 258.565 476.765 256.475C476.779 255.983 476.689 255.494 476.501 255.039C476.313 254.584 476.031 254.174 475.674 253.836C475.317 253.497 474.893 253.237 474.429 253.074C473.965 252.91 473.471 252.846 472.981 252.885C470.036 253.204 467.48 257.897 466.943 260.484C466.943 260.679 466.656 263.414 466.633 264.113C465.7 262.334 464.791 260.539 463.967 258.744C462.848 256.318 461.883 253.824 461.077 251.277C461.263 251.277 466.159 250.119 467.969 248.736C469.523 247.531 471.194 245.565 471.178 243.475C471.192 242.983 471.102 242.494 470.914 242.039C470.726 241.585 470.444 241.175 470.087 240.836C469.73 240.497 469.306 240.238 468.842 240.074C468.378 239.91 467.885 239.846 467.394 239.885C464.449 240.204 461.893 244.897 461.357 247.485C461.318 247.694 461.053 250.639 461.046 251.176C460.999 251.028 460.937 250.88 460.89 250.733C460.16 248.153 459.659 245.514 459.391 242.846C459.227 241.377 459.15 239.955 459.111 238.58C460.043 238.463 464.302 237.896 466.065 236.831C467.829 235.767 469.624 234.034 469.834 231.959C469.88 231.478 469.826 230.993 469.675 230.533C469.524 230.074 469.28 229.651 468.957 229.291C468.634 228.931 468.24 228.642 467.8 228.442C467.36 228.242 466.883 228.135 466.399 228.129C463.439 228.129 460.385 232.503 459.569 235.021C459.523 235.161 459.227 236.575 459.025 237.647C459.025 237.026 459.025 236.389 459.025 235.79C459.025 233.552 459.173 231.501 459.313 229.683C459.398 228.649 459.499 227.717 459.6 226.847C460.463 226.264 463.882 223.839 464.939 222.114C465.995 220.389 466.811 217.996 466.042 216.046C465.877 215.582 465.616 215.158 465.277 214.802C464.937 214.446 464.527 214.165 464.071 213.978C463.616 213.792 463.127 213.703 462.635 213.717C462.143 213.732 461.66 213.85 461.217 214.064C458.583 215.424 457.891 220.724 458.326 223.334C458.326 223.56 459.36 227.018 459.406 226.986L459.453 226.948C459.336 227.787 459.227 228.68 459.119 229.667C458.94 231.478 458.753 233.552 458.699 235.782C458.62 238.206 458.677 240.631 458.87 243.048C459.083 245.753 459.536 248.434 460.222 251.059V251.152C459.756 250.422 458.388 248.417 458.264 248.277C456.531 246.272 452.048 243.428 449.289 244.586C448.842 244.791 448.442 245.088 448.117 245.457C447.791 245.826 447.547 246.26 447.401 246.73C447.254 247.2 447.208 247.695 447.266 248.184C447.323 248.673 447.483 249.144 447.735 249.567C448.738 251.378 451.146 252.279 453.097 252.566Z" fill="#263238"/>
<path d="M503.899 238.65C503.938 238.65 504.839 235.192 504.87 234.966C505.236 232.348 504.404 227.072 501.762 225.782C501.313 225.58 500.827 225.475 500.335 225.473C499.842 225.472 499.355 225.574 498.905 225.774C498.455 225.973 498.052 226.265 497.722 226.631C497.392 226.996 497.143 227.427 496.991 227.895C496.276 229.861 497.178 232.27 498.258 233.933C499.493 235.899 503.891 238.65 503.899 238.65Z" fill="#263238"/>
<path d="M464.34 298.264H502.928V323.129C502.928 326.632 501.536 329.992 499.059 332.469C496.582 334.947 493.222 336.338 489.718 336.338H477.566C474.062 336.338 470.702 334.947 468.225 332.469C465.748 329.992 464.356 326.632 464.356 323.129V298.264H464.34Z" fill="white" stroke="#263238" stroke-width="0.777035" stroke-miterlimit="10" stroke-linecap="round"/>
<path d="M502.928 317.658V312.996C499.859 315.413 495.872 314.877 492.959 313.035C487.667 309.694 481.49 312.305 481.233 312.421C480.977 312.52 480.743 312.67 480.546 312.861C480.35 313.053 480.193 313.282 480.088 313.535C479.982 313.789 479.928 314.061 479.93 314.336C479.932 314.61 479.99 314.881 480.099 315.133C480.209 315.385 480.368 315.612 480.568 315.801C480.768 315.989 481.003 316.135 481.261 316.231C481.519 316.326 481.793 316.368 482.067 316.354C482.341 316.34 482.61 316.271 482.857 316.151C482.857 316.151 487.348 314.302 490.783 316.477C492.976 317.899 495.528 318.67 498.141 318.7C499.792 318.689 501.422 318.335 502.928 317.658Z" fill="white" stroke="#263238" stroke-width="0.777035" stroke-miterlimit="10" stroke-linecap="round"/>
<path d="M464.34 317.052C467.315 316.544 470.197 315.59 472.888 314.224C479.648 310.976 491.389 306.321 494.062 311.66C494.181 311.899 494.347 312.112 494.549 312.288C494.75 312.463 494.985 312.597 495.239 312.682C495.492 312.767 495.76 312.801 496.027 312.782C496.294 312.763 496.554 312.692 496.793 312.573C497.033 312.453 497.246 312.288 497.421 312.086C497.597 311.884 497.731 311.65 497.815 311.396C497.9 311.142 497.934 310.875 497.916 310.608C497.897 310.341 497.826 310.081 497.706 309.841C494.474 303.392 485.538 303.625 471.132 310.556C468.992 311.631 466.719 312.415 464.372 312.887L464.34 317.052Z" fill="white" stroke="#263238" stroke-width="0.777035" stroke-miterlimit="10" stroke-linecap="round"/>
<path d="M470.829 307.588C470.829 307.873 470.744 308.151 470.586 308.387C470.428 308.624 470.203 308.808 469.939 308.917C469.676 309.025 469.387 309.053 469.108 308.997C468.829 308.941 468.573 308.803 468.372 308.602C468.171 308.4 468.035 308.143 467.98 307.864C467.926 307.584 467.955 307.295 468.065 307.032C468.175 306.77 468.361 306.546 468.598 306.389C468.836 306.232 469.114 306.149 469.399 306.15C469.587 306.15 469.774 306.188 469.948 306.26C470.122 306.332 470.28 306.438 470.413 306.572C470.545 306.706 470.651 306.864 470.722 307.038C470.793 307.213 470.83 307.4 470.829 307.588Z" fill="white" stroke="#263238" stroke-width="0.777035" stroke-miterlimit="10" stroke-linecap="round"/>
<path d="M479.081 304.721C479.082 305.005 478.999 305.284 478.842 305.521C478.685 305.759 478.461 305.944 478.199 306.054C477.936 306.164 477.647 306.194 477.367 306.139C477.088 306.085 476.831 305.948 476.629 305.748C476.428 305.547 476.29 305.291 476.234 305.012C476.178 304.733 476.206 304.443 476.314 304.18C476.423 303.917 476.607 303.692 476.844 303.534C477.08 303.375 477.359 303.291 477.643 303.291C477.832 303.29 478.018 303.326 478.193 303.397C478.367 303.469 478.526 303.574 478.659 303.707C478.793 303.84 478.899 303.998 478.971 304.172C479.043 304.346 479.081 304.532 479.081 304.721Z" fill="white" stroke="#263238" stroke-width="0.777035" stroke-miterlimit="10" stroke-linecap="round"/>
<path d="M488.755 302.568C488.756 302.853 488.673 303.132 488.516 303.37C488.358 303.607 488.134 303.793 487.871 303.903C487.608 304.012 487.318 304.041 487.039 303.986C486.759 303.931 486.502 303.794 486.301 303.592C486.099 303.391 485.962 303.134 485.907 302.855C485.852 302.575 485.881 302.285 485.991 302.022C486.1 301.759 486.286 301.535 486.523 301.377C486.761 301.22 487.04 301.137 487.325 301.138C487.704 301.138 488.068 301.289 488.336 301.557C488.604 301.825 488.755 302.189 488.755 302.568Z" fill="white" stroke="#263238" stroke-width="0.777035" stroke-miterlimit="10" stroke-linecap="round"/>
<path d="M498.25 303.827C498.25 304.112 498.166 304.39 498.007 304.627C497.849 304.863 497.624 305.047 497.361 305.156C497.098 305.265 496.808 305.293 496.529 305.236C496.25 305.18 495.994 305.043 495.793 304.841C495.593 304.639 495.456 304.382 495.402 304.103C495.347 303.823 495.377 303.534 495.487 303.272C495.597 303.009 495.782 302.785 496.02 302.628C496.257 302.471 496.536 302.388 496.82 302.39C497.009 302.39 497.195 302.427 497.369 302.499C497.543 302.572 497.701 302.678 497.834 302.811C497.967 302.945 498.072 303.103 498.144 303.278C498.215 303.452 498.251 303.639 498.25 303.827Z" fill="white" stroke="#263238" stroke-width="0.777035" stroke-miterlimit="10" stroke-linecap="round"/>
<path d="M486.424 318.878C486.424 319.163 486.339 319.441 486.181 319.678C486.023 319.914 485.798 320.098 485.535 320.207C485.271 320.316 484.982 320.344 484.703 320.288C484.424 320.231 484.168 320.094 483.967 319.892C483.766 319.69 483.63 319.433 483.575 319.154C483.521 318.874 483.55 318.585 483.66 318.323C483.77 318.06 483.956 317.836 484.193 317.679C484.431 317.522 484.709 317.439 484.994 317.441C485.182 317.441 485.369 317.478 485.543 317.55C485.717 317.623 485.875 317.729 486.008 317.862C486.141 317.996 486.246 318.154 486.317 318.329C486.389 318.503 486.425 318.69 486.424 318.878Z" fill="white" stroke="#263238" stroke-width="0.777035" stroke-miterlimit="10" stroke-linecap="round"/>
<path d="M493.596 321.745C493.596 322.029 493.511 322.307 493.354 322.544C493.196 322.78 492.971 322.964 492.708 323.073C492.446 323.182 492.157 323.211 491.878 323.155C491.599 323.1 491.343 322.963 491.142 322.762C490.941 322.561 490.804 322.304 490.748 322.026C490.693 321.747 490.721 321.458 490.83 321.195C490.939 320.932 491.123 320.708 491.36 320.55C491.596 320.392 491.874 320.308 492.158 320.308C492.347 320.307 492.535 320.343 492.71 320.415C492.884 320.487 493.043 320.593 493.177 320.726C493.311 320.86 493.417 321.019 493.488 321.194C493.56 321.369 493.597 321.556 493.596 321.745Z" fill="white" stroke="#263238" stroke-width="0.777035" stroke-miterlimit="10" stroke-linecap="round"/>
<path d="M500.76 321.745C500.76 322.03 500.676 322.308 500.517 322.545C500.359 322.781 500.134 322.965 499.871 323.074C499.608 323.183 499.318 323.211 499.039 323.154C498.76 323.098 498.504 322.961 498.303 322.759C498.103 322.557 497.966 322.3 497.912 322.021C497.857 321.741 497.887 321.452 497.997 321.19C498.107 320.927 498.292 320.703 498.53 320.546C498.767 320.389 499.046 320.306 499.33 320.308C499.519 320.308 499.705 320.345 499.879 320.417C500.053 320.49 500.211 320.596 500.344 320.729C500.477 320.863 500.582 321.021 500.653 321.196C500.725 321.37 500.761 321.557 500.76 321.745Z" fill="white" stroke="#263238" stroke-width="0.777035" stroke-miterlimit="10" stroke-linecap="round"/>
<path d="M479.244 85.2787C478.568 85.2787 477.962 85.2787 477.441 85.2243C476.921 85.1699 476.416 85.1388 475.942 85.0767C475.458 85.0183 474.979 84.9353 474.504 84.828L472.95 84.4317C472.173 84.2064 471.396 83.9422 470.518 83.6547C469.796 83.3842 469.035 83.232 468.264 83.204C468.058 83.1809 467.85 83.1992 467.651 83.2579C467.452 83.3167 467.267 83.4146 467.107 83.5459C466.871 83.8293 466.69 84.1532 466.571 84.5017H465.7V72.3566H466.322C466.74 74.7211 467.572 76.9936 468.777 79.0702C469.631 80.496 470.775 81.7269 472.134 82.6834C473.237 83.4356 474.487 83.9442 475.802 84.1753C476.938 84.3746 478.09 84.4786 479.244 84.4861V66.1559L475.973 65.1924C472.864 64.291 470.552 63.0503 469.034 61.4704C468.247 60.6441 467.636 59.6678 467.235 58.5997C466.834 57.5316 466.653 56.3937 466.703 55.2541C466.69 53.6404 466.996 52.0401 467.604 50.5453C468.182 49.1408 469.047 47.873 470.145 46.8233C471.283 45.7608 472.616 44.9272 474.069 44.3678C475.66 43.7557 477.353 43.4499 479.057 43.4665H479.228V40.032H480.005V43.4742C480.967 43.5237 481.92 43.6748 482.849 43.9249C483.542 44.1259 484.222 44.3698 484.885 44.6553C485.46 44.9195 485.989 45.1604 486.439 45.3624C486.891 45.5675 487.381 45.6734 487.877 45.6733C488.218 45.708 488.561 45.6403 488.864 45.479C489.151 45.1905 489.39 44.8572 489.571 44.4922H490.348V54.648H489.672C489.448 53.3702 489.088 52.1199 488.599 50.9182C488.133 49.7555 487.488 48.6727 486.688 47.7091C485.886 46.7657 484.92 45.9759 483.836 45.378C482.638 44.7304 481.311 44.3562 479.951 44.2824V60.2427L484.613 61.6025C485.131 61.7475 485.932 62.0065 487.014 62.3795C488.201 62.8138 489.319 63.4185 490.332 64.1744C491.45 65.0185 492.406 66.0584 493.153 67.2437C494.009 68.6838 494.43 70.3407 494.365 72.0147C494.366 73.7262 494.031 75.4211 493.378 77.0033C492.729 78.5884 491.77 80.0281 490.558 81.2381C489.268 82.5014 487.742 83.497 486.066 84.1675C484.15 84.932 482.1 85.3071 480.037 85.2709V89.2183H479.259L479.244 85.2787ZM479.244 44.2668H479.073C478.065 44.277 477.062 44.3995 476.081 44.632C475.003 44.8711 473.973 45.2915 473.035 45.8753C472.089 46.4625 471.292 47.2603 470.704 48.2064C470.051 49.3267 469.728 50.6089 469.772 51.9051C469.733 52.985 469.977 54.0562 470.479 55.0132C470.943 55.8578 471.578 56.5961 472.344 57.1811C473.137 57.8013 474.02 58.2965 474.962 58.6497C475.924 59.0207 476.904 59.3398 477.9 59.6055L479.252 60.0018L479.244 44.2668ZM480.021 84.4861C481.702 84.5488 483.376 84.2411 484.924 83.5848C486.093 83.0676 487.133 82.298 487.97 81.3314C488.692 80.466 489.222 79.4568 489.524 78.3709C489.812 77.4071 489.967 76.4084 489.983 75.4026C490.019 74.2182 489.785 73.041 489.299 71.9603C488.886 71.0773 488.303 70.285 487.582 69.6292C486.9 69.0192 486.13 68.5161 485.297 68.1373C484.542 67.7838 483.763 67.4827 482.966 67.236L480.037 66.389L480.021 84.4861Z" fill="#263238"/>
<path d="M479.244 94.0668C494.659 94.0668 507.155 81.5706 507.155 66.1557C507.155 50.7408 494.659 38.2446 479.244 38.2446C463.829 38.2446 451.333 50.7408 451.333 66.1557C451.333 81.5706 463.829 94.0668 479.244 94.0668Z" stroke="#263238" stroke-width="0.777035" stroke-miterlimit="10"/>
<path d="M71.5338 276.499C71.0986 276.919 70.6946 277.276 70.3294 277.579C69.9642 277.882 69.6145 278.154 69.2804 278.41C68.9324 278.673 68.5691 278.914 68.1925 279.133C67.804 279.366 67.4155 279.607 66.926 279.856C66.3043 280.182 65.6206 280.508 64.8746 280.85C64.2377 281.12 63.6496 281.493 63.134 281.954C62.9863 282.065 62.8626 282.205 62.7704 282.365C62.6783 282.525 62.6196 282.703 62.5979 282.886C62.6173 283.215 62.7018 283.538 62.8465 283.834L62.2948 284.363L54.7965 276.522L55.2005 276.142C56.9296 277.414 58.8713 278.37 60.935 278.962C62.367 279.354 63.8652 279.441 65.3331 279.219C66.5113 279.022 67.6344 278.577 68.6277 277.913C69.4859 277.34 70.2943 276.695 71.0443 275.986L59.7073 264.144L57.0032 265.551C54.9394 266.745 52.6042 267.393 50.2197 267.431C49.2034 267.381 48.2076 267.127 47.2917 266.684C46.3758 266.241 45.5587 265.617 44.8893 264.851C43.8788 263.82 43.0861 262.597 42.5582 261.254C42.0582 259.992 41.833 258.638 41.8977 257.283C41.9736 255.894 42.3166 254.533 42.9078 253.273C43.5557 251.889 44.4631 250.641 45.5808 249.598L45.6896 249.497L43.5605 247.275L44.0656 246.785L46.1947 249.007C46.8463 248.447 47.5577 247.959 48.316 247.554C48.8858 247.256 49.4751 246.996 50.0799 246.777L51.5407 246.257C51.9577 246.107 52.3388 245.871 52.6596 245.565C52.9107 245.369 53.0908 245.096 53.1725 244.788C53.1803 244.425 53.1278 244.062 53.0171 243.716L53.5299 243.226L59.7773 249.808L59.3421 250.22C58.4063 249.536 57.401 248.952 56.3428 248.479C55.3323 248.008 54.255 247.696 53.1492 247.554C52.0471 247.439 50.9331 247.526 49.8623 247.811C48.6912 248.127 47.6054 248.7 46.6842 249.489L56.5526 259.8L60.4377 257.78C60.8729 257.547 61.5567 257.228 62.4969 256.824C63.5123 256.399 64.5818 256.116 65.6749 255.985C66.9199 255.836 68.1816 255.918 69.3969 256.226C70.8388 256.628 72.1339 257.437 73.1267 258.557C74.1889 259.659 75.021 260.961 75.5744 262.388C76.1331 263.815 76.3974 265.34 76.3514 266.871C76.3031 268.482 75.936 270.066 75.2713 271.534C74.503 273.213 73.4096 274.724 72.0544 275.978L74.4943 278.527L73.9814 279.017L71.5338 276.499ZM46.1714 250.002L46.0626 250.111C45.4196 250.748 44.8489 251.454 44.3609 252.217C43.8128 253.04 43.4058 253.948 43.1565 254.905C42.9153 255.881 42.8993 256.899 43.1099 257.881C43.3817 259.007 43.9662 260.033 44.796 260.842C45.4296 261.548 46.2315 262.083 47.1271 262.396C47.9506 262.653 48.8182 262.738 49.6758 262.644C50.5726 262.551 51.4502 262.324 52.2789 261.968C53.1287 261.618 53.9588 261.221 54.7654 260.78L55.8843 260.197L46.1714 250.002ZM71.5571 275.528C72.6786 274.526 73.5693 273.294 74.1679 271.914C74.5998 270.856 74.796 269.715 74.7429 268.573C74.6762 267.563 74.3982 266.578 73.9271 265.683C73.5128 264.884 72.9898 264.146 72.373 263.491C71.6648 262.705 70.7883 262.089 69.8088 261.689C68.9962 261.366 68.1263 261.213 67.2523 261.238C66.4344 261.265 65.6251 261.414 64.8513 261.681C64.1357 261.93 63.4374 262.225 62.7611 262.567L60.3445 263.833L71.5571 275.528Z" fill="#263238"/>
<path d="M84.6706 264.421C84.8197 250.637 73.767 239.343 59.9837 239.194C46.2004 239.045 34.9059 250.097 34.7568 263.881C34.6076 277.664 45.6603 288.958 59.4436 289.107C73.2269 289.257 84.5214 278.204 84.6706 264.421Z" stroke="#263238" stroke-width="0.777035" stroke-miterlimit="10"/>
<path d="M497.108 164.458C496.852 164.637 496.618 164.784 496.409 164.909C496.199 165.033 495.997 165.15 495.803 165.251C495.603 165.355 495.398 165.448 495.189 165.53C494.971 165.624 494.738 165.709 494.482 165.802C494.225 165.896 493.767 166.028 493.355 166.136C493.008 166.226 492.678 166.371 492.376 166.564C492.209 166.66 492.085 166.816 492.026 166.999C492.013 167.169 492.031 167.34 492.081 167.504L491.754 167.722L488.561 163.114L488.794 162.951C489.573 163.743 490.489 164.388 491.498 164.854C492.199 165.172 492.958 165.338 493.728 165.344C494.345 165.338 494.954 165.203 495.515 164.948C495.997 164.727 496.459 164.467 496.898 164.17L492.065 157.177L490.573 157.682C489.42 158.123 488.175 158.265 486.952 158.094C486.437 157.988 485.949 157.778 485.518 157.477C485.086 157.177 484.721 156.792 484.442 156.346C484.01 155.736 483.704 155.047 483.541 154.318C483.393 153.631 483.393 152.922 483.541 152.235C483.691 151.53 483.976 150.859 484.38 150.262C484.824 149.609 485.389 149.048 486.043 148.606L486.105 148.56L485.196 147.254L485.499 147.045L486.408 148.35C486.787 148.118 487.188 147.926 487.605 147.775C487.923 147.668 488.247 147.583 488.576 147.519L489.353 147.371C489.579 147.329 489.794 147.238 489.983 147.107C490.12 147.03 490.231 146.914 490.301 146.773C490.331 146.587 490.331 146.398 490.301 146.213L490.604 146.003L493.277 149.889L493.021 150.067C492.601 149.641 492.138 149.261 491.638 148.933C491.159 148.617 490.635 148.376 490.084 148.218C489.53 148.067 488.953 148.02 488.382 148.078C487.76 148.146 487.16 148.35 486.626 148.676L490.83 154.745L492.966 154.022C493.207 153.945 493.58 153.836 494.093 153.704C494.647 153.568 495.217 153.511 495.787 153.533C496.434 153.555 497.072 153.698 497.667 153.952C498.369 154.278 498.964 154.795 499.385 155.444C500.296 156.76 500.651 158.383 500.372 159.959C500.212 160.776 499.895 161.555 499.439 162.251C498.908 163.046 498.227 163.729 497.434 164.264L498.476 165.763L498.173 165.973L497.108 164.458ZM486.299 148.871L486.237 148.917C485.855 149.183 485.505 149.493 485.196 149.842C484.849 150.217 484.568 150.648 484.365 151.116C484.153 151.605 484.062 152.139 484.1 152.67C484.145 153.27 484.361 153.845 484.722 154.325C484.99 154.738 485.359 155.075 485.794 155.305C486.194 155.504 486.63 155.618 487.076 155.639C487.541 155.664 488.008 155.619 488.46 155.507C488.923 155.395 489.379 155.258 489.827 155.095L490.449 154.893L486.299 148.871ZM497.178 163.945C497.834 163.529 498.389 162.972 498.802 162.313C499.114 161.809 499.308 161.24 499.369 160.651C499.42 160.126 499.359 159.596 499.19 159.096C499.043 158.654 498.836 158.233 498.577 157.845C498.276 157.388 497.878 157.003 497.411 156.719C497.023 156.489 496.592 156.341 496.144 156.284C495.725 156.221 495.298 156.221 494.878 156.284C494.493 156.353 494.114 156.449 493.743 156.571L492.407 157.022L497.178 163.945Z" fill="#263238"/>
<path d="M499.547 167.718C505.358 163.59 506.722 155.533 502.594 149.722C498.466 143.911 490.409 142.546 484.598 146.674C478.787 150.803 477.422 158.86 481.55 164.671C485.679 170.482 493.736 171.846 499.547 167.718Z" stroke="#263238" stroke-width="0.777035" stroke-miterlimit="10"/>
<path d="M50.0876 148.871C49.7768 148.871 49.4971 148.871 49.2562 148.871C49.0153 148.871 48.7822 148.832 48.5646 148.801C48.3396 148.776 48.1164 148.738 47.8964 148.684L47.166 148.506L46.0471 148.094C45.7112 147.967 45.3568 147.896 44.9981 147.884C44.904 147.872 44.8085 147.879 44.7175 147.906C44.6266 147.933 44.5422 147.978 44.4697 148.039C44.3557 148.167 44.2708 148.318 44.221 148.482H43.8247V142.872H44.1122C44.3085 143.966 44.6923 145.017 45.2467 145.98C45.6426 146.637 46.1721 147.204 46.8008 147.643C47.3104 147.99 47.8876 148.226 48.4947 148.335C49.0076 148.428 49.5275 148.477 50.0488 148.482V140.005L48.4947 139.562C47.2967 139.267 46.1928 138.673 45.2856 137.837C44.9263 137.454 44.6471 137.003 44.4643 136.511C44.2815 136.018 44.1988 135.494 44.221 134.97C44.215 134.222 44.3549 133.48 44.6329 132.786C44.9002 132.136 45.3028 131.551 45.8139 131.069C46.3358 130.572 46.9512 130.184 47.6244 129.927C48.369 129.645 49.1596 129.506 49.9555 129.515H50.0332V127.891H50.4528V129.484C50.8998 129.503 51.343 129.573 51.7738 129.694C52.0941 129.784 52.4082 129.896 52.714 130.028L53.4444 130.354C53.6511 130.451 53.8766 130.502 54.1049 130.502C54.2637 130.518 54.4237 130.486 54.5634 130.408C54.6964 130.274 54.8066 130.12 54.8897 129.95H55.2549V134.651H54.9441C54.8378 134.061 54.6711 133.483 54.4468 132.926C54.2296 132.398 53.9307 131.908 53.561 131.473C53.1904 131.033 52.7428 130.664 52.24 130.385C51.6893 130.086 51.0787 129.913 50.4528 129.88V137.262L52.6208 137.891C52.8616 137.961 53.2346 138.086 53.7319 138.264C54.2614 138.471 54.7607 138.748 55.2161 139.088C55.7354 139.477 56.1781 139.959 56.5215 140.51C56.9164 141.176 57.1107 141.943 57.0809 142.717C57.0844 143.516 56.9286 144.309 56.6225 145.048C56.3226 145.781 55.8787 146.447 55.3171 147.006C54.7257 147.594 54.0194 148.054 53.2424 148.358C52.3562 148.714 51.4076 148.888 50.4528 148.871V150.697H50.0876V148.871ZM50.0876 129.903H50.0099C49.5439 129.908 49.0799 129.965 48.6268 130.074C48.1295 130.183 47.654 130.375 47.2204 130.642C46.7788 130.919 46.4066 131.294 46.1325 131.737C45.836 132.257 45.6882 132.848 45.7052 133.447C45.6899 133.941 45.8023 134.431 46.0315 134.869C46.2467 135.261 46.5403 135.605 46.894 135.879C47.2616 136.164 47.6703 136.392 48.1062 136.555C48.5569 136.726 49.0076 136.873 49.466 136.998L50.0876 137.184V129.903ZM50.4528 148.482C51.2308 148.511 52.0054 148.367 52.7218 148.063C53.2634 147.823 53.7461 147.467 54.136 147.021C54.4701 146.62 54.7187 146.155 54.8664 145.654C54.9988 145.207 55.0694 144.744 55.0762 144.279C55.0907 143.73 54.9818 143.186 54.7576 142.686C54.5693 142.28 54.3056 141.913 53.9806 141.606C53.6632 141.326 53.3073 141.093 52.9238 140.914C52.5673 140.752 52.2015 140.612 51.8282 140.494L50.4684 140.106L50.4528 148.482Z" fill="#263238"/>
<path d="M59.2185 149.13C64.2588 144.089 64.2588 135.917 59.2185 130.877C54.1782 125.837 46.0062 125.837 40.9659 130.877C35.9256 135.917 35.9256 144.089 40.9659 149.13C46.0062 154.17 54.1782 154.17 59.2185 149.13Z" stroke="#263238" stroke-width="0.777035" stroke-miterlimit="10"/>
<path d="M295.802 30.0624C295.413 29.837 295.079 29.6195 294.791 29.4252C294.504 29.231 294.232 29.0367 294.014 28.8424C293.744 28.6498 293.485 28.4423 293.237 28.2208L292.46 27.4438C292.103 27.063 291.73 26.6667 291.334 26.1772C291.011 25.7801 290.625 25.4388 290.191 25.1671C290.083 25.0817 289.958 25.0203 289.824 24.9868C289.69 24.9534 289.55 24.9486 289.414 24.9728C289.182 25.0503 288.968 25.1746 288.785 25.338L288.295 25.0583L292.359 18.1194L292.709 18.3214C292.158 19.8143 291.874 21.3924 291.87 22.9836C291.879 24.0868 292.122 25.1755 292.585 26.1772C292.964 26.9751 293.507 27.6845 294.178 28.2597C294.766 28.7478 295.389 29.1919 296.042 29.5884L302.212 19.1062L300.658 17.4589C299.386 16.2315 298.45 14.6986 297.938 13.0065C297.769 12.2712 297.751 11.5093 297.885 10.7668C298.018 10.0243 298.301 9.31651 298.715 8.68616C299.243 7.75523 299.954 6.94105 300.806 6.29289C301.602 5.67642 302.521 5.23908 303.502 5.01079C304.507 4.78425 305.546 4.7526 306.563 4.91754C307.681 5.10045 308.754 5.49329 309.726 6.07532L309.819 6.12972L310.977 4.16382L311.428 4.42801L310.278 6.39391C310.811 6.74477 311.306 7.15109 311.754 7.60608C312.084 7.95268 312.391 8.32133 312.671 8.70947C312.912 9.05136 313.137 9.36218 313.339 9.63414C313.526 9.90442 313.77 10.13 314.054 10.2946C314.22 10.4397 314.426 10.5317 314.645 10.5588C314.908 10.4938 315.158 10.3833 315.383 10.2325L315.833 10.4966L312.438 16.3089L312.049 16.0758C312.345 15.2712 312.556 14.4378 312.679 13.5892C312.807 12.768 312.807 11.9318 312.679 11.1105C312.542 10.2879 312.255 9.49763 311.832 8.7794C311.363 8.01254 310.731 7.3575 309.982 6.86013L304.636 15.9981L306.874 18.3292C307.131 18.5934 307.496 19.0129 307.978 19.6035C308.488 20.2382 308.907 20.9419 309.221 21.6937C309.581 22.5511 309.779 23.4681 309.804 24.3978C309.811 25.4994 309.498 26.5794 308.902 27.5059C308.334 28.494 307.574 29.3592 306.669 30.0515C305.763 30.7438 304.729 31.2493 303.626 31.5387C302.466 31.8303 301.259 31.891 300.075 31.7175C298.722 31.5099 297.423 31.0372 296.252 30.3266L294.931 32.5877L294.481 32.3236L295.802 30.0624ZM309.524 6.59594L309.431 6.54155C308.85 6.21661 308.235 5.95605 307.597 5.76451C306.899 5.54141 306.169 5.43636 305.437 5.4537C304.692 5.4776 303.963 5.67446 303.308 6.0287C302.559 6.45004 301.944 7.07512 301.536 7.83142C301.161 8.43279 300.947 9.12046 300.914 9.8284C300.897 10.4663 301.011 11.1011 301.249 11.6933C301.499 12.312 301.84 12.8906 302.259 13.4105C302.685 13.9518 303.139 14.4705 303.619 14.9646L304.263 15.6406L309.524 6.59594ZM296.516 29.907C297.459 30.5029 298.519 30.8873 299.625 31.0337C300.466 31.1245 301.317 31.0317 302.119 30.7617C302.827 30.5131 303.473 30.1156 304.015 29.5962C304.501 29.1375 304.922 28.6147 305.266 28.0421C305.685 27.3788 305.951 26.6301 306.043 25.8509C306.105 25.204 306.036 24.5514 305.841 23.9316C305.668 23.3554 305.406 22.8099 305.064 22.3153C304.745 21.8535 304.395 21.4147 304.015 21.0022L302.616 19.5413L296.516 29.907Z" fill="#263238"/>
<path d="M317.185 29.9251C323.163 21.6432 321.295 10.0838 313.013 4.10638C304.731 -1.87106 293.172 -0.00297216 287.194 8.27885C281.217 16.5607 283.085 28.1201 291.367 34.0975C299.648 40.075 311.208 38.2069 317.185 29.9251Z" stroke="#263238" stroke-width="0.777035" stroke-miterlimit="10"/>
<path d="M434.72 105.062V59.512H296.074V105.093L298.459 108.706C300.101 111.038 302.471 112.76 305.196 113.601C309.299 114.953 313.743 113.912 317.325 111.519C319.997 109.697 323.152 108.718 326.386 108.706C336.06 108.706 343.838 117.401 343.838 128.241C343.838 139.08 336.068 147.713 326.386 147.713C323.152 147.702 319.997 146.722 317.325 144.9C313.712 142.445 309.237 141.404 305.134 142.818C302.424 143.623 300.07 145.328 298.459 147.651L296.074 151.202V197.443H342.307L345.92 195.05C348.251 193.446 349.96 191.089 350.761 188.375C352.168 184.273 351.126 179.828 348.679 176.191C346.854 173.521 345.871 170.365 345.858 167.131C345.858 157.449 354.561 149.671 365.338 149.671C376.116 149.671 384.873 157.442 384.873 167.131C384.86 170.365 383.878 173.521 382.052 176.191C379.667 179.743 378.626 184.21 379.97 188.321C380.815 191.045 382.539 193.411 384.873 195.05L388.486 197.443H434.72V151.202L434.813 151.07L434.766 105.093L434.72 105.062Z" fill="white" stroke="black" stroke-width="0.777035" stroke-linecap="round" stroke-linejoin="round"/>
<path d="M340.388 94.0355C339.479 94.7504 337.707 95.1001 335.088 95.1001C332.425 95.0945 329.793 94.5251 327.365 93.4295C324.842 92.3261 322.016 91.0647 318.887 89.6453C315.355 88.0893 311.72 86.7756 308.009 85.7135C304.12 84.6361 300.141 83.9208 296.12 83.5767V87.8892C302.2 88.6202 308.086 90.5003 313.464 93.4295C319.283 96.6561 324.465 100.917 328.756 106.002C329.704 107.129 330.605 108.333 331.468 109.499C331.887 109.638 332.299 109.802 332.703 109.98L332.835 110.035C333.665 110.399 334.463 110.833 335.221 111.332H335.275C335.648 111.581 336.013 111.84 336.371 112.109L336.472 112.187C337.162 112.737 337.814 113.334 338.422 113.974L338.608 114.176C338.873 114.472 339.137 114.775 339.385 115.085L339.642 115.412C339.813 115.64 339.976 115.865 340.131 116.088C340.295 116.313 340.442 116.538 340.59 116.772C340.738 117.005 340.823 117.129 340.932 117.316C341.041 117.502 341.188 117.751 341.313 117.976L341.375 118.108C343.026 121.199 343.883 124.651 343.869 128.155C343.871 130.359 343.533 132.55 342.867 134.651C343.628 137.464 344.265 140.313 344.778 143.199H348.415V88.7362H344.172C342.556 91.5698 341.294 93.3362 340.388 94.0355Z" fill="#263238"/>
<path d="M296.074 197.475H342.307L345.92 195.082C346.425 194.756 346.899 194.384 347.335 193.97C342.229 190.196 336.632 187.137 330.698 184.879C324.948 182.76 320.659 181.297 317.831 180.489L296.074 174.203V197.514V197.475Z" fill="#263238"/>
<path d="M388.618 197.506L385.005 195.12C382.679 193.511 380.972 191.156 380.164 188.445C378.758 184.343 379.799 179.898 382.247 176.254C384.072 173.584 385.054 170.428 385.067 167.194C385.067 157.512 376.372 149.679 365.595 149.679C354.817 149.679 346.052 157.512 346.052 167.194C346.074 170.426 347.056 173.58 348.873 176.254C351.258 179.805 352.3 184.281 350.955 188.383C350.113 191.111 348.389 193.48 346.052 195.12L342.439 197.506H296.206V243.747L293.812 247.36C292.153 249.676 289.79 251.393 287.075 252.256C282.973 253.608 278.528 252.566 274.954 250.173C272.292 248.326 269.126 247.343 265.886 247.36C256.212 247.36 248.433 256.055 248.433 266.833C248.433 277.61 256.212 286.406 265.886 286.406C269.121 286.393 272.279 285.414 274.954 283.593C278.567 281.138 283.035 280.035 287.138 281.449C289.844 282.296 292.192 284.018 293.812 286.344L296.206 289.957V336.136H434.898V197.506H388.618Z" fill="#A23834" stroke="black" stroke-width="0.777035" stroke-linecap="round" stroke-linejoin="round"/>
<path d="M292.701 248.735C291.494 249.99 290.053 250.996 288.459 251.696V281.938C290.055 282.631 291.497 283.635 292.701 284.891V248.735Z" fill="#263238"/>
<path d="M280.284 252.504C278.747 252.145 277.273 251.558 275.909 250.764V282.948C277.272 282.14 278.746 281.538 280.284 281.161V252.504Z" fill="#263238"/>
<path d="M349.168 286.01C355.678 279.524 360.824 271.802 364.305 263.297C367.822 254.804 369.624 245.698 369.604 236.505C369.604 226.212 367.434 217.683 363.093 210.917C359.1 204.536 353.969 198.942 347.956 194.413L347.412 194.024C346.987 194.424 346.533 194.79 346.052 195.12L342.439 197.506H296.206V207.234L308.428 210.762C312.77 212.09 317.017 213.71 321.141 215.61C325.611 217.651 329.747 220.354 333.41 223.629C337.29 227.167 340.427 231.441 342.641 236.202C345.066 241.247 346.278 247.404 346.278 254.672C346.198 260.055 345.382 265.401 343.853 270.562C342.191 276.405 339.301 281.825 335.376 286.46C331.335 291.309 325.896 295.347 319.058 298.574C312.956 301.444 305.344 303.037 296.221 303.353V307.596C306.913 307.249 316.543 305.301 325.111 301.753C334.089 298.142 342.265 292.792 349.168 286.01Z" fill="#263238"/>
<path d="M265.855 247.321C269.089 247.332 272.246 248.315 274.915 250.142C278.474 252.59 282.942 253.631 287.107 252.287C289.796 251.403 292.134 249.686 293.781 247.384L296.167 243.77V197.537H249.933L246.32 195.143C243.989 193.526 242.264 191.177 241.417 188.469C240.01 184.366 241.114 179.921 243.561 176.285C245.388 173.612 246.37 170.454 246.382 167.217C246.382 157.543 237.625 149.765 226.84 149.765C216.054 149.765 207.367 157.535 207.367 167.217C207.35 170.458 208.335 173.625 210.188 176.285C212.573 179.836 213.615 184.304 212.27 188.407C211.406 191.122 209.686 193.486 207.367 195.143L203.754 197.537H157.52V336.183H296.167V289.949L293.781 286.336C292.143 283.998 289.773 282.273 287.044 281.433C282.879 280.089 278.497 281.13 274.86 283.516C272.211 285.341 269.072 286.324 265.855 286.336C256.181 286.336 248.34 277.641 248.34 266.856C248.34 256.071 256.181 247.321 265.855 247.321Z" fill="white" stroke="black" stroke-width="0.777035" stroke-linecap="round" stroke-linejoin="round"/>
<path d="M296.167 303.353C295.032 303.392 293.882 303.416 292.701 303.416V284.984C291.502 283.713 290.059 282.695 288.459 281.993V303.416C285.84 303.416 283.113 303.291 280.284 303.058V281.177C278.749 281.522 277.274 282.095 275.909 282.879V302.608C273.982 302.367 272.024 302.087 269.988 301.753C262.937 300.49 256.23 297.755 250.306 293.726C243.841 289.489 237.835 283.029 232.287 274.347C226.739 265.665 222.348 253.654 219.116 238.316H215.79V303.416H220.328C220.946 301.532 221.922 299.785 223.203 298.272C224.314 297.059 226.389 296.453 229.419 296.453C233.563 296.59 237.656 297.409 241.533 298.878C246.196 300.494 250.537 301.906 254.557 303.113C257.577 303.921 260.402 304.628 263.034 305.234C265.577 305.831 268.15 306.29 270.742 306.609C272.395 306.806 274.117 306.98 275.909 307.13V329.143H280.284V307.386C282.732 307.518 285.451 307.596 288.459 307.596V328.794H292.701V307.658C293.867 307.658 295.032 307.658 296.167 307.596V303.353Z" fill="#263238"/>
<path d="M233.654 179.882C235.863 182.127 238.257 184.18 240.811 186.021C240.509 182.54 241.46 179.065 243.492 176.223C245.317 173.552 246.299 170.396 246.312 167.162C246.28 164.683 245.694 162.242 244.597 160.018C243.5 157.795 241.919 155.844 239.972 154.31C236.238 151.351 231.604 149.758 226.84 149.796C225.004 149.798 223.177 150.033 221.4 150.495C222.095 162.425 226.179 172.221 233.654 179.882Z" fill="#263238"/>
<path d="M270.898 199.86L275.909 201.336V250.771C277.27 251.576 278.745 252.168 280.284 252.527V202.611L288.459 205.012V251.727C290.051 251.008 291.492 249.99 292.701 248.728V206.224L296.167 207.226V197.537H263.679C265.994 198.353 268.388 199.13 270.898 199.86Z" fill="#263238"/>
<path d="M104.317 139.492C102.398 139.446 96.1891 142.601 96.1891 142.601L102.18 161.677L142.026 157.069C142.438 157.011 142.817 156.813 143.1 156.509C143.383 156.205 143.552 155.813 143.58 155.398C143.852 154.038 151.568 117.751 151.568 117.751L142.648 115.816L133.596 142.406C133.596 142.406 106.228 139.547 104.317 139.492Z" fill="#263238" stroke="#263238" stroke-width="0.777035" stroke-miterlimit="10"/>
<path d="M160.349 100.174L157.241 100.571L153.076 101.752L156.285 98.8533C156.285 98.8533 159.494 97.4313 160.007 97.0894C160.52 96.7475 160.201 95.7762 159.929 95.8151C158.564 95.9259 157.211 96.1627 155.889 96.5222C155.018 96.9107 150.449 99.8868 150.449 99.8868L153.62 96.0016C153.62 96.0016 157.109 93.1654 157.388 92.4816C157.668 91.7978 157.388 91.013 156.503 91.3161C154.827 92.2306 153.276 93.3561 151.887 94.6651C151.242 95.3877 147.722 98.6901 147.722 98.6901L148.134 97.6256C148.134 97.6256 151.491 93.0644 151.848 92.2796C152.206 91.4948 152.097 90.6012 151.708 90.4613C151.32 90.3215 150.488 90.9897 149.882 92.0154C149.276 93.0411 144.591 98.6668 144.381 99.1564C144.171 99.6459 143.821 111.9 143.821 111.9L142.601 115.863L150.714 117.619L151.374 113.493C151.374 113.493 152.213 112.195 152.586 111.503C152.959 110.812 153.985 105.994 153.985 105.994L157.451 102.979C158.607 102.578 159.726 102.074 160.792 101.472C161.569 100.936 160.706 100.128 160.349 100.174Z" fill="#263238" stroke="#263238" stroke-width="0.777035" stroke-miterlimit="10"/>
<path d="M250.928 29.5338C248.223 31.3063 246.109 33.8473 244.859 36.8301C243.173 40.7697 239.987 44.0721 235.814 45.1755C233.063 45.9874 230.116 45.8366 227.461 44.7481L223.491 43.0153L198.696 4.75415L82.3501 80.1809L157.482 195.959L196.17 170.876L197.957 166.875C198.995 164.22 199.151 161.302 198.4 158.553C197.297 154.38 193.994 151.194 190.008 149.547C187.023 148.301 184.481 146.187 182.712 143.478C177.444 135.358 180.56 124.052 189.604 118.201C198.649 112.35 210.234 114.098 215.495 122.218C217.247 124.938 218.141 128.122 218.059 131.356C217.974 135.723 219.481 140.075 222.892 142.748C225.066 144.546 227.767 145.588 230.585 145.716H234.967L273.765 120.563L248.597 81.7427L248.636 77.4069C248.721 74.5797 249.768 71.8661 251.604 69.7142C254.277 66.3031 258.597 64.7412 262.956 64.8345C266.191 64.9173 269.375 64.0238 272.094 62.2703C280.168 57.0408 282.009 45.4785 276.15 36.4339C270.292 27.3892 258.955 24.3043 250.928 29.5338Z" fill="#A23834" stroke="black" stroke-width="0.777035" stroke-linecap="round" stroke-linejoin="round"/>
<path d="M168.057 111.682L162.455 115.886L158.499 126.633C158.499 126.633 147.31 165.251 145.997 167.225C144.684 169.198 141.172 170.737 141.172 170.737L135.468 162.399L157.847 113.446L162.89 112.133L168.057 111.682Z" fill="#263238" stroke="#263238" stroke-width="0.777035" stroke-miterlimit="10"/>
<path d="M261.107 101.013L257.711 102.039L211.089 30.1322C212.107 29.5805 213.125 29.0755 214.143 28.5782L211.812 24.9572C210.825 25.4623 209.823 25.9906 208.797 26.5656L198.742 11.0793L195.183 13.4104L205.23 28.9511L204.453 29.4407C202.379 30.7849 200.405 32.1992 198.532 33.66L188.307 17.8162L184.647 20.194L195.168 36.4262C191.219 39.8727 187.681 43.7628 184.623 48.0196C179.704 54.783 176.142 62.4353 174.133 70.5536C172.235 78.4832 172.044 86.726 173.574 94.7349C175.187 103.244 178.481 111.346 183.264 118.567C183.963 119.654 184.693 120.696 185.439 121.675C186.677 120.334 188.076 119.152 189.604 118.155C198.649 112.288 210.234 114.052 215.495 122.172C217.247 124.892 218.141 128.076 218.059 131.31C217.909 134.804 219.011 138.238 221.167 140.992C228.72 141.396 237.143 140.484 246.436 138.257L273.788 120.525L261.107 101.013ZM240.982 107.082C237.47 108.084 233.895 108.978 230.235 109.747C224.953 110.895 219.529 111.248 214.143 110.796C208.977 110.363 203.954 108.882 199.379 106.445C194.795 104.015 190.744 100.086 187.226 94.6572C182.948 88.0524 180.749 81.6004 180.629 75.3013C180.465 69.2633 181.707 63.2697 184.258 57.7947C186.786 52.4322 190.201 47.5353 194.36 43.3107C195.44 42.2074 196.512 41.1661 197.584 40.2026L240.982 107.082ZM253.5 103.329L246.25 105.505L245.349 105.777L200.926 37.2732C202.789 35.7136 204.742 34.2658 206.777 32.9373L207.554 32.44L253.5 103.329Z" fill="#263238"/>
<path d="M255.59 27.4905C260.483 29.4025 265.129 31.8938 269.429 34.9112C272.737 37.2166 275.901 39.7234 278.901 42.4173C278.312 40.295 277.402 38.2749 276.205 36.4264C271.34 28.9902 262.894 25.6101 255.59 27.4905Z" fill="#263238"/>
<path d="M116.019 137.86L119.632 139.01L119.951 144.994L117.231 142.662V144.994C120.373 153.167 123.03 161.519 125.188 170.006C129.073 184.941 129.648 194.444 129.26 203.559C128.871 212.673 128.094 218.882 128.094 218.882L123.634 203.947L113.393 144.799L112.81 140.137L116.019 137.86Z" fill="#BFBFBF" stroke="#263238" stroke-width="0.777035" stroke-miterlimit="10"/>
<path d="M125.577 202.79C125.577 202.79 128.871 220.047 129.648 227.414C130.425 234.78 137.496 258.728 136.541 269.42C136.129 274.082 135.453 316.586 135.453 316.586L138.227 318.607L137.45 325.266C137.45 325.266 148.041 330.814 150.31 331.567C152.579 332.321 151.568 330.052 152.579 332.345C153.589 334.637 149.556 335.88 143.751 336.385C140.222 336.682 136.671 336.596 133.16 336.129L130.62 334.582L129.881 336.067C129.881 336.067 126.354 335.95 125.297 335.95C124.63 335.948 123.963 335.909 123.3 335.833C123.3 335.833 122.36 331.132 122.119 329.135C121.878 327.138 121.769 325.017 121.769 325.017C121.769 325.017 119.889 322.787 119.889 321.614C119.889 320.44 121.303 315.848 121.303 315.848L119.609 288.504L118.886 271.169L113.393 247.555C113.393 247.555 108.785 273.375 108.241 274.556C107.697 275.738 90.6022 320.199 90.6022 320.199L92.0087 321.373L90.4546 326.664L94.9225 331.715C94.9225 331.715 102.211 335.243 102.211 335.833C102.211 336.424 101.271 337.387 101.271 337.387C97.8607 337.515 94.446 337.437 91.0452 337.154C88.4231 336.879 85.8256 336.407 83.2748 335.74C81.8606 335.39 79.8636 333.16 79.8636 333.16L78.4572 333.984L72.4585 330.573C72.4585 330.573 74.0125 322.694 74.6963 320.813C75.114 319.689 75.848 318.709 76.8099 317.993L79.8636 313.059L91.7833 267.586L92.3039 226.209L91.0374 218.618L93.4773 203.854L125.577 202.79Z" fill="#263238" stroke="#263238" stroke-width="0.777035" stroke-miterlimit="10"/>
<path d="M115.188 102.583C115.188 102.583 118.723 106.305 118.91 107.984C119.096 109.662 118.257 111.333 118.723 112.078C119.189 112.824 123.564 117.098 123.385 117.658C123.207 118.217 120.961 119.802 120.961 119.802L113.89 137.767L97.3158 131.776L99.1729 126.189L91.7289 118.839C91.7289 118.839 91.2627 110.835 96.9428 105.248C102.623 99.6615 115.188 102.583 115.188 102.583Z" fill="white" stroke="#263238" stroke-width="0.777035" stroke-miterlimit="10"/>
<path d="M106.803 106.492C106.803 106.492 116.765 103.329 117.231 99.8791C117.697 96.4291 109.601 94.4865 102.522 95.9939C95.4432 97.5014 87.261 105.318 86.9813 111.822C86.7015 118.326 96.1037 124.853 96.6631 125.133C97.2226 125.412 97.1293 126.803 98.2172 127.176C99.305 127.549 99.7091 127.829 101.201 126.617C102.693 125.405 102.312 121.955 102.312 121.955C102.312 121.955 98.1239 121.31 97.5645 118.419C97.005 115.529 99.5226 114.044 101.201 114.977C102.879 115.909 104.27 119.352 104.643 120.377C105.016 121.403 105.016 128.194 107.433 129.873C109.849 131.551 118.047 132.942 120.557 132.849C123.067 132.755 123.354 131.823 122.795 129.741C122.235 127.658 121.303 123.687 121.241 122.747C121.179 121.807 122.018 120.144 120.961 119.771C119.904 119.398 117.519 121.535 115.009 123.586C114.004 124.458 112.945 125.265 111.839 126.003C111.839 126.003 111.839 125.731 108.73 120.704C105.622 115.676 104.356 113.345 104.356 113.065C104.356 112.786 109.849 112.141 109.29 109.81C108.932 108.419 108.038 107.226 106.803 106.492Z" fill="#263238" stroke="#263238" stroke-width="0.777035" stroke-miterlimit="10"/>
<path d="M117.324 110.4C117.324 110.4 115.646 109.095 114.348 111.706" stroke="#263238" stroke-width="0.777035" stroke-miterlimit="10"/>
<path d="M116.858 123.617C117.942 124.19 119.186 124.387 120.394 124.177" stroke="white" stroke-width="0.777035" stroke-miterlimit="10"/>
<path d="M117.216 114.332C117.394 115.109 117.286 115.793 116.983 115.886C116.68 115.979 116.299 115.381 116.128 114.604C115.957 113.827 116.058 113.135 116.361 113.05C116.664 112.964 117.045 113.547 117.216 114.332Z" fill="#263238"/>
<path d="M97.1293 129.849L116.027 137.86L114.628 143.626L95.4509 133.579L97.1293 129.849Z" fill="white" stroke="#263238" stroke-width="0.777035" stroke-miterlimit="10"/>
<path d="M114.628 143.626C114.628 143.626 121.311 154.504 122.857 173.114C124.403 191.724 125.577 202.789 125.577 202.789L117.426 203.753L114.628 143.626Z" fill="white" stroke="#263238" stroke-width="0.777035" stroke-miterlimit="10"/>
<path d="M95.4509 133.579L93.3063 138.327C93.3063 138.327 86.9657 152.702 87.1444 155.888C87.3232 159.074 90.6799 191.274 90.6799 191.274L83.2515 225.798C83.2515 225.798 93.8658 232.939 103.952 233.824C114.038 234.71 120.386 232.589 120.386 232.589C120.386 232.589 121.451 210.381 120.386 196.224C119.321 182.066 117.907 156.774 116.672 151.645C115.436 146.517 114.613 143.626 114.613 143.626L95.4509 133.579Z" fill="#BFBFBF" stroke="#263238" stroke-width="0.777035" stroke-miterlimit="10"/>
<path d="M93.3141 138.327L109.197 145.289L117.449 184.335" stroke="#263238" stroke-width="0.777035" stroke-miterlimit="10"/>
<path d="M98.7222 144.208C98.7222 144.208 105.28 141.877 107.176 142.165C109.072 142.452 135.826 148.801 135.826 148.801L148.219 123.586L156.821 126.647C156.821 126.647 144.521 161.614 144.086 162.966C144.005 163.373 143.786 163.741 143.466 164.005C143.146 164.27 142.745 164.416 142.329 164.419L102.219 163.891" fill="#BFBFBF"/>
<path d="M98.7222 144.208C98.7222 144.208 105.28 141.877 107.176 142.165C109.072 142.452 135.826 148.801 135.826 148.801L148.219 123.586L156.821 126.647C156.821 126.647 144.521 161.614 144.086 162.966C144.005 163.373 143.786 163.741 143.466 164.005C143.146 164.27 142.745 164.416 142.329 164.419L102.219 163.891" stroke="#263238" stroke-width="0.777035" stroke-miterlimit="10"/>
<path d="M148.219 123.563L149.937 119.787L157.225 122.343L156.044 126.345L148.219 123.563Z" fill="white" stroke="#263238" stroke-width="0.777035" stroke-miterlimit="10"/>
<path d="M149.913 119.786C149.913 119.786 151.825 107.68 152.097 107.222C152.369 106.763 157.746 101.783 158.476 100.85C159.207 99.9177 160.116 99.3893 160.481 99.5758C160.846 99.7623 160.838 100.664 160.388 101.394C159.937 102.124 156.013 106.219 156.013 106.219L155.469 107.222C155.469 107.222 159.354 104.401 160.131 103.764C161.676 102.643 163.358 101.724 165.135 101.029C166.045 100.85 166.231 101.666 165.866 102.303C165.501 102.94 161.678 105.31 161.678 105.31L158.033 108.768C158.033 108.768 162.952 106.437 163.861 106.126C165.22 105.943 166.594 105.883 167.964 105.947C168.236 105.947 168.414 106.95 167.871 107.222C167.327 107.494 163.985 108.496 163.985 108.496L160.434 110.959L164.716 110.322H167.824C168.189 110.322 168.92 111.231 168.096 111.682C166.977 112.122 165.819 112.457 164.638 112.684L160.792 115.233C160.183 117.029 159.482 118.792 158.694 120.517C158.243 121.154 157.241 122.343 157.241 122.343L149.913 119.786Z" fill="white" stroke="#263238" stroke-width="0.777035" stroke-miterlimit="10"/>
</g>
<defs>
<clipPath id="clip0_10_5415">
<rect width="553" height="337.536" fill="white" transform="translate(0 0.231934)"/>
</clipPath>
</defs>
</svg>
