<svg width="647" height="539" viewBox="0 0 647 539" fill="none" xmlns="http://www.w3.org/2000/svg">
<path d="M496.363 96.3385H32.1099V398.195H496.363V96.3385Z" fill="#DCA6A1"/>
<path opacity="0.8" d="M496.363 96.3385H32.1099V398.195H496.363V96.3385Z" fill="white"/>
<path d="M466.092 200.929H201.853V367.914H466.092V200.929Z" fill="white" stroke="#263238" stroke-width="1.11675" stroke-miterlimit="10"/>
<path d="M284.204 180.733L279.12 166.067H196.342V379.843H470.674V180.733H284.204ZM465.555 367.656H201.478V200.202H465.538L465.555 367.656Z" fill="#DCA6A1" stroke="#263238" stroke-width="1.11675" stroke-miterlimit="10"/>
<path d="M415.623 186.25H284.421V194.507H415.623V186.25Z" fill="white" stroke="#263238" stroke-width="1.11675" stroke-miterlimit="10"/>
<path d="M208.144 185.334L204.601 189.168L208.271 193.591" stroke="#263238" stroke-width="1.11675" stroke-linecap="round" stroke-linejoin="round"/>
<path d="M204.601 189.002H212.859" stroke="#263238" stroke-width="1.11675" stroke-linecap="round" stroke-linejoin="round"/>
<path d="M229.502 185.334L233.045 189.168L229.375 193.591" stroke="#263238" stroke-width="1.11675" stroke-linecap="round" stroke-linejoin="round"/>
<path d="M233.046 189.002H224.788" stroke="#263238" stroke-width="1.11675" stroke-linecap="round" stroke-linejoin="round"/>
<path d="M251.388 188.259C251.14 187.44 250.616 186.716 249.893 186.192C249.17 185.667 248.284 185.37 247.366 185.342C246.823 185.309 246.279 185.378 245.767 185.547C245.255 185.716 244.786 185.98 244.389 186.324C243.992 186.667 243.675 187.082 243.459 187.543C243.243 188.004 243.131 188.501 243.131 189.004C243.131 189.507 243.243 190.004 243.459 190.465C243.675 190.926 243.992 191.341 244.389 191.684C244.786 192.028 245.255 192.292 245.767 192.461C246.279 192.63 246.823 192.699 247.366 192.666C248.279 192.668 249.164 192.372 249.864 191.83" stroke="#263238" stroke-width="1.11675" stroke-linecap="round" stroke-linejoin="round"/>
<path d="M248.643 189.004H251.396V185.334" stroke="#263238" stroke-width="1.11675" stroke-linecap="round" stroke-linejoin="round"/>
<path d="M270.66 187.309L267.369 184.418L264.238 187.309V193.593H270.66V187.309Z" stroke="#263238" stroke-width="1.11675" stroke-linecap="round" stroke-linejoin="round"/>
<path d="M269.738 189.002H266.986V193.589H269.738V189.002Z" fill="#263238"/>
<path d="M264.242 188.089L262.406 189.925" stroke="#263238" stroke-width="1.11675" stroke-linecap="round" stroke-linejoin="round"/>
<path d="M271.582 188.09L273.418 189.926" stroke="#263238" stroke-width="1.11675" stroke-linecap="round" stroke-linejoin="round"/>
<path d="M269.738 174.323L275.243 179.827" stroke="#263238" stroke-width="1.11675" stroke-linecap="round" stroke-linejoin="round"/>
<path d="M275.243 174.323L269.738 179.827" stroke="#263238" stroke-width="1.11675" stroke-linecap="round" stroke-linejoin="round"/>
<path d="M451.404 188.089H461.497" stroke="#D5D5D5" stroke-width="1.11675" stroke-linecap="round" stroke-linejoin="round"/>
<path d="M451.404 190.842H461.497" stroke="#D5D5D5" stroke-width="1.11675" stroke-linecap="round" stroke-linejoin="round"/>
<path d="M451.405 192.678H461.497" stroke="#D5D5D5" stroke-width="1.11675" stroke-linecap="round" stroke-linejoin="round"/>
<path d="M451.405 195.426H461.497" stroke="#D5D5D5" stroke-width="1.11675" stroke-linecap="round" stroke-linejoin="round"/>
<path d="M396.355 220.2H409.2" stroke="#D5D5D5" stroke-width="1.11675" stroke-linecap="round" stroke-linejoin="round"/>
<path d="M379.84 220.2H391.767" stroke="#D5D5D5" stroke-width="1.11675" stroke-linecap="round" stroke-linejoin="round"/>
<path d="M350.486 220.2H374.341" stroke="#D5D5D5" stroke-width="1.11675" stroke-linecap="round" stroke-linejoin="round"/>
<path d="M350.486 228.452H409.206" stroke="#D5D5D5" stroke-width="1.11675" stroke-linecap="round" stroke-linejoin="round"/>
<path d="M400.943 236.711H409.201" stroke="#D5D5D5" stroke-width="1.11675" stroke-linecap="round" stroke-linejoin="round"/>
<path d="M360.569 236.711H395.434" stroke="#D5D5D5" stroke-width="1.11675" stroke-linecap="round" stroke-linejoin="round"/>
<path d="M350.486 236.711H355.073" stroke="#D5D5D5" stroke-width="1.11675" stroke-linecap="round" stroke-linejoin="round"/>
<path d="M350.486 244.971H409.206" stroke="#D5D5D5" stroke-width="1.11675" stroke-linecap="round" stroke-linejoin="round"/>
<path d="M371.586 311.956H358.741V352.326H371.586V311.956Z" fill="#21737C" stroke="#263238" stroke-width="1.11675" stroke-linecap="round" stroke-linejoin="round"/>
<path d="M389.933 264.234H377.088V352.314H389.933V264.234Z" fill="#DCA6A1" stroke="#263238" stroke-width="1.11675" stroke-miterlimit="10"/>
<path d="M408.28 290.845H395.435V352.317H408.28V290.845Z" fill="#21737C" stroke="#263238" stroke-width="1.11675" stroke-linecap="round" stroke-linejoin="round"/>
<path d="M427.547 264.234H414.702V352.314H427.547V264.234Z" fill="#DCA6A1" stroke="#263238" stroke-width="1.11675" stroke-miterlimit="10"/>
<path d="M445.903 225.708H433.058V352.323H445.903V225.708Z" fill="#21737C" stroke="#263238" stroke-width="1.11675" stroke-linecap="round" stroke-linejoin="round"/>
<path d="M317.448 149.548H53.2085V316.532H317.448V149.548Z" fill="white" stroke="#263238" stroke-width="1.11675" stroke-miterlimit="10"/>
<path d="M135.551 130.288L130.466 115.605H47.7007V329.382H322.032V130.288H135.551ZM316.913 317.195H52.9212V149.741H316.998L316.913 317.195Z" fill="#DCA6A1" stroke="#263238" stroke-width="1.11675" stroke-miterlimit="10"/>
<path d="M266.989 135.792H135.787V144.049H266.989V135.792Z" fill="white" stroke="#263238" stroke-width="1.11675" stroke-miterlimit="10"/>
<path d="M58.5879 134.869L55.0444 138.713L58.7144 143.126" stroke="#263238" stroke-width="1.11675" stroke-linecap="round" stroke-linejoin="round"/>
<path d="M55.0459 138.544H63.3034" stroke="#263238" stroke-width="1.11675" stroke-linecap="round" stroke-linejoin="round"/>
<path d="M80.8703 134.869L84.4132 138.713L80.7432 143.126" stroke="#263238" stroke-width="1.11675" stroke-linecap="round" stroke-linejoin="round"/>
<path d="M84.4079 138.544H76.1504" stroke="#263238" stroke-width="1.11675" stroke-linecap="round" stroke-linejoin="round"/>
<path d="M102.75 137.798C102.525 136.98 102.046 136.255 101.383 135.728C100.721 135.202 99.9082 134.901 99.0638 134.869C98.0948 134.869 97.1655 135.255 96.4803 135.943C95.7951 136.632 95.4102 137.565 95.4102 138.539C95.4102 139.512 95.7951 140.445 96.4803 141.134C97.1655 141.822 98.0948 142.209 99.0638 142.209C99.9099 142.208 100.731 141.918 101.39 141.386" stroke="#263238" stroke-width="1.11675" stroke-linecap="round" stroke-linejoin="round"/>
<path d="M100.006 138.539H102.759V134.869" stroke="#263238" stroke-width="1.11675" stroke-linecap="round" stroke-linejoin="round"/>
<path d="M122.03 136.831L118.739 133.952L115.608 136.831V143.127H122.03V136.831Z" stroke="#263238" stroke-width="1.11675" stroke-linecap="round" stroke-linejoin="round"/>
<path d="M120.186 138.544H117.434V143.132H120.186V138.544Z" fill="#263238"/>
<path d="M115.596 136.709L113.76 138.545" stroke="#263238" stroke-width="1.11675" stroke-linecap="round" stroke-linejoin="round"/>
<path d="M122.941 136.708L124.777 138.545" stroke="#263238" stroke-width="1.11675" stroke-linecap="round" stroke-linejoin="round"/>
<path d="M121.104 122.945L126.609 128.45" stroke="#263238" stroke-width="1.11675" stroke-linecap="round" stroke-linejoin="round"/>
<path d="M126.609 122.945L121.104 128.45" stroke="#263238" stroke-width="1.11675" stroke-linecap="round" stroke-linejoin="round"/>
<path d="M302.768 137.628H312.86" stroke="#263238" stroke-width="1.11675" stroke-linecap="round" stroke-linejoin="round"/>
<path d="M302.768 139.457H312.86" stroke="#263238" stroke-width="1.11675" stroke-linecap="round" stroke-linejoin="round"/>
<path d="M302.768 142.212H312.86" stroke="#263238" stroke-width="1.11675" stroke-linecap="round" stroke-linejoin="round"/>
<path d="M302.768 144.044H312.86" stroke="#263238" stroke-width="1.11675" stroke-linecap="round" stroke-linejoin="round"/>
<path d="M66.0601 300.941V243.139L84.3832 282.076L99.951 275.255L117.564 289.218L147.567 269.64L165.89 295.326L178.72 288.913L189.707 295.326L203.449 293.714L221.756 298.142L240.992 296.53L253.229 300.941H66.0601Z" fill="#21737C"/>
<path d="M259.65 200.929H279.835" stroke="#BBBBBB" stroke-width="1.11675" stroke-linecap="round" stroke-linejoin="round"/>
<path d="M233.956 200.929H251.388" stroke="#BBBBBB" stroke-width="1.11675" stroke-linecap="round" stroke-linejoin="round"/>
<path d="M190.837 200.929H227.537" stroke="#BBBBBB" stroke-width="1.11675" stroke-linecap="round" stroke-linejoin="round"/>
<path d="M190.833 208.273H279.83" stroke="#BBBBBB" stroke-width="1.11675" stroke-linecap="round" stroke-linejoin="round"/>
<path d="M266.986 216.528H279.831" stroke="#BBBBBB" stroke-width="1.11675" stroke-linecap="round" stroke-linejoin="round"/>
<path d="M205.517 216.528H258.732" stroke="#BBBBBB" stroke-width="1.11675" stroke-linecap="round" stroke-linejoin="round"/>
<path d="M190.833 216.528H198.173" stroke="#BBBBBB" stroke-width="1.11675" stroke-linecap="round" stroke-linejoin="round"/>
<path d="M190.833 224.788H279.831" stroke="#BBBBBB" stroke-width="1.11675" stroke-linecap="round" stroke-linejoin="round"/>
<path d="M279.835 237.631H259.65" stroke="#BBBBBB" stroke-width="1.11675" stroke-linecap="round" stroke-linejoin="round"/>
<path d="M233.956 237.631H251.388" stroke="#BBBBBB" stroke-width="1.11675" stroke-linecap="round" stroke-linejoin="round"/>
<path d="M190.837 237.631H227.537" stroke="#BBBBBB" stroke-width="1.11675" stroke-linecap="round" stroke-linejoin="round"/>
<path d="M190.837 245.887H279.835" stroke="#BBBBBB" stroke-width="1.11675" stroke-linecap="round" stroke-linejoin="round"/>
<path d="M279.831 254.146H266.986" stroke="#BBBBBB" stroke-width="1.11675" stroke-linecap="round" stroke-linejoin="round"/>
<path d="M205.517 254.146H258.732" stroke="#BBBBBB" stroke-width="1.11675" stroke-linecap="round" stroke-linejoin="round"/>
<path d="M190.837 254.146H198.177" stroke="#BBBBBB" stroke-width="1.11675" stroke-linecap="round" stroke-linejoin="round"/>
<path d="M190.837 262.405H279.835" stroke="#BBBBBB" stroke-width="1.11675" stroke-linecap="round" stroke-linejoin="round"/>
<path d="M88.9142 213.889L78.5005 237.635C72.2964 234.841 67.4435 229.669 65.0094 223.257C62.5753 216.844 62.7594 209.717 65.5212 203.441C67.509 198.832 70.7963 194.917 74.9719 192.187C79.1475 189.457 84.0263 188.032 88.998 188.092L88.9142 213.889Z" fill="#DCA6A1"/>
<g opacity="0.47">
<path opacity="0.47" d="M88.9103 213.885L78.4966 237.631C72.2925 234.837 67.4396 229.665 65.0055 223.253C62.5714 216.84 62.7555 209.712 65.5173 203.437C67.5051 198.828 70.7924 194.913 74.968 192.183C79.1436 189.453 84.0224 188.028 88.9941 188.088L88.9103 213.885Z" fill="white"/>
</g>
<path d="M89.5438 213.773L101.835 236.391C98.3408 238.267 94.4446 239.314 90.4606 239.448C86.4765 239.582 82.516 238.799 78.8979 237.162L89.5438 213.773Z" fill="#21737C"/>
<path d="M88.9951 213.708L108.956 197.266C111.085 199.929 112.675 202.992 113.633 206.28C114.591 209.568 114.899 213.016 114.54 216.425C114.18 219.835 113.16 223.138 111.538 226.146C109.916 229.155 107.725 231.808 105.089 233.955C103.815 235.011 102.44 235.937 100.985 236.718L88.9951 213.708Z" fill="#DCA6A1"/>
<path d="M88.9946 213.779V188.097C92.8722 188.001 96.7184 188.807 100.224 190.449C103.73 192.092 106.797 194.526 109.18 197.555L88.9946 213.779Z" fill="#21737C"/>
<path d="M89.4487 228.456C97.3029 228.456 103.67 222.089 103.67 214.234C103.67 206.38 97.3029 200.013 89.4487 200.013C81.5946 200.013 75.2275 206.38 75.2275 214.234C75.2275 222.089 81.5946 228.456 89.4487 228.456Z" fill="white"/>
<path d="M159.643 213.888L149.197 237.634C146.115 236.253 143.332 234.272 141.009 231.805C138.686 229.339 136.868 226.434 135.659 223.258C134.449 220.083 133.873 216.698 133.962 213.297C134.051 209.897 134.804 206.547 136.178 203.44C138.165 198.843 141.449 194.936 145.621 192.206C149.793 189.477 154.67 188.046 159.643 188.09V213.888Z" fill="#DCA6A1"/>
<g opacity="0.47">
<path opacity="0.47" d="M159.643 213.884L149.197 237.63C146.115 236.248 143.332 234.267 141.009 231.801C138.686 229.334 136.868 226.43 135.659 223.254C134.449 220.078 133.873 216.693 133.962 213.293C134.051 209.892 134.804 206.543 136.178 203.436C138.165 198.838 141.449 194.931 145.621 192.202C149.793 189.473 154.67 188.041 159.643 188.086V213.884Z" fill="white"/>
</g>
<path d="M159.239 213.773L171.565 236.391C168.07 238.267 164.174 239.314 160.19 239.448C156.206 239.582 152.245 238.799 148.627 237.162L159.239 213.773Z" fill="#21737C"/>
<path d="M159.643 213.668L179.603 197.266C181.986 200.254 183.69 203.74 184.593 207.475C185.495 211.21 185.574 215.101 184.823 218.87C184.072 222.64 182.51 226.194 180.249 229.279C177.988 232.364 175.084 234.905 171.744 236.718L159.643 213.668Z" fill="#DCA6A1"/>
<path d="M159.643 213.78V188.098C163.521 188.002 167.368 188.807 170.874 190.45C174.38 192.093 177.447 194.527 179.828 197.556L159.643 213.78Z" fill="#21737C"/>
<path d="M159.177 228.456C167.031 228.456 173.398 222.089 173.398 214.234C173.398 206.38 167.031 200.013 159.177 200.013C151.323 200.013 144.956 206.38 144.956 214.234C144.956 222.089 151.323 228.456 159.177 228.456Z" fill="white"/>
<path d="M65.1401 167.903H231.207" stroke="#263238" stroke-width="1.11675" stroke-linecap="round" stroke-linejoin="round"/>
<path d="M65.1401 176.158H262.402" stroke="#263238" stroke-width="1.11675" stroke-linecap="round" stroke-linejoin="round"/>
<path d="M190.347 491.774H112.924C112.63 491.776 112.342 491.693 112.096 491.535C111.849 491.377 111.655 491.151 111.536 490.884L90.0486 442.491C89.9469 442.263 89.9044 442.014 89.925 441.765C89.9456 441.516 90.0287 441.277 90.1667 441.068C90.3046 440.86 90.4931 440.689 90.7148 440.571C90.9366 440.453 91.1845 440.392 91.436 440.394H168.859C169.152 440.395 169.438 440.481 169.682 440.642C169.926 440.803 170.116 441.032 170.229 441.3L191.666 489.777C191.749 489.995 191.779 490.229 191.753 490.46C191.728 490.692 191.647 490.914 191.519 491.108C191.39 491.303 191.217 491.465 191.013 491.58C190.809 491.696 190.581 491.762 190.347 491.774Z" fill="white" stroke="#263238" stroke-width="1.11675" stroke-linecap="round" stroke-linejoin="round"/>
<path d="M183.135 488.093H116.882C116.634 488.092 116.392 488.02 116.184 487.886C115.977 487.752 115.812 487.561 115.711 487.337L97.3753 445.853C97.2878 445.659 97.2506 445.446 97.2669 445.234C97.2833 445.022 97.3527 444.818 97.4689 444.639C97.5851 444.46 97.7445 444.313 97.9325 444.211C98.1205 444.109 98.3313 444.055 98.5457 444.054H164.782C165.034 444.057 165.279 444.132 165.49 444.269C165.7 444.406 165.867 444.6 165.97 444.827L184.306 486.277C184.397 486.472 184.437 486.687 184.423 486.901C184.408 487.115 184.34 487.323 184.223 487.504C184.106 487.685 183.945 487.833 183.755 487.937C183.565 488.04 183.352 488.094 183.135 488.093Z" fill="#263238" stroke="#263238" stroke-width="1.11675" stroke-linecap="round" stroke-linejoin="round"/>
<path d="M111.937 492.692H228.46V489.022H111.937V492.692Z" fill="white" stroke="#263238" stroke-width="1.11675" stroke-linecap="round" stroke-linejoin="round"/>
<path d="M111.937 492.692H168.822V489.022H111.937V492.692Z" fill="white" stroke="#263238" stroke-width="1.11675" stroke-linecap="round" stroke-linejoin="round"/>
<path d="M5.47119 423.682C7.87569 424.349 10.3617 424.639 12.8478 424.542C12.8478 424.542 11.722 421.03 11.6212 420.749C10.4786 418.238 6.83225 414.076 3.87488 414.498C3.38529 414.582 2.91823 414.774 2.5042 415.059C2.09017 415.345 1.73848 415.719 1.47208 416.157C1.20568 416.594 1.03057 417.085 0.958169 417.598C0.885773 418.111 0.917725 418.635 1.05193 419.134C1.42742 420.182 2.01742 421.133 2.78072 421.918C3.54402 422.704 4.46222 423.306 5.47119 423.682Z" fill="#C0655D"/>
<path d="M7.75533 413.853C10.2377 413.839 12.7038 413.45 15.0709 412.7C15.8337 415.402 16.7821 418.049 17.9093 420.62C18.5513 422.129 19.2609 423.622 19.9705 425.097C19.5481 424.47 19.1595 423.91 19.0919 423.842C17.4024 421.807 12.7732 418.907 10.0024 420.094C9.54566 420.302 9.138 420.604 8.80626 420.982C8.47452 421.359 8.22622 421.803 8.07776 422.284C7.92929 422.764 7.88402 423.271 7.94493 423.771C8.00584 424.27 8.17154 424.751 8.43112 425.182C9.06046 426.061 9.87341 426.791 10.8131 427.321C11.7528 427.851 12.7965 428.169 13.8713 428.252C16.2786 428.264 18.673 427.898 20.9673 427.166C21.2545 427.726 21.5248 428.303 21.812 428.862C23.1805 431.593 24.5491 434.289 25.7993 437.003C26.2555 437.953 26.6609 438.903 27.0664 439.852L26.3061 438.75C24.6166 436.715 19.9705 433.832 17.1997 435.002C16.7448 435.212 16.3391 435.515 16.0089 435.893C15.6786 436.271 15.4314 436.714 15.2832 437.194C15.1349 437.674 15.0891 438.18 15.1486 438.679C15.2081 439.178 15.3716 439.658 15.6284 440.09C16.267 440.952 17.0839 441.665 18.0229 442.18C18.962 442.695 20.001 443.001 21.0687 443.075C23.4108 443.081 25.7405 442.732 27.9788 442.04C28.3673 443.024 28.7559 444.007 29.0938 444.974C29.3135 445.652 29.55 446.28 29.7358 446.975L30.2934 448.977C30.5975 450.249 30.9185 451.588 31.1888 452.843C31.3916 453.725 31.5436 454.539 31.7295 455.404C31.2902 454.455 30.4116 452.606 30.3103 452.47C28.8911 450.181 24.8025 446.636 21.8627 447.382C21.3826 447.515 20.9361 447.749 20.5527 448.068C20.1694 448.387 19.858 448.784 19.6391 449.233C19.4203 449.682 19.299 450.173 19.2833 450.672C19.2676 451.172 19.3579 451.669 19.5481 452.131C20.0344 453.099 20.727 453.947 21.5768 454.615C22.4265 455.283 23.4125 455.755 24.4646 455.998C26.9001 456.373 29.3784 456.373 31.8139 455.998C32.0843 457.406 32.3546 458.762 32.5742 460.051C33.3514 464.529 33.8413 468.277 34.1455 470.906C34.1455 471.364 34.2468 471.788 34.2806 472.178H25.2924L26.3906 493.615H46.1748L47.273 472.178H38.8254C38.8254 472.059 38.9437 471.923 39.0113 471.788C40.1601 469.379 41.7651 465.919 43.4884 461.612C44.046 460.272 44.6035 458.83 45.178 457.355C47.5799 457.912 50.0521 458.101 52.5104 457.914C53.5698 457.759 54.5827 457.373 55.4785 456.784C56.3743 456.196 57.1314 455.418 57.6972 454.506C57.9202 454.057 58.0462 453.566 58.0669 453.064C58.0877 452.563 58.0028 452.063 57.8178 451.597C57.6328 451.132 57.3518 450.71 56.9933 450.361C56.6348 450.011 56.2068 449.742 55.7374 449.57C52.899 448.62 48.557 451.86 46.9688 454.031C46.8675 454.149 46.0058 455.727 45.4821 456.609C45.7017 455.998 45.9382 455.404 46.1579 454.777C46.614 453.539 47.0364 452.284 47.4757 450.944L48.0839 448.943C48.2866 448.281 48.4218 447.552 48.6077 446.857C48.9963 445.161 49.3173 443.566 49.5876 441.87C51.8132 442.758 54.1602 443.301 56.5484 443.482C57.627 443.472 58.691 443.23 59.6677 442.77C60.6445 442.311 61.511 441.645 62.2082 440.819C62.4954 440.409 62.6932 439.942 62.7885 439.45C62.8838 438.958 62.8745 438.451 62.7613 437.963C62.648 437.475 62.4334 437.016 62.1314 436.617C61.8294 436.218 61.4468 435.887 61.0087 435.646C58.3392 434.272 53.5579 436.816 51.6657 438.716C51.5474 438.835 50.331 440.412 49.689 441.192C49.841 440.175 50.01 439.157 50.1451 438.122C50.4999 435.137 50.7871 432.102 51.0743 429.083C51.1757 428.15 51.2771 427.234 51.3616 426.301C53.662 427.227 56.0884 427.799 58.5589 427.997C59.6385 427.994 60.7043 427.754 61.6819 427.294C62.6594 426.834 63.5252 426.165 64.2187 425.335C64.4941 424.928 64.6822 424.468 64.771 423.985C64.8598 423.501 64.8474 423.004 64.7346 422.526C64.6218 422.047 64.411 421.597 64.1157 421.205C63.8204 420.813 63.4469 420.486 63.0192 420.247C60.3666 418.856 55.5853 421.4 53.6762 423.299C53.541 423.452 51.8008 425.623 51.3785 426.2C51.5981 424.164 51.8346 422.146 52.1387 420.162C52.5271 417.476 53.0915 414.819 53.8282 412.208C56.1421 413.128 58.5789 413.699 61.0593 413.904C62.138 413.895 63.202 413.652 64.1787 413.192C65.1554 412.733 66.022 412.067 66.7192 411.241C67.0038 410.83 67.1993 410.364 67.2932 409.872C67.3871 409.381 67.3771 408.875 67.2641 408.387C67.151 407.9 66.9374 407.441 66.6369 407.042C66.3364 406.643 65.9558 406.311 65.5196 406.068C62.8502 404.695 58.0689 407.239 56.1767 409.138C56.0246 409.291 54.1493 411.631 53.8451 412.089C53.8925 411.933 53.932 411.774 53.9634 411.614C54.8085 409.008 55.8827 406.482 57.1735 404.067C57.8493 402.727 58.5758 401.472 59.3191 400.285C61.4639 401.438 63.7712 402.256 66.1617 402.71C67.2342 402.825 68.3186 402.703 69.3397 402.355C70.3608 402.006 71.2941 401.439 72.0749 400.692C72.4039 400.316 72.6506 399.875 72.7991 399.397C72.9477 398.92 72.9949 398.416 72.9376 397.919C72.8803 397.422 72.7197 396.943 72.4664 396.512C72.2131 396.081 71.8725 395.708 71.4667 395.418C68.9662 393.722 63.9315 395.757 61.8365 397.436C61.7182 397.521 60.6707 398.572 59.9105 399.352C60.2484 398.826 60.5863 398.267 60.9242 397.758C62.1744 395.859 63.4415 394.213 64.5735 392.755L66.3982 390.499C68.8241 390.534 71.2407 390.191 73.5617 389.482C74.5675 389.088 75.4755 388.479 76.2226 387.697C76.9696 386.915 77.5376 385.979 77.8868 384.953C78.005 384.468 78.0202 383.963 77.9314 383.472C77.8426 382.98 77.6518 382.513 77.3713 382.1C77.0909 381.688 76.7271 381.339 76.3037 381.077C75.8802 380.814 75.4065 380.644 74.9133 380.578C71.9229 380.255 68.3918 384.36 67.2936 386.802C67.2092 387.022 66.111 390.516 66.1617 390.516C65.5872 391.161 64.9959 391.856 64.3539 392.619C63.1881 394.061 61.8872 395.706 60.5863 397.571C59.167 399.581 57.864 401.67 56.6835 403.83C55.3355 406.239 54.2047 408.765 53.3045 411.377V411.478C53.3045 410.597 53.3045 408.087 53.3045 407.934C52.9666 405.271 50.7364 400.319 47.7967 399.776C47.3006 399.699 46.794 399.729 46.3099 399.862C45.8258 399.995 45.3753 400.23 44.9877 400.55C44.6002 400.87 44.2843 401.269 44.0609 401.72C43.8375 402.171 43.7115 402.665 43.6912 403.168C43.7387 404.247 44.0185 405.304 44.5114 406.264C45.0043 407.224 45.6986 408.066 46.5465 408.731C48.6312 410.096 50.9097 411.137 53.3045 411.818C52.4695 414.502 51.8092 417.239 51.3278 420.009C51.0406 421.62 50.804 423.249 50.5844 424.877C50.5844 424.114 50.5844 423.435 50.5844 423.35C50.2296 420.671 48.0163 415.735 45.0597 415.176C44.5645 415.099 44.0586 415.128 43.5755 415.261C43.0923 415.395 42.6428 415.63 42.2565 415.95C41.8703 416.27 41.556 416.669 41.3344 417.121C41.1129 417.572 40.989 418.065 40.9711 418.568C41.0096 419.649 41.2837 420.71 41.774 421.673C42.2644 422.637 42.9592 423.482 43.8095 424.147C45.8182 425.48 48.0172 426.498 50.331 427.166C50.331 427.794 50.1789 428.421 50.1113 429.049C49.7396 432.068 49.4017 435.087 48.9625 438.038C48.8104 439.072 48.6246 440.09 48.4556 441.107C48.4556 440.429 48.4556 439.869 48.4556 439.784C48.1177 437.105 45.8875 432.169 42.9478 431.61C42.4517 431.533 41.9451 431.562 41.461 431.695C40.977 431.829 40.5264 432.063 40.1388 432.383C39.7513 432.704 39.4354 433.102 39.212 433.554C38.9886 434.005 38.8626 434.498 38.8423 435.002C38.8885 436.084 39.1677 437.143 39.6606 438.106C40.1535 439.069 40.8484 439.914 41.6976 440.582C43.6451 441.888 45.7823 442.883 48.0332 443.533C47.8136 444.567 47.594 445.619 47.3405 446.619C47.1378 447.281 47.0026 447.959 46.783 448.62C46.5634 449.282 46.3437 449.943 46.141 450.605C45.6848 451.843 45.2286 453.132 44.7556 454.336C44.4346 455.167 44.1136 456.032 43.7926 456.761C43.9615 455.727 44.2318 453.691 44.2487 453.522C44.2195 451.138 43.5795 448.802 42.3903 446.738C42.4239 446.479 42.4239 446.217 42.3903 445.958C42.3279 445.462 42.1621 444.984 41.9037 444.556C41.6452 444.129 41.3 443.761 40.8903 443.476C40.4807 443.191 40.0159 442.996 39.5262 442.903C39.0365 442.811 38.533 442.823 38.0482 442.939C35.1592 443.702 33.3176 448.824 33.1824 451.504C33.1824 451.656 33.1824 453.386 33.3514 454.472C33.2162 453.844 33.0811 453.234 32.9121 452.572C32.608 451.3 32.2701 450.011 31.9153 448.637C31.7126 447.993 31.5098 447.332 31.3071 446.653C31.1212 445.992 30.8509 445.296 30.6144 444.618C30.04 443.041 29.381 441.48 28.6883 439.92C31.059 439.438 33.3395 438.586 35.4464 437.393C36.344 436.794 37.1007 436.006 37.6638 435.083C38.227 434.16 38.583 433.126 38.7071 432.051C38.7207 431.551 38.6291 431.053 38.4384 430.591C38.2476 430.129 37.9621 429.712 37.6003 429.368C37.2384 429.024 36.8085 428.761 36.3384 428.595C35.8683 428.429 35.3686 428.364 34.8719 428.404C31.8984 428.727 29.3135 433.492 28.7728 436.138C28.7728 436.291 28.5532 438.224 28.4856 439.293C28.0463 438.36 27.624 437.427 27.1678 436.477C25.8331 433.798 24.397 431.101 22.9778 428.421L21.6938 425.945C24.127 425.45 26.4693 424.581 28.6377 423.367C29.5329 422.767 30.2869 421.978 30.8472 421.056C31.4075 420.133 31.7604 419.099 31.8815 418.025C31.9233 417.492 31.8446 416.957 31.6512 416.459C31.4579 415.961 31.1549 415.514 30.7649 415.15C30.3749 414.786 29.9081 414.516 29.3993 414.359C28.8905 414.202 28.3529 414.162 27.8267 414.243C24.8363 414.565 22.2513 419.331 21.7107 421.977C21.7107 422.163 21.4235 424.945 21.3897 425.657C20.4435 423.842 19.5312 422.028 18.6865 420.196C17.5487 417.735 16.5723 415.203 15.7636 412.615C18.2057 412.105 20.5577 411.23 22.7413 410.02C23.6389 409.421 24.3956 408.632 24.9587 407.71C25.5219 406.787 25.8779 405.752 26.002 404.678C26.0054 404.188 25.9082 403.703 25.7163 403.252C25.5244 402.802 25.2421 402.396 24.8869 402.06C24.5317 401.724 24.1113 401.466 23.652 401.3C23.1927 401.135 22.7044 401.066 22.2175 401.099C19.2271 401.421 16.6421 406.187 16.1015 408.833C16.1015 409.036 15.7974 412.021 15.7805 412.581L15.6284 412.123C14.8903 409.498 14.3815 406.814 14.1079 404.101C13.9389 402.609 13.8713 401.167 13.8207 399.776C16.2454 399.544 18.6209 398.944 20.8659 397.995C21.8218 397.497 22.6583 396.796 23.3176 395.941C23.9769 395.086 24.4432 394.097 24.6842 393.043C24.7531 392.55 24.7181 392.048 24.5816 391.569C24.4451 391.09 24.21 390.645 23.8915 390.263C23.5731 389.881 23.1784 389.57 22.7329 389.351C22.2874 389.132 21.801 389.009 21.3052 388.99C18.3148 388.99 15.223 393.433 14.3951 395.994C14.3951 396.13 14.0403 397.605 13.8376 398.674C13.8376 398.029 13.8376 397.385 13.8376 396.774C13.8376 394.502 13.9896 392.416 14.1417 390.567C14.1417 389.516 14.3275 388.566 14.4289 387.684C16.4672 386.367 18.2908 384.743 19.8353 382.867C20.453 381.983 20.8725 380.975 21.065 379.912C21.2575 378.849 21.2184 377.757 20.9504 376.711C20.7838 376.24 20.5203 375.809 20.177 375.447C19.8336 375.084 19.4181 374.799 18.9575 374.608C18.4969 374.418 18.0016 374.327 17.5037 374.342C17.0058 374.356 16.5165 374.476 16.0677 374.693C13.3983 376.083 12.6887 381.477 13.1449 384.105C13.1449 384.343 14.1755 387.854 14.2261 387.82C14.1079 388.668 13.9896 389.516 13.8882 390.584C13.7024 392.433 13.5166 394.519 13.4659 396.808C13.3739 399.269 13.4304 401.732 13.6348 404.186C13.8478 406.941 14.3058 409.671 15.0033 412.343V412.428C14.5303 411.682 13.1449 409.647 13.0097 409.511C11.3202 407.476 6.69093 404.576 3.92014 405.746C3.46343 405.954 3.05577 406.256 2.72402 406.634C2.39228 407.011 2.14399 407.455 1.99552 407.936C1.84706 408.416 1.80179 408.923 1.8627 409.423C1.92361 409.922 2.08932 410.403 2.3489 410.834C2.9797 411.699 3.78952 412.417 4.72276 412.938C5.656 413.459 6.69054 413.771 7.75533 413.853ZM37.5076 453.251C39.3118 454.813 41.3249 456.115 43.4884 457.117C42.9478 458.44 42.4072 459.729 41.7989 460.916C40.0081 465.088 38.4199 468.48 37.1528 470.855C36.9163 471.33 36.6966 471.737 36.4939 472.127H36.2911C36.2911 471.663 36.2236 471.154 36.0884 470.6C35.7336 467.955 35.1592 464.173 34.2637 459.678C33.9934 458.254 33.6555 456.744 33.3176 455.184C34.7508 454.623 36.1499 453.977 37.5076 453.251Z" fill="#C0655D"/>
<path d="M58.5795 400.026C58.5795 400.026 59.5228 396.417 59.5565 396.173C59.9271 393.436 59.0848 387.926 56.3896 386.584C55.9348 386.373 55.4421 386.264 54.9438 386.264C54.4454 386.263 53.9527 386.372 53.4979 386.583C53.043 386.794 52.6363 387.101 52.3044 387.486C51.9724 387.871 51.7228 388.324 51.5718 388.815C51.3297 389.901 51.3189 391.027 51.54 392.117C51.7611 393.207 52.2088 394.234 52.852 395.127C54.5149 397.046 56.4453 398.697 58.5795 400.026Z" fill="#C0655D"/>
<path d="M12.8403 492.695H645" stroke="#263238" stroke-width="2.23349" stroke-linecap="round" stroke-linejoin="round"/>
<path d="M420.316 334.998C420.316 334.998 412.042 344.61 412.912 346.355C413.782 348.099 420.76 352.461 421.186 349.775C422.002 345.588 422.572 341.356 422.892 337.102C422.943 334.092 423.37 333.288 420.316 334.998Z" fill="white" stroke="#003257" stroke-width="1.11675" stroke-linecap="round" stroke-linejoin="round"/>
<path d="M424.712 314.547C424.712 314.547 419.094 326.593 418.654 329.188C418.214 331.782 420.82 335.202 420.82 336.499C420.82 337.797 417.436 341.655 417.436 347.686C417.436 353.717 416.996 367.482 422.191 370.918C427.385 374.355 436.015 370.497 436.015 370.497L444.221 386.418L477.064 367.482L472.309 360.17C472.309 360.17 479.23 341.638 474.001 327.469C468.773 313.301 450.313 311.111 442.885 310.622C435.456 310.134 427.318 309.342 424.712 314.547Z" fill="white"/>
<path d="M472.248 360.418C472.248 360.418 479.222 341.733 473.953 327.448C468.684 313.162 450.082 310.954 442.596 310.462C441.386 310.462 440.141 310.309 438.896 310.258L429.245 317.868C429.245 317.868 421.299 329.197 424.709 333.716C428.12 338.234 430.387 342.786 429.245 350.141C428.103 357.496 420.566 370.219 428.12 370.525C429.671 370.525 432.127 370.796 435.042 371.085L435.673 370.83L435.844 371.17C446.995 372.291 463.927 374.482 463.927 374.482L465.632 374.398L477.074 367.79L472.248 360.418Z" fill="#E3C3C2"/>
<path opacity="0.5" d="M472.248 360.418C472.248 360.418 479.222 341.733 473.953 327.448C468.684 313.162 450.082 310.954 442.596 310.462C441.386 310.462 440.141 310.309 438.896 310.258L429.245 317.868C429.245 317.868 421.299 329.197 424.709 333.716C428.12 338.234 430.387 342.786 429.245 350.141C428.103 357.496 420.566 370.219 428.12 370.525C429.671 370.525 432.127 370.796 435.042 371.085L435.673 370.83L435.844 371.17C446.995 372.291 463.927 374.482 463.927 374.482L465.632 374.398L477.074 367.79L472.248 360.418Z" fill="white"/>
<path d="M424.712 314.547C424.712 314.547 419.094 326.593 418.654 329.188C418.214 331.782 420.82 335.202 420.82 336.499C420.82 337.797 417.436 341.655 417.436 347.686C417.436 353.717 416.996 367.482 422.191 370.918C427.385 374.355 436.015 370.497 436.015 370.497L444.221 386.418L477.064 367.482L472.309 360.17C472.309 360.17 479.23 341.638 474.001 327.469C468.773 313.301 450.313 311.111 442.885 310.622C435.456 310.134 427.318 309.342 424.712 314.547Z" stroke="#003257" stroke-width="1.11675" stroke-linecap="round" stroke-linejoin="round"/>
<path d="M469.169 300.868C469.169 300.868 453.126 296.101 439.256 296.525C425.386 296.949 411.5 300.868 411.941 308.23C412.382 315.592 425.369 318.188 425.369 318.188C425.369 318.188 432.754 318.629 430.581 320.783C428.408 322.938 422.772 327.298 427.186 332.489C431.6 337.679 435.844 342.022 434.554 343.753C433.264 345.483 434.978 349.384 436.71 348.095C438.441 346.806 435.844 341.581 440.614 339.851C445.385 338.121 450.155 345.483 448.424 350.25C446.692 355.017 443.653 354.592 445.385 358.053C447.116 361.514 457.965 367.146 465.332 367.146C472.7 367.146 474.873 357.612 482.683 342.446C490.492 327.281 485.246 305.194 469.169 300.868Z" fill="#263238" stroke="#003257" stroke-width="1.11675" stroke-linecap="round" stroke-linejoin="round"/>
<path d="M428.442 390.144L432.717 398.343L479.822 367.256L475.112 361.643C475.112 361.643 435.718 383.653 428.442 390.144Z" fill="white" stroke="#003257" stroke-width="1.11675" stroke-linecap="round" stroke-linejoin="round"/>
<path d="M437.339 391.354C437.339 391.354 427.839 404.324 424.39 410.808C420.941 417.293 406.25 455.354 399.776 468.764C395.995 476.47 392.993 484.535 390.816 492.84H481.378C481.378 492.84 491.741 441.081 491.741 418.597C491.741 396.112 486.568 379.249 484.826 374.931C483.085 370.614 476.627 367.143 476.627 367.143L437.339 391.354Z" fill="white"/>
<path d="M437.339 392.101C437.339 392.101 427.839 404.976 424.39 411.413C420.941 417.85 406.25 455.634 399.776 468.945C395.995 476.595 392.993 484.602 390.816 492.846H481.378C481.378 492.846 491.741 441.465 491.741 419.144C491.741 396.824 486.568 380.084 484.826 375.798C483.085 371.512 476.627 368.066 476.627 368.066L437.339 392.101Z" fill="#E3C3C2" stroke="#003257" stroke-width="1.11675" stroke-linecap="round" stroke-linejoin="round"/>
<path d="M412.891 440.544C412.891 440.544 433.144 408.699 440.773 400.462C448.402 392.225 486.243 372.735 486.243 372.735L480.268 366.227C480.268 366.227 441.33 385.633 435.305 391.649C429.279 397.666 411.811 433.392 412.891 440.544Z" fill="#E3C3C2" stroke="#003257" stroke-width="1.11675" stroke-linecap="round" stroke-linejoin="round"/>
<path d="M437.339 391.354C437.339 391.354 427.839 404.324 424.39 410.808C420.941 417.293 406.25 455.354 399.776 468.764C395.995 476.47 392.993 484.535 390.816 492.84H481.378C481.378 492.84 491.741 441.081 491.741 418.597C491.741 396.112 486.568 379.249 484.826 374.931C483.085 370.614 476.627 367.143 476.627 367.143L437.339 391.354Z" stroke="#003257" stroke-width="1.11675" stroke-linecap="round" stroke-linejoin="round"/>
<path d="M462.378 391.926C462.378 391.926 438.744 407.509 435.216 413.557C431.687 419.604 434.794 429.14 434.794 430.495C434.794 431.851 431.417 436.119 431.417 437.423V441.743L412.848 491.933H455.051C455.051 491.933 473.165 447.807 476.609 439.151C480.053 430.496 481.792 414.929 480.07 406.273" stroke="#003257" stroke-width="1.11675" stroke-linecap="round" stroke-linejoin="round"/>
<path d="M438.538 428.623C438.538 428.623 448.817 416.576 464.228 414.86" stroke="#003257" stroke-width="1.11675" stroke-linecap="round" stroke-linejoin="round"/>
<path d="M539.746 340.118C539.746 340.118 509.88 334.149 501.517 341.302C493.153 348.455 497.927 392.029 495.54 403.358C493.153 414.687 487.177 426.625 489.564 438.546C491.951 450.467 497.335 458.837 499.722 464.806C502.109 470.775 499.112 492.841 499.112 492.841H586.338C586.338 492.841 601.863 451.685 601.863 420.656C601.863 389.628 592.298 362.793 577.975 352.648C563.651 342.503 539.746 340.118 539.746 340.118Z" fill="#C98A85"/>
<path opacity="0.26" d="M507.812 359.241C499.346 373.391 508.946 450.86 511.198 458.224C513.45 465.587 497.095 458.784 502.174 462.737C507.253 466.69 516.836 473.494 516.836 473.494C511.391 471.139 505.83 469.061 500.176 467.267C500.473 469.039 500.626 470.832 500.633 472.629C506.303 477.069 512.265 481.122 518.479 484.76L499.939 486.321C499.55 490.579 499.109 493.752 499.109 493.752H586.339C586.339 493.752 601.865 452.455 601.865 421.322C601.961 408.357 600.153 395.448 596.498 383.011L544.451 360.954C544.451 360.954 516.278 345.108 507.812 359.241Z" fill="#B66058"/>
<path d="M539.746 340.118C539.746 340.118 509.88 334.149 501.517 341.302C493.153 348.455 497.927 392.029 495.54 403.358C493.153 414.687 487.177 426.625 489.564 438.546C491.951 450.467 497.335 458.837 499.722 464.806C502.109 470.775 499.112 492.841 499.112 492.841H586.338C586.338 492.841 601.863 451.685 601.863 420.656C601.863 389.628 592.298 362.793 577.975 352.648C563.651 342.503 539.746 340.118 539.746 340.118Z" stroke="#263238" stroke-width="1.11675" stroke-linecap="round" stroke-linejoin="round"/>
<path d="M539.314 232.556C539.314 232.556 526.15 221.824 513.58 229.582C501.01 237.34 479.467 273.104 481.859 291.003C484.251 308.902 505.811 325.585 491.443 335.134C477.075 344.684 482.47 361.957 489.645 366.741L493.835 367.332C493.835 367.332 493.835 350.042 505.811 345.258C517.787 340.475 535.124 344.667 539.314 350.042C543.504 355.416 535.735 382.831 545.896 389.998C556.057 397.164 570.442 398.347 567.456 405.497C564.47 412.646 554.275 423.987 560.857 434.129C567.439 444.27 583.605 454.411 588.999 450.811C594.394 447.211 586.608 443.07 589.593 440.67C592.579 438.27 617.125 429.937 612.935 419.796C608.745 409.655 599.771 404.28 603.961 400.105C608.151 395.93 623.706 385.806 621.908 371.49C620.11 357.174 585.997 346.441 584.81 330.926C583.622 315.41 605.166 313.635 597.973 278.53C590.781 243.424 568.711 227.824 557.973 227.824C551.452 227.807 545.033 229.435 539.314 232.556Z" fill="#263238" stroke="#263238" stroke-width="1.11675" stroke-linecap="round" stroke-linejoin="round"/>
<path d="M551.403 251.536C560.435 264.008 571.775 282.377 572.166 296.269C572.726 319.404 552.32 329.002 555.715 347.051C559.111 365.099 598.752 368.209 601.638 384.229C604.524 400.249 586.359 394.368 590.857 403.41C595.356 412.451 612.927 420.309 605.61 430.448" stroke="white" stroke-width="1.11675" stroke-linecap="round" stroke-linejoin="round"/>
<path d="M540.393 237.769C540.393 237.769 542.222 239.83 544.981 243.274" stroke="white" stroke-width="1.11675" stroke-linecap="round" stroke-linejoin="round"/>
<path d="M531.217 328.609C533.513 330.867 534.887 332.967 534.887 335.031" stroke="white" stroke-width="1.11675" stroke-linecap="round" stroke-linejoin="round"/>
<path d="M496.529 259.796C496.529 259.796 487.558 284.823 501.014 301.893C508.187 310.991 517.107 317.652 523.877 323.104" stroke="white" stroke-width="1.11675" stroke-linecap="round" stroke-linejoin="round"/>
<path d="M578.003 363.471C580.563 364.472 583.354 365.258 586.26 366.223" stroke="white" stroke-width="1.11675" stroke-linecap="round" stroke-linejoin="round"/>
<path d="M581.407 255.204C581.407 255.204 600.83 279.413 593.985 300.233C587.14 321.054 564.277 332.265 564.277 345.751C564.041 349.87 565.433 353.918 568.162 357.047" stroke="white" stroke-width="1.11675" stroke-linecap="round" stroke-linejoin="round"/>
<path d="M352.854 472.689C352.854 472.689 349.179 477.058 349.179 479.787C349.179 482.515 347.775 487.956 349.474 488.24C351.173 488.525 352.282 482.499 353.981 480.322C355.679 478.146 359.909 477.594 359.631 474.597C359.354 471.601 355.402 468.872 352.854 472.689Z" fill="white" stroke="#263238" stroke-width="1.11675" stroke-linecap="round" stroke-linejoin="round"/>
<path d="M392.448 477.128C392.448 477.128 376.966 464.084 373.1 462.705C369.233 461.325 361.484 470.197 356.786 478.797C352.089 487.397 354.582 489.338 357.075 489.611C359.567 489.883 370.336 485.183 370.336 485.183C374.152 488.23 378.585 490.404 383.325 491.552C390.786 493.255 401.554 488.776 401.843 484.349C402.131 479.921 392.448 477.128 392.448 477.128Z" fill="white" stroke="#263238" stroke-width="1.11675" stroke-linecap="round" stroke-linejoin="round"/>
<path d="M535.739 388.164C535.739 388.164 536.33 478.686 533.946 485.888C531.561 493.089 523.207 493.072 509.491 493.666C495.775 494.26 412.229 491.883 412.229 491.883C407.484 492.585 402.7 492.982 397.905 493.072C391.343 493.072 379.995 491.883 375.817 488.877C371.64 485.871 368.072 485.276 366.279 485.888C364.486 486.499 359.717 492.477 355.54 492.477C351.362 492.477 346.576 490.677 349.57 490.082C352.563 489.488 368.664 472.097 372.249 472.097C375.834 472.097 401.473 478.686 406.259 478.092C411.045 477.498 496.367 460.718 496.367 460.718L493.391 367.308C493.391 367.308 490.397 351.122 505.331 345.127" fill="#C98A85"/>
<path opacity="0.26" d="M512.804 354.299C510.891 355.257 509.292 356.74 508.196 358.573C499.694 372.718 509.335 450.159 511.597 457.52C513.858 464.88 497.433 458.079 502.534 462.031C507.635 465.983 517.259 472.784 517.259 472.784C517.259 472.784 489.492 460.912 496.855 468.255C504.217 475.599 518.959 484.079 518.959 484.079L422.039 492.135C444.449 492.746 499.337 494.137 510.271 493.662C524.061 493.068 532.46 493.068 534.858 485.894C537.255 478.72 536.66 386.558 536.66 386.558L512.804 354.299Z" fill="#B66058"/>
<path d="M535.739 388.164C535.739 388.164 536.33 478.686 533.946 485.888C531.561 493.089 523.207 493.072 509.491 493.666C495.775 494.26 412.229 491.883 412.229 491.883C407.484 492.585 402.7 492.982 397.905 493.072C391.343 493.072 379.995 491.883 375.817 488.877C371.64 485.871 368.072 485.276 366.279 485.888C364.486 486.499 359.717 492.477 355.54 492.477C351.362 492.477 346.576 490.677 349.57 490.082C352.563 489.488 368.664 472.097 372.249 472.097C375.834 472.097 401.473 478.686 406.259 478.092C411.045 477.498 496.367 460.718 496.367 460.718L493.391 367.308C493.391 367.308 490.397 351.122 505.331 345.127" stroke="#263238" stroke-width="1.11675" stroke-linecap="round" stroke-linejoin="round"/>
<path d="M437.378 492.314C435.532 485.511 435.943 478.288 438.549 471.741C422.193 474.914 408.315 477.558 406.465 477.797C401.664 478.394 375.925 471.775 372.345 471.775C368.765 471.775 352.647 489.227 349.593 489.841C346.539 490.455 351.392 492.246 355.582 492.246C359.773 492.246 364.558 486.224 366.356 485.627C368.155 485.03 371.735 485.627 375.925 488.629C380.116 491.632 391.501 492.843 398.084 492.843C402.894 492.753 407.694 492.354 412.454 491.649L437.378 492.314Z" fill="white" stroke="#263238" stroke-width="1.11675" stroke-linecap="round" stroke-linejoin="round"/>
<path d="M359.434 467.15C356.776 468.71 354.557 470.909 352.982 473.542C351.262 477.156 352.982 488.252 355.786 488.252C358.591 488.252 360.552 485.201 360.552 481.315C360.552 477.428 359.434 467.15 359.434 467.15Z" fill="white" stroke="#263238" stroke-width="1.11675" stroke-linecap="round" stroke-linejoin="round"/>
<path d="M363.318 464.398C363.318 464.398 358.751 464.674 357.036 468.063C355.321 471.451 355.618 485.801 358.471 486.371C361.323 486.942 362.461 482.136 362.461 479.041C362.461 475.946 363.318 464.398 363.318 464.398Z" fill="white" stroke="#263238" stroke-width="1.11675" stroke-linecap="round" stroke-linejoin="round"/>
<path d="M373.406 462.884C373.406 462.884 366.792 461.758 364.034 463.719C361.277 465.681 360.651 482.892 362.647 484.274C364.643 485.655 367.891 482.056 367.891 480.112C367.891 478.167 371.748 467.609 371.748 467.609" fill="white"/>
<path d="M373.406 462.884C373.406 462.884 366.792 461.758 364.034 463.719C361.277 465.681 360.651 482.892 362.647 484.274C364.643 485.655 367.891 482.056 367.891 480.112C367.891 478.167 371.748 467.609 371.748 467.609" stroke="#263238" stroke-width="1.11675" stroke-linecap="round" stroke-linejoin="round"/>
<path d="M207.224 396.134C207.224 396.134 199.309 408.133 202.64 413.963C205.972 419.793 218.064 431.859 243.043 430.186C268.022 428.513 253.038 386.502 255.947 360.697C258.856 334.893 248.049 331.158 239.289 337.816C230.528 344.474 219.721 376.515 215.612 381.922C212.414 386.411 209.608 391.166 207.224 396.134Z" fill="#B66058"/>
<path opacity="0.42" d="M207.207 396.121C207.207 396.121 199.292 408.12 202.624 413.95C205.955 419.78 218.047 431.846 243.026 430.173C268.005 428.5 253.021 386.489 255.93 360.684C258.839 334.88 248.032 331.145 239.272 337.803C230.512 344.461 219.705 376.502 215.595 381.909C212.397 386.398 209.591 391.153 207.207 396.121Z" fill="#E3C3C2" stroke="#003257" stroke-width="1.11675" stroke-linecap="round" stroke-linejoin="round"/>
<path d="M207.224 396.134C207.224 396.134 199.309 408.133 202.64 413.963C205.972 419.793 218.064 431.859 243.043 430.186C268.022 428.513 253.038 386.502 255.947 360.697C258.856 334.893 248.049 331.158 239.289 337.816C230.528 344.474 219.721 376.515 215.612 381.922C212.414 386.411 209.608 391.166 207.224 396.134V396.134Z" stroke="#003257" stroke-width="1.11675" stroke-linecap="round" stroke-linejoin="round"/>
<path d="M237.592 403.745C237.592 403.745 237.592 440.915 238.014 452.621C238.437 464.326 240.093 492.725 240.093 492.725H318.331L314.173 407.901L312.923 403.728L237.592 403.745Z" fill="#263238" stroke="#003257" stroke-width="1.11675" stroke-linecap="round" stroke-linejoin="round"/>
<path d="M283.96 413.478L315.579 414.739L315.238 407.864L313.979 403.729H283.466L283.96 413.478Z" fill="white" stroke="#003257" stroke-width="1.11675" stroke-linecap="round" stroke-linejoin="round"/>
<path d="M245.832 403.728H237.592C237.592 403.728 237.592 406.9 237.592 411.667L245.849 411.986L245.832 403.728Z" fill="white" stroke="#003257" stroke-width="1.11675" stroke-linecap="round" stroke-linejoin="round"/>
<path d="M248.607 403.728L249.088 411.819L277.967 412.903L277.675 403.728H248.607Z" fill="white" stroke="#003257" stroke-width="1.11675" stroke-linecap="round" stroke-linejoin="round"/>
<path d="M238.354 339.666C238.354 339.666 237.929 387.597 238.354 395.112C238.78 402.627 234.953 405.114 241.28 406.367C247.606 407.619 298.662 408.855 303.679 408.059C308.696 407.264 308.781 404.674 309.972 402.22C311.162 399.766 327.965 292.615 324.207 289.688C320.448 286.76 296.57 278.026 294.461 278.026C292.352 278.026 261.382 279.719 255.515 280.531C249.647 281.344 242.946 279.685 242.538 283.019C242.13 286.353 238.354 339.666 238.354 339.666Z" fill="white"/>
<path d="M264.199 293.751C264.199 293.751 254.31 293.275 252.425 294.209C251.362 294.735 244.883 310.488 239.45 324.067C238.816 332.911 238.336 339.65 238.336 339.65C238.336 339.65 237.908 387.723 238.336 395.26C238.61 400.199 237.085 402.966 237.771 404.647C239.913 397.28 243.324 384.565 247.249 366.487C253.847 336.17 264.199 293.751 264.199 293.751Z" fill="#BDBDBD"/>
<path d="M238.354 339.666C238.354 339.666 237.929 387.597 238.354 395.112C238.78 402.627 234.953 405.114 241.28 406.367C247.606 407.619 298.662 408.855 303.679 408.059C308.696 407.264 308.781 404.674 309.972 402.22C311.162 399.766 327.965 292.615 324.207 289.688C320.448 286.76 296.57 278.026 294.461 278.026C292.352 278.026 261.382 279.719 255.515 280.531C249.647 281.344 242.946 279.685 242.538 283.019C242.13 286.353 238.354 339.666 238.354 339.666Z" stroke="#003257" stroke-width="1.11675" stroke-linecap="round" stroke-linejoin="round"/>
<path d="M151.352 312.769C151.352 312.769 136.382 305.374 130.975 304.139C125.568 302.903 108.08 298.797 106.83 300.433C105.58 302.069 107.253 303.771 108.925 303.771C110.598 303.771 121.395 308.295 121.395 308.295C121.395 308.295 120.161 318.16 120.161 320.631C120.161 323.101 133.476 328.026 136.382 328.443C139.288 328.86 145.151 326.657 145.151 326.657L149.274 325.555L151.352 312.769Z" fill="white" stroke="#003257" stroke-width="1.11675" stroke-linecap="round" stroke-linejoin="round"/>
<path d="M120.149 310.141C120.149 310.141 118.427 321.369 119.718 322.602C121.01 323.835 129.895 329.677 131.169 326.773C132.443 323.868 132.013 312.623 132.013 311.39C132.013 310.157 120.149 310.141 120.149 310.141Z" fill="white" stroke="#003257" stroke-width="1.11675" stroke-linecap="round" stroke-linejoin="round"/>
<path d="M146.763 313.753C146.763 313.753 132.586 308.313 129.249 308.313C125.912 308.313 120.492 312.903 117.561 313.753C114.631 314.603 118.391 317.153 120.492 316.677C122.592 316.201 128.402 314.586 128.402 314.586C129.699 317.076 131.562 319.225 133.839 320.86C137.227 322.951 144.256 321.71 144.256 321.71" fill="white"/>
<path d="M146.763 313.753C146.763 313.753 132.586 308.313 129.249 308.313C125.912 308.313 120.492 312.903 117.561 313.753C114.631 314.603 118.391 317.153 120.492 316.677C122.592 316.201 128.402 314.586 128.402 314.586C129.699 317.076 131.562 319.225 133.839 320.86C137.227 322.951 144.256 321.71 144.256 321.71" stroke="#003257" stroke-width="1.11675" stroke-linecap="round" stroke-linejoin="round"/>
<path d="M273.374 277.56C273.374 277.56 248.335 275.399 243.249 276.522C238.163 277.645 226.296 306.582 224.601 310.546C222.906 314.51 204.258 332.662 204.258 332.662L150.586 311.686L144.924 327.558C144.924 327.558 188.441 355.917 195.782 359.32C203.122 362.722 213.311 362.161 216.701 362.161C219.191 361.906 221.551 360.918 223.482 359.32L207.089 397.308C207.089 397.308 233.654 365.563 241.554 350.252C249.454 334.942 267.559 290.132 269.254 289.009C270.949 287.886 273.374 277.56 273.374 277.56Z" fill="#B66058"/>
<path opacity="0.26" d="M215.31 342.885C213.956 342.885 212.145 341.992 210.334 341.992C208.524 341.992 212.602 348.733 211.688 351.025C210.774 353.318 145.958 325.744 145.958 325.744L145.84 327.783C151.966 331.744 188.994 355.593 195.713 358.677C203.057 362.048 213.211 361.492 216.596 361.492C218.814 361.315 220.934 360.508 222.705 359.166C227.647 346.61 231.167 325.744 231.167 325.744C231.167 325.744 216.681 342.885 215.31 342.885Z" fill="#E3C3C2"/>
<path d="M273.374 277.56C273.374 277.56 248.335 275.399 243.249 276.522C238.163 277.645 226.296 306.582 224.601 310.546C222.906 314.51 204.258 332.662 204.258 332.662L150.586 311.686L144.924 327.558C144.924 327.558 188.441 355.917 195.782 359.32C203.122 362.722 213.311 362.161 216.701 362.161C219.191 361.906 221.551 360.918 223.482 359.32L207.089 397.308C207.089 397.308 233.654 365.563 241.554 350.252C249.454 334.942 267.559 290.132 269.254 289.009C270.949 287.886 273.374 277.56 273.374 277.56Z" stroke="#003257" stroke-width="1.11675" stroke-linecap="round" stroke-linejoin="round"/>
<path d="M273.597 277.114L266.954 283.843L267.294 297.299L274.294 290.19L273.597 277.114Z" fill="white" stroke="#003257" stroke-width="1.11675" stroke-linecap="round" stroke-linejoin="round"/>
<path d="M260.608 213.022C260.608 213.022 253.105 224.577 253.58 226.99C254.056 229.402 255.278 231.866 255.278 233.786C255.278 235.706 246.791 242.469 247.775 243.981C248.76 245.494 253.563 247.839 253.563 247.839C253.563 247.839 253.36 266.683 257.688 269.095C262.016 271.508 270.249 267.634 270.249 267.634L274.577 291.797L299.189 274.397V257.014C299.189 257.014 313.668 240.6 314.635 227.55C315.603 214.501 297.662 200.023 279.89 197.611C262.118 195.198 252.392 207.262 255.278 211.204C258.163 215.146 260.608 213.022 260.608 213.022Z" fill="white"/>
<path d="M289.984 280.78L299.171 274.283V256.882C299.171 256.882 313.657 240.451 314.625 227.388C315.253 218.883 307.832 209.715 297.643 203.711L272.034 214.341C272.034 214.341 260.011 224.921 261.59 226.35C263.17 227.779 267.789 233.698 266.685 236.42C266.685 236.42 262.388 238.121 262.83 241.063C263.271 244.006 273.274 263.176 273.274 263.176L270.2 267.513L289.984 280.78Z" fill="#B66058"/>
<path opacity="0.5" d="M289.984 280.78L299.171 274.283V256.882C299.171 256.882 313.657 240.451 314.625 227.388C315.253 218.883 307.832 209.715 297.643 203.711L272.034 214.341C272.034 214.341 260.011 224.921 261.59 226.35C263.17 227.779 267.789 233.698 266.685 236.42C266.685 236.42 262.388 238.121 262.83 241.063C263.271 244.006 273.274 263.176 273.274 263.176L270.2 267.513L289.984 280.78Z" fill="white"/>
<path d="M260.608 213.022C260.608 213.022 253.105 224.577 253.58 226.99C254.056 229.402 255.278 231.866 255.278 233.786C255.278 235.706 246.791 242.469 247.775 243.981C248.76 245.494 253.563 247.839 253.563 247.839C253.563 247.839 253.36 266.683 257.688 269.095C262.016 271.508 270.249 267.634 270.249 267.634L274.577 291.797L299.189 274.397V257.014C299.189 257.014 313.668 240.6 314.635 227.55C315.603 214.501 297.662 200.023 279.89 197.611C262.118 195.198 252.392 207.262 255.278 211.204C258.163 215.146 260.608 213.022 260.608 213.022Z" stroke="#003257" stroke-width="1.11675" stroke-linecap="round" stroke-linejoin="round"/>
<path d="M299.198 278.026C299.198 278.026 293.792 297.223 287.137 321.434C280.481 345.646 281.731 420.721 281.731 424.906C281.731 429.091 291.292 444.085 302.121 448.27C309.196 450.876 316.577 452.556 324.081 453.268C324.081 453.268 316.598 403.625 316.598 389.444C316.598 375.262 323.254 353.135 323.254 353.135C323.254 353.135 333.237 378.177 337.393 381.514C341.548 384.852 358.188 388.597 357.782 373.162C357.377 357.726 343.221 302.645 339.471 297.223C335.72 291.801 317.831 286.379 317.831 286.379L299.198 278.026Z" fill="#B66058"/>
<g opacity="0.26">
<path opacity="0.26" d="M315.896 389.981C306.554 392.441 299.081 394.206 299.081 394.206C299.081 394.206 310.525 417.506 315.112 417.506H318.348C316.997 406.204 315.896 395.445 315.896 389.981Z" fill="#E3C3C2"/>
<path opacity="0.26" d="M325.642 320.845C330.692 326.471 341.348 323.667 341.348 325.548C341.348 327.429 333.032 331.653 336.298 338.22C339.563 344.787 358.501 372.987 352.946 378.151C351.347 379.639 346.213 381.572 339.782 383.726C345.809 386.428 358.147 387.437 357.794 373.962C357.373 358.382 343.284 302.786 339.547 297.313C339.513 297.313 320.542 315.201 325.642 320.845Z" fill="#E3C3C2"/>
<path opacity="0.26" d="M311.739 327.588C310.309 328.809 309.271 330.412 308.752 332.2C308.233 333.989 308.255 335.887 308.816 337.664C310.771 343.889 318.106 350.132 316.151 353.491C314.196 356.849 299.507 354.457 300.009 359.258C300.511 364.059 315.667 379.885 315.667 379.885L322.016 351.574L311.739 327.588Z" fill="#E3C3C2"/>
</g>
<path d="M299.198 278.026C299.198 278.026 293.792 297.223 287.137 321.434C280.481 345.646 281.731 420.721 281.731 424.906C281.731 429.091 291.292 444.085 302.121 448.27C309.196 450.876 316.577 452.556 324.081 453.268C324.081 453.268 316.598 403.625 316.598 389.444C316.598 375.262 323.254 353.135 323.254 353.135C323.254 353.135 333.237 378.177 337.393 381.514C341.548 384.852 358.188 388.597 357.782 373.162C357.377 357.726 343.221 302.645 339.471 297.223C335.72 291.801 317.831 286.379 317.831 286.379L299.198 278.026Z" stroke="#003257" stroke-width="1.11675" stroke-linecap="round" stroke-linejoin="round"/>
<path d="M299.019 269.771L277.048 285.371L278.546 299.131L302.738 277.201L299.019 269.771Z" fill="white" stroke="#003257" stroke-width="1.11675" stroke-linecap="round" stroke-linejoin="round"/>
<path d="M306.365 382.371C306.365 382.371 290.364 375.286 289.099 375.286C287.834 375.286 275.218 381.948 272.688 381.948C270.158 381.948 268.893 383.639 270.586 384.874C271.989 385.692 273.589 386.125 275.218 386.125C275.218 386.125 269.321 389.507 269.731 391.114C270.141 392.72 273.526 394.022 273.526 394.022C275.255 396.645 277.755 398.682 280.689 399.857C284.894 401.108 299.63 396.119 299.63 396.119L310.998 395.274L306.365 382.371Z" fill="white"/>
<path d="M288.977 382.261C283.829 383.41 273.377 393.941 273.377 393.941C275.113 396.601 277.622 398.666 280.568 399.858C284.79 401.127 299.583 396.068 299.583 396.068L310.995 395.21L306.344 382.124C306.344 382.124 294.125 381.112 288.977 382.261Z" fill="#B66058"/>
<path opacity="0.5" d="M288.977 382.261C283.829 383.41 273.377 393.941 273.377 393.941C275.113 396.601 277.622 398.666 280.568 399.858C284.79 401.127 299.583 396.068 299.583 396.068L310.995 395.21L306.344 382.124C306.344 382.124 294.125 381.112 288.977 382.261Z" fill="white"/>
<path d="M306.365 382.371C306.365 382.371 290.364 375.286 289.099 375.286C287.834 375.286 275.218 381.948 272.688 381.948C270.158 381.948 268.893 383.639 270.586 384.874C271.989 385.692 273.589 386.125 275.218 386.125C275.218 386.125 269.321 389.507 269.731 391.114C270.141 392.72 273.526 394.022 273.526 394.022C275.255 396.645 277.755 398.682 280.689 399.857C284.894 401.108 299.63 396.119 299.63 396.119L310.998 395.274L306.365 382.371Z" stroke="#003257" stroke-width="1.11675" stroke-linecap="round" stroke-linejoin="round"/>
<path d="M343.996 364.411L304.576 380.441L307.505 397.309C307.505 397.309 360.291 389.723 362.862 385.921C365.433 382.119 355.728 360.609 355.728 360.609" fill="#B66058"/>
<path opacity="0.26" d="M306.409 392.168L307.314 397.306C307.314 397.306 360.278 389.719 362.858 385.918C365.438 382.116 355.7 360.606 355.7 360.606L350.044 362.439C353.308 369.289 355.17 375.317 352.898 377.458C348.661 381.397 320.214 388.76 306.409 392.168Z" fill="#E3C3C2"/>
<path d="M343.996 364.411L304.576 380.441L307.505 397.309C307.505 397.309 360.291 389.723 362.862 385.921C365.433 382.119 355.728 360.609 355.728 360.609" stroke="#003257" stroke-width="1.11675" stroke-linecap="round" stroke-linejoin="round"/>
<path d="M223.832 358.773C223.832 358.773 231.488 328.62 233.924 311.981L223.832 358.773Z" fill="white"/>
<path d="M223.832 358.773C223.832 358.773 231.488 328.62 233.924 311.981" stroke="#003257" stroke-width="1.11675" stroke-linecap="round" stroke-linejoin="round"/>
<path d="M258.699 445.938L269.704 455.296L271.544 492.73" stroke="white" stroke-width="1.11675" stroke-linecap="round" stroke-linejoin="round"/>
<path d="M322.924 352.349L311.8 332.254C311.8 332.254 308.585 328.034 315.014 317.484" stroke="#003257" stroke-width="1.11675" stroke-linecap="round" stroke-linejoin="round"/>
<path d="M279.843 197.609C261.965 195.205 252.313 207.228 255.202 211.156C255.918 212.276 257.016 213.1 258.295 213.476L260.521 213.069C260.521 213.069 276.937 213.56 275.986 218.844C275.034 224.127 265.347 224.635 269.188 229.003C270.201 230.115 271.342 231.104 272.587 231.95H272.026C273.068 232.828 273.864 233.96 274.337 235.235C275 237.216 271.363 253.675 270.7 254.996C270.038 256.317 266.401 254.657 261.778 251.372C259.366 249.506 256.529 248.261 253.519 247.748L253.196 250.712C253.196 250.712 257.819 252.033 258.482 254.657C259.144 257.282 254.845 257.62 254.845 259.94C254.845 262.26 254.522 266.392 257.649 268.932C260.776 271.472 270.225 267.476 270.225 267.476C270.225 267.476 277.311 262.565 278.314 257.316C279.113 253.015 279.707 245.462 280.438 241.703C281.489 240.434 282.432 239.08 283.259 237.656C283.259 237.656 290.992 235.726 288.578 243.431C286.165 251.135 281.322 251.135 281.322 251.135C286.806 254.281 292.879 256.274 299.166 256.994V256.875C299.166 256.875 313.662 240.518 314.631 227.513C315.599 214.509 297.721 200.014 279.843 197.609Z" fill="#263238" stroke="#003257" stroke-width="1.11675" stroke-linecap="round" stroke-linejoin="round"/>
<path d="M325.934 449.335H297.491V491.54H325.934V449.335Z" fill="white" stroke="#263238" stroke-width="1.11675" stroke-linecap="round" stroke-linejoin="round"/>
<path d="M325.04 486.037H321.998C321.372 486.037 320.771 485.79 320.328 485.349C319.885 484.908 319.636 484.311 319.636 483.688C319.636 483.064 319.885 482.467 320.328 482.026C320.771 481.585 321.372 481.338 321.998 481.338H324.989C326.175 481.338 327.311 480.869 328.15 480.036C328.988 479.202 329.459 478.071 329.459 476.892V466.749C329.459 465.568 328.988 464.436 328.151 463.599C327.313 462.763 326.176 462.291 324.989 462.286H321.148C320.822 462.314 320.494 462.274 320.185 462.168C319.875 462.063 319.591 461.895 319.35 461.675C319.109 461.455 318.917 461.188 318.785 460.89C318.654 460.592 318.586 460.27 318.586 459.945C318.586 459.619 318.654 459.298 318.785 459C318.917 458.702 319.109 458.434 319.35 458.214C319.591 457.994 319.875 457.826 320.185 457.721C320.494 457.616 320.822 457.576 321.148 457.603H324.989C326.197 457.603 327.392 457.84 328.508 458.3C329.623 458.759 330.637 459.433 331.49 460.282C332.344 461.131 333.021 462.14 333.483 463.249C333.946 464.359 334.183 465.548 334.183 466.749V476.892C334.179 479.307 333.216 481.623 331.504 483.336C329.791 485.049 327.468 486.02 325.04 486.037Z" fill="white" stroke="#263238" stroke-width="1.11675" stroke-linecap="round" stroke-linejoin="round"/>
</svg>
