<svg width="707" height="673" viewBox="0 0 707 673" fill="none" xmlns="http://www.w3.org/2000/svg">
<path opacity="0.7" d="M501.592 106.584C501.592 106.584 409.756 54.6431 303.976 93.2759C198.197 131.909 130.446 233.447 73.3861 314.301C16.3263 395.155 24.6239 488.997 90.8462 542.7C157.069 596.404 217.488 544.878 320.923 559.929C424.358 574.981 449.462 594.55 545.035 551.289C640.609 508.027 680.06 373.47 630.455 260.092C580.849 146.713 501.592 106.584 501.592 106.584Z" fill="white"/>
<path d="M669.571 305.272C668.739 258.194 658.505 211.854 635.183 170.296C601.216 109.836 543.061 70.5568 475.444 57.4455C430.802 48.8008 385.411 53.1112 340.839 59.8479C283.56 68.4818 219.396 70.0869 167.37 98.037C86.4229 141.574 40.2916 241.842 40.5315 331.384C40.6988 389.233 64.0594 453.749 119.65 479.685C140.219 489.282 162.867 495.8 181.144 509.73C203.036 526.426 213.445 552.407 230.187 573.432C250.859 599.41 279.39 612.824 310.143 623.041C377.47 645.404 453.135 639.391 516.387 607.394C582.371 574.001 623.645 516.179 646.633 447.037C649.125 439.447 651.473 431.794 653.61 424.083C664.224 385.806 670.317 345.294 669.571 305.272Z" fill="#A23834"/>
<path opacity="0.9" d="M669.571 305.272C668.739 258.194 658.505 211.854 635.183 170.296C601.216 109.836 543.061 70.5568 475.444 57.4455C430.802 48.8008 385.411 53.1112 340.839 59.8479C283.56 68.4818 219.396 70.0869 167.37 98.037C86.4229 141.574 40.2916 241.842 40.5315 331.384C40.6988 389.233 64.0594 453.749 119.65 479.685C140.219 489.282 162.867 495.8 181.144 509.73C203.036 526.426 213.445 552.407 230.187 573.432C250.859 599.41 279.39 612.824 310.143 623.041C377.47 645.404 453.135 639.391 516.387 607.394C582.371 574.001 623.645 516.179 646.633 447.037C649.125 439.447 651.473 431.794 653.61 424.083C664.224 385.806 670.317 345.294 669.571 305.272Z" fill="white"/>
<path d="M450.049 456.931H591.372C594.073 456.931 596.663 455.857 598.572 453.944C600.481 452.032 601.554 449.438 601.554 446.733V184.833C601.554 182.129 600.481 179.534 598.572 177.622C596.663 175.709 594.073 174.635 591.372 174.635H182.47C179.77 174.635 177.18 175.709 175.27 177.622C173.361 179.534 172.288 182.129 172.288 184.833V446.733C172.288 449.438 173.361 452.032 175.27 453.944C177.18 455.857 179.77 456.931 182.47 456.931H323.794" fill="#263238"/>
<path d="M450.049 456.932H591.372C594.073 456.932 596.663 455.857 598.572 453.944C600.481 452.032 601.554 449.438 601.554 446.733V184.833C601.554 182.129 600.481 179.534 598.572 177.622C596.663 175.709 594.073 174.635 591.372 174.635H182.47C179.77 174.635 177.18 175.709 175.27 177.622C173.361 179.534 172.288 182.129 172.288 184.833V446.733C172.288 449.438 173.361 452.032 175.27 453.944C177.18 455.857 179.77 456.932 182.47 456.932H323.794" stroke="#003257" stroke-width="1.00479" stroke-linecap="round" stroke-linejoin="round"/>
<rect x="181.728" y="186.088" width="410.958" height="242.154" fill="white"/>
<path d="M592.259 187.093H181.727V427.78H592.259V187.093Z" stroke="#003257" stroke-width="1.00479" stroke-linecap="round" stroke-linejoin="round"/>
<path d="M450.05 456.933H323.795V485.448H450.05V456.933Z" fill="#263238" stroke="#003257" stroke-width="1.00479" stroke-linecap="round" stroke-linejoin="round"/>
<path d="M450.047 485.448H472.04V496.331H301.799V485.448H323.792" fill="#263238"/>
<path d="M450.047 485.448H472.04V496.331H301.799V485.448H323.792" stroke="#003257" stroke-width="1.00479" stroke-linecap="round" stroke-linejoin="round"/>
<path d="M187.206 271.989H155.235V229.294H180.356L187.206 236V271.989Z" fill="white" stroke="#142633" stroke-width="1.00479" stroke-linecap="round" stroke-linejoin="round"/>
<path d="M181.217 235.299V237.045L187.204 236.009L181.217 235.299Z" fill="#142633" stroke="#142633" stroke-width="1.00479" stroke-linecap="round" stroke-linejoin="round"/>
<path d="M180.354 229.294V236.008H187.204L180.354 229.294Z" fill="white" stroke="#142633" stroke-width="1.00479" stroke-linecap="round" stroke-linejoin="round"/>
<path d="M159.3 238.568H183.908" stroke="#142633" stroke-width="1.00479" stroke-linecap="round" stroke-linejoin="round"/>
<path d="M159.3 244.672H183.908" stroke="#142633" stroke-width="1.00479" stroke-linecap="round" stroke-linejoin="round"/>
<path d="M159.3 250.767H183.908" stroke="#142633" stroke-width="1.00479" stroke-linecap="round" stroke-linejoin="round"/>
<path d="M159.3 256.87H183.908" stroke="#142633" stroke-width="1.00479" stroke-linecap="round" stroke-linejoin="round"/>
<path d="M159.3 262.966H183.908" stroke="#142633" stroke-width="1.00479" stroke-linecap="round" stroke-linejoin="round"/>
<path d="M96.9219 323.586H108.374" stroke="#142633" stroke-width="1.00479" stroke-linecap="round" stroke-linejoin="round"/>
<path d="M84.2632 323.586H94.8523" stroke="#142633" stroke-width="1.00479" stroke-linecap="round" stroke-linejoin="round"/>
<path d="M103.943 327.209H108.374" stroke="#142633" stroke-width="1.00479" stroke-linecap="round" stroke-linejoin="round"/>
<path d="M84.2632 327.209H101.874" stroke="#142633" stroke-width="1.00479" stroke-linecap="round" stroke-linejoin="round"/>
<path d="M106.631 330.832H108.374" stroke="#142633" stroke-width="1.00479" stroke-linecap="round" stroke-linejoin="round"/>
<path d="M97.1255 330.832H103.74" stroke="#142633" stroke-width="1.00479" stroke-linecap="round" stroke-linejoin="round"/>
<path d="M84.2632 330.832H95.2677" stroke="#142633" stroke-width="1.00479" stroke-linecap="round" stroke-linejoin="round"/>
<path d="M84.2632 334.455H108.374" stroke="#142633" stroke-width="1.00479" stroke-linecap="round" stroke-linejoin="round"/>
<path d="M104.359 338.077H108.375" stroke="#142633" stroke-width="1.00479" stroke-linecap="round" stroke-linejoin="round"/>
<path d="M90.5195 338.077H100.229" stroke="#142633" stroke-width="1.00479" stroke-linecap="round" stroke-linejoin="round"/>
<path d="M84.2632 338.077H87.6273" stroke="#142633" stroke-width="1.00479" stroke-linecap="round" stroke-linejoin="round"/>
<path d="M95.2686 341.7H108.375" stroke="#142633" stroke-width="1.00479" stroke-linecap="round" stroke-linejoin="round"/>
<path d="M84.2632 341.7H92.9951" stroke="#142633" stroke-width="1.00479" stroke-linecap="round" stroke-linejoin="round"/>
<path d="M101.875 345.319H108.375" stroke="#142633" stroke-width="1.00479" stroke-linecap="round" stroke-linejoin="round"/>
<path d="M95.4727 345.319H100.018" stroke="#142633" stroke-width="1.00479" stroke-linecap="round" stroke-linejoin="round"/>
<path d="M84.2632 345.319H92.9951" stroke="#142633" stroke-width="1.00479" stroke-linecap="round" stroke-linejoin="round"/>
<path d="M170.337 372.278H143.97V337.064H164.684L170.337 342.588V372.278Z" fill="white" stroke="#142633" stroke-width="1.00479" stroke-linecap="round" stroke-linejoin="round"/>
<path d="M165.392 342.018V343.454L170.336 342.597L165.392 342.018Z" fill="#142633" stroke="#142633" stroke-width="1.00479" stroke-linecap="round" stroke-linejoin="round"/>
<path d="M164.682 337.065V342.597H170.335L164.682 337.065Z" fill="white" stroke="#142633" stroke-width="1.00479" stroke-linecap="round" stroke-linejoin="round"/>
<path d="M147.317 344.711H167.616" stroke="#142633" stroke-width="1.00479" stroke-linecap="round" stroke-linejoin="round"/>
<path d="M147.317 349.743H167.616" stroke="#142633" stroke-width="1.00479" stroke-linecap="round" stroke-linejoin="round"/>
<path d="M147.317 354.778H167.616" stroke="#142633" stroke-width="1.00479" stroke-linecap="round" stroke-linejoin="round"/>
<path d="M147.317 359.803H167.616" stroke="#142633" stroke-width="1.00479" stroke-linecap="round" stroke-linejoin="round"/>
<path d="M147.317 364.837H167.616" stroke="#142633" stroke-width="1.00479" stroke-linecap="round" stroke-linejoin="round"/>
<path d="M142.617 275.938H110.646V233.243H135.767L142.617 239.941V275.938Z" fill="white" stroke="#142633" stroke-width="1.00479" stroke-linecap="round" stroke-linejoin="round"/>
<path d="M136.622 239.248V240.994L142.617 239.949L136.622 239.248Z" fill="#142633" stroke="#142633" stroke-width="1.00479" stroke-linecap="round" stroke-linejoin="round"/>
<path d="M135.767 233.243V239.949H142.617L135.767 233.243Z" fill="white" stroke="#142633" stroke-width="1.00479" stroke-linecap="round" stroke-linejoin="round"/>
<path d="M114.701 242.521H139.317" stroke="#142633" stroke-width="1.00479" stroke-linecap="round" stroke-linejoin="round"/>
<path d="M114.701 248.612H139.317" stroke="#142633" stroke-width="1.00479" stroke-linecap="round" stroke-linejoin="round"/>
<path d="M114.701 254.716H139.317" stroke="#142633" stroke-width="1.00479" stroke-linecap="round" stroke-linejoin="round"/>
<path d="M114.701 260.819H139.317" stroke="#142633" stroke-width="1.00479" stroke-linecap="round" stroke-linejoin="round"/>
<path d="M114.701 266.914H139.317" stroke="#142633" stroke-width="1.00479" stroke-linecap="round" stroke-linejoin="round"/>
<path d="M211.088 295.472H179.117V252.769H204.238L211.088 259.475V295.472Z" fill="white" stroke="#142633" stroke-width="1.00479" stroke-linecap="round" stroke-linejoin="round"/>
<path d="M205.101 258.77V260.524L211.088 259.48L205.101 258.77Z" fill="#142633" stroke="#142633" stroke-width="1.00479" stroke-linecap="round" stroke-linejoin="round"/>
<path d="M204.237 252.769V259.484H211.088L204.237 252.769Z" fill="white" stroke="#142633" stroke-width="1.00479" stroke-linecap="round" stroke-linejoin="round"/>
<path d="M183.18 262.051H207.787" stroke="#142633" stroke-width="1.00479" stroke-linecap="round" stroke-linejoin="round"/>
<path d="M183.18 268.147H207.787" stroke="#142633" stroke-width="1.00479" stroke-linecap="round" stroke-linejoin="round"/>
<path d="M183.18 274.25H207.787" stroke="#142633" stroke-width="1.00479" stroke-linecap="round" stroke-linejoin="round"/>
<path d="M183.18 280.345H207.787" stroke="#142633" stroke-width="1.00479" stroke-linecap="round" stroke-linejoin="round"/>
<path d="M183.18 286.445H207.787" stroke="#142633" stroke-width="1.00479" stroke-linecap="round" stroke-linejoin="round"/>
<path d="M253.984 342.791H222.013V300.088H247.134L253.984 306.794V342.791Z" fill="white" stroke="#142633" stroke-width="1.00479" stroke-linecap="round" stroke-linejoin="round"/>
<path d="M247.988 306.093V307.847L253.983 306.803L247.988 306.093Z" fill="#142633" stroke="#142633" stroke-width="1.00479" stroke-linecap="round" stroke-linejoin="round"/>
<path d="M247.132 300.088V306.803H253.982L247.132 300.088Z" fill="white" stroke="#142633" stroke-width="1.00479" stroke-linecap="round" stroke-linejoin="round"/>
<path d="M226.068 309.374H250.683" stroke="#142633" stroke-width="1.00479" stroke-linecap="round" stroke-linejoin="round"/>
<path d="M226.068 315.466H250.683" stroke="#142633" stroke-width="1.00479" stroke-linecap="round" stroke-linejoin="round"/>
<path d="M226.068 321.57H250.683" stroke="#142633" stroke-width="1.00479" stroke-linecap="round" stroke-linejoin="round"/>
<path d="M226.068 327.665H250.683" stroke="#142633" stroke-width="1.00479" stroke-linecap="round" stroke-linejoin="round"/>
<path d="M226.068 333.768H250.683" stroke="#142633" stroke-width="1.00479" stroke-linecap="round" stroke-linejoin="round"/>
<path d="M164.764 264.924H129.584C125.711 264.924 122.571 268.069 122.571 271.949V313.837C122.571 317.716 125.711 320.861 129.584 320.861H164.764C168.638 320.861 171.778 317.716 171.778 313.837V271.949C171.778 268.069 168.638 264.924 164.764 264.924Z" fill="white" stroke="#142633" stroke-width="1.00479" stroke-linecap="round" stroke-linejoin="round"/>
<path d="M166.304 264.924H128.021C126.571 264.924 125.181 265.501 124.156 266.528C123.131 267.554 122.555 268.947 122.555 270.399V271.582H171.754V270.407C171.756 268.957 171.183 267.564 170.162 266.536C169.14 265.508 167.753 264.929 166.304 264.924Z" fill="#B66058" stroke="#142633" stroke-width="1.00479" stroke-linecap="round" stroke-linejoin="round"/>
<path d="M129.592 281.354H164.74" stroke="#142633" stroke-width="1.00479" stroke-linecap="round" stroke-linejoin="round"/>
<path d="M129.593 289.954H164.74" stroke="#142633" stroke-width="1.00479" stroke-linecap="round" stroke-linejoin="round"/>
<path d="M129.592 298.561H164.74" stroke="#142633" stroke-width="1.00479" stroke-linecap="round" stroke-linejoin="round"/>
<path d="M129.592 307.168H164.74" stroke="#142633" stroke-width="1.00479" stroke-linecap="round" stroke-linejoin="round"/>
<path d="M159.209 268.056C159.209 267.747 159.118 267.444 158.946 267.186C158.774 266.929 158.53 266.728 158.244 266.609C157.958 266.491 157.644 266.46 157.34 266.52C157.037 266.581 156.758 266.73 156.54 266.949C156.321 267.168 156.172 267.447 156.112 267.751C156.051 268.055 156.082 268.37 156.201 268.656C156.319 268.942 156.519 269.187 156.777 269.359C157.034 269.531 157.336 269.623 157.645 269.623C158.06 269.623 158.458 269.458 158.751 269.164C159.045 268.87 159.209 268.472 159.209 268.056Z" fill="white"/>
<path d="M164.39 268.056C164.39 267.747 164.298 267.444 164.126 267.186C163.954 266.929 163.71 266.728 163.424 266.609C163.138 266.491 162.824 266.46 162.521 266.52C162.217 266.581 161.939 266.73 161.72 266.949C161.501 267.168 161.352 267.447 161.292 267.751C161.231 268.055 161.262 268.37 161.381 268.656C161.499 268.942 161.7 269.187 161.957 269.359C162.214 269.531 162.516 269.623 162.826 269.623C163.24 269.623 163.638 269.458 163.932 269.164C164.225 268.87 164.39 268.472 164.39 268.056Z" fill="white"/>
<path d="M169.528 268.057C169.528 267.747 169.436 267.444 169.264 267.186C169.092 266.928 168.847 266.727 168.561 266.609C168.275 266.491 167.96 266.46 167.656 266.521C167.353 266.582 167.074 266.732 166.856 266.952C166.637 267.172 166.489 267.452 166.429 267.756C166.37 268.061 166.402 268.376 166.522 268.662C166.641 268.948 166.843 269.192 167.101 269.363C167.36 269.535 167.663 269.625 167.972 269.623C168.177 269.623 168.38 269.583 168.57 269.504C168.759 269.425 168.931 269.31 169.075 269.164C169.22 269.019 169.334 268.846 169.412 268.656C169.49 268.466 169.529 268.262 169.528 268.057Z" fill="white"/>
<path d="M131.043 310.728H110.948C107.075 310.728 103.935 313.873 103.935 317.752V342.49C103.935 346.37 107.075 349.515 110.948 349.515H131.043C134.916 349.515 138.056 346.37 138.056 342.49V317.752C138.056 313.873 134.916 310.728 131.043 310.728Z" fill="white" stroke="#142633" stroke-width="1.00479" stroke-linecap="round" stroke-linejoin="round"/>
<path d="M134.261 310.744H107.723C106.718 310.744 105.755 311.144 105.044 311.855C104.334 312.567 103.935 313.532 103.935 314.538V315.354H138.032V314.538C138.032 313.534 137.635 312.572 136.928 311.861C136.222 311.15 135.262 310.748 134.261 310.744Z" fill="#B66058" stroke="#142633" stroke-width="1.00479" stroke-linecap="round" stroke-linejoin="round"/>
<path d="M108.806 322.119H133.177" stroke="#142633" stroke-width="1.00479" stroke-linecap="round" stroke-linejoin="round"/>
<path d="M108.806 328.082H133.177" stroke="#142633" stroke-width="1.00479" stroke-linecap="round" stroke-linejoin="round"/>
<path d="M108.806 334.054H133.177" stroke="#142633" stroke-width="1.00479" stroke-linecap="round" stroke-linejoin="round"/>
<path d="M108.806 340.016H133.177" stroke="#142633" stroke-width="1.00479" stroke-linecap="round" stroke-linejoin="round"/>
<path d="M128.281 313.975C128.879 313.975 129.364 313.489 129.364 312.89C129.364 312.29 128.879 311.804 128.281 311.804C127.683 311.804 127.198 312.29 127.198 312.89C127.198 313.489 127.683 313.975 128.281 313.975Z" fill="white"/>
<path d="M131.849 313.975C132.447 313.975 132.932 313.489 132.932 312.89C132.932 312.29 132.447 311.804 131.849 311.804C131.251 311.804 130.766 312.29 130.766 312.89C130.766 313.489 131.251 313.975 131.849 313.975Z" fill="white"/>
<path d="M136.501 312.89C136.501 312.675 136.437 312.465 136.318 312.287C136.199 312.108 136.03 311.969 135.832 311.887C135.634 311.805 135.416 311.783 135.206 311.825C134.996 311.867 134.803 311.971 134.651 312.122C134.5 312.274 134.397 312.467 134.355 312.678C134.313 312.888 134.334 313.107 134.416 313.305C134.498 313.503 134.637 313.673 134.815 313.792C134.994 313.911 135.203 313.975 135.417 313.975C135.56 313.975 135.7 313.947 135.832 313.892C135.963 313.838 136.083 313.758 136.183 313.657C136.284 313.556 136.364 313.436 136.418 313.305C136.473 313.173 136.501 313.032 136.501 312.89Z" fill="white"/>
<path d="M120.812 361.191H132.265" stroke="#142633" stroke-width="1.00479" stroke-linecap="round" stroke-linejoin="round"/>
<path d="M108.146 361.191H118.744" stroke="#142633" stroke-width="1.00479" stroke-linecap="round" stroke-linejoin="round"/>
<path d="M127.834 364.81H132.265" stroke="#142633" stroke-width="1.00479" stroke-linecap="round" stroke-linejoin="round"/>
<path d="M108.146 364.81H125.765" stroke="#142633" stroke-width="1.00479" stroke-linecap="round" stroke-linejoin="round"/>
<path d="M130.515 368.437H132.266" stroke="#142633" stroke-width="1.00479" stroke-linecap="round" stroke-linejoin="round"/>
<path d="M121.017 368.437H127.623" stroke="#142633" stroke-width="1.00479" stroke-linecap="round" stroke-linejoin="round"/>
<path d="M108.146 368.437H119.159" stroke="#142633" stroke-width="1.00479" stroke-linecap="round" stroke-linejoin="round"/>
<path d="M108.146 372.056H132.265" stroke="#142633" stroke-width="1.00479" stroke-linecap="round" stroke-linejoin="round"/>
<path d="M128.25 375.678H132.266" stroke="#142633" stroke-width="1.00479" stroke-linecap="round" stroke-linejoin="round"/>
<path d="M114.411 375.678H124.112" stroke="#142633" stroke-width="1.00479" stroke-linecap="round" stroke-linejoin="round"/>
<path d="M108.146 375.678H111.519" stroke="#142633" stroke-width="1.00479" stroke-linecap="round" stroke-linejoin="round"/>
<path d="M119.16 379.301H132.266" stroke="#142633" stroke-width="1.00479" stroke-linecap="round" stroke-linejoin="round"/>
<path d="M108.146 379.301H116.887" stroke="#142633" stroke-width="1.00479" stroke-linecap="round" stroke-linejoin="round"/>
<path d="M125.766 382.924H132.266" stroke="#142633" stroke-width="1.00479" stroke-linecap="round" stroke-linejoin="round"/>
<path d="M119.364 382.924H123.909" stroke="#142633" stroke-width="1.00479" stroke-linecap="round" stroke-linejoin="round"/>
<path d="M108.146 382.924H116.887" stroke="#142633" stroke-width="1.00479" stroke-linecap="round" stroke-linejoin="round"/>
<path d="M201.768 356.321H213.229" stroke="#142633" stroke-width="1.00479" stroke-linecap="round" stroke-linejoin="round"/>
<path d="M189.11 356.321H199.708" stroke="#142633" stroke-width="1.00479" stroke-linecap="round" stroke-linejoin="round"/>
<path d="M208.79 359.951H213.229" stroke="#142633" stroke-width="1.00479" stroke-linecap="round" stroke-linejoin="round"/>
<path d="M189.11 359.951H206.729" stroke="#142633" stroke-width="1.00479" stroke-linecap="round" stroke-linejoin="round"/>
<path d="M211.479 363.574H213.23" stroke="#142633" stroke-width="1.00479" stroke-linecap="round" stroke-linejoin="round"/>
<path d="M201.98 363.574H208.586" stroke="#142633" stroke-width="1.00479" stroke-linecap="round" stroke-linejoin="round"/>
<path d="M189.11 363.574H200.123" stroke="#142633" stroke-width="1.00479" stroke-linecap="round" stroke-linejoin="round"/>
<path d="M189.11 367.197H213.229" stroke="#142633" stroke-width="1.00479" stroke-linecap="round" stroke-linejoin="round"/>
<path d="M209.206 370.815H213.23" stroke="#142633" stroke-width="1.00479" stroke-linecap="round" stroke-linejoin="round"/>
<path d="M195.367 370.815H205.076" stroke="#142633" stroke-width="1.00479" stroke-linecap="round" stroke-linejoin="round"/>
<path d="M189.11 370.815H192.474" stroke="#142633" stroke-width="1.00479" stroke-linecap="round" stroke-linejoin="round"/>
<path d="M200.124 374.442H213.23" stroke="#142633" stroke-width="1.00479" stroke-linecap="round" stroke-linejoin="round"/>
<path d="M189.11 374.442H197.85" stroke="#142633" stroke-width="1.00479" stroke-linecap="round" stroke-linejoin="round"/>
<path d="M206.729 378.061H213.23" stroke="#142633" stroke-width="1.00479" stroke-linecap="round" stroke-linejoin="round"/>
<path d="M200.328 378.061H204.873" stroke="#142633" stroke-width="1.00479" stroke-linecap="round" stroke-linejoin="round"/>
<path d="M189.11 378.061H197.85" stroke="#142633" stroke-width="1.00479" stroke-linecap="round" stroke-linejoin="round"/>
<path d="M228.568 274.143H240.021" stroke="#142633" stroke-width="1.00479" stroke-linecap="round" stroke-linejoin="round"/>
<path d="M215.902 274.143H226.5" stroke="#142633" stroke-width="1.00479" stroke-linecap="round" stroke-linejoin="round"/>
<path d="M235.589 277.767H240.02" stroke="#142633" stroke-width="1.00479" stroke-linecap="round" stroke-linejoin="round"/>
<path d="M215.902 277.767H233.521" stroke="#142633" stroke-width="1.00479" stroke-linecap="round" stroke-linejoin="round"/>
<path d="M238.271 281.389H240.022" stroke="#142633" stroke-width="1.00479" stroke-linecap="round" stroke-linejoin="round"/>
<path d="M228.772 281.389H235.378" stroke="#142633" stroke-width="1.00479" stroke-linecap="round" stroke-linejoin="round"/>
<path d="M215.902 281.389H226.915" stroke="#142633" stroke-width="1.00479" stroke-linecap="round" stroke-linejoin="round"/>
<path d="M215.902 285.012H240.021" stroke="#142633" stroke-width="1.00479" stroke-linecap="round" stroke-linejoin="round"/>
<path d="M236.006 288.635H240.022" stroke="#142633" stroke-width="1.00479" stroke-linecap="round" stroke-linejoin="round"/>
<path d="M222.166 288.635H231.867" stroke="#142633" stroke-width="1.00479" stroke-linecap="round" stroke-linejoin="round"/>
<path d="M215.902 288.635H219.274" stroke="#142633" stroke-width="1.00479" stroke-linecap="round" stroke-linejoin="round"/>
<path d="M226.916 292.254H240.022" stroke="#142633" stroke-width="1.00479" stroke-linecap="round" stroke-linejoin="round"/>
<path d="M215.902 292.254H224.642" stroke="#142633" stroke-width="1.00479" stroke-linecap="round" stroke-linejoin="round"/>
<path d="M233.521 295.876H240.021" stroke="#142633" stroke-width="1.00479" stroke-linecap="round" stroke-linejoin="round"/>
<path d="M227.12 295.876H231.665" stroke="#142633" stroke-width="1.00479" stroke-linecap="round" stroke-linejoin="round"/>
<path d="M215.902 295.876H224.642" stroke="#142633" stroke-width="1.00479" stroke-linecap="round" stroke-linejoin="round"/>
<path d="M102.918 282.328H114.371" stroke="#142633" stroke-width="1.00479" stroke-linecap="round" stroke-linejoin="round"/>
<path d="M90.249 282.328H100.846" stroke="#142633" stroke-width="1.00479" stroke-linecap="round" stroke-linejoin="round"/>
<path d="M109.937 285.95H114.368" stroke="#142633" stroke-width="1.00479" stroke-linecap="round" stroke-linejoin="round"/>
<path d="M90.249 285.95H107.868" stroke="#142633" stroke-width="1.00479" stroke-linecap="round" stroke-linejoin="round"/>
<path d="M112.625 289.573H114.368" stroke="#142633" stroke-width="1.00479" stroke-linecap="round" stroke-linejoin="round"/>
<path d="M103.119 289.573H109.733" stroke="#142633" stroke-width="1.00479" stroke-linecap="round" stroke-linejoin="round"/>
<path d="M90.249 289.573H101.262" stroke="#142633" stroke-width="1.00479" stroke-linecap="round" stroke-linejoin="round"/>
<path d="M90.249 293.196H114.368" stroke="#142633" stroke-width="1.00479" stroke-linecap="round" stroke-linejoin="round"/>
<path d="M110.353 296.814H114.368" stroke="#142633" stroke-width="1.00479" stroke-linecap="round" stroke-linejoin="round"/>
<path d="M96.5132 296.814H106.223" stroke="#142633" stroke-width="1.00479" stroke-linecap="round" stroke-linejoin="round"/>
<path d="M90.249 296.814H93.6213" stroke="#142633" stroke-width="1.00479" stroke-linecap="round" stroke-linejoin="round"/>
<path d="M101.262 300.437H114.368" stroke="#142633" stroke-width="1.00479" stroke-linecap="round" stroke-linejoin="round"/>
<path d="M90.249 300.437H98.9891" stroke="#142633" stroke-width="1.00479" stroke-linecap="round" stroke-linejoin="round"/>
<path d="M107.868 304.06H114.368" stroke="#142633" stroke-width="1.00479" stroke-linecap="round" stroke-linejoin="round"/>
<path d="M101.466 304.06H106.011" stroke="#142633" stroke-width="1.00479" stroke-linecap="round" stroke-linejoin="round"/>
<path d="M90.249 304.06H98.9891" stroke="#142633" stroke-width="1.00479" stroke-linecap="round" stroke-linejoin="round"/>
<path d="M174.541 311.029V347.026H206.512V304.331H181.399L174.541 311.029Z" fill="white" stroke="#142633" stroke-width="1.00479" stroke-linecap="round" stroke-linejoin="round"/>
<path d="M180.536 310.336V312.082L174.541 311.046L180.536 310.336Z" fill="#142633" stroke="#142633" stroke-width="1.00479" stroke-linecap="round" stroke-linejoin="round"/>
<path d="M181.391 304.331V311.046H174.541L181.391 304.331Z" fill="white" stroke="#142633" stroke-width="1.00479" stroke-linecap="round" stroke-linejoin="round"/>
<path d="M202.453 313.609H177.838" stroke="#142633" stroke-width="1.00479" stroke-linecap="round" stroke-linejoin="round"/>
<path d="M202.453 319.701H177.838" stroke="#142633" stroke-width="1.00479" stroke-linecap="round" stroke-linejoin="round"/>
<path d="M202.454 325.805H177.838" stroke="#142633" stroke-width="1.00479" stroke-linecap="round" stroke-linejoin="round"/>
<path d="M202.454 331.908H177.838" stroke="#142633" stroke-width="1.00479" stroke-linecap="round" stroke-linejoin="round"/>
<path d="M206.512 337.065H174.541V347.035H206.512V337.065Z" fill="#B66058" stroke="#142633" stroke-width="1.00479" stroke-linecap="round" stroke-linejoin="round"/>
<path d="M211.445 313.829H189.322V324.501H211.445V313.829Z" fill="#B66058" stroke="#142633" stroke-width="1.00479" stroke-linecap="round" stroke-linejoin="round"/>
<path d="M198.406 315.337C199.538 315.337 200.035 316.006 200.035 317.091V317.956C200.071 318.183 200.054 318.415 199.987 318.634C199.919 318.854 199.802 319.055 199.645 319.222C199.487 319.389 199.294 319.518 199.079 319.598C198.864 319.678 198.634 319.708 198.406 319.686H197.697V322.525H196.882V315.337H198.406ZM198.349 318.968C198.943 318.968 199.228 318.69 199.228 318.005V317.05C199.228 316.398 198.992 316.063 198.414 316.063H197.648V318.968H198.349Z" fill="white"/>
<path d="M202.381 315.337C203.497 315.337 204.01 316.014 204.01 317.124V320.746C204.01 321.848 203.497 322.525 202.381 322.525H200.67V315.337H202.381ZM202.381 321.791C202.951 321.791 203.196 321.432 203.196 320.779V317.083C203.196 316.422 202.919 316.063 202.34 316.063H201.477V321.774L202.381 321.791Z" fill="white"/>
<path d="M207.171 318.682V319.408H205.542V322.524H204.728V315.336H207.578V316.063H205.526V318.682H207.171Z" fill="white"/>
<path d="M673.749 201.16H561.073C555.225 201.16 550.484 205.908 550.484 211.766V289.618C550.484 295.476 555.225 300.225 561.073 300.225H673.749C679.597 300.225 684.338 295.476 684.338 289.618V211.766C684.338 205.908 679.597 201.16 673.749 201.16Z" fill="#B66058" stroke="#003257" stroke-width="1.00479" stroke-linecap="round" stroke-linejoin="round"/>
<path d="M671.159 207.204H563.663C559.497 207.204 556.12 210.587 556.12 214.759V286.614C556.12 290.787 559.497 294.169 563.663 294.169H671.159C675.324 294.169 678.701 290.787 678.701 286.614V214.759C678.701 210.587 675.324 207.204 671.159 207.204Z" fill="white" stroke="#003257" stroke-width="1.00479" stroke-linecap="round" stroke-linejoin="round"/>
<path d="M669.173 221.738H571.981V225.287H669.173V221.738Z" fill="#E0E0E0"/>
<path d="M669.173 230.09H571.981V233.639H669.173V230.09Z" fill="#E0E0E0"/>
<path d="M669.173 238.447H571.981V241.996H669.173V238.447Z" fill="#E0E0E0"/>
<path d="M669.173 246.807H571.981V250.356H669.173V246.807Z" fill="#E0E0E0"/>
<path d="M669.173 255.163H571.981V258.712H669.173V255.163Z" fill="#E0E0E0"/>
<path d="M669.173 263.519H571.981V267.068H669.173V263.519Z" fill="#E0E0E0"/>
<path d="M669.173 271.872H571.981V275.421H669.173V271.872Z" fill="#E0E0E0"/>
<path d="M582.074 242.568H572.609V281.73H582.074V242.568Z" fill="#003257"/>
<path d="M596.545 253.546H587.08V281.727H596.545V253.546Z" fill="#E3C3C2"/>
<path d="M611.021 246.72H601.556V281.73H611.021V246.72Z" fill="#003257"/>
<path d="M625.504 260.874H616.039V281.736H625.504V260.874Z" fill="#E3C3C2"/>
<path d="M639.979 247.454H630.514V281.738H639.979V247.454Z" fill="#003257"/>
<path d="M654.462 238.419H644.997V281.726H654.462V238.419Z" fill="#E3C3C2"/>
<path d="M668.937 232.806H659.472V281.727H668.937V232.806Z" fill="#003257"/>
<path d="M564.81 222.397H568.044" stroke="#003257" stroke-width="1.00479" stroke-linecap="round" stroke-linejoin="round"/>
<path d="M564.81 227.049H568.044" stroke="#003257" stroke-width="1.00479" stroke-linecap="round" stroke-linejoin="round"/>
<path d="M564.81 231.708H568.044" stroke="#003257" stroke-width="1.00479" stroke-linecap="round" stroke-linejoin="round"/>
<path d="M564.81 236.366H568.044" stroke="#003257" stroke-width="1.00479" stroke-linecap="round" stroke-linejoin="round"/>
<path d="M564.81 241.025H568.044" stroke="#003257" stroke-width="1.00479" stroke-linecap="round" stroke-linejoin="round"/>
<path d="M564.81 245.676H568.044" stroke="#003257" stroke-width="1.00479" stroke-linecap="round" stroke-linejoin="round"/>
<path d="M564.81 250.331H568.044" stroke="#003257" stroke-width="1.00479" stroke-linecap="round" stroke-linejoin="round"/>
<path d="M564.81 254.99H568.044" stroke="#003257" stroke-width="1.00479" stroke-linecap="round" stroke-linejoin="round"/>
<path d="M564.81 259.649H568.044" stroke="#003257" stroke-width="1.00479" stroke-linecap="round" stroke-linejoin="round"/>
<path d="M564.81 264.3H568.044" stroke="#003257" stroke-width="1.00479" stroke-linecap="round" stroke-linejoin="round"/>
<path d="M564.81 268.959H568.044" stroke="#003257" stroke-width="1.00479" stroke-linecap="round" stroke-linejoin="round"/>
<path d="M564.81 273.618H568.044" stroke="#003257" stroke-width="1.00479" stroke-linecap="round" stroke-linejoin="round"/>
<path d="M564.81 278.277H568.044" stroke="#003257" stroke-width="1.00479" stroke-linecap="round" stroke-linejoin="round"/>
<path d="M564.81 282.928H568.044" stroke="#003257" stroke-width="1.00479" stroke-linecap="round" stroke-linejoin="round"/>
<path d="M669.206 284.266V287.505" stroke="#003257" stroke-width="1.00479" stroke-linecap="round" stroke-linejoin="round"/>
<path d="M661.482 284.266V287.505" stroke="#003257" stroke-width="1.00479" stroke-linecap="round" stroke-linejoin="round"/>
<path d="M653.761 284.266V287.505" stroke="#003257" stroke-width="1.00479" stroke-linecap="round" stroke-linejoin="round"/>
<path d="M646.045 284.266V287.505" stroke="#003257" stroke-width="1.00479" stroke-linecap="round" stroke-linejoin="round"/>
<path d="M638.325 284.266V287.505" stroke="#003257" stroke-width="1.00479" stroke-linecap="round" stroke-linejoin="round"/>
<path d="M630.603 284.266V287.505" stroke="#003257" stroke-width="1.00479" stroke-linecap="round" stroke-linejoin="round"/>
<path d="M622.888 284.266V287.505" stroke="#003257" stroke-width="1.00479" stroke-linecap="round" stroke-linejoin="round"/>
<path d="M615.167 284.266V287.505" stroke="#003257" stroke-width="1.00479" stroke-linecap="round" stroke-linejoin="round"/>
<path d="M607.447 284.266V287.505" stroke="#003257" stroke-width="1.00479" stroke-linecap="round" stroke-linejoin="round"/>
<path d="M599.731 284.266V287.505" stroke="#003257" stroke-width="1.00479" stroke-linecap="round" stroke-linejoin="round"/>
<path d="M592.01 284.266V287.505" stroke="#003257" stroke-width="1.00479" stroke-linecap="round" stroke-linejoin="round"/>
<path d="M584.29 284.266V287.505" stroke="#003257" stroke-width="1.00479" stroke-linecap="round" stroke-linejoin="round"/>
<path d="M576.566 284.266V287.505" stroke="#003257" stroke-width="1.00479" stroke-linecap="round" stroke-linejoin="round"/>
<path d="M568.852 284.266V287.505" stroke="#003257" stroke-width="1.00479" stroke-linecap="round" stroke-linejoin="round"/>
<path d="M627.834 213.653H606.183V217.21H627.834V213.653Z" fill="#003257"/>
<path d="M673.749 312.243H561.073C555.225 312.243 550.484 316.992 550.484 322.849V400.701C550.484 406.559 555.225 411.308 561.073 411.308H673.749C679.597 411.308 684.338 406.559 684.338 400.701V322.849C684.338 316.992 679.597 312.243 673.749 312.243Z" fill="#B66058" stroke="#003257" stroke-width="1.00479" stroke-linecap="round" stroke-linejoin="round"/>
<path d="M671.159 318.296H563.663C559.497 318.296 556.12 321.679 556.12 325.852V397.707C556.12 401.879 559.497 405.262 563.663 405.262H671.159C675.324 405.262 678.701 401.879 678.701 397.707V325.852C678.701 321.679 675.324 318.296 671.159 318.296Z" fill="white" stroke="#003257" stroke-width="1.00479" stroke-linecap="round" stroke-linejoin="round"/>
<path d="M596.834 396.849C588.639 396.848 580.738 393.794 574.668 388.28C568.598 382.767 564.793 375.188 563.994 367.019C563.195 358.85 565.46 350.676 570.346 344.087C575.233 337.498 582.393 332.966 590.431 331.374L591.995 339.386C588.654 340.042 585.484 341.379 582.68 343.313C579.877 345.248 577.5 347.739 575.697 350.631C573.894 353.524 572.704 356.757 572.2 360.129C571.697 363.502 571.89 366.942 572.768 370.236C573.647 373.531 575.192 376.609 577.307 379.281C579.423 381.953 582.064 384.161 585.066 385.768C588.069 387.375 591.369 388.347 594.762 388.624C598.155 388.9 601.569 388.476 604.792 387.376L607.406 395.103C604.001 396.26 600.429 396.85 596.834 396.849Z" fill="#003257"/>
<path d="M620.2 355.338C618.173 349.759 614.225 345.087 609.066 342.163C603.907 339.239 597.876 338.255 592.057 339.388L590.428 331.376C598.165 329.867 606.185 331.176 613.044 335.065C619.903 338.954 625.15 345.168 627.84 352.589L620.2 355.338Z" fill="#E3C3C2"/>
<path d="M607.428 395.12L604.813 387.394C607.941 386.328 610.826 384.648 613.299 382.452C615.772 380.256 617.783 377.589 619.216 374.607C620.648 371.624 621.473 368.385 621.642 365.08C621.811 361.774 621.321 358.468 620.2 355.354L627.865 352.58C629.351 356.715 630.001 361.105 629.776 365.494C629.55 369.883 628.454 374.183 626.552 378.143C624.649 382.103 621.978 385.644 618.695 388.559C615.411 391.474 611.581 393.704 607.428 395.12Z" fill="#A8A8A8"/>
<path d="M650.047 338.336H640.891V347.507H650.047V338.336Z" fill="#003257"/>
<path d="M650.046 360.78H640.891V369.95H650.046V360.78Z" fill="#E3C3C2"/>
<path d="M650.047 383.234H640.891V392.404H650.047V383.234Z" fill="#A8A8A8"/>
<path d="M654.86 343.165H670.288" stroke="#003257" stroke-width="1.00479" stroke-linecap="round" stroke-linejoin="round"/>
<path d="M654.86 364.885H670.288" stroke="#003257" stroke-width="1.00479" stroke-linecap="round" stroke-linejoin="round"/>
<path d="M588.353 364.403H603.781" stroke="#003257" stroke-width="1.00479" stroke-linecap="round" stroke-linejoin="round"/>
<path d="M654.86 387.575H670.288" stroke="#003257" stroke-width="1.00479" stroke-linecap="round" stroke-linejoin="round"/>
<path d="M158.44 496.331H140.52" stroke="#003257" stroke-width="0.75359" stroke-miterlimit="10" stroke-linecap="round"/>
<path d="M612.142 496.331H168.214" stroke="#003257" stroke-width="0.75359" stroke-miterlimit="10" stroke-linecap="round"/>
<path d="M646.353 496.331H617.844" stroke="#003257" stroke-width="0.75359" stroke-miterlimit="10" stroke-linecap="round"/>
<path d="M434.989 447.673V359.593L499.964 331.349L525.537 282.665V246.771L485.639 208.935" stroke="#003257" stroke-width="2.00957" stroke-miterlimit="10"/>
<path d="M439.712 448.177C440.136 445.563 438.364 443.099 435.754 442.675C433.143 442.251 430.684 444.026 430.261 446.641C429.837 449.255 431.61 451.719 434.22 452.143C436.83 452.568 439.289 450.792 439.712 448.177Z" fill="#E3C3C2"/>
<path d="M440.379 447.415C440.379 444.408 437.947 442.01 434.984 442.01C431.982 442.01 429.588 444.446 429.588 447.415C429.588 450.422 432.02 452.82 434.984 452.82C437.947 452.82 440.379 450.422 440.379 447.415C440.379 444.408 440.379 450.422 440.379 447.415ZM430.842 447.415C430.842 445.131 432.704 443.266 434.984 443.266C437.263 443.266 439.125 445.131 439.125 447.415C439.125 449.699 437.263 451.564 434.984 451.564C432.704 451.564 430.842 449.699 430.842 447.415C430.842 445.131 430.842 449.699 430.842 447.415Z" fill="#003257"/>
<path d="M489.132 205.631C487.232 203.804 484.192 203.88 482.368 205.821C480.544 207.725 480.62 210.77 482.558 212.597C484.458 214.424 487.498 214.348 489.322 212.406C491.108 210.503 491.032 207.458 489.132 205.631Z" fill="#E3C3C2"/>
<path d="M489.545 205.168C491.711 207.224 491.787 210.649 489.735 212.819C487.683 214.989 484.263 215.065 482.097 213.009C479.931 210.954 479.855 207.528 481.907 205.359C483.959 203.227 487.379 203.113 489.545 205.168C491.711 207.224 487.379 203.113 489.545 205.168ZM482.971 212.134C484.643 213.695 487.265 213.618 488.823 211.982C490.381 210.307 490.305 207.68 488.671 206.12C486.999 204.559 484.377 204.635 482.819 206.272C481.261 207.909 481.337 210.535 482.971 212.134C484.643 213.695 481.337 210.535 482.971 212.134Z" fill="#003257"/>
<path d="M453.789 419.992V373.63" stroke="#003257" stroke-width="2.00957" stroke-miterlimit="10"/>
<path d="M458.57 419.739C458.57 422.366 456.443 424.535 453.783 424.535C451.161 424.535 448.995 422.404 448.995 419.739C448.995 417.113 451.123 414.943 453.783 414.943C456.405 414.981 458.57 417.113 458.57 419.739Z" fill="#E3C3C2"/>
<path d="M459.183 419.744C459.183 416.737 456.751 414.339 453.787 414.339C450.823 414.339 448.392 416.775 448.392 419.744C448.392 422.752 450.823 425.15 453.787 425.15C456.751 425.15 459.183 422.752 459.183 419.744C459.183 416.775 459.183 422.752 459.183 419.744ZM449.646 419.744C449.646 417.461 451.507 415.595 453.787 415.595C456.067 415.595 457.929 417.461 457.929 419.744C457.929 422.028 456.067 423.893 453.787 423.893C451.507 423.893 449.646 422.028 449.646 419.744C449.646 417.461 449.646 422.028 449.646 419.744Z" fill="#003257"/>
<path d="M455.306 378.461C457.815 377.623 459.17 374.907 458.334 372.394C457.498 369.882 454.787 368.523 452.278 369.361C449.77 370.198 448.414 372.915 449.25 375.428C450.086 377.94 452.798 379.299 455.306 378.461Z" fill="#E3C3C2"/>
<path d="M459.199 373.905C459.199 376.912 456.767 379.31 453.803 379.31C450.84 379.31 448.408 376.874 448.408 373.905C448.408 370.898 450.84 368.5 453.803 368.5C456.767 368.5 459.199 370.936 459.199 373.905C459.199 376.912 459.199 370.936 459.199 373.905ZM449.662 373.905C449.662 376.189 451.524 378.054 453.803 378.054C456.083 378.054 457.945 376.189 457.945 373.905C457.945 371.621 456.083 369.756 453.803 369.756C451.524 369.756 449.662 371.621 449.662 373.905C449.662 376.189 449.662 371.621 449.662 373.905Z" fill="#003257"/>
<path d="M511.159 215.848L509.107 189.127L475.897 170.627H427.488" stroke="#003257" stroke-width="2.00957" stroke-miterlimit="10"/>
<path d="M515.941 215.208C516.131 217.834 514.193 220.156 511.534 220.347C508.912 220.537 506.594 218.596 506.404 215.931C506.214 213.305 508.152 210.983 510.812 210.792C513.434 210.602 515.713 212.581 515.941 215.208Z" fill="#E3C3C2"/>
<path d="M516.539 215.123C516.311 212.154 513.689 209.908 510.726 210.136C507.762 210.365 505.52 212.991 505.748 215.96C505.976 218.929 508.598 221.175 511.562 220.947C514.563 220.718 516.805 218.13 516.539 215.123C516.311 212.154 516.805 218.13 516.539 215.123ZM507.04 215.884C506.85 213.6 508.56 211.621 510.84 211.431C513.119 211.24 515.095 212.953 515.285 215.237C515.475 217.521 513.765 219.5 511.486 219.69C509.206 219.881 507.192 218.168 507.04 215.884C506.85 213.6 507.192 218.168 507.04 215.884Z" fill="#003257"/>
<path d="M427.765 165.835C425.143 165.835 422.978 167.967 422.978 170.631C422.978 173.296 425.105 175.427 427.765 175.427C430.387 175.427 432.553 173.296 432.553 170.631C432.553 167.967 430.387 165.835 427.765 165.835Z" fill="#E3C3C2"/>
<path d="M427.77 165.191C430.771 165.191 433.165 167.628 433.165 170.597C433.165 173.566 430.733 176.002 427.77 176.002C424.768 176.002 422.374 173.566 422.374 170.597C422.374 167.628 424.768 165.191 427.77 165.191C430.733 165.191 424.768 165.191 427.77 165.191ZM427.77 174.784C430.05 174.784 431.911 172.918 431.911 170.635C431.911 168.351 430.05 166.486 427.77 166.486C425.49 166.486 423.628 168.351 423.628 170.635C423.628 172.918 425.49 174.784 427.77 174.784C430.05 174.784 425.49 174.784 427.77 174.784Z" fill="#003257"/>
<path d="M284.44 205.014L248.495 230.555L248.799 280.267L268.823 293.132H343.64L373.354 320.463L412.34 321.11L413.48 397.39" stroke="#003257" stroke-width="2.00957" stroke-miterlimit="10"/>
<path d="M281.459 201.257C283.625 199.734 286.589 200.229 288.109 202.399C289.628 204.568 289.135 207.538 286.969 209.06C284.803 210.583 281.839 210.088 280.319 207.918C278.799 205.787 279.293 202.818 281.459 201.257Z" fill="#E3C3C2"/>
<path d="M281.085 200.758C278.653 202.471 278.083 205.896 279.793 208.332C281.503 210.768 284.922 211.339 287.354 209.627C289.786 207.914 290.356 204.488 288.646 202.052C286.898 199.578 283.516 199.007 281.085 200.758C278.653 202.471 283.516 199.007 281.085 200.758ZM286.594 208.561C284.732 209.893 282.149 209.436 280.819 207.571C279.489 205.706 279.945 203.118 281.807 201.785C283.668 200.453 286.252 200.91 287.582 202.775C288.912 204.64 288.456 207.229 286.594 208.561C284.732 209.893 288.456 207.229 286.594 208.561Z" fill="#003257"/>
<path d="M408.7 397.202C408.738 399.828 410.904 401.96 413.563 401.922C416.185 401.884 418.313 399.714 418.275 397.05C418.237 394.423 416.071 392.292 413.411 392.33C410.79 392.368 408.662 394.575 408.7 397.202Z" fill="#E3C3C2"/>
<path d="M408.048 397.198C408.01 394.229 410.404 391.755 413.368 391.717C416.331 391.679 418.801 394.077 418.839 397.046C418.877 400.053 416.483 402.489 413.52 402.527C410.556 402.604 408.124 400.206 408.048 397.198C408.01 394.229 408.124 400.206 408.048 397.198ZM417.623 397.046C417.585 394.762 415.724 392.935 413.406 392.973C411.126 393.011 409.302 394.877 409.34 397.198C409.378 399.482 411.24 401.309 413.558 401.271C415.838 401.233 417.661 399.368 417.623 397.046C417.585 394.762 417.661 399.368 417.623 397.046Z" fill="#003257"/>
<path d="M284.554 258.859L359.181 258.212L387.413 289.805" stroke="#003257" stroke-width="2.00957" stroke-miterlimit="10"/>
<path d="M284.853 263.624C282.231 263.662 280.065 261.53 280.027 258.866C279.989 256.239 282.117 254.07 284.777 254.032C287.398 253.993 289.564 256.125 289.602 258.79C289.64 261.454 287.512 263.624 284.853 263.624Z" fill="#E3C3C2"/>
<path d="M284.895 264.276C287.897 264.238 290.291 261.802 290.253 258.795C290.215 255.788 287.783 253.39 284.781 253.428C281.779 253.466 279.385 255.902 279.423 258.909C279.461 261.878 281.893 264.314 284.895 264.276C287.859 264.238 281.893 264.314 284.895 264.276ZM284.781 254.722C287.061 254.684 288.923 256.549 288.961 258.833C288.999 261.117 287.137 262.982 284.857 263.02C282.577 263.02 280.715 261.193 280.677 258.909C280.677 256.587 282.501 254.722 284.781 254.722C287.099 254.684 282.501 254.722 284.781 254.722Z" fill="#003257"/>
<path d="M383.694 292.811C385.441 294.791 388.481 294.943 390.419 293.192C392.395 291.441 392.547 288.396 390.799 286.454C389.051 284.475 386.011 284.323 384.074 286.074C382.098 287.825 381.908 290.832 383.694 292.811Z" fill="#E3C3C2"/>
<path d="M383.199 293.235C381.223 290.989 381.413 287.563 383.617 285.584C385.859 283.604 389.279 283.795 391.255 286.002C393.231 288.248 393.041 291.674 390.837 293.653C388.633 295.671 385.213 295.48 383.199 293.235C381.223 291.027 385.213 295.48 383.199 293.235ZM390.343 286.84C388.823 285.127 386.201 284.975 384.491 286.497C382.781 288.02 382.629 290.646 384.149 292.359C385.669 294.072 388.291 294.224 390.001 292.702C391.711 291.179 391.863 288.553 390.343 286.84C388.785 285.165 391.863 288.553 390.343 286.84Z" fill="#003257"/>
<path d="M338.097 227.272H390.268L423.516 273.482V309.11" stroke="#003257" stroke-width="2.00957" stroke-miterlimit="10"/>
<path d="M338.367 232.064C335.745 232.064 333.58 229.933 333.58 227.268C333.58 224.642 335.707 222.472 338.367 222.472C340.989 222.472 343.155 224.604 343.155 227.268C343.155 229.933 341.027 232.064 338.367 232.064Z" fill="#E3C3C2"/>
<path d="M338.371 232.713C341.373 232.713 343.766 230.277 343.766 227.308C343.766 224.301 341.335 221.903 338.371 221.903C335.369 221.903 332.975 224.339 332.975 227.308C332.975 230.277 335.407 232.713 338.371 232.713C341.373 232.713 335.407 232.713 338.371 232.713ZM338.371 223.121C340.651 223.121 342.512 224.986 342.512 227.27C342.512 229.554 340.651 231.419 338.371 231.419C336.091 231.419 334.229 229.554 334.229 227.27C334.229 224.986 336.091 223.121 338.371 223.121C340.651 223.121 336.091 223.121 338.371 223.121Z" fill="#003257"/>
<path d="M424.599 313.515C427.173 312.91 428.77 310.328 428.166 307.75C427.562 305.171 424.985 303.572 422.411 304.177C419.837 304.782 418.24 307.363 418.844 309.942C419.449 312.52 422.025 314.12 424.599 313.515Z" fill="#E3C3C2"/>
<path d="M418.127 308.849C418.127 305.842 420.559 303.444 423.523 303.444C426.524 303.444 428.918 305.88 428.918 308.849C428.918 311.856 426.486 314.254 423.523 314.254C420.559 314.254 418.127 311.856 418.127 308.849C418.127 305.88 418.127 311.856 418.127 308.849ZM427.664 308.849C427.664 306.565 425.802 304.7 423.523 304.7C421.243 304.7 419.381 306.565 419.381 308.849C419.381 311.133 421.243 312.998 423.523 312.998C425.802 312.998 427.664 311.133 427.664 308.849C427.664 306.565 427.664 311.133 427.664 308.849Z" fill="#003257"/>
<path d="M301.125 219.667L334.601 189.33L396.879 190.281L445.591 255.866" stroke="#003257" stroke-width="2.00957" stroke-miterlimit="10"/>
<path d="M304.534 223.047C302.596 224.836 299.556 224.684 297.77 222.704C295.984 220.763 296.136 217.718 298.112 215.929C300.05 214.14 303.09 214.292 304.876 216.271C306.624 218.251 306.472 221.258 304.534 223.047Z" fill="#E3C3C2"/>
<path d="M304.956 223.505C307.16 221.488 307.35 218.062 305.336 215.854C303.322 213.647 299.903 213.456 297.699 215.474C295.495 217.491 295.305 220.917 297.319 223.125C299.333 225.332 302.752 225.523 304.956 223.505C307.16 221.488 302.752 225.523 304.956 223.505ZM298.573 216.425C300.283 214.903 302.904 215.017 304.424 216.73C305.944 218.443 305.83 221.069 304.12 222.592C302.41 224.114 299.789 224 298.269 222.287C296.749 220.574 296.863 217.948 298.573 216.425C300.245 214.865 296.863 217.948 298.573 216.425Z" fill="#003257"/>
<path d="M449.354 258.41C450.854 256.228 450.305 253.242 448.127 251.739C445.95 250.236 442.969 250.787 441.468 252.968C439.968 255.149 440.518 258.136 442.695 259.638C444.873 261.141 447.854 260.591 449.354 258.41Z" fill="#E3C3C2"/>
<path d="M441.062 258.907C439.276 256.509 439.77 253.121 442.164 251.332C444.558 249.543 447.94 250.038 449.725 252.436C451.511 254.834 451.017 258.222 448.624 260.011C446.23 261.8 442.848 261.305 441.062 258.907C439.276 256.509 442.848 261.305 441.062 258.907ZM448.738 253.197C447.37 251.37 444.786 250.989 442.962 252.36C441.138 253.73 440.758 256.318 442.126 258.145C443.494 259.972 446.078 260.353 447.902 258.983C449.725 257.613 450.105 255.024 448.738 253.197C447.37 251.332 450.105 255.024 448.738 253.197Z" fill="#003257"/>
<path d="M464.547 222.943L481.076 236.57L480.924 261.578L480.734 297.968L450.488 314.83" stroke="#003257" stroke-width="2.00957" stroke-miterlimit="10"/>
<path d="M461.688 226.781C459.636 225.106 459.37 222.099 461.042 220.043C462.714 217.988 465.716 217.721 467.768 219.396C469.82 221.071 470.085 224.078 468.414 226.134C466.742 228.189 463.74 228.456 461.688 226.781Z" fill="#E3C3C2"/>
<path d="M461.304 227.277C463.622 229.18 467.042 228.838 468.903 226.554C470.803 224.232 470.461 220.806 468.144 218.941C465.826 217.038 462.406 217.381 460.544 219.664C458.644 221.948 458.986 225.374 461.304 227.277C463.584 229.18 458.986 225.374 461.304 227.277ZM467.346 219.893C469.093 221.339 469.359 223.966 467.916 225.717C466.472 227.468 463.85 227.734 462.102 226.288C460.354 224.841 460.088 222.215 461.532 220.464C462.976 218.713 465.598 218.446 467.346 219.893C469.131 221.339 465.598 218.446 467.346 219.893Z" fill="#003257"/>
<path d="M448.404 310.513C446.086 311.807 445.288 314.7 446.542 317.022C447.834 319.344 450.722 320.143 453.04 318.887C455.357 317.593 456.155 314.7 454.902 312.378C453.648 310.056 450.722 309.219 448.404 310.513Z" fill="#E3C3C2"/>
<path d="M448.097 309.949C450.718 308.503 453.986 309.454 455.468 312.043C456.912 314.669 455.962 317.943 453.378 319.427C450.756 320.874 447.489 319.922 446.007 317.334C444.563 314.707 445.513 311.396 448.097 309.949C450.718 308.503 445.513 311.396 448.097 309.949ZM452.77 318.323C454.784 317.219 455.468 314.669 454.366 312.69C453.264 310.672 450.718 309.987 448.743 311.091C446.729 312.195 446.045 314.745 447.147 316.725C448.249 318.704 450.756 319.427 452.77 318.323C454.746 317.219 450.756 319.427 452.77 318.323Z" fill="#003257"/>
<path d="M316.888 178.402L345.5 160.968L382.813 162.148L408.31 176.042" stroke="#003257" stroke-width="2.00957" stroke-miterlimit="10"/>
<path d="M319.58 182.352C317.338 183.722 314.374 182.999 313.006 180.753C311.638 178.507 312.36 175.538 314.602 174.168C316.844 172.798 319.808 173.521 321.175 175.767C322.543 178.05 321.821 180.981 319.58 182.352Z" fill="#E3C3C2"/>
<path d="M319.926 182.888C322.472 181.327 323.27 177.978 321.75 175.427C320.192 172.877 316.848 172.078 314.302 173.6C311.756 175.161 310.958 178.511 312.478 181.061C314.036 183.649 317.38 184.449 319.926 182.888C322.472 181.327 317.38 184.449 319.926 182.888ZM314.948 174.742C316.886 173.562 319.432 174.171 320.648 176.113C321.826 178.054 321.218 180.604 319.28 181.822C317.342 183.002 314.796 182.393 313.58 180.452C312.364 178.473 313.01 175.922 314.948 174.742C316.886 173.524 313.01 175.922 314.948 174.742Z" fill="#003257"/>
<path d="M405.816 180.122C408.134 181.378 411.022 180.541 412.276 178.219C413.53 175.897 412.694 173.004 410.376 171.748C408.058 170.492 405.171 171.329 403.917 173.651C402.625 175.935 403.499 178.866 405.816 180.122Z" fill="#E3C3C2"/>
<path d="M405.517 180.689C402.896 179.242 401.908 175.969 403.352 173.342C404.795 170.716 408.063 169.726 410.685 171.173C413.307 172.619 414.295 175.893 412.851 178.519C411.407 181.107 408.139 182.097 405.517 180.689C402.896 179.242 408.139 182.097 405.517 180.689ZM410.077 172.276C408.063 171.173 405.555 171.934 404.454 173.951C403.352 175.969 404.112 178.481 406.125 179.585C408.139 180.689 410.647 179.927 411.749 177.91C412.813 175.893 412.091 173.342 410.077 172.276C408.063 171.173 412.091 173.342 410.077 172.276Z" fill="#003257"/>
<path d="M503.322 249.621V286.924" stroke="#003257" stroke-width="2.00957" stroke-miterlimit="10"/>
<path d="M498.525 249.88C498.525 247.253 500.653 245.084 503.313 245.084C505.935 245.084 508.101 247.215 508.101 249.88C508.101 252.506 505.973 254.676 503.313 254.676C500.653 254.676 498.525 252.544 498.525 249.88Z" fill="#E3C3C2"/>
<path d="M497.881 249.884C497.881 252.891 500.313 255.289 503.277 255.289C506.279 255.289 508.673 252.853 508.673 249.884C508.673 246.877 506.241 244.479 503.277 244.479C500.313 244.479 497.881 246.915 497.881 249.884C497.881 252.891 497.881 246.915 497.881 249.884ZM507.457 249.884C507.457 252.168 505.595 254.033 503.315 254.033C501.035 254.033 499.173 252.168 499.173 249.884C499.173 247.601 501.035 245.735 503.315 245.735C505.595 245.735 507.457 247.601 507.457 249.884C507.457 252.168 507.457 247.601 507.457 249.884Z" fill="#003257"/>
<path d="M506.425 290.302C508.438 288.584 508.679 285.557 506.964 283.541C505.25 281.525 502.228 281.283 500.215 283C498.202 284.718 497.961 287.745 499.676 289.761C501.39 291.778 504.412 292.02 506.425 290.302Z" fill="#E3C3C2"/>
<path d="M497.89 286.658C497.89 283.651 500.322 281.253 503.286 281.253C506.288 281.253 508.681 283.689 508.681 286.658C508.681 289.665 506.25 292.063 503.286 292.063C500.322 292.063 497.89 289.627 497.89 286.658C497.89 283.651 497.89 289.627 497.89 286.658ZM507.465 286.658C507.465 284.374 505.604 282.509 503.324 282.509C501.044 282.509 499.182 284.374 499.182 286.658C499.182 288.942 501.044 290.807 503.324 290.807C505.604 290.807 507.465 288.942 507.465 286.658C507.465 284.374 507.465 288.942 507.465 286.658Z" fill="#003257"/>
</svg>
