<svg width="459" height="458" viewBox="0 0 459 458" fill="none" xmlns="http://www.w3.org/2000/svg">
<g clip-path="url(#clip0_2_1989)">
<path d="M402.451 124.814C381.649 93.2396 342.105 74.4891 303.89 78.0982C265.674 81.7072 230.5 107.41 216.201 142.319C208.873 160.135 206.583 180.122 195.664 196.061C184.471 212.402 165.812 222.148 147.51 230.292C129.208 238.435 109.954 245.937 95.5454 259.604C81.1367 273.27 72.6454 295.254 81.1367 313.061C89.8204 331.161 111.749 338.398 127.587 351.039C143.425 363.68 153.492 382.274 169.659 394.494C184.599 405.788 203.862 410.753 222.75 410.716C241.638 410.679 260.215 405.916 277.857 399.33C332.57 378.913 384.113 340.917 405.941 287.734C446.346 189.246 402.451 124.814 402.451 124.814Z" fill="#A23834"/>
<path opacity="0.9" d="M402.451 124.814C381.649 93.2396 342.105 74.4891 303.89 78.0982C265.674 81.7072 230.5 107.41 216.201 142.319C208.873 160.135 206.583 180.122 195.664 196.061C184.471 212.402 165.812 222.148 147.51 230.292C129.208 238.435 109.954 245.937 95.5454 259.604C81.1367 273.27 72.6454 295.254 81.1367 313.061C89.8204 331.161 111.749 338.398 127.587 351.039C143.425 363.68 153.492 382.274 169.659 394.494C184.599 405.788 203.862 410.753 222.75 410.716C241.638 410.679 260.215 405.916 277.857 399.33C332.57 378.913 384.113 340.917 405.941 287.734C446.346 189.246 402.451 124.814 402.451 124.814Z" fill="white"/>
<path d="M354.031 384.269C354.031 384.269 364.636 384.211 376.396 367.828C386.672 353.5 367.166 309.142 356.232 298.939C345.298 288.737 324.015 344.46 326.487 358.576C330.005 378.689 345.166 383.757 354.031 384.269Z" fill="#21737C"/>
<path d="M371.24 356.711L354.916 372.94L356.561 414.292H351.156C351.091 414.007 351.295 385.52 351.471 352.294L338.957 340.292C339.908 340.292 338.226 338.668 338.036 338.507L351.529 347.854C351.639 327.09 351.742 310.371 351.742 310.371L352.963 308.842L353.643 331.047L365.184 322.739C365.016 322.899 363.312 324.523 364.263 324.523L353.76 334.967L354.74 366.958L372.557 354.137C372.315 354.385 369.872 356.711 371.24 356.711Z" stroke="#263238" stroke-miterlimit="10"/>
<path d="M402.55 397.734C402.55 397.734 415.452 396.805 421.888 384.569C428.836 371.339 411.89 339.955 403.23 337.629C393.723 335.062 378.715 360.141 381.786 379.625C383.893 392.921 396.59 397.397 402.55 397.734Z" fill="#21737C"/>
<path d="M412.234 373.744L403.238 380.89C402.96 364.112 402.726 350.713 402.726 350.713L401.621 349.455L401.212 366.592V366.965L393.576 360.975C393.576 360.975 394.798 362.218 394.169 362.225L401.117 369.78L400.649 389.484L389.115 380.407C389.115 380.407 390.841 382.17 389.956 382.177L400.539 393.689L400.481 395.964L400.415 398.414L400.056 413.956L403.786 413.912C403.699 408.916 403.618 403.672 403.538 398.436C403.465 393.974 403.377 389.506 403.318 385.212C403.318 384.891 403.318 384.591 403.318 384.276L411.583 375.229C410.822 375.236 412.234 373.744 412.234 373.744Z" stroke="#263238" stroke-miterlimit="10"/>
<path d="M386.482 407.351C385.282 406.386 383.125 406.408 381.231 406.488C381.37 405.281 381.874 404.089 382.021 402.875C382.136 402.249 382.074 401.603 381.84 401.01C381.606 400.418 381.21 399.903 380.697 399.526C378.62 398.063 374.963 398.633 372.096 399.467C372.491 396.629 369.47 393.865 365.426 393.426C361.381 392.987 356.883 394.962 355.698 397.734C354.06 396.169 350.791 395.54 348.063 396.271C345.335 397.002 343.397 399.043 343.535 401.01C341.444 400.871 339.111 400.776 337.377 401.676C334.832 403.007 335.008 405.698 333.048 407.439C332.414 407.318 331.76 407.371 331.155 407.593C330.549 407.814 330.016 408.196 329.61 408.697C328.945 409.567 328.828 410.562 328.425 411.498C327.606 413.37 324.885 413.604 322.289 414.424L387.264 414.965C388.676 414.511 389.883 413.546 389.824 412.5C389.766 411.454 388.018 410.606 386.665 411.125C387.133 411.147 387.879 408.463 386.482 407.351Z" fill="#21737C"/>
<path d="M415.693 410.196C414.962 409.611 413.631 409.619 412.475 409.67C412.556 408.938 412.863 408.207 412.958 407.476C413.03 407.091 412.991 406.695 412.848 406.331C412.704 405.968 412.461 405.652 412.146 405.42C410.873 404.528 408.628 404.872 406.873 405.384C407.114 403.643 405.264 401.946 402.784 401.683C400.305 401.42 397.548 402.619 396.824 404.316C395.822 403.358 393.81 402.978 392.143 403.431C390.475 403.885 389.283 405.128 389.371 406.357C388.084 406.269 386.658 406.203 385.597 406.759C384.032 407.578 384.134 409.224 382.942 410.291C382.553 410.218 382.15 410.251 381.778 410.387C381.406 410.524 381.078 410.759 380.828 411.067C380.514 411.604 380.268 412.179 380.097 412.778C379.6 413.926 377.903 414.065 376.338 414.57L416.161 414.899C417.024 414.621 417.763 414.029 417.734 413.392C417.704 412.756 416.622 412.23 415.796 412.551C416.088 412.529 416.549 410.884 415.693 410.196Z" fill="#21737C"/>
<path d="M416.585 410.982H383.756H379.936H37.7642" stroke="#263238" stroke-linecap="round" stroke-linejoin="round"/>
<path d="M240.798 433.555C263.267 432.549 285.625 429.825 307.678 425.407C324.355 422.113 340.486 416.497 355.602 408.721V318.457H240.798V433.555Z" fill="#D09A97"/>
<path d="M240.798 433.555C263.267 432.549 285.625 429.825 307.678 425.407C324.355 422.113 340.486 416.497 355.602 408.721V318.457H240.798V433.555Z" fill="black" fill-opacity="0.5" stroke="#263238" stroke-linecap="round" stroke-linejoin="round"/>
<path d="M240.797 433.555V318.456L230.861 294.905V433.912C234.184 433.828 237.517 433.691 240.797 433.555Z" fill="#263238"/>
<path opacity="0.5" d="M355.643 318.646H240.829L230.861 294.895H345.665L355.643 318.646Z" fill="white" stroke="#263238" stroke-width="1.16992" stroke-linecap="round" stroke-linejoin="round"/>
<path d="M355.643 318.646H240.829L230.861 294.895H345.665L355.643 318.646Z" fill="#D09A97" stroke="#263238" stroke-linecap="round" stroke-linejoin="round"/>
<path d="M233.806 381.121H119.002V422.557C122.507 423.539 126.061 424.404 129.663 425.154C163.901 432.11 198.838 435.011 233.753 433.797L233.806 381.121Z" fill="#D09A97" stroke="#263238" stroke-linecap="round" stroke-linejoin="round"/>
<path d="M233.805 381.331H119.001L109.023 357.579H223.838L233.805 381.331Z" fill="#D09A97"/>
<path opacity="0.5" d="M233.805 381.331H119.001L109.023 357.579H223.838L233.805 381.331Z" fill="white" stroke="#263238" stroke-linecap="round" stroke-linejoin="round"/>
<path d="M233.805 381.331H119.001L109.023 357.579H223.838L233.805 381.331Z" stroke="#263238" stroke-width="1.16992" stroke-linecap="round" stroke-linejoin="round"/>
<path d="M109.023 419.498C112.304 420.633 115.637 421.653 119.001 422.589V381.121L109.023 357.548V419.498Z" fill="#263238"/>
<path d="M26.309 345.583C42.0171 382.172 73.2757 407.48 110.422 420.023V343.649H25.4679C25.7412 344.321 25.9831 344.942 26.309 345.583Z" fill="#D09A97"/>
<path d="M26.309 345.583C42.0171 382.172 73.2757 407.48 110.422 420.023V343.649H25.4679C25.7412 344.321 25.9831 344.942 26.309 345.583Z" fill="black" fill-opacity="0.5" stroke="#263238" stroke-linecap="round" stroke-linejoin="round"/>
<path d="M25.5516 343.838H110.422L100.486 320.139H18.3389C19.9718 328.253 22.3874 336.19 25.5516 343.838Z" fill="#D09A97" stroke="#263238" stroke-linecap="round" stroke-linejoin="round"/>
<path d="M408.288 144.153L349.871 74.6757L343.731 80.8159L365.022 106.134L161.3 277.43L114.302 224.124C113.122 222.784 111.663 221.717 110.029 220.998C108.395 220.279 106.623 219.925 104.838 219.96C103.053 219.995 101.296 220.418 99.6915 221.201C98.0866 221.984 96.6715 223.107 95.5446 224.492L-8.60853 352.417L10.4746 367.957L105.449 251.25L150.796 302.685C152.919 305.096 155.901 306.58 159.104 306.82C162.307 307.06 165.477 306.036 167.935 303.968L380.856 124.965L402.148 150.293L408.288 144.153Z" fill="white" stroke="#263238" stroke-linecap="round" stroke-linejoin="round"/>
<path d="M439.241 58.8413L349.871 74.6756L371.173 100.004L167.44 271.301L120.442 217.983C119.261 216.643 117.802 215.577 116.166 214.857C114.531 214.138 112.759 213.784 110.973 213.819C109.187 213.854 107.43 214.278 105.824 215.06C104.218 215.843 102.802 216.966 101.674 218.351L-2.46854 346.288L16.6041 361.817L111.589 245.11L156.936 296.545C159.059 298.956 162.041 300.44 165.244 300.68C168.447 300.919 171.617 299.896 174.074 297.828L386.996 118.835L408.288 144.153L439.241 58.8413Z" fill="#263238" stroke="#263238" stroke-linecap="round" stroke-linejoin="round"/>
<path opacity="0.15" d="M294.567 314.293C318.479 314.293 337.864 310.937 337.864 306.797C337.864 302.656 318.479 299.3 294.567 299.3C270.654 299.3 251.27 302.656 251.27 306.797C251.27 310.937 270.654 314.293 294.567 314.293Z" fill="black"/>
<path d="M268.018 292.319C268.018 292.319 261.058 302.98 261.468 305.85C261.878 308.721 269.658 312.001 272.119 313.21C274.579 314.419 290.161 316.081 292.211 313.62C294.261 311.16 289.341 310.34 286.47 309.11C283.6 307.88 276.219 301.75 276.219 301.75L275.399 294.779L268.018 292.319Z" fill="#263238" stroke="#263238" stroke-width="1.16992" stroke-miterlimit="10"/>
<path d="M292.212 313.641C292.853 312.874 292.811 312.264 292.369 311.749C287.68 312.201 280.509 312.611 275.4 311.591C269.427 310.403 264.128 306.387 261.679 304.294C261.505 304.794 261.433 305.323 261.468 305.85C261.878 308.721 269.659 312.001 272.119 313.21C274.579 314.419 290.214 316.102 292.212 313.641Z" fill="white" stroke="#263238" stroke-width="1.16992" stroke-linecap="round" stroke-linejoin="round"/>
<path d="M310.664 284.527C310.664 284.527 303.304 292.728 304.923 295.189C306.542 297.649 311.894 296.829 315.174 299.699C318.455 302.57 323.375 306.26 328.296 307.9C333.216 309.54 337.317 306.67 335.267 305.03C333.216 303.39 323.785 295.189 322.965 292.318C322.423 289.903 322.148 287.434 322.145 284.958L310.664 284.527Z" fill="#263238" stroke="#263238" stroke-width="1.16992" stroke-miterlimit="10"/>
<path d="M335.529 306.776C333.378 306.915 331.217 306.742 329.116 306.26C325.425 305.44 320.505 300.11 315.584 296.419C312.524 294.127 307.888 293.58 304.807 293.486C304.71 293.763 304.671 294.057 304.691 294.349C304.711 294.642 304.79 294.928 304.923 295.189C306.563 297.649 311.893 296.829 315.174 299.7C318.454 302.57 323.375 306.26 328.296 307.901C331.66 309.026 334.646 308.037 335.529 306.776Z" fill="white" stroke="#263238" stroke-width="1.16992" stroke-linecap="round" stroke-linejoin="round"/>
<path d="M290.603 156.118C290.603 156.118 284.694 177.462 285.924 183.613C287.154 189.764 295.492 240.652 295.492 240.652L268.018 292.308L278.27 298.049C278.27 298.049 314.354 250.903 314.764 245.163C315.174 239.422 316.152 194.884 316.152 194.884L339.777 237.372L309.023 284.107C309.023 284.107 313.944 288.208 317.224 288.208H322.555C322.555 288.208 361.51 239.842 361.92 236.962C362.33 234.081 335.719 175.906 335.719 175.906L334.058 162.679L290.603 156.118Z" fill="#A23834" stroke="#263238" stroke-width="1.16992" stroke-linecap="round" stroke-linejoin="round"/>
<path d="M298.719 170.891C298.719 170.891 301.695 178.04 299.014 181.92C296.333 185.8 290.97 187.282 290.97 187.282" stroke="#263238" stroke-width="1.16992" stroke-linecap="round" stroke-linejoin="round"/>
<path d="M316.152 194.894L330.01 182.519" stroke="#263238" stroke-width="1.16992" stroke-linecap="round" stroke-linejoin="round"/>
<path d="M325.856 172.993L323.659 177.693C323.659 177.693 329.62 179.26 327.118 182.088C324.616 184.916 323.039 185.242 323.039 185.242" stroke="#263238" stroke-width="1.16992" stroke-linecap="round" stroke-linejoin="round"/>
<path d="M317.193 194.737L327.928 188.176" stroke="#263238" stroke-width="1.16992" stroke-linecap="round" stroke-linejoin="round"/>
<path d="M291.266 170.891C290.512 175.729 290.013 180.604 289.772 185.495" stroke="#263238" stroke-width="1.16992" stroke-linecap="round" stroke-linejoin="round"/>
<path d="M275.063 290.174L273.381 293.086" stroke="#263238" stroke-width="1.16992" stroke-linecap="round" stroke-linejoin="round"/>
<path d="M290.971 191.457C290.971 191.457 297.521 237.95 298.121 239.443C298.72 240.936 301.096 240.936 300.507 242.124C299.908 243.02 299.085 243.745 298.121 244.227L299.614 247.507L277.46 286.031" stroke="#263238" stroke-width="1.16992" stroke-linecap="round" stroke-linejoin="round"/>
<path d="M317.687 280.995L315.111 285.043" stroke="#263238" stroke-width="1.16992" stroke-linecap="round" stroke-linejoin="round"/>
<path d="M319.58 194.432C319.58 194.432 339.851 228.666 342.785 233.776C345.718 238.886 349.934 236.457 348.746 238.244C347.558 240.032 343.079 240.936 343.079 240.936L320.074 277.231" stroke="#263238" stroke-width="1.16992" stroke-linecap="round" stroke-linejoin="round"/>
<path d="M288.71 165.171C289.43 165.683 290.193 166.13 290.992 166.506C294.262 168.136 295.629 168.956 295.629 168.956L296.68 163.51L300.77 164.319L300.223 168.956C300.223 168.956 299.677 170.007 305.133 170.323C310.59 170.638 312.293 171.679 312.293 171.679L313.345 165.371L317.435 165.097V172.184C320.622 172.188 323.806 172.005 326.971 171.637C329.017 171.349 330.971 170.605 332.691 169.461V164.551L330.472 162.101L290.603 156.118C290.603 156.118 289.72 160.934 288.71 165.171Z" fill="#263238"/>
<path d="M323.418 167.862V171.679C325.84 171.441 328.221 170.893 330.504 170.049L331.04 166.78C331.04 166.78 324.774 167.316 323.418 167.862Z" fill="white" stroke="#263238" stroke-width="1.16992" stroke-linecap="round" stroke-linejoin="round"/>
<path d="M360.837 167.064L354.476 167.6L349.577 173.414C349.577 173.414 354.298 177.22 356.842 179.586C359.386 181.952 361.563 184.117 363.56 183.571C365.558 183.024 372.445 173.593 372.445 171.416C372.445 169.24 364.643 165.245 360.837 167.064Z" fill="white" stroke="#263238" stroke-width="1.16992" stroke-linecap="round" stroke-linejoin="round"/>
<path d="M357.021 168.872C358.14 167.669 359.425 166.631 360.837 165.791C361.862 165.195 363.032 164.896 364.217 164.928C365.401 164.959 366.554 165.32 367.545 165.97C369.911 167.421 370.268 168.872 368.996 170.502C367.724 172.131 362.835 177.946 362.467 176.495C362.099 175.044 364.286 170.502 364.286 170.502C364.286 170.502 361.374 177.22 357.389 172.867" fill="white"/>
<path d="M357.021 168.872C358.14 167.669 359.425 166.631 360.837 165.791C361.862 165.195 363.032 164.896 364.217 164.928C365.401 164.959 366.554 165.32 367.545 165.97C369.911 167.421 370.268 168.872 368.996 170.502C367.724 172.131 362.835 177.946 362.467 176.495C362.099 175.044 364.286 170.502 364.286 170.502C364.286 170.502 361.374 177.22 357.389 172.867" stroke="#263238" stroke-width="1.16992" stroke-linecap="round" stroke-linejoin="round"/>
<path d="M362.288 182.12C362.288 182.12 359.386 179.397 359.386 178.135C359.386 176.873 363.192 173.593 363.192 173.593" stroke="#263238" stroke-width="1.16992" stroke-linecap="round" stroke-linejoin="round"/>
<path d="M353.025 164.151L356.663 167.064L350.67 174.14L347.4 171.048L353.025 164.151Z" fill="white" stroke="#263238" stroke-width="1.16992" stroke-linecap="round" stroke-linejoin="round"/>
<path d="M335.067 147.581L354.476 164.067L346.422 172.121L329.936 161.134L335.067 147.581Z" fill="#D09A97" stroke="#263238" stroke-width="1.16992" stroke-linecap="round" stroke-linejoin="round"/>
<path d="M307.036 85.0532C307.036 85.0532 297.573 90.1105 296.038 98.4693C294.503 106.828 289.877 153.952 289.877 158.127C289.877 162.301 301.747 167.368 312.083 167.589C322.418 167.81 332.974 167.589 334.52 164.067C336.066 160.545 339.146 120.465 337.822 109.025C336.497 97.5861 333.616 91.2145 329.41 88.3547C325.205 85.4948 312.766 81.7623 307.036 85.0532Z" fill="white" stroke="#263238" stroke-width="1.16992" stroke-linecap="round" stroke-linejoin="round"/>
<path d="M294.041 158.221C294.041 158.221 317.635 148.864 326.982 136.257" stroke="#263238" stroke-width="1.16992" stroke-linecap="round" stroke-linejoin="round"/>
<path d="M292.411 161.018C302.323 162.026 312.334 160.775 321.693 157.359" stroke="#263238" stroke-width="1.16992" stroke-linecap="round" stroke-linejoin="round"/>
<path d="M310.559 64.8237C310.559 64.8237 310.559 65.2338 310.622 65.9382C310.797 69.5254 310.706 73.1206 310.349 76.6942L309.686 82.6347L326.393 87.4712C326.393 87.4712 327.056 83.9595 328.601 78.9022C329.771 75.3709 331.319 71.9762 333.217 68.777C333.217 68.777 325.521 66.3588 321.115 62.6263C316.71 58.8937 312.105 60.208 310.559 64.8237Z" fill="white" stroke="#263238" stroke-width="1.16992" stroke-linecap="round" stroke-linejoin="round"/>
<path d="M326.834 33.8177C326.834 33.8177 331.671 30.0747 328.821 22.8199C325.972 15.5652 313.86 16.4378 309.465 19.5185C305.07 22.5991 307.267 24.5758 309.686 24.7756C312.104 24.9753 313.197 27.6354 310.127 28.5186C307.057 29.4018 303.524 27.1938 298.467 32.7242C293.41 38.2547 298.246 43.0597 299.129 41.7454C300.013 40.4311 301.548 37.34 301.989 39.3271C302.431 41.3143 297.573 43.9323 296.932 50.0936C296.291 56.2549 301.989 62.4057 305.722 65.4863C309.454 68.567 314.301 69.4397 316.499 66.5377C318.696 63.6358 320.904 58.8414 323.322 55.7607C325.741 52.6801 322.881 45.2466 321.998 42.3447C321.115 39.4428 326.834 33.8177 326.834 33.8177Z" fill="#263238" stroke="#263238" stroke-width="1.16992" stroke-linecap="round" stroke-linejoin="round"/>
<path d="M315.837 59.1042C315.837 59.1042 312.767 54.4885 309.907 56.0235C307.047 57.5586 309.907 63.9407 312.546 65.9279C315.185 67.915 318.697 64.8765 318.697 64.8765C318.697 64.8765 323.954 72.352 327.939 72.352C331.923 72.352 343.994 71.6896 344.866 67.7363C345.739 63.783 339.367 50.798 339.367 50.798C339.367 50.798 341.355 48.3798 341.134 46.8447C340.913 45.3096 336.728 45.9615 335.877 45.2991C335.025 44.6367 332.796 38.9275 330.157 35.8364C327.518 32.7452 326.204 32.7557 326.204 32.7557C326.204 32.7557 312.294 39.7476 315.448 41.9556C318.602 44.1636 319.653 42.1764 319.401 43.7115C319.149 45.2465 314.344 50.9662 315.195 51.6286C316.047 52.291 319.149 54.0469 318.707 56.0235C318.266 58.0002 318.476 59.7666 315.837 59.1042Z" fill="white" stroke="#263238" stroke-width="1.16992" stroke-linecap="round" stroke-linejoin="round"/>
<path d="M333.773 45.804C334.299 47.0762 334.289 48.2853 333.773 48.5166C333.258 48.7479 332.354 47.9068 331.818 46.6451C331.282 45.3834 331.303 44.1638 331.818 43.9324C332.333 43.7011 333.237 44.5423 333.773 45.804Z" fill="#263238"/>
<path d="M331.85 41.4194C331.85 41.4194 328.612 40.4626 327.277 42.944" stroke="#263238" stroke-width="1.16992" stroke-linecap="round" stroke-linejoin="round"/>
<path d="M339.293 56.4967C339.293 56.4967 337.769 58.2105 335.288 56.686" stroke="#263238" stroke-width="1.16992" stroke-linecap="round" stroke-linejoin="round"/>
<path d="M276.441 114.598C276.441 114.598 253.961 114.714 249.356 115.471C244.751 116.228 249.693 128.435 250.166 131.315C250.639 134.196 276.441 114.598 276.441 114.598Z" fill="#D09A97" stroke="#263238" stroke-width="1.16992" stroke-linecap="round" stroke-linejoin="round"/>
<path d="M324.605 90.1842C326.91 93.0096 328.427 96.3939 329.004 99.9943C329.58 103.595 329.194 107.283 327.886 110.687C323.375 122.568 297.542 143.89 283.6 153.732C274.534 160.046 265.089 165.798 255.317 170.954C255.317 170.954 239.746 158.221 235.225 146.351C230.704 134.48 236.434 128.477 252.836 122.757C269.238 117.037 290.161 109.867 293.841 99.626C297.521 89.3852 302.126 81.6678 309.675 82.6456C317.225 83.6234 324.605 90.1842 324.605 90.1842Z" fill="#A23834" stroke="#263238" stroke-width="1.16992" stroke-linecap="round" stroke-linejoin="round"/>
<path d="M294.672 145.12C294.672 145.12 279.5 150.861 266.378 154.962C253.257 159.062 236.865 158.242 237.275 161.522C237.685 164.803 247.116 170.985 249.167 172.184C251.217 173.382 255.317 170.544 260.238 169.313C265.159 168.083 288.111 153.321 294.672 145.12Z" fill="#263238" stroke="#263238" stroke-width="1.16992" stroke-linecap="round" stroke-linejoin="round"/>
<path d="M244.677 182.277L243.068 195.283L245.665 195.609L247 184.832L268.933 187.545L267.608 198.322L270.205 198.648L271.814 185.642L244.677 182.277Z" fill="white" stroke="#263238" stroke-width="1.16992" stroke-linecap="round" stroke-linejoin="round"/>
<path d="M283.973 197.322L229.711 190.745C226.981 190.414 224.499 192.359 224.168 195.09L219.478 233.78C219.147 236.511 221.092 238.993 223.823 239.324L278.085 245.901C280.816 246.232 283.298 244.287 283.629 241.556L288.318 202.866C288.649 200.135 286.704 197.653 283.973 197.322Z" fill="white" stroke="#263238" stroke-width="1.1667" stroke-linecap="round" stroke-linejoin="round"/>
<path d="M224.206 215.65L283.295 223.209" stroke="#263238" stroke-width="1.16992" stroke-linecap="round" stroke-linejoin="round"/>
<path d="M231.408 193.77L226.666 232.977L230.01 239.107L234.752 234.365L239.777 194.758" fill="white"/>
<path d="M231.408 193.77L226.666 232.977L230.01 239.107L234.752 234.365L239.777 194.758" stroke="#263238" stroke-width="1.16992" stroke-linecap="round" stroke-linejoin="round"/>
<path d="M237.856 221.485L226.244 219.952L225.514 225.487L237.126 227.02L237.856 221.485Z" fill="white" stroke="#263238" stroke-width="1.16992" stroke-linecap="round" stroke-linejoin="round"/>
<path d="M237.441 222.939L225.845 221.416L225.663 222.8L237.259 224.323L237.441 222.939Z" fill="white" stroke="#263238" stroke-width="1.16816" stroke-linecap="round" stroke-linejoin="round"/>
<path d="M272.718 199.132L267.955 238.276L271.299 244.416L276.041 239.664L281.066 200.057" fill="white"/>
<path d="M272.718 199.132L267.955 238.276L271.299 244.416L276.041 239.664L281.066 200.057" stroke="#263238" stroke-width="1.16992" stroke-linecap="round" stroke-linejoin="round"/>
<path d="M279.149 226.78L267.536 225.247L266.806 230.782L278.418 232.315L279.149 226.78Z" fill="white" stroke="#263238" stroke-width="1.16992" stroke-linecap="round" stroke-linejoin="round"/>
<path d="M278.875 228.854L267.263 227.321L267.08 228.708L278.692 230.24L278.875 228.854Z" fill="white" stroke="#263238" stroke-width="1.16992" stroke-linecap="round" stroke-linejoin="round"/>
<path d="M317.635 93.8746C317.635 93.8746 313.124 91.4143 305.743 92.2344C298.362 93.0545 261.878 115.197 256.569 117.658C251.259 120.118 251.648 127.488 251.648 127.488L254.929 174.644H265.169L271.73 128.718C271.73 128.718 318.718 116.249 320.19 106.954" fill="#A23834"/>
<path d="M317.635 93.8746C317.635 93.8746 313.124 91.4143 305.743 92.2344C298.362 93.0545 261.878 115.197 256.569 117.658C251.259 120.118 251.648 127.488 251.648 127.488L254.929 174.644H265.169L271.73 128.718C271.73 128.718 318.718 116.249 320.19 106.954" stroke="#263238" stroke-width="1.16992" stroke-linecap="round" stroke-linejoin="round"/>
<path d="M265.148 174.644L267.609 183.255C267.609 183.255 267.609 191.456 266.379 192.276C265.148 193.096 264.738 194.737 262.699 193.096L260.648 191.456C259.168 191.071 257.66 190.796 256.138 190.636C254.908 190.636 252.447 190.636 251.627 188.533C250.807 186.43 254.908 174.592 254.908 174.592L265.148 174.644Z" fill="white" stroke="#263238" stroke-width="1.16992" stroke-linecap="round" stroke-linejoin="round"/>
<path d="M327.329 93.6643L329.043 101.234C325.084 102.593 320.927 103.286 316.741 103.285C309.77 103.285 297.879 92.2133 289.688 86.0625C281.498 79.9117 273.286 88.1128 265.905 90.5731C258.524 93.0334 252.783 91.8032 241.302 87.7027C229.821 83.6022 217.119 93.0334 217.119 93.0334L213.461 102.055L224.942 108.205C224.942 108.205 235.603 96.3138 243.394 96.3138C251.185 96.3138 266.357 102.055 272.098 98.7741C277.839 95.4937 282.349 89.3114 286.45 90.163C290.55 91.0147 308.54 109.025 317.551 109.856C320.036 110.161 322.558 109.743 324.812 108.653C327.067 107.562 328.959 105.844 330.262 103.705L333.543 94.2425C333.543 94.2425 328.065 86.4936 327.329 93.6643Z" fill="#263238" stroke="#263238" stroke-width="1.16992" stroke-linecap="round" stroke-linejoin="round"/>
<path d="M329.253 87.0299L333.437 87.4715L339.367 97.8069L333.217 93.1912L329.463 94.7263L329.032 91.2145L329.253 87.0299Z" fill="white" stroke="#263238" stroke-width="1.16992" stroke-linecap="round" stroke-linejoin="round"/>
<path d="M306.511 75.5695L330.357 85.274L329.915 95.3886L303.43 82.6139L306.511 75.5695Z" fill="white" stroke="#263238" stroke-width="1.16992" stroke-linecap="round" stroke-linejoin="round"/>
</g>
<defs>
<clipPath id="clip0_2_1989">
<rect width="458" height="458" fill="white" transform="translate(0.162354)"/>
</clipPath>
</defs>
</svg>
