<svg width="467" height="406" viewBox="0 0 467 406" fill="none" xmlns="http://www.w3.org/2000/svg">
<path d="M203.118 1.14965C327.118 -9.85035 327.368 60.0897 383.258 125.28C439.148 190.47 451.118 220.04 430.118 295.19C409.118 370.34 338.048 429.26 250.218 395.88C162.388 362.5 112.078 394.56 56.688 364.88C1.29796 335.2 -19.312 277.97 21.268 210.47C61.848 142.97 50.218 14.7797 203.118 1.14965Z" fill="#A23834"/>
<path opacity="0.9" d="M203.118 1.14965C327.118 -9.85035 327.368 60.0897 383.258 125.28C439.148 190.47 451.118 220.04 430.118 295.19C409.118 370.34 338.048 429.26 250.218 395.88C162.388 362.5 112.078 394.56 56.688 364.88C1.29796 335.2 -19.312 277.97 21.268 210.47C61.848 142.97 50.218 14.7797 203.118 1.14965Z" fill="white"/>
<path d="M281.89 355.901C279.817 358.897 276.903 361.211 273.515 362.55C270.127 363.889 266.418 364.194 262.857 363.426C259.296 362.658 256.043 360.851 253.509 358.233C250.975 355.616 249.274 352.306 248.621 348.722C247.968 345.138 248.392 341.441 249.84 338.098C251.288 334.755 253.695 331.917 256.756 329.942C259.817 327.967 263.395 326.944 267.038 327.003C270.681 327.061 274.224 328.198 277.22 330.271C281.236 333.052 283.984 337.313 284.86 342.119C285.736 346.925 284.667 351.882 281.89 355.901Z" fill="white"/>
<path opacity="0.3" d="M279.49 354.241C277.746 356.762 275.294 358.709 272.444 359.837C269.594 360.965 266.474 361.222 263.477 360.577C260.481 359.931 257.743 358.412 255.61 356.211C253.477 354.009 252.044 351.225 251.494 348.21C250.943 345.194 251.298 342.083 252.515 339.27C253.732 336.457 255.756 334.068 258.331 332.405C260.906 330.741 263.916 329.879 266.981 329.926C270.046 329.974 273.028 330.929 275.55 332.671C278.929 335.011 281.242 338.597 281.981 342.641C282.719 346.685 281.824 350.857 279.49 354.241Z" fill="black" fill-opacity="0.7"/>
<path d="M279.49 354.241C277.746 356.762 275.294 358.709 272.444 359.837C269.594 360.965 266.474 361.222 263.477 360.577C260.481 359.931 257.743 358.412 255.61 356.211C253.477 354.009 252.044 351.225 251.494 348.21C250.943 345.194 251.298 342.083 252.515 339.27C253.732 336.457 255.756 334.068 258.331 332.405C260.906 330.741 263.916 329.879 266.981 329.926C270.046 329.974 273.028 330.929 275.55 332.671C278.929 335.011 281.242 338.597 281.981 342.641C282.719 346.685 281.824 350.857 279.49 354.241V354.241Z" stroke="#263238" stroke-linecap="round" stroke-linejoin="round"/>
<path d="M270.71 337.731L271.46 336.651L273.32 337.941L272.57 339.021C273.96 340.461 273.93 342.271 272.57 344.241L272.25 344.691L270.1 343.211L270.52 342.611C271.23 341.611 271.09 340.891 270.37 340.391C269.65 339.891 268.96 340.001 268.24 341.031C267.52 342.061 267.44 343.081 268.13 345.361C268.96 348.131 268.82 349.711 267.67 351.361C266.31 353.361 264.59 354.001 262.75 353.211L262.02 354.271L260.16 352.981L260.89 351.931C259.48 350.471 259.53 348.631 260.89 346.671L261.57 345.671L263.73 347.161L262.94 348.301C262.22 349.301 262.42 350.021 263.15 350.521C263.88 351.021 264.58 350.961 265.3 349.931C266.02 348.901 266.11 347.861 265.41 345.611C264.57 342.851 264.73 341.251 265.87 339.611C267.21 337.621 268.88 336.941 270.71 337.731Z" fill="white" stroke="#263238" stroke-linecap="round" stroke-linejoin="round"/>
<path opacity="0.2" d="M261.6 330.491C261.602 334.797 260.484 339.029 258.356 342.773C256.227 346.516 253.162 349.641 249.46 351.841C248.581 349.478 248.197 346.96 248.332 344.443C248.466 341.926 249.116 339.463 250.241 337.208C251.366 334.952 252.942 332.952 254.872 331.33C256.802 329.708 259.044 328.5 261.46 327.781C261.557 328.681 261.604 329.585 261.6 330.491Z" fill="black" fill-opacity="0.7"/>
<path d="M281.89 355.901C279.817 358.897 276.903 361.211 273.515 362.55C270.127 363.889 266.418 364.194 262.857 363.426C259.296 362.658 256.043 360.851 253.509 358.233C250.975 355.616 249.274 352.306 248.621 348.722C247.968 345.138 248.392 341.441 249.84 338.098C251.288 334.755 253.695 331.917 256.756 329.942C259.817 327.967 263.395 326.944 267.038 327.003C270.681 327.061 274.224 328.198 277.22 330.271C281.236 333.052 283.984 337.313 284.86 342.119C285.736 346.925 284.667 351.882 281.89 355.901V355.901Z" stroke="#263238" stroke-linecap="round" stroke-linejoin="round"/>
<path d="M240.43 348.361C250.609 348.361 258.86 340.109 258.86 329.931C258.86 319.752 250.609 311.501 240.43 311.501C230.251 311.501 222 319.752 222 329.931C222 340.109 230.251 348.361 240.43 348.361Z" fill="white" stroke="#263238" stroke-linecap="round" stroke-linejoin="round"/>
<path opacity="0.3" d="M240.43 345.431C248.991 345.431 255.93 338.491 255.93 329.931C255.93 321.37 248.991 314.431 240.43 314.431C231.87 314.431 224.93 321.37 224.93 329.931C224.93 338.491 231.87 345.431 240.43 345.431Z" fill="black" fill-opacity="0.7"/>
<path d="M240.43 345.431C248.991 345.431 255.93 338.491 255.93 329.931C255.93 321.37 248.991 314.431 240.43 314.431C231.87 314.431 224.93 321.37 224.93 329.931C224.93 338.491 231.87 345.431 240.43 345.431Z" stroke="#263238" stroke-linecap="round" stroke-linejoin="round"/>
<path d="M239.3 321.301V319.991H241.56V321.301C243.56 321.701 244.56 323.211 244.56 325.601V326.151H241.94V325.421C241.94 324.161 241.44 323.691 240.56 323.691C239.68 323.691 239.18 324.161 239.18 325.421C239.18 326.681 239.68 327.561 241.54 329.041C243.81 330.851 244.54 332.241 244.54 334.251C244.54 336.641 243.54 338.171 241.54 338.571V339.851H239.3V338.571C237.3 338.171 236.3 336.641 236.3 334.251V333.041H238.91V334.421C238.91 335.681 239.47 336.131 240.35 336.131C241.23 336.131 241.78 335.681 241.78 334.421C241.78 333.161 241.28 332.261 239.42 330.801C237.15 329.021 236.37 327.611 236.37 325.601C236.4 323.231 237.4 321.731 239.3 321.301Z" fill="white" stroke="#263238" stroke-linecap="round" stroke-linejoin="round"/>
<path d="M343.868 345.404C349.36 336.834 346.864 325.435 338.294 319.943C329.723 314.452 318.324 316.948 312.833 325.518C307.341 334.088 309.837 345.487 318.407 350.979C326.978 356.47 338.377 353.974 343.868 345.404Z" fill="white" stroke="#263238" stroke-linecap="round" stroke-linejoin="round"/>
<path opacity="0.3" d="M339.7 324.921C341.787 327.167 343.161 329.981 343.648 333.008C344.135 336.035 343.713 339.139 342.437 341.926C341.16 344.714 339.085 347.06 336.475 348.668C333.864 350.276 330.836 351.074 327.772 350.96C324.708 350.847 321.747 349.828 319.262 348.031C316.778 346.235 314.882 343.742 313.814 340.868C312.747 337.993 312.556 334.867 313.265 331.885C313.975 328.902 315.553 326.196 317.8 324.111C320.812 321.315 324.811 319.83 328.918 319.982C333.024 320.134 336.903 321.91 339.7 324.921Z" fill="black" fill-opacity="0.7"/>
<path d="M339.7 324.921C341.787 327.167 343.161 329.981 343.648 333.008C344.135 336.035 343.713 339.139 342.437 341.926C341.16 344.714 339.085 347.06 336.475 348.668C333.864 350.276 330.836 351.074 327.772 350.96C324.708 350.847 321.747 349.828 319.262 348.031C316.778 346.235 314.882 343.742 313.814 340.868C312.747 337.993 312.556 334.867 313.265 331.885C313.975 328.902 315.553 326.196 317.8 324.111C320.812 321.315 324.811 319.83 328.918 319.982C333.024 320.134 336.903 321.91 339.7 324.921V324.921Z" stroke="#263238" stroke-linecap="round" stroke-linejoin="round"/>
<path d="M321.65 329.921L320.76 328.921L322.42 327.381L323.31 328.381C325.02 327.381 326.78 327.761 328.41 329.511L328.78 329.921L326.87 331.731L326.37 331.191C325.51 330.271 324.82 330.261 324.18 330.861C323.54 331.461 323.49 332.151 324.34 333.081C325.19 334.011 326.17 334.301 328.54 334.081C331.43 333.871 332.94 334.351 334.31 335.821C335.94 337.571 336.22 339.401 335.06 341.031L335.93 341.971L334.28 343.511L333.4 342.571C331.67 343.631 329.89 343.191 328.27 341.441L327.45 340.551L329.36 338.771L330.3 339.771C331.16 340.701 331.87 340.651 332.52 340.051C333.17 339.451 333.26 338.751 332.4 337.821C331.54 336.891 330.56 336.581 328.21 336.821C325.33 337.051 323.81 336.551 322.44 335.081C320.83 333.321 320.52 331.551 321.65 329.921Z" fill="white" stroke="#263238" stroke-linecap="round" stroke-linejoin="round"/>
<path d="M408.797 246.173C406.872 244.324 402.153 245.278 400.059 246.418C399.881 246.511 397.222 248.368 397.256 248.402H397.306C396.563 248.545 395.761 248.706 394.892 248.909C393.296 249.28 391.515 249.753 389.556 250.335C387.469 250.973 385.42 251.729 383.418 252.598C381.177 253.572 379.024 254.739 376.984 256.085C376.984 256.085 376.942 256.127 376.917 256.136C377.398 255.528 378.707 253.78 378.791 253.603C379.99 251.543 381.096 246.848 379.315 244.881C379.01 244.56 378.641 244.307 378.232 244.137C377.822 243.968 377.382 243.887 376.939 243.899C376.497 243.911 376.061 244.016 375.662 244.207C375.262 244.398 374.908 244.671 374.62 245.008C373.354 246.401 373.286 248.723 373.616 250.47C373.987 252.446 376.486 256.001 376.68 256.288C374.643 257.713 372.702 259.273 370.872 260.956C369.8 261.927 368.744 262.949 367.706 263.979C368.111 263.439 368.474 262.949 368.55 262.873C369.749 260.821 370.855 256.119 369.074 254.152C368.768 253.83 368.398 253.577 367.988 253.407C367.578 253.238 367.137 253.156 366.694 253.168C366.251 253.18 365.815 253.285 365.414 253.476C365.014 253.668 364.659 253.941 364.371 254.278C363.104 255.671 363.037 257.993 363.366 259.741C363.695 261.488 365.772 264.595 366.33 265.406L365.139 266.596C363.256 268.521 361.382 270.455 359.482 272.287C358.815 272.937 358.132 273.553 357.456 274.17C357.811 273.688 358.115 273.275 358.148 273.207C359.347 271.155 360.453 266.453 358.672 264.486C358.367 264.164 357.998 263.911 357.589 263.742C357.179 263.572 356.739 263.491 356.297 263.503C355.854 263.515 355.419 263.62 355.019 263.811C354.62 264.002 354.265 264.275 353.978 264.612C352.711 266.005 352.644 268.327 352.973 270.075C353.302 271.822 355.177 274.625 355.835 275.588C355.117 276.196 354.4 276.812 353.682 277.369C353.184 277.741 352.728 278.129 352.205 278.475L350.685 279.522C349.689 280.147 348.676 280.806 347.696 281.388L345.67 282.612C346.337 281.971 347.629 280.696 347.73 280.578C348.982 278.9 349.785 276.929 350.06 274.853C350.21 274.672 350.343 274.477 350.457 274.271C350.681 273.889 350.822 273.464 350.871 273.023C350.92 272.583 350.875 272.138 350.741 271.716C350.606 271.293 350.384 270.905 350.09 270.574C349.795 270.243 349.434 269.978 349.03 269.796C346.573 268.766 342.512 271.35 340.967 273.173C340.874 273.275 340.013 274.549 339.481 275.36C339.718 274.837 339.963 274.33 340.199 273.79C340.68 272.717 341.128 271.637 341.617 270.48L342.267 268.791C342.504 268.217 342.673 267.584 342.875 266.976C343.323 265.566 343.72 264.106 344.066 262.628C345.003 263.05 348.346 264.494 350.136 264.494C351.926 264.494 354.18 264.013 355.32 262.51C355.6 262.166 355.805 261.768 355.921 261.34C356.037 260.912 356.061 260.464 355.993 260.026C355.925 259.588 355.765 259.169 355.523 258.797C355.282 258.425 354.966 258.108 354.594 257.866C352.314 256.473 347.916 258.415 346.109 259.977C345.991 260.07 344.826 261.328 344.192 262.037C344.403 261.151 344.615 260.264 344.792 259.361C345.307 256.743 345.754 254.076 346.202 251.424L346.632 248.993C346.97 249.145 350.904 250.943 352.914 250.952C354.687 250.952 356.958 250.462 358.098 248.959C358.377 248.616 358.582 248.217 358.697 247.79C358.812 247.362 358.836 246.915 358.766 246.477C358.697 246.04 358.536 245.622 358.295 245.251C358.053 244.88 357.735 244.564 357.363 244.324C355.092 242.931 350.685 244.873 348.92 246.426C348.777 246.545 347.097 248.36 346.691 248.849C347.012 247.06 347.35 245.287 347.747 243.547C348.282 241.202 348.964 238.892 349.79 236.633C349.942 236.709 354.011 238.6 356.105 238.608C357.878 238.608 360.149 238.119 361.289 236.624C361.569 236.28 361.773 235.881 361.889 235.453C362.004 235.024 362.028 234.577 361.958 234.138C361.889 233.7 361.728 233.282 361.486 232.91C361.245 232.538 360.927 232.222 360.555 231.981C358.284 230.588 353.876 232.529 352.112 234.083C351.968 234.209 350.161 236.16 349.858 236.54C349.908 236.413 349.942 236.27 349.993 236.143C350.886 233.901 351.976 231.742 353.252 229.693C353.944 228.553 354.67 227.497 355.396 226.493C356.122 226.923 359.474 228.857 361.306 229.068C363.138 229.279 365.384 229.026 366.676 227.666C366.992 227.356 367.239 226.982 367.401 226.569C367.564 226.157 367.637 225.715 367.617 225.272C367.597 224.829 367.484 224.396 367.286 223.999C367.087 223.603 366.807 223.253 366.465 222.972C364.354 221.334 359.761 222.786 357.802 224.129C357.692 224.205 356.688 225.066 355.962 225.708C356.299 225.26 356.637 224.787 356.966 224.365C358.199 222.769 359.432 221.385 360.529 220.144C361.154 219.451 361.737 218.843 362.294 218.278C363.231 218.328 367.005 218.489 368.702 217.83C370.399 217.172 372.299 215.922 372.822 214.107C372.96 213.686 373.007 213.24 372.96 212.8C372.914 212.359 372.775 211.933 372.552 211.55C372.33 211.167 372.029 210.834 371.67 210.575C371.311 210.316 370.9 210.136 370.467 210.046C367.849 209.565 364.438 212.967 363.315 215.07C363.223 215.247 362.024 218.261 362.074 218.269H362.133C361.593 218.801 361.019 219.375 360.445 220.026C359.314 221.216 358.056 222.558 356.781 224.154C355.392 225.838 354.101 227.599 352.914 229.431C351.575 231.477 350.423 233.638 349.469 235.89C349.474 235.918 349.474 235.946 349.469 235.974C349.545 235.197 349.663 233.011 349.655 232.842C349.52 230.469 347.857 225.952 345.281 225.243C344.849 225.144 344.401 225.137 343.966 225.222C343.531 225.307 343.118 225.483 342.756 225.738C342.393 225.992 342.087 226.32 341.859 226.701C341.631 227.081 341.485 227.505 341.432 227.945C341.144 229.802 342.369 231.778 343.601 233.053C345.003 234.497 349.055 236.084 349.376 236.21C348.461 238.524 347.702 240.896 347.105 243.311C346.742 244.721 346.43 246.148 346.134 247.583C346.134 246.908 346.202 246.3 346.193 246.215C346.058 243.834 344.403 239.317 341.82 238.617C341.388 238.516 340.939 238.508 340.503 238.593C340.068 238.677 339.655 238.853 339.292 239.108C338.928 239.363 338.623 239.691 338.395 240.072C338.167 240.453 338.023 240.878 337.97 241.318C337.683 243.176 338.907 245.151 340.148 246.426C341.389 247.701 344.826 249.145 345.737 249.508L345.408 251.197C344.902 253.848 344.395 256.49 343.829 259.065C343.627 259.977 343.399 260.864 343.171 261.75C343.171 261.151 343.23 260.653 343.221 260.568C343.086 258.196 341.432 253.679 338.848 252.97C338.416 252.87 337.968 252.863 337.533 252.948C337.097 253.034 336.685 253.209 336.322 253.464C335.959 253.719 335.654 254.047 335.426 254.427C335.198 254.807 335.052 255.231 334.998 255.671C334.711 257.529 335.935 259.504 337.176 260.779C338.417 262.054 341.524 263.363 342.605 263.802C342.343 264.705 342.082 265.609 341.761 266.47C341.541 267.061 341.381 267.635 341.136 268.209C340.891 268.783 340.672 269.357 340.444 269.897C339.963 270.961 339.473 272.076 338.983 273.106C338.645 273.823 338.308 274.507 337.97 275.191C338.181 274.288 338.561 272.515 338.569 272.363C338.797 269.99 337.843 265.271 335.395 264.215C334.983 264.051 334.54 263.975 334.096 263.993C333.653 264.01 333.218 264.121 332.82 264.318C332.421 264.514 332.069 264.792 331.786 265.134C331.502 265.476 331.293 265.873 331.174 266.301C330.608 268.099 331.52 270.235 332.55 271.687C333.681 273.283 337.286 275.402 337.742 275.664C337.176 276.795 336.628 277.893 336.053 278.914C335.344 280.265 334.669 281.515 334.027 282.663C334.314 283.085 334.677 283.609 335.099 284.208C335.834 282.84 336.628 281.312 337.455 279.632C338.029 278.484 338.62 277.251 339.211 275.968C340.505 276.327 341.818 276.609 343.145 276.812C343.331 278.813 345.045 282.325 345.273 282.773C344.176 283.414 343.112 284.022 342.09 284.58C340.342 285.542 338.713 286.395 337.269 287.112L338.325 288.472C339.709 287.729 341.229 286.884 342.867 285.939C343.981 285.297 345.155 284.588 346.354 283.845C346.691 284.233 349.435 287.408 351.217 288.227C352.829 288.978 355.092 289.485 356.755 288.598C357.154 288.405 357.507 288.129 357.792 287.789C358.076 287.449 358.286 287.053 358.407 286.627C358.529 286.201 358.558 285.754 358.495 285.315C358.431 284.876 358.276 284.456 358.039 284.081C356.553 281.861 351.74 281.785 349.452 282.393C349.317 282.435 347.899 283.018 347.004 283.398C347.494 283.094 347.975 282.807 348.473 282.486C349.461 281.861 350.432 281.211 351.479 280.51L352.981 279.429C353.488 279.083 353.978 278.653 354.484 278.256C355.632 277.327 356.755 276.322 357.861 275.284C358.41 276.128 360.394 279.201 361.897 280.189C363.4 281.177 365.536 282.013 367.317 281.397C367.74 281.263 368.13 281.042 368.462 280.748C368.794 280.454 369.061 280.094 369.245 279.69C369.429 279.287 369.526 278.849 369.53 278.406C369.534 277.962 369.444 277.523 369.268 277.116C368.136 274.701 363.358 273.899 361.027 274.195C360.884 274.195 359.212 274.625 358.3 274.862C358.959 274.237 359.626 273.612 360.276 272.954C362.15 271.063 363.982 269.087 365.831 267.12C366.389 266.52 366.963 265.921 367.52 265.33C367.714 265.642 370.011 269.315 371.674 270.396C373.16 271.383 375.321 272.228 377.094 271.603C377.517 271.47 377.907 271.25 378.239 270.957C378.571 270.664 378.837 270.304 379.021 269.901C379.205 269.499 379.302 269.061 379.306 268.619C379.31 268.176 379.221 267.737 379.045 267.331C377.913 264.908 373.135 264.106 370.813 264.401C370.635 264.401 368.229 265.017 367.621 265.195C368.871 263.886 370.154 262.586 371.421 261.362C373.158 259.695 375.002 258.144 376.942 256.718C377.035 256.862 379.408 260.712 381.113 261.843C382.599 262.831 384.76 263.675 386.542 263.05C386.938 262.912 387.302 262.695 387.613 262.414C387.925 262.133 388.177 261.793 388.355 261.413C388.534 261.034 388.635 260.622 388.652 260.203C388.67 259.784 388.604 259.366 388.458 258.972C387.327 256.549 382.548 255.747 380.218 256.043C380.032 256.043 377.449 256.701 376.984 256.887L377.322 256.625C379.306 255.249 381.408 254.051 383.604 253.046C384.803 252.48 385.993 251.999 387.15 251.56C387.521 252.319 389.243 255.781 390.67 256.98C392.097 258.179 394.09 259.192 395.93 258.77C396.363 258.684 396.773 258.508 397.134 258.254C397.495 258 397.799 257.673 398.025 257.295C398.252 256.916 398.397 256.494 398.451 256.056C398.504 255.618 398.465 255.173 398.336 254.751C397.492 252.218 392.849 250.901 390.468 250.943C390.341 250.943 389.024 251.112 388.07 251.247C388.602 251.061 389.142 250.85 389.649 250.682C391.557 250.031 393.347 249.55 394.934 249.145C395.837 248.917 396.622 248.731 397.467 248.562C398.218 249.12 401.283 251.332 403.056 251.728C404.829 252.125 407.117 252.117 408.552 250.884C408.9 250.606 409.185 250.257 409.388 249.86C409.591 249.464 409.708 249.029 409.732 248.584C409.755 248.139 409.683 247.694 409.522 247.278C409.361 246.863 409.114 246.486 408.797 246.173Z" fill="#263238"/>
<path d="M111.343 58.5805C111.419 58.5805 109.376 53.5148 109.207 53.2109C107.282 49.6986 101.507 44.025 97.0914 44.8693C96.3633 45.0287 95.6769 45.3396 95.0768 45.7818C94.4767 46.2239 93.9765 46.7875 93.6086 47.4357C93.2406 48.084 93.0133 48.8024 92.9413 49.5443C92.8693 50.2862 92.9544 51.0349 93.1908 51.7418C94.1027 54.7812 97.4123 56.9004 100.182 57.9473C103.474 59.18 111.335 58.5805 111.343 58.5805Z" fill="#263238"/>
<path d="M113.217 21.6346C109.35 23.9057 108.734 31.9771 109.604 35.8861C109.68 36.2239 111.461 41.3824 111.529 41.3318L111.605 41.2727C111.503 42.5476 111.402 43.9153 111.318 45.4097C111.199 48.1705 111.081 51.3197 111.182 54.6968C111.247 58.3689 111.529 62.0339 112.027 65.6725C112.563 69.7519 113.461 73.7754 114.712 77.6952C114.733 77.7382 114.75 77.7835 114.762 77.8302C114.002 76.758 111.765 73.8368 111.562 73.6088C108.785 70.7214 101.71 66.787 97.6739 68.7542C97.014 69.1016 96.4345 69.5838 95.9731 70.1697C95.5117 70.7555 95.1786 71.4318 94.9955 72.1547C94.8124 72.8776 94.7833 73.631 94.9102 74.3658C95.0371 75.1007 95.3171 75.8007 95.732 76.4203C97.4206 79.1136 101.127 80.2871 104.116 80.5573C107.493 80.8612 114.391 78.4466 114.94 78.2524C116.309 82.2098 117.943 86.0712 119.828 89.8107C120.917 91.9974 122.082 94.1587 123.273 96.3201C122.58 95.4167 121.956 94.6315 121.854 94.5049C119.077 91.6259 112.001 87.6831 107.974 89.6587C107.314 90.0045 106.734 90.4853 106.271 91.0701C105.809 91.6548 105.475 92.3303 105.291 93.0526C105.107 93.7749 105.078 94.5279 105.204 95.2625C105.33 95.9971 105.609 96.6969 106.024 97.3164C107.712 100.01 111.427 101.183 114.408 101.453C117.388 101.724 123.365 99.7648 124.927 99.2582C125.4 100.103 125.856 100.947 126.32 101.724C128.575 105.666 130.837 109.584 132.94 113.501C133.683 114.878 134.367 116.262 135.05 117.647C134.434 116.845 133.911 116.178 133.818 116.085C131.04 113.197 123.965 109.255 119.929 111.23C119.269 111.578 118.69 112.06 118.228 112.646C117.767 113.232 117.434 113.908 117.251 114.631C117.068 115.354 117.039 116.107 117.166 116.842C117.292 117.577 117.572 118.277 117.987 118.896C119.676 121.581 123.382 122.763 126.363 123.033C129.343 123.303 134.746 121.556 136.612 120.923C137.271 122.366 137.929 123.802 138.504 125.228C138.875 126.208 139.297 127.128 139.618 128.133C139.939 129.137 140.277 130.1 140.606 131.071C141.171 132.962 141.762 134.904 142.294 136.761C142.649 138.053 142.97 139.294 143.291 140.535C142.573 139.151 141.104 136.474 140.952 136.272C138.813 133.467 135.991 131.257 132.754 129.855C132.528 129.534 132.274 129.235 131.994 128.96C131.478 128.422 130.855 127.998 130.165 127.716C129.475 127.434 128.733 127.3 127.988 127.323C127.243 127.346 126.511 127.526 125.84 127.85C125.169 128.174 124.573 128.636 124.092 129.205C121.297 132.717 123.619 140.476 125.839 143.811C125.974 144.005 127.629 145.989 128.701 147.188L126.489 145.306C124.978 144.039 123.433 142.815 121.778 141.498C120.934 140.882 120.09 140.265 119.245 139.649C118.401 139.033 117.481 138.442 116.594 137.834C114.509 136.457 112.331 135.174 110.102 133.916C111.208 132.599 115.083 127.837 115.91 124.95C116.738 122.062 116.974 118.196 115.066 115.663C114.638 115.053 114.086 114.54 113.447 114.157C112.808 113.775 112.095 113.531 111.355 113.441C110.615 113.352 109.865 113.42 109.153 113.64C108.441 113.859 107.784 114.226 107.223 114.717C103.922 117.765 105.053 125.786 106.742 129.416C106.843 129.644 108.346 132.118 109.198 133.46C107.856 132.717 106.522 131.974 105.137 131.265C101.144 129.23 97.0322 127.289 92.9459 125.355C91.6879 124.756 90.413 124.148 89.2057 123.54C89.6025 123.076 94.3221 117.52 95.2508 114.253C96.0951 111.374 96.323 107.498 94.4065 104.966C93.9782 104.355 93.4263 103.841 92.7866 103.458C92.1468 103.074 91.4336 102.829 90.6931 102.739C89.9526 102.649 89.2015 102.716 88.4886 102.935C87.7756 103.154 87.1167 103.521 86.5546 104.012C83.2619 107.059 84.3848 115.08 86.0734 118.719C86.2 118.989 88.3698 122.544 88.9693 123.422C86.2254 122.088 83.5068 120.728 80.881 119.285C77.3253 117.35 73.8987 115.187 70.623 112.809C70.8087 112.589 75.7647 106.815 76.7103 103.522C77.5545 100.643 77.7741 96.7676 75.866 94.2347C75.4377 93.624 74.8858 93.1102 74.246 92.7267C73.6063 92.3431 72.893 92.0984 72.1526 92.0084C71.4121 91.9185 70.661 91.9852 69.948 92.2044C69.2351 92.4236 68.5762 92.7903 68.0141 93.2807C64.7214 96.3286 65.8443 104.349 67.5329 107.98C67.668 108.267 69.9982 112.091 70.471 112.75C70.2852 112.615 70.0742 112.488 69.8884 112.353C66.6852 109.858 63.7101 107.084 60.9981 104.062C59.4699 102.424 58.0938 100.77 56.7767 99.1316C57.8067 98.1522 62.4756 93.61 63.6576 90.6887C64.8396 87.7675 65.4644 84.0695 63.8518 81.3425C63.4929 80.6887 63.0004 80.1177 62.4065 79.6666C61.8126 79.2154 61.1304 78.8943 60.4043 78.7239C59.6782 78.5535 58.9244 78.5377 58.1918 78.6776C57.4592 78.8174 56.7642 79.1098 56.1519 79.5357C52.5468 82.2037 52.7748 90.3004 54.0581 94.0996C54.1256 94.3023 55.0712 96.3286 55.7466 97.7892C55.1725 97.0462 54.5646 96.2779 54.0581 95.5518C52.0402 92.8248 50.3601 90.199 48.891 87.8604C48.0468 86.5264 47.346 85.3275 46.6875 84.154C47.2025 82.6596 49.2203 76.6229 48.9079 73.5666C48.5955 70.5103 47.4895 66.9136 44.7625 65.2251C44.1435 64.8226 43.4475 64.5534 42.7188 64.4346C41.9901 64.3158 41.2447 64.35 40.5299 64.5351C39.8152 64.7201 39.1468 65.0519 38.5673 65.5094C37.9877 65.9669 37.5098 66.54 37.1639 67.1923C35.1883 71.2195 39.1311 78.2946 42.0186 81.0808C42.2718 81.3172 46.603 84.6268 46.6284 84.5508V84.4663C47.2362 85.5808 47.9117 86.7797 48.6715 88.0714C50.0899 90.4439 51.7194 93.1372 53.6866 95.898C55.7664 98.9206 58.0217 101.819 60.4409 104.577C63.1403 107.682 66.1098 110.541 69.3143 113.121L69.4409 113.206C68.2083 112.733 64.7298 111.517 64.4512 111.475C60.5422 110.631 52.4708 111.222 50.1912 115.089C49.8328 115.742 49.6158 116.464 49.5542 117.207C49.4927 117.95 49.588 118.697 49.834 119.401C50.0799 120.105 50.4711 120.749 50.9821 121.292C51.4931 121.835 52.1125 122.264 52.8001 122.552C55.6791 123.878 59.4362 122.797 62.0872 121.379C65.0591 119.783 69.4916 113.957 69.8462 113.493C73.1748 116.034 76.6695 118.35 80.3069 120.424C82.4176 121.649 84.579 122.814 86.7657 123.954C85.685 123.582 84.7225 123.261 84.5874 123.227C80.67 122.383 72.5986 122.966 70.3275 126.841C69.9674 127.494 69.7489 128.215 69.6861 128.958C69.6233 129.701 69.7176 130.449 69.9629 131.153C70.2082 131.857 70.599 132.501 71.1098 133.044C71.6206 133.587 72.2401 134.017 72.9279 134.305C75.8153 135.63 79.5639 134.549 82.215 133.131C84.8661 131.713 88.7667 126.799 89.7714 125.49C90.6156 125.921 91.4599 126.334 92.3042 126.782C96.3568 128.825 100.409 130.851 104.327 132.954C105.703 133.697 107.037 134.473 108.371 135.25C107.417 134.921 106.606 134.651 106.48 134.625C102.571 133.781 94.4909 134.364 92.2198 138.239C91.86 138.892 91.6419 139.614 91.5796 140.357C91.5174 141.101 91.6124 141.849 91.8585 142.553C92.1047 143.257 92.4963 143.901 93.0081 144.444C93.5198 144.987 94.1401 145.415 94.8286 145.702C97.7076 147.019 101.465 145.947 104.116 144.529C106.767 143.11 110.287 138.669 111.495 137.124C112.837 137.969 114.188 138.813 115.446 139.657C116.29 140.274 117.135 140.806 117.979 141.464L120.427 143.372C121.939 144.639 123.509 145.905 124.953 147.205C125.966 148.049 126.911 148.894 127.866 149.797C126.506 149.046 123.796 147.619 123.56 147.526C119.828 146.074 111.74 145.458 108.92 148.944C108.465 149.535 108.139 150.215 107.964 150.939C107.79 151.664 107.77 152.418 107.906 153.151C108.042 153.884 108.331 154.58 108.755 155.193C109.178 155.807 109.726 156.324 110.363 156.712C113.015 158.46 116.881 157.961 119.71 156.965C122.808 155.859 127.891 150.988 128.524 150.38C130.103 151.807 131.623 153.208 133.041 154.55C134.898 156.315 136.612 157.987 138.174 159.549C139.019 159.278 140.006 158.932 141.171 158.519C139.289 156.703 137.186 154.719 134.848 152.609C133.252 151.156 131.471 149.637 129.715 148.092C130.905 146.165 131.979 144.169 132.931 142.114C136.258 142.739 142.717 141.574 143.552 141.413C144.084 143.473 144.582 145.483 145.013 147.391C145.781 150.667 146.414 153.681 146.946 156.366C147.791 156.028 148.711 155.665 149.631 155.285C149.057 152.752 148.39 149.856 147.605 146.758C147.073 144.664 146.465 142.435 145.815 140.155C146.6 139.792 152.983 136.778 155.102 134.305C157.061 132.033 158.918 128.597 158.243 125.499C158.11 124.762 157.824 124.062 157.402 123.444C156.98 122.826 156.432 122.305 155.794 121.913C155.157 121.522 154.443 121.27 153.701 121.173C152.959 121.077 152.205 121.138 151.489 121.353C147.217 122.738 144.886 130.488 144.895 134.499C144.895 134.735 145.19 137.302 145.401 138.914C145.131 137.986 144.878 137.082 144.557 136.128C144 134.237 143.392 132.363 142.733 130.345L141.678 127.432C141.349 126.453 140.876 125.456 140.471 124.46C139.483 122.164 138.377 119.884 137.212 117.613C138.9 117.115 144.717 115.283 147.005 113.324C149.294 111.365 151.632 108.258 151.438 105.101C151.419 104.355 151.243 103.623 150.921 102.95C150.599 102.277 150.139 101.68 149.571 101.197C149.003 100.715 148.34 100.357 147.624 100.148C146.909 99.9389 146.157 99.8832 145.418 99.9843C140.986 100.702 137.499 108.013 136.899 111.982C136.899 112.226 136.756 115.114 136.731 116.71C136.013 115.35 135.312 113.983 134.544 112.632C132.34 108.731 129.985 104.847 127.646 100.964C126.928 99.7732 126.236 98.5828 125.527 97.3839C126.118 97.2235 133.125 95.1888 135.658 93.0021C137.929 91.0518 140.285 87.9364 140.091 84.7787C140.071 84.0332 139.895 83.3 139.574 82.6271C139.252 81.9541 138.792 81.3565 138.225 80.873C137.657 80.3895 136.993 80.0311 136.278 79.821C135.562 79.611 134.81 79.5541 134.071 79.6539C129.639 80.38 126.152 87.6831 125.561 91.6512C125.51 91.9467 125.358 96.109 125.375 97.1728C123.83 94.5471 122.31 91.9129 120.917 89.2534C119.011 85.6811 117.344 81.9863 115.927 78.1933C116.206 78.1173 123.526 76.0319 126.143 73.7861C128.414 71.8443 130.77 68.7204 130.576 65.5628C130.556 64.8172 130.38 64.0841 130.059 63.4111C129.737 62.7382 129.277 62.1405 128.709 61.6571C128.142 61.1736 127.478 60.8152 126.763 60.6051C126.047 60.3951 125.295 60.3381 124.556 60.438C120.123 61.1641 116.645 68.4756 116.046 72.4353C115.995 72.7477 115.834 77.2308 115.868 78.0413C115.784 77.8218 115.674 77.6023 115.598 77.3828C114.282 73.5359 113.307 69.5807 112.685 65.5628C112.314 63.3508 112.086 61.2147 111.909 59.1293C113.31 58.8845 119.71 57.6772 122.293 55.921C124.877 54.1649 127.452 51.3957 127.604 48.2296C127.666 47.4869 127.57 46.7394 127.324 46.0359C127.078 45.3324 126.687 44.6885 126.176 44.1462C125.664 43.6039 125.045 43.1752 124.357 42.8882C123.669 42.6011 122.929 42.462 122.183 42.48C117.7 42.708 113.428 49.5889 112.407 53.4557C112.348 53.6668 112.018 55.8704 111.799 57.483C111.731 56.5458 111.647 55.5749 111.605 54.6715C111.427 51.2944 111.469 48.1621 111.537 45.3844C111.588 43.8224 111.664 42.404 111.74 41.0785C112.989 40.116 117.979 36.1732 119.431 33.4799C120.883 30.7867 121.964 27.0887 120.605 24.1928C120.312 23.5189 119.882 22.9132 119.343 22.414C118.804 21.9147 118.167 21.5328 117.472 21.2923C116.778 21.0519 116.041 20.9582 115.309 21.0171C114.576 21.076 113.864 21.2863 113.217 21.6346Z" fill="#263238"/>
<path d="M46.2993 104.67C49.7186 103.885 55.9495 99.0472 55.9495 99.0387C55.9495 99.0303 51.517 95.9064 51.213 95.746C47.667 93.8717 39.7223 92.3689 36.5056 95.4674C35.9848 96.0016 35.5826 96.6397 35.3253 97.3399C35.068 98.0401 34.9614 98.7868 35.0124 99.5311C35.0634 100.275 35.2709 101 35.6213 101.659C35.9717 102.318 36.4572 102.895 37.0459 103.353C39.4775 105.388 43.3781 105.346 46.2993 104.67Z" fill="#263238"/>
<path d="M127.422 330.789C144.129 314.083 144.129 286.996 127.422 270.289C110.716 253.583 83.629 253.583 66.9224 270.289C50.2158 286.996 50.2158 314.083 66.9224 330.789C83.629 347.496 110.716 347.496 127.422 330.789Z" fill="white" stroke="#263238" stroke-width="0.844286" stroke-linecap="round" stroke-linejoin="round"/>
<path d="M118.413 264.876H120.22" stroke="#263238" stroke-width="0.844286" stroke-linecap="round" stroke-linejoin="round"/>
<path d="M122.474 268.033H124.948" stroke="#263238" stroke-width="0.844286" stroke-linecap="round" stroke-linejoin="round"/>
<path d="M126.982 272.542H129.009" stroke="#263238" stroke-width="0.844286" stroke-linecap="round" stroke-linejoin="round"/>
<path d="M131.491 278.629H133.517" stroke="#263238" stroke-width="0.844286" stroke-linecap="round" stroke-linejoin="round"/>
<path d="M135.552 286.971H137.806" stroke="#263238" stroke-width="0.844286" stroke-linecap="round" stroke-linejoin="round"/>
<path d="M137.468 300.538H139.95" stroke="#263238" stroke-width="0.844286" stroke-linecap="round" stroke-linejoin="round"/>
<path d="M118.413 335.669H120.22" stroke="#263238" stroke-width="0.844286" stroke-linecap="round" stroke-linejoin="round"/>
<path d="M122.474 332.52H124.948" stroke="#263238" stroke-width="0.844286" stroke-linecap="round" stroke-linejoin="round"/>
<path d="M126.982 328.003H129.009" stroke="#263238" stroke-width="0.844286" stroke-linecap="round" stroke-linejoin="round"/>
<path d="M131.491 321.916H133.517" stroke="#263238" stroke-width="0.844286" stroke-linecap="round" stroke-linejoin="round"/>
<path d="M135.552 313.574H137.806" stroke="#263238" stroke-width="0.844286" stroke-linecap="round" stroke-linejoin="round"/>
<path d="M136.368 310.214C141.715 287.201 127.393 264.21 104.379 258.863C81.3657 253.516 58.3748 267.837 53.0278 290.851C47.6808 313.865 62.0025 336.856 85.0162 342.203C108.03 347.55 131.021 333.228 136.368 310.214Z" fill="white" stroke="#263238" stroke-width="0.844286" stroke-linecap="round" stroke-linejoin="round"/>
<path d="M130.331 308.815C134.907 289.135 122.663 269.473 102.984 264.897C83.3051 260.321 63.6425 272.565 59.0666 292.244C54.4907 311.923 66.7344 331.586 86.4136 336.162C106.093 340.737 125.755 328.494 130.331 308.815Z" fill="white" stroke="#263238" stroke-width="0.844286" stroke-linecap="round" stroke-linejoin="round"/>
<path d="M91.6489 276.333V272.812H97.7362V276.333C103.021 277.422 105.732 281.483 105.732 287.916V289.402H98.6902V287.443C98.6902 284.066 97.3309 282.766 94.9669 282.766C92.6029 282.766 91.2352 284.058 91.2352 287.443C91.2352 297.195 105.799 297.668 105.799 311.21C105.799 317.644 103.021 321.772 97.7362 322.861V326.314H91.6489V322.861C86.2961 321.772 83.5859 317.644 83.5859 311.21V307.96H90.6273V311.717C90.6273 315.094 92.1217 316.326 94.4857 316.326C96.8497 316.326 98.3525 315.102 98.3525 311.717C98.3525 301.965 83.7886 301.492 83.7886 287.95C83.7886 281.55 86.4312 277.489 91.6489 276.333Z" fill="white" stroke="#263238" stroke-width="0.844286" stroke-linecap="round" stroke-linejoin="round"/>
<path d="M89.8421 276.333V272.812H95.9378V276.333C101.223 277.422 103.925 281.483 103.925 287.916V289.402H96.8834V287.443C96.8834 284.066 95.5326 282.766 93.1601 282.766C90.7877 282.766 89.4368 284.058 89.4368 287.443C89.4368 297.195 103.992 297.668 103.992 311.21C103.992 317.644 101.223 321.772 95.9378 322.861V326.314H89.8421V322.861C84.4893 321.772 81.7876 317.644 81.7876 311.21V307.96H88.8543V311.717C88.8543 315.094 90.3402 316.326 92.7127 316.326C95.0851 316.326 96.571 315.102 96.571 311.717C96.571 301.965 82.0155 301.492 82.0155 287.95C81.9902 281.55 84.6328 277.489 89.8421 276.333Z" fill="white" stroke="#263238" stroke-width="0.844286" stroke-linecap="round" stroke-linejoin="round"/>
<path d="M8.79925 229.078H81.0532V222.653H8.79925V229.078Z" fill="white" stroke="#263238" stroke-width="0.844286" stroke-linecap="round" stroke-linejoin="round"/>
<path d="M77.2285 222.797V228.799" stroke="#263238" stroke-width="0.844286" stroke-linecap="round" stroke-linejoin="round"/>
<path d="M79.3223 222.797V228.799" stroke="#263238" stroke-width="0.844286" stroke-linecap="round" stroke-linejoin="round"/>
<path d="M73.0581 222.797V228.799" stroke="#263238" stroke-width="0.844286" stroke-linecap="round" stroke-linejoin="round"/>
<path d="M68.8784 222.797V228.799" stroke="#263238" stroke-width="0.844286" stroke-linecap="round" stroke-linejoin="round"/>
<path d="M64.708 222.797V228.799" stroke="#263238" stroke-width="0.844286" stroke-linecap="round" stroke-linejoin="round"/>
<path d="M60.5288 222.797V228.799" stroke="#263238" stroke-width="0.844286" stroke-linecap="round" stroke-linejoin="round"/>
<path d="M54.2725 222.797V228.799" stroke="#263238" stroke-width="0.844286" stroke-linecap="round" stroke-linejoin="round"/>
<path d="M43.8286 222.797V228.799" stroke="#263238" stroke-width="0.844286" stroke-linecap="round" stroke-linejoin="round"/>
<path d="M8.79925 235.832H81.0532V229.407H8.79925V235.832Z" fill="white" stroke="#263238" stroke-width="0.844286" stroke-linecap="round" stroke-linejoin="round"/>
<path d="M77.2285 229.551V235.554" stroke="#263238" stroke-width="0.844286" stroke-linecap="round" stroke-linejoin="round"/>
<path d="M79.3223 229.551V235.554" stroke="#263238" stroke-width="0.844286" stroke-linecap="round" stroke-linejoin="round"/>
<path d="M73.0581 229.551V235.554" stroke="#263238" stroke-width="0.844286" stroke-linecap="round" stroke-linejoin="round"/>
<path d="M68.8784 229.551V235.554" stroke="#263238" stroke-width="0.844286" stroke-linecap="round" stroke-linejoin="round"/>
<path d="M64.708 229.551V235.554" stroke="#263238" stroke-width="0.844286" stroke-linecap="round" stroke-linejoin="round"/>
<path d="M60.5288 229.551V235.554" stroke="#263238" stroke-width="0.844286" stroke-linecap="round" stroke-linejoin="round"/>
<path d="M54.2725 229.551V235.554" stroke="#263238" stroke-width="0.844286" stroke-linecap="round" stroke-linejoin="round"/>
<path d="M43.8286 229.551V235.554" stroke="#263238" stroke-width="0.844286" stroke-linecap="round" stroke-linejoin="round"/>
<path d="M8.79925 222.425H81.0532V216H8.79925V222.425Z" fill="white" stroke="#263238" stroke-width="0.844286" stroke-linecap="round" stroke-linejoin="round"/>
<path d="M77.2285 216.144V222.146" stroke="#263238" stroke-width="0.844286" stroke-linecap="round" stroke-linejoin="round"/>
<path d="M79.3223 216.144V222.146" stroke="#263238" stroke-width="0.844286" stroke-linecap="round" stroke-linejoin="round"/>
<path d="M73.0581 216.144V222.146" stroke="#263238" stroke-width="0.844286" stroke-linecap="round" stroke-linejoin="round"/>
<path d="M68.8784 216.144V222.146" stroke="#263238" stroke-width="0.844286" stroke-linecap="round" stroke-linejoin="round"/>
<path d="M64.708 216.144V222.146" stroke="#263238" stroke-width="0.844286" stroke-linecap="round" stroke-linejoin="round"/>
<path d="M60.5288 216.144V222.146" stroke="#263238" stroke-width="0.844286" stroke-linecap="round" stroke-linejoin="round"/>
<path d="M54.2725 216.144V222.146" stroke="#263238" stroke-width="0.844286" stroke-linecap="round" stroke-linejoin="round"/>
<path d="M43.8286 216.144V222.146" stroke="#263238" stroke-width="0.844286" stroke-linecap="round" stroke-linejoin="round"/>
<path d="M8.79925 242.587H81.0532V236.162H8.79925V242.587Z" fill="white" stroke="#263238" stroke-width="0.844286" stroke-linecap="round" stroke-linejoin="round"/>
<path d="M77.2285 236.305V242.308" stroke="#263238" stroke-width="0.844286" stroke-linecap="round" stroke-linejoin="round"/>
<path d="M79.3223 236.305V242.308" stroke="#263238" stroke-width="0.844286" stroke-linecap="round" stroke-linejoin="round"/>
<path d="M73.0581 236.305V242.308" stroke="#263238" stroke-width="0.844286" stroke-linecap="round" stroke-linejoin="round"/>
<path d="M68.8784 236.305V242.308" stroke="#263238" stroke-width="0.844286" stroke-linecap="round" stroke-linejoin="round"/>
<path d="M64.708 236.305V242.308" stroke="#263238" stroke-width="0.844286" stroke-linecap="round" stroke-linejoin="round"/>
<path d="M60.5288 236.305V242.308" stroke="#263238" stroke-width="0.844286" stroke-linecap="round" stroke-linejoin="round"/>
<path d="M54.2725 236.305V242.308" stroke="#263238" stroke-width="0.844286" stroke-linecap="round" stroke-linejoin="round"/>
<path d="M43.8286 236.305V242.308" stroke="#263238" stroke-width="0.844286" stroke-linecap="round" stroke-linejoin="round"/>
<path d="M10.4877 249.341H82.7417V242.916H10.4877V249.341Z" fill="white" stroke="#263238" stroke-width="0.844286" stroke-linecap="round" stroke-linejoin="round"/>
<path d="M78.917 243.059V249.062" stroke="#263238" stroke-width="0.844286" stroke-linecap="round" stroke-linejoin="round"/>
<path d="M81.0112 243.059V249.062" stroke="#263238" stroke-width="0.844286" stroke-linecap="round" stroke-linejoin="round"/>
<path d="M74.7466 243.059V249.062" stroke="#263238" stroke-width="0.844286" stroke-linecap="round" stroke-linejoin="round"/>
<path d="M70.5674 243.059V249.062" stroke="#263238" stroke-width="0.844286" stroke-linecap="round" stroke-linejoin="round"/>
<path d="M66.3965 243.059V249.062" stroke="#263238" stroke-width="0.844286" stroke-linecap="round" stroke-linejoin="round"/>
<path d="M62.2173 243.059V249.062" stroke="#263238" stroke-width="0.844286" stroke-linecap="round" stroke-linejoin="round"/>
<path d="M55.9609 243.059V249.062" stroke="#263238" stroke-width="0.844286" stroke-linecap="round" stroke-linejoin="round"/>
<path d="M45.5171 243.059V249.062" stroke="#263238" stroke-width="0.844286" stroke-linecap="round" stroke-linejoin="round"/>
<path d="M8.79925 256.095H81.0532V249.67H8.79925V256.095Z" fill="white" stroke="#263238" stroke-width="0.844286" stroke-linecap="round" stroke-linejoin="round"/>
<path d="M77.2285 249.814V255.817" stroke="#263238" stroke-width="0.844286" stroke-linecap="round" stroke-linejoin="round"/>
<path d="M79.3223 249.814V255.817" stroke="#263238" stroke-width="0.844286" stroke-linecap="round" stroke-linejoin="round"/>
<path d="M73.0581 249.814V255.817" stroke="#263238" stroke-width="0.844286" stroke-linecap="round" stroke-linejoin="round"/>
<path d="M68.8784 249.814V255.817" stroke="#263238" stroke-width="0.844286" stroke-linecap="round" stroke-linejoin="round"/>
<path d="M64.708 249.814V255.817" stroke="#263238" stroke-width="0.844286" stroke-linecap="round" stroke-linejoin="round"/>
<path d="M60.5288 249.814V255.817" stroke="#263238" stroke-width="0.844286" stroke-linecap="round" stroke-linejoin="round"/>
<path d="M54.2725 249.814V255.817" stroke="#263238" stroke-width="0.844286" stroke-linecap="round" stroke-linejoin="round"/>
<path d="M43.8286 249.814V255.817" stroke="#263238" stroke-width="0.844286" stroke-linecap="round" stroke-linejoin="round"/>
<path d="M12.1762 262.849H84.4302V256.424H12.1762V262.849Z" fill="white" stroke="#263238" stroke-width="0.844286" stroke-linecap="round" stroke-linejoin="round"/>
<path d="M80.606 256.568V262.571" stroke="#263238" stroke-width="0.844286" stroke-linecap="round" stroke-linejoin="round"/>
<path d="M82.6997 256.568V262.571" stroke="#263238" stroke-width="0.844286" stroke-linecap="round" stroke-linejoin="round"/>
<path d="M76.4351 256.568V262.571" stroke="#263238" stroke-width="0.844286" stroke-linecap="round" stroke-linejoin="round"/>
<path d="M72.2559 256.568V262.571" stroke="#263238" stroke-width="0.844286" stroke-linecap="round" stroke-linejoin="round"/>
<path d="M68.085 256.568V262.571" stroke="#263238" stroke-width="0.844286" stroke-linecap="round" stroke-linejoin="round"/>
<path d="M63.9058 256.568V262.571" stroke="#263238" stroke-width="0.844286" stroke-linecap="round" stroke-linejoin="round"/>
<path d="M57.6494 256.568V262.571" stroke="#263238" stroke-width="0.844286" stroke-linecap="round" stroke-linejoin="round"/>
<path d="M47.2061 256.568V262.571" stroke="#263238" stroke-width="0.844286" stroke-linecap="round" stroke-linejoin="round"/>
<path d="M13.4428 269.604H85.6968V263.179H13.4428V269.604Z" fill="white" stroke="#263238" stroke-width="0.844286" stroke-linecap="round" stroke-linejoin="round"/>
<path d="M81.8721 263.322V269.325" stroke="#263238" stroke-width="0.844286" stroke-linecap="round" stroke-linejoin="round"/>
<path d="M83.9658 263.322V269.325" stroke="#263238" stroke-width="0.844286" stroke-linecap="round" stroke-linejoin="round"/>
<path d="M77.7017 263.322V269.325" stroke="#263238" stroke-width="0.844286" stroke-linecap="round" stroke-linejoin="round"/>
<path d="M73.5225 263.322V269.325" stroke="#263238" stroke-width="0.844286" stroke-linecap="round" stroke-linejoin="round"/>
<path d="M69.3516 263.322V269.325" stroke="#263238" stroke-width="0.844286" stroke-linecap="round" stroke-linejoin="round"/>
<path d="M65.1724 263.322V269.325" stroke="#263238" stroke-width="0.844286" stroke-linecap="round" stroke-linejoin="round"/>
<path d="M58.916 263.322V269.325" stroke="#263238" stroke-width="0.844286" stroke-linecap="round" stroke-linejoin="round"/>
<path d="M48.4722 263.322V269.325" stroke="#263238" stroke-width="0.844286" stroke-linecap="round" stroke-linejoin="round"/>
<path d="M10.0658 276.358H82.3198V269.933H10.0658V276.358Z" fill="white" stroke="#263238" stroke-width="0.844286" stroke-linecap="round" stroke-linejoin="round"/>
<path d="M78.4951 270.077V276.079" stroke="#263238" stroke-width="0.844286" stroke-linecap="round" stroke-linejoin="round"/>
<path d="M80.5889 270.077V276.079" stroke="#263238" stroke-width="0.844286" stroke-linecap="round" stroke-linejoin="round"/>
<path d="M74.3242 270.077V276.079" stroke="#263238" stroke-width="0.844286" stroke-linecap="round" stroke-linejoin="round"/>
<path d="M70.145 270.077V276.079" stroke="#263238" stroke-width="0.844286" stroke-linecap="round" stroke-linejoin="round"/>
<path d="M65.9741 270.077V276.079" stroke="#263238" stroke-width="0.844286" stroke-linecap="round" stroke-linejoin="round"/>
<path d="M61.7949 270.077V276.079" stroke="#263238" stroke-width="0.844286" stroke-linecap="round" stroke-linejoin="round"/>
<path d="M55.5391 270.077V276.079" stroke="#263238" stroke-width="0.844286" stroke-linecap="round" stroke-linejoin="round"/>
<path d="M45.0952 270.077V276.079" stroke="#263238" stroke-width="0.844286" stroke-linecap="round" stroke-linejoin="round"/>
<path d="M11.9316 283.112H84.1855V276.687H11.9316V283.112Z" fill="white" stroke="#263238" stroke-width="0.844286" stroke-linecap="round" stroke-linejoin="round"/>
<path d="M80.3608 276.831V282.834" stroke="#263238" stroke-width="0.844286" stroke-linecap="round" stroke-linejoin="round"/>
<path d="M82.4546 276.831V282.834" stroke="#263238" stroke-width="0.844286" stroke-linecap="round" stroke-linejoin="round"/>
<path d="M76.1899 276.831V282.834" stroke="#263238" stroke-width="0.844286" stroke-linecap="round" stroke-linejoin="round"/>
<path d="M72.0107 276.831V282.834" stroke="#263238" stroke-width="0.844286" stroke-linecap="round" stroke-linejoin="round"/>
<path d="M67.8403 276.831V282.834" stroke="#263238" stroke-width="0.844286" stroke-linecap="round" stroke-linejoin="round"/>
<path d="M63.6611 276.831V282.834" stroke="#263238" stroke-width="0.844286" stroke-linecap="round" stroke-linejoin="round"/>
<path d="M57.4048 276.831V282.834" stroke="#263238" stroke-width="0.844286" stroke-linecap="round" stroke-linejoin="round"/>
<path d="M46.9609 276.831V282.834" stroke="#263238" stroke-width="0.844286" stroke-linecap="round" stroke-linejoin="round"/>
<path d="M8.79925 289.867H81.0532V283.442H8.79925V289.867Z" fill="white" stroke="#263238" stroke-width="0.844286" stroke-linecap="round" stroke-linejoin="round"/>
<path d="M77.2285 283.585V289.588" stroke="#263238" stroke-width="0.844286" stroke-linecap="round" stroke-linejoin="round"/>
<path d="M79.3223 283.585V289.588" stroke="#263238" stroke-width="0.844286" stroke-linecap="round" stroke-linejoin="round"/>
<path d="M73.0581 283.585V289.588" stroke="#263238" stroke-width="0.844286" stroke-linecap="round" stroke-linejoin="round"/>
<path d="M68.8784 283.585V289.588" stroke="#263238" stroke-width="0.844286" stroke-linecap="round" stroke-linejoin="round"/>
<path d="M64.708 283.585V289.588" stroke="#263238" stroke-width="0.844286" stroke-linecap="round" stroke-linejoin="round"/>
<path d="M60.5288 283.585V289.588" stroke="#263238" stroke-width="0.844286" stroke-linecap="round" stroke-linejoin="round"/>
<path d="M54.2725 283.585V289.588" stroke="#263238" stroke-width="0.844286" stroke-linecap="round" stroke-linejoin="round"/>
<path d="M43.8286 283.585V289.588" stroke="#263238" stroke-width="0.844286" stroke-linecap="round" stroke-linejoin="round"/>
<path d="M8.79925 296.621H81.0532V290.196H8.79925V296.621Z" fill="white" stroke="#263238" stroke-width="0.844286" stroke-linecap="round" stroke-linejoin="round"/>
<path d="M77.2285 290.339V296.342" stroke="#263238" stroke-width="0.844286" stroke-linecap="round" stroke-linejoin="round"/>
<path d="M79.3223 290.339V296.342" stroke="#263238" stroke-width="0.844286" stroke-linecap="round" stroke-linejoin="round"/>
<path d="M73.0581 290.339V296.342" stroke="#263238" stroke-width="0.844286" stroke-linecap="round" stroke-linejoin="round"/>
<path d="M68.8784 290.339V296.342" stroke="#263238" stroke-width="0.844286" stroke-linecap="round" stroke-linejoin="round"/>
<path d="M64.708 290.339V296.342" stroke="#263238" stroke-width="0.844286" stroke-linecap="round" stroke-linejoin="round"/>
<path d="M60.5288 290.339V296.342" stroke="#263238" stroke-width="0.844286" stroke-linecap="round" stroke-linejoin="round"/>
<path d="M54.2725 290.339V296.342" stroke="#263238" stroke-width="0.844286" stroke-linecap="round" stroke-linejoin="round"/>
<path d="M43.8286 290.339V296.342" stroke="#263238" stroke-width="0.844286" stroke-linecap="round" stroke-linejoin="round"/>
<path d="M4.99993 303.375H77.2539V296.95H4.99993V303.375Z" fill="white" stroke="#263238" stroke-width="0.844286" stroke-linecap="round" stroke-linejoin="round"/>
<path d="M73.4292 297.094V303.097" stroke="#263238" stroke-width="0.844286" stroke-linecap="round" stroke-linejoin="round"/>
<path d="M75.5234 297.094V303.097" stroke="#263238" stroke-width="0.844286" stroke-linecap="round" stroke-linejoin="round"/>
<path d="M69.2588 297.094V303.097" stroke="#263238" stroke-width="0.844286" stroke-linecap="round" stroke-linejoin="round"/>
<path d="M65.0796 297.094V303.097" stroke="#263238" stroke-width="0.844286" stroke-linecap="round" stroke-linejoin="round"/>
<path d="M60.9087 297.094V303.097" stroke="#263238" stroke-width="0.844286" stroke-linecap="round" stroke-linejoin="round"/>
<path d="M56.7295 297.094V303.097" stroke="#263238" stroke-width="0.844286" stroke-linecap="round" stroke-linejoin="round"/>
<path d="M50.4731 297.094V303.097" stroke="#263238" stroke-width="0.844286" stroke-linecap="round" stroke-linejoin="round"/>
<path d="M40.0293 297.094V303.097" stroke="#263238" stroke-width="0.844286" stroke-linecap="round" stroke-linejoin="round"/>
<path d="M6.68841 310.129H78.9424V303.704H6.68841V310.129Z" fill="white" stroke="#263238" stroke-width="0.844286" stroke-linecap="round" stroke-linejoin="round"/>
<path d="M75.1182 303.848V309.851" stroke="#263238" stroke-width="0.844286" stroke-linecap="round" stroke-linejoin="round"/>
<path d="M77.2119 303.848V309.851" stroke="#263238" stroke-width="0.844286" stroke-linecap="round" stroke-linejoin="round"/>
<path d="M70.9473 303.848V309.851" stroke="#263238" stroke-width="0.844286" stroke-linecap="round" stroke-linejoin="round"/>
<path d="M66.7681 303.848V309.851" stroke="#263238" stroke-width="0.844286" stroke-linecap="round" stroke-linejoin="round"/>
<path d="M62.5972 303.848V309.851" stroke="#263238" stroke-width="0.844286" stroke-linecap="round" stroke-linejoin="round"/>
<path d="M58.418 303.848V309.851" stroke="#263238" stroke-width="0.844286" stroke-linecap="round" stroke-linejoin="round"/>
<path d="M52.1616 303.848V309.851" stroke="#263238" stroke-width="0.844286" stroke-linecap="round" stroke-linejoin="round"/>
<path d="M41.7178 303.848V309.851" stroke="#263238" stroke-width="0.844286" stroke-linecap="round" stroke-linejoin="round"/>
<path d="M7.11077 316.884H79.3647V310.459H7.11077V316.884Z" fill="white" stroke="#263238" stroke-width="0.844286" stroke-linecap="round" stroke-linejoin="round"/>
<path d="M75.54 310.602V316.605" stroke="#263238" stroke-width="0.844286" stroke-linecap="round" stroke-linejoin="round"/>
<path d="M77.6338 310.602V316.605" stroke="#263238" stroke-width="0.844286" stroke-linecap="round" stroke-linejoin="round"/>
<path d="M71.3691 310.602V316.605" stroke="#263238" stroke-width="0.844286" stroke-linecap="round" stroke-linejoin="round"/>
<path d="M67.1899 310.602V316.605" stroke="#263238" stroke-width="0.844286" stroke-linecap="round" stroke-linejoin="round"/>
<path d="M63.0195 310.602V316.605" stroke="#263238" stroke-width="0.844286" stroke-linecap="round" stroke-linejoin="round"/>
<path d="M58.8403 310.602V316.605" stroke="#263238" stroke-width="0.844286" stroke-linecap="round" stroke-linejoin="round"/>
<path d="M52.584 310.602V316.605" stroke="#263238" stroke-width="0.844286" stroke-linecap="round" stroke-linejoin="round"/>
<path d="M42.1401 310.602V316.605" stroke="#263238" stroke-width="0.844286" stroke-linecap="round" stroke-linejoin="round"/>
<path d="M8.79925 323.638H81.0532V317.213H8.79925V323.638Z" fill="white" stroke="#263238" stroke-width="0.844286" stroke-linecap="round" stroke-linejoin="round"/>
<path d="M77.2285 317.357V323.359" stroke="#263238" stroke-width="0.844286" stroke-linecap="round" stroke-linejoin="round"/>
<path d="M79.3223 317.357V323.359" stroke="#263238" stroke-width="0.844286" stroke-linecap="round" stroke-linejoin="round"/>
<path d="M73.0581 317.357V323.359" stroke="#263238" stroke-width="0.844286" stroke-linecap="round" stroke-linejoin="round"/>
<path d="M68.8784 317.357V323.359" stroke="#263238" stroke-width="0.844286" stroke-linecap="round" stroke-linejoin="round"/>
<path d="M64.708 317.357V323.359" stroke="#263238" stroke-width="0.844286" stroke-linecap="round" stroke-linejoin="round"/>
<path d="M60.5288 317.357V323.359" stroke="#263238" stroke-width="0.844286" stroke-linecap="round" stroke-linejoin="round"/>
<path d="M54.2725 317.357V323.359" stroke="#263238" stroke-width="0.844286" stroke-linecap="round" stroke-linejoin="round"/>
<path d="M43.8286 317.357V323.359" stroke="#263238" stroke-width="0.844286" stroke-linecap="round" stroke-linejoin="round"/>
<path d="M8.79925 330.392H81.0532V323.967H8.79925V330.392Z" fill="white" stroke="#263238" stroke-width="0.844286" stroke-linecap="round" stroke-linejoin="round"/>
<path d="M77.2285 324.111V330.114" stroke="#263238" stroke-width="0.844286" stroke-linecap="round" stroke-linejoin="round"/>
<path d="M79.3223 324.111V330.114" stroke="#263238" stroke-width="0.844286" stroke-linecap="round" stroke-linejoin="round"/>
<path d="M73.0581 324.111V330.114" stroke="#263238" stroke-width="0.844286" stroke-linecap="round" stroke-linejoin="round"/>
<path d="M68.8784 324.111V330.114" stroke="#263238" stroke-width="0.844286" stroke-linecap="round" stroke-linejoin="round"/>
<path d="M64.708 324.111V330.114" stroke="#263238" stroke-width="0.844286" stroke-linecap="round" stroke-linejoin="round"/>
<path d="M60.5288 324.111V330.114" stroke="#263238" stroke-width="0.844286" stroke-linecap="round" stroke-linejoin="round"/>
<path d="M54.2725 324.111V330.114" stroke="#263238" stroke-width="0.844286" stroke-linecap="round" stroke-linejoin="round"/>
<path d="M43.8286 324.111V330.114" stroke="#263238" stroke-width="0.844286" stroke-linecap="round" stroke-linejoin="round"/>
<path d="M7.11077 337.147H79.3647V330.722H7.11077V337.147Z" fill="white" stroke="#263238" stroke-width="0.844286" stroke-linecap="round" stroke-linejoin="round"/>
<path d="M75.54 330.865V336.868" stroke="#263238" stroke-width="0.844286" stroke-linecap="round" stroke-linejoin="round"/>
<path d="M77.6338 330.865V336.868" stroke="#263238" stroke-width="0.844286" stroke-linecap="round" stroke-linejoin="round"/>
<path d="M71.3691 330.865V336.868" stroke="#263238" stroke-width="0.844286" stroke-linecap="round" stroke-linejoin="round"/>
<path d="M67.1899 330.865V336.868" stroke="#263238" stroke-width="0.844286" stroke-linecap="round" stroke-linejoin="round"/>
<path d="M63.0195 330.865V336.868" stroke="#263238" stroke-width="0.844286" stroke-linecap="round" stroke-linejoin="round"/>
<path d="M58.8403 330.865V336.868" stroke="#263238" stroke-width="0.844286" stroke-linecap="round" stroke-linejoin="round"/>
<path d="M52.584 330.865V336.868" stroke="#263238" stroke-width="0.844286" stroke-linecap="round" stroke-linejoin="round"/>
<path d="M42.1401 330.865V336.868" stroke="#263238" stroke-width="0.844286" stroke-linecap="round" stroke-linejoin="round"/>
<path d="M8.79925 343.901H81.0532V337.476H8.79925V343.901Z" fill="white" stroke="#263238" stroke-width="0.844286" stroke-linecap="round" stroke-linejoin="round"/>
<path d="M77.2285 337.619V343.622" stroke="#263238" stroke-width="0.844286" stroke-linecap="round" stroke-linejoin="round"/>
<path d="M79.3223 337.619V343.622" stroke="#263238" stroke-width="0.844286" stroke-linecap="round" stroke-linejoin="round"/>
<path d="M73.0581 337.619V343.622" stroke="#263238" stroke-width="0.844286" stroke-linecap="round" stroke-linejoin="round"/>
<path d="M68.8784 337.619V343.622" stroke="#263238" stroke-width="0.844286" stroke-linecap="round" stroke-linejoin="round"/>
<path d="M64.708 337.619V343.622" stroke="#263238" stroke-width="0.844286" stroke-linecap="round" stroke-linejoin="round"/>
<path d="M60.5288 337.619V343.622" stroke="#263238" stroke-width="0.844286" stroke-linecap="round" stroke-linejoin="round"/>
<path d="M54.2725 337.619V343.622" stroke="#263238" stroke-width="0.844286" stroke-linecap="round" stroke-linejoin="round"/>
<path d="M43.8286 337.619V343.622" stroke="#263238" stroke-width="0.844286" stroke-linecap="round" stroke-linejoin="round"/>
<path d="M418.472 316.504C412.63 310.003 396.765 305.342 378.098 305.342C360.664 305.342 345.678 309.412 339.016 315.246L335.318 315.187V322.025C335.318 331.237 354.475 338.708 378.098 338.708C401.721 338.708 420.878 331.237 420.878 322.025V316.546L418.472 316.504Z" fill="white" stroke="#263238" stroke-width="0.844286" stroke-linecap="round" stroke-linejoin="round"/>
<path d="M378.098 333.229C401.725 333.229 420.878 325.76 420.878 316.546C420.878 307.332 401.725 299.863 378.098 299.863C354.472 299.863 335.318 307.332 335.318 316.546C335.318 325.76 354.472 333.229 378.098 333.229Z" fill="white" stroke="#263238" stroke-width="0.844286" stroke-linecap="round" stroke-linejoin="round"/>
<path d="M378.099 330.814C398.303 330.814 414.681 324.426 414.681 316.546C414.681 308.666 398.303 302.278 378.099 302.278C357.894 302.278 341.516 308.666 341.516 316.546C341.516 324.426 357.894 330.814 378.099 330.814Z" fill="white" stroke="#263238" stroke-width="0.844286" stroke-linecap="round" stroke-linejoin="round"/>
<path d="M375.067 307.107V305.731H381.163V307.107C386.448 307.529 389.158 309.116 389.158 311.624V312.206H382.109V311.438C382.109 310.121 380.758 309.614 378.385 309.614C376.013 309.614 374.662 310.121 374.662 311.438C374.662 315.246 389.226 315.432 389.226 320.725C389.226 323.258 386.448 324.845 381.163 325.267V326.618H375.067V325.225C369.723 324.803 367.013 323.191 367.013 320.683V319.417H374.054V320.869C374.054 322.194 375.54 322.667 377.912 322.667C380.285 322.667 381.771 322.194 381.771 320.869C381.771 317.069 367.215 316.884 367.215 311.582C367.198 309.184 369.841 307.554 375.067 307.107Z" fill="white" stroke="#263238" stroke-width="0.844286" stroke-linecap="round" stroke-linejoin="round"/>
<path d="M375.067 306.119V304.751H381.163V306.119C386.448 306.541 389.158 308.128 389.158 310.636V311.219H382.109V310.45C382.109 309.133 380.758 308.635 378.385 308.635C376.013 308.635 374.662 309.133 374.662 310.45C374.662 314.258 389.226 314.444 389.226 319.737C389.226 322.27 386.448 323.858 381.163 324.28V325.622H375.067V324.28C369.723 323.858 367.013 322.245 367.013 319.737V318.471H374.054V319.923C374.054 321.249 375.54 321.721 377.912 321.721C380.285 321.721 381.771 321.249 381.771 319.923C381.771 316.124 367.215 315.938 367.215 310.636C367.198 308.154 369.841 306.575 375.067 306.119Z" fill="white" stroke="#263238" stroke-width="0.844286" stroke-linecap="round" stroke-linejoin="round"/>
<path d="M338.062 327.91V323.005" stroke="#263238" stroke-width="0.844286" stroke-linecap="round" stroke-linejoin="round"/>
<path d="M341.38 330.164V325.656" stroke="#263238" stroke-width="0.844286" stroke-linecap="round" stroke-linejoin="round"/>
<path d="M344.96 332.283V327.387" stroke="#263238" stroke-width="0.844286" stroke-linecap="round" stroke-linejoin="round"/>
<path d="M349.865 334.411V329.109" stroke="#263238" stroke-width="0.844286" stroke-linecap="round" stroke-linejoin="round"/>
<path d="M355.699 333.297V330.958" stroke="#263238" stroke-width="0.844286" stroke-linecap="round" stroke-linejoin="round"/>
<path d="M355.699 336.133V335.205" stroke="#263238" stroke-width="0.844286" stroke-linecap="round" stroke-linejoin="round"/>
<path d="M363.247 337.721V332.554" stroke="#263238" stroke-width="0.844286" stroke-linecap="round" stroke-linejoin="round"/>
<path d="M373.328 334.943V333.086" stroke="#263238" stroke-width="0.844286" stroke-linecap="round" stroke-linejoin="round"/>
<path d="M373.328 338.514V337.062" stroke="#263238" stroke-width="0.844286" stroke-linecap="round" stroke-linejoin="round"/>
<path d="M462.552 327.665C457.157 320.388 441.631 314.351 423.006 313.051C405.613 311.826 390.391 315.077 383.324 320.767L379.635 320.447L379.187 327.665C378.579 337.4 397.196 346.619 420.768 348.274C444.341 349.929 463.979 343.386 464.561 333.668L464.925 327.885L462.552 327.665Z" fill="white" stroke="#263238" stroke-width="0.844286" stroke-linecap="round" stroke-linejoin="round"/>
<path d="M465.206 326.026C465.888 316.281 447.284 307.04 423.652 305.386C400.021 303.731 380.311 310.291 379.629 320.036C378.947 329.781 397.551 339.023 421.182 340.677C444.813 342.331 464.523 335.772 465.206 326.026Z" fill="white" stroke="#263238" stroke-width="0.846352" stroke-linecap="round" stroke-linejoin="round"/>
<path d="M458.759 327.49C459.355 319.174 443.498 311.262 423.34 309.817C403.183 308.372 386.359 313.942 385.763 322.258C385.167 330.574 401.025 338.486 421.182 339.931C441.339 341.376 458.163 335.806 458.759 327.49Z" fill="white" stroke="#263238" stroke-width="0.844286" stroke-linecap="round" stroke-linejoin="round"/>
<path d="M419.814 314.697L419.907 313.253L425.986 313.675L425.893 315.128C431.136 315.972 433.737 317.804 433.568 320.455V321.071L426.543 320.573L426.594 319.729C426.678 318.336 425.361 317.711 422.997 317.551C420.633 317.39 419.24 317.821 419.156 319.239C418.902 323.25 433.424 324.465 433.07 330.046C432.909 332.689 430.03 334.2 424.728 334.268L424.644 335.686L418.556 335.264L418.649 333.837C413.339 332.993 410.738 331.127 410.907 328.484L410.992 327.142L418.016 327.631L417.923 329.168C417.839 330.561 419.291 331.169 421.655 331.338C424.019 331.507 425.539 331.101 425.623 329.708C425.876 325.69 411.363 324.482 411.709 318.902C411.878 316.301 414.614 314.807 419.814 314.697Z" fill="white" stroke="#263238" stroke-width="0.844286" stroke-linecap="round" stroke-linejoin="round"/>
<path d="M419.916 313.659L420.009 312.206L426.088 312.637L425.995 314.089C431.238 314.933 433.838 316.766 433.669 319.417V320.024L426.636 319.535L426.687 318.69C426.78 317.297 425.463 316.673 423.09 316.504C420.718 316.335 419.342 316.774 419.257 318.192C419.004 322.211 433.517 323.427 433.171 329.008C433.002 331.65 430.132 333.162 424.83 333.229L424.737 334.647L418.658 334.225L418.751 332.799C413.44 331.954 410.84 330.088 411.009 327.437L411.093 326.103L418.118 326.593L418.025 328.13C417.932 329.523 419.392 330.131 421.756 330.291C424.12 330.451 425.64 330.063 425.725 328.67C425.978 324.651 411.465 323.435 411.811 317.863C411.937 315.254 414.681 313.768 419.916 313.659Z" fill="white" stroke="#263238" stroke-width="0.844286" stroke-linecap="round" stroke-linejoin="round"/>
<path d="M381.568 334.073L381.889 328.898" stroke="#263238" stroke-width="0.844286" stroke-linecap="round" stroke-linejoin="round"/>
<path d="M384.726 336.691L385.022 331.929" stroke="#263238" stroke-width="0.844286" stroke-linecap="round" stroke-linejoin="round"/>
<path d="M388.154 339.181L388.483 333.997" stroke="#263238" stroke-width="0.844286" stroke-linecap="round" stroke-linejoin="round"/>
<path d="M392.907 341.756L393.262 336.159" stroke="#263238" stroke-width="0.844286" stroke-linecap="round" stroke-linejoin="round"/>
<path d="M398.8 340.997L398.961 338.531" stroke="#263238" stroke-width="0.844286" stroke-linecap="round" stroke-linejoin="round"/>
<path d="M398.614 343.985L398.673 343.006" stroke="#263238" stroke-width="0.844286" stroke-linecap="round" stroke-linejoin="round"/>
<path d="M406.053 346.197L406.39 340.735" stroke="#263238" stroke-width="0.844286" stroke-linecap="round" stroke-linejoin="round"/>
<path d="M416.285 343.96L416.412 342.001" stroke="#263238" stroke-width="0.844286" stroke-linecap="round" stroke-linejoin="round"/>
<path d="M416.049 347.742L416.142 346.197" stroke="#263238" stroke-width="0.844286" stroke-linecap="round" stroke-linejoin="round"/>
<path d="M219.664 202.845L99.1988 241.938C88.8164 209.968 91.5562 175.183 106.816 145.234C122.076 115.284 148.606 92.6204 180.572 82.2276C193.17 78.0094 206.379 75.9061 219.664 76.0032V202.845Z" fill="#A23834" stroke="#A23834" stroke-width="2.12907" stroke-linecap="round" stroke-linejoin="round"/>
<path d="M219.669 202.846L294.173 305.322C266.982 325.065 233.064 333.202 199.876 327.942C166.688 322.682 136.947 304.457 117.194 277.274C109.287 266.57 103.208 254.63 99.2036 241.939L219.669 202.846Z" fill="#A23834" stroke="#A23834" stroke-width="2.12907" stroke-linecap="round" stroke-linejoin="round"/>
<path d="M219.662 202.835L340.203 163.667C348.788 189.08 348.953 216.584 340.674 242.099C332.395 267.613 316.112 289.78 294.241 305.311L219.662 202.835Z" fill="#263238" stroke="#263238" stroke-width="2.12907" stroke-linecap="round" stroke-linejoin="round"/>
<path d="M219.662 202.841V76.0752C246.503 75.7701 272.727 84.1279 294.442 99.908C316.156 115.688 332.204 138.049 340.203 163.673L219.662 202.841Z" fill="#A23834" stroke="#A23834" stroke-width="2.12907" stroke-linecap="round" stroke-linejoin="round"/>
<path d="M220.664 202.365L319.433 122.902C336.496 143.624 346.422 169.295 347.739 196.106C349.056 222.916 341.693 249.437 326.743 271.731L220.664 202.365Z" fill="#A23834" stroke="#A23834" stroke-width="2.12907" stroke-linecap="round" stroke-linejoin="round"/>
<path d="M219.855 281.787C263.497 281.787 298.875 246.408 298.875 202.767C298.875 159.125 263.497 123.747 219.855 123.747C176.214 123.747 140.835 159.125 140.835 202.767C140.835 246.408 176.214 281.787 219.855 281.787Z" fill="white" stroke="#263238" stroke-width="2.12907" stroke-linecap="round" stroke-linejoin="round"/>
<path d="M167.137 227.683C166.695 227.683 166.326 227.535 166.031 227.24C165.737 226.897 165.589 226.503 165.589 226.061C165.589 225.816 165.614 225.619 165.663 225.472C165.761 225.324 165.835 225.201 165.884 225.103L176.276 210.878C175.589 211.025 174.876 211.099 174.139 211.099C171.928 210.952 169.766 210.46 167.653 209.625C165.54 208.741 163.624 207.561 161.904 206.087C160.233 204.564 158.907 202.771 157.924 200.707C156.941 198.643 156.45 196.334 156.45 193.779C156.45 191.42 156.892 189.16 157.777 186.998C158.661 184.787 159.988 182.821 161.757 181.101C163.526 179.332 165.712 177.932 168.316 176.9C170.97 175.868 174.041 175.352 177.529 175.352C181.018 175.352 184.089 175.819 186.743 176.753C189.445 177.686 191.705 178.988 193.523 180.659C195.391 182.281 196.791 184.172 197.725 186.334C198.658 188.496 199.125 190.806 199.125 193.263C199.125 195.523 198.707 197.611 197.872 199.527C197.086 201.444 196.103 203.262 194.924 204.982C193.744 206.652 192.565 208.347 191.386 210.067L179.593 226.209C179.397 226.454 179.102 226.774 178.709 227.167C178.316 227.511 177.726 227.683 176.94 227.683H167.137ZM177.677 201.444C179.151 201.444 180.478 201.124 181.657 200.486C182.836 199.847 183.77 198.962 184.458 197.832C185.146 196.702 185.49 195.326 185.49 193.705C185.49 192.083 185.146 190.707 184.458 189.577C183.77 188.398 182.836 187.514 181.657 186.924C180.478 186.285 179.151 185.966 177.677 185.966C176.252 185.966 174.95 186.285 173.77 186.924C172.591 187.514 171.658 188.398 170.97 189.577C170.282 190.707 169.938 192.083 169.938 193.705C169.938 195.326 170.282 196.702 170.97 197.832C171.658 198.962 172.591 199.847 173.77 200.486C174.95 201.124 176.252 201.444 177.677 201.444ZM221.946 227.683C221.454 227.683 221.012 227.511 220.619 227.167C220.275 226.823 220.103 226.381 220.103 225.84V190.757L210.006 198.496C209.563 198.84 209.097 198.962 208.605 198.864C208.163 198.766 207.77 198.496 207.426 198.053L203.077 192.378C202.783 191.936 202.66 191.469 202.709 190.978C202.807 190.437 203.102 190.02 203.593 189.725L220.545 176.605C220.84 176.409 221.11 176.286 221.356 176.237C221.651 176.139 221.97 176.089 222.314 176.089H231.527C232.019 176.089 232.436 176.261 232.78 176.605C233.173 176.949 233.37 177.391 233.37 177.932V225.84C233.37 226.381 233.173 226.823 232.78 227.167C232.436 227.511 232.019 227.683 231.527 227.683H221.946ZM246.421 227.683C245.291 227.683 244.726 227.191 244.726 226.209C244.726 225.914 244.824 225.644 245.021 225.398L281.431 177.49C281.775 177.048 282.119 176.704 282.463 176.458C282.806 176.212 283.322 176.089 284.01 176.089H289.243C290.374 176.089 290.939 176.581 290.939 177.563C290.939 177.858 290.84 178.129 290.644 178.374L254.234 226.282C253.89 226.725 253.546 227.069 253.202 227.314C252.858 227.56 252.342 227.683 251.654 227.683H246.421ZM283.494 228.051C280.153 228.051 277.475 227.167 275.461 225.398C273.495 223.629 272.39 221.27 272.144 218.322C272.095 217.045 272.07 215.915 272.07 214.932C272.07 213.949 272.095 212.77 272.144 211.394C272.34 208.397 273.397 206.014 275.313 204.245C277.279 202.427 280.006 201.518 283.494 201.518C287.032 201.518 289.759 202.427 291.676 204.245C293.592 206.014 294.648 208.397 294.845 211.394C294.943 212.77 294.992 213.949 294.992 214.932C294.992 215.915 294.943 217.045 294.845 218.322C294.648 221.27 293.543 223.629 291.528 225.398C289.514 227.167 286.836 228.051 283.494 228.051ZM283.494 221.565C284.33 221.565 284.968 221.393 285.411 221.049C285.902 220.705 286.271 220.263 286.516 219.723C286.762 219.133 286.885 218.519 286.885 217.88C286.983 216.75 287.032 215.718 287.032 214.784C287.032 213.851 286.983 212.843 286.885 211.762C286.836 210.829 286.565 209.994 286.074 209.257C285.583 208.47 284.723 208.077 283.494 208.077C282.266 208.077 281.406 208.47 280.915 209.257C280.423 209.994 280.153 210.829 280.104 211.762C280.055 212.843 280.03 213.851 280.03 214.784C280.03 215.718 280.055 216.75 280.104 217.88C280.153 218.519 280.276 219.133 280.472 219.723C280.718 220.263 281.087 220.705 281.578 221.049C282.069 221.393 282.708 221.565 283.494 221.565ZM252.317 202.107C248.927 202.107 246.224 201.247 244.21 199.527C242.244 197.759 241.163 195.4 240.967 192.452C240.868 191.174 240.819 190.069 240.819 189.135C240.868 188.152 240.918 186.973 240.967 185.597C241.114 182.6 242.146 180.217 244.062 178.448C246.028 176.63 248.779 175.721 252.317 175.721C255.855 175.721 258.582 176.63 260.499 178.448C262.415 180.217 263.447 182.6 263.594 185.597C263.692 186.973 263.742 188.152 263.742 189.135C263.742 190.069 263.692 191.174 263.594 192.452C263.447 195.4 262.366 197.759 260.351 199.527C258.337 201.247 255.659 202.107 252.317 202.107ZM252.317 195.769C253.103 195.769 253.742 195.597 254.234 195.253C254.725 194.86 255.093 194.393 255.339 193.852C255.585 193.263 255.708 192.673 255.708 192.083C255.806 190.953 255.855 189.921 255.855 188.988C255.855 188.054 255.806 187.047 255.708 185.966C255.659 185.032 255.364 184.197 254.823 183.46C254.332 182.674 253.497 182.281 252.317 182.281C251.089 182.281 250.204 182.674 249.664 183.46C249.173 184.197 248.902 185.032 248.853 185.966C248.804 187.047 248.779 188.054 248.779 188.988C248.779 189.921 248.804 190.953 248.853 192.083C248.902 192.673 249.025 193.263 249.222 193.852C249.467 194.393 249.836 194.86 250.327 195.253C250.819 195.597 251.482 195.769 252.317 195.769Z" fill="#A23834"/>
</svg>
