<svg width="24" height="24" viewBox="0 0 24 24" fill="none" xmlns="http://www.w3.org/2000/svg">
<path fill-rule="evenodd" clip-rule="evenodd" d="M16.9395 3C18.2805 3 19.5705 3.53 20.5195 4.481C21.4695 5.43 22.0005 6.71 22.0005 8.05V15.95C22.0005 18.74 19.7305 21 16.9395 21H7.06049C4.26949 21 2.00049 18.74 2.00049 15.95V8.05C2.00049 5.26 4.25949 3 7.06049 3H16.9395ZM18.5324 9.54033L18.6124 9.46033C18.8514 9.17033 18.8514 8.75033 18.6014 8.46033C18.4624 8.31133 18.2714 8.22033 18.0724 8.20033C17.8624 8.18933 17.6624 8.26033 17.5114 8.40033L13.0024 12.0003C12.4224 12.4813 11.5914 12.4813 11.0024 12.0003L6.50237 8.40033C6.19137 8.17033 5.76137 8.20033 5.50237 8.47033C5.23237 8.74033 5.20237 9.17033 5.43137 9.47033L5.56237 9.60033L10.1124 13.1503C10.6724 13.5903 11.3514 13.8303 12.0624 13.8303C12.7714 13.8303 13.4624 13.5903 14.0214 13.1503L18.5324 9.54033Z" fill="#A23834"/>
</svg>
