<svg width="658" height="506" viewBox="0 0 658 506" fill="none" xmlns="http://www.w3.org/2000/svg">
<path d="M90.8851 505.892C90.8851 505.892 -71.3338 359.984 115.239 252.426C301.67 144.867 219.814 140.744 253.751 81.628C287.688 22.5117 453.731 -48.7942 508.279 47.1435C562.827 143.081 458.904 204.909 561.163 262.497C663.565 320.086 687.064 442.235 616.423 505.892H90.8851Z" fill="#A23834"/>
<path opacity="0.9" d="M90.885 505.892C90.885 505.892 -71.3339 359.984 115.239 252.426C301.67 144.867 219.814 140.744 253.751 81.628C287.688 22.5117 453.731 -48.7942 508.279 47.1435C562.827 143.081 458.904 204.909 561.163 262.497C663.565 320.086 687.064 442.235 616.423 505.892H90.885Z" fill="white"/>
<g clip-path="url(#clip0_131_633)">
<path d="M423.491 130.393C423.491 130.393 396.145 138.496 390.021 151.576C383.896 164.655 371.505 201.192 371.505 201.192C371.505 201.192 359.968 221.522 359.968 227.778C359.968 233.891 377.06 256.78 384.751 262.893C392.442 269.006 421.355 228.488 421.355 228.488L423.491 130.393Z" fill="white" stroke="#263238" stroke-width="1.09475" stroke-miterlimit="10" stroke-linecap="round" stroke-linejoin="round"/>
<path d="M547.119 312.226C547.404 312.51 548.543 326.158 548.543 326.158C548.543 326.158 555.807 340.517 555.807 362.553C555.665 384.589 562.786 497.47 562.786 497.47H387.884C387.884 497.47 399.991 412.88 417.225 370.088C417.225 370.088 417.794 334.972 427.194 325.163C427.194 325.163 423.064 310.804 431.467 308.956C439.871 307.108 547.119 312.226 547.119 312.226Z" fill="#999999"/>
<path opacity="0.2" d="M562.786 497.47H387.884C387.884 497.47 399.991 412.88 417.225 370.088C417.225 370.088 417.367 363.406 418.222 355.018C426.34 358.857 436.88 364.401 439.871 368.24C444.856 374.637 427.195 384.02 427.195 384.02C427.195 384.02 432.037 389.707 439.871 388.996C447.704 388.285 478.469 381.177 478.469 381.177C478.469 381.177 466.932 388.143 468.356 393.119C469.78 398.095 482.457 414.302 489.293 418.283C496.13 422.263 475.335 414.302 475.335 414.302C475.335 414.302 498.978 452.545 513.221 460.08C527.464 467.757 556.519 444.157 552.389 442.167C548.258 440.176 531.309 417.287 534.3 413.307C536.01 411.032 546.549 417.003 558.086 419.846C560.222 457.094 562.786 497.47 562.786 497.47Z" fill="black"/>
<path d="M547.119 312.226C547.404 312.51 548.543 326.158 548.543 326.158C548.543 326.158 555.807 340.517 555.807 362.553C555.665 384.589 562.786 497.47 562.786 497.47H387.884C387.884 497.47 399.991 412.88 417.225 370.088C417.225 370.088 417.794 334.972 427.194 325.163C427.194 325.163 423.064 310.804 431.467 308.956C439.871 307.108 547.119 312.226 547.119 312.226Z" stroke="#263238" stroke-width="1.09475" stroke-miterlimit="10" stroke-linecap="round" stroke-linejoin="round"/>
<path d="M431.04 312.652C431.04 312.652 429.901 319.334 431.04 324.878C431.04 324.878 449.413 338.384 474.623 339.379C499.833 340.517 535.582 333.693 545.41 328.006V314.642L431.04 312.652Z" fill="#263238"/>
<path d="M446.992 320.045C446.992 320.045 444.855 331.276 446.992 335.541C449.128 339.806 468.499 340.943 468.499 340.943L467.929 324.878L446.992 320.045Z" fill="#BFBFBF" stroke="#263238" stroke-width="1.09475" stroke-miterlimit="10" stroke-linecap="round" stroke-linejoin="round"/>
<path d="M513.221 343.076C513.221 343.076 512.651 334.546 510.23 324.878L504.248 325.02C504.248 325.02 507.381 335.967 505.672 343.076" fill="#999999"/>
<path d="M513.221 343.076C513.221 343.076 512.651 334.546 510.23 324.878L504.248 325.02C504.248 325.02 507.381 335.967 505.672 343.076" stroke="#263238" stroke-width="1.09475" stroke-miterlimit="10" stroke-linecap="round" stroke-linejoin="round"/>
<path opacity="0.2" d="M421.925 195.648L421.212 228.347C421.212 228.347 411.67 241.852 402.127 251.946C401.842 247.681 401.415 242.705 400.845 236.877C398.424 210.291 407.539 188.966 406.97 187.402L421.925 195.648Z" fill="#A23834"/>
<path d="M410.815 135.085C421.07 130.251 428.049 127.976 428.049 127.976C428.761 125.986 427.052 120.299 444.855 111.058C462.659 101.817 488.438 107.646 488.438 107.646L498.408 120.015C498.408 120.015 533.018 133.805 541.137 140.771C549.255 147.737 555.949 310.519 549.255 316.49C530.17 333.124 449.128 335.399 427.194 313.363C422.494 308.671 419.218 274.267 410.103 223.228C410.103 223.228 392.727 183.422 393.724 161.67" fill="white"/>
<path d="M410.815 135.085C421.07 130.251 428.049 127.976 428.049 127.976C428.761 125.986 427.052 120.299 444.855 111.058C462.659 101.817 488.438 107.646 488.438 107.646L498.408 120.015C498.408 120.015 533.018 133.805 541.137 140.771C549.255 147.737 555.949 310.519 549.255 316.49C530.17 333.124 449.128 335.399 427.194 313.363C422.494 308.671 419.218 274.267 410.103 223.228C410.103 223.228 392.727 183.422 393.724 161.67" stroke="#263238" stroke-width="1.09475" stroke-miterlimit="10" stroke-linecap="round" stroke-linejoin="round"/>
<path opacity="0.2" d="M497.981 122.574C497.981 122.574 499.833 139.634 482.314 151.007C482.314 151.007 474.196 145.889 468.499 145.321C462.802 144.752 460.808 146.742 460.808 146.742C460.808 146.742 459.668 140.061 462.374 135.653C465.08 131.246 470.493 134.658 479.323 146.742C479.323 146.742 494.278 139.35 497.981 122.574Z" fill="#A23834"/>
<path opacity="0.2" d="M443.716 140.629C443.716 140.629 436.737 140.913 433.319 146.6C429.901 152.287 428.761 154.419 428.761 154.419C428.761 154.419 423.206 148.875 427.337 131.815C427.337 131.815 426.482 140.06 428.049 146.6C428.049 146.6 431.61 133.379 433.319 133.236C435.028 133.094 438.446 134.232 443.716 140.629Z" fill="#A23834"/>
<path d="M433.319 102.955C433.319 102.955 442.719 111.911 439.301 126.554L451.834 146.742L459.526 128.829C459.526 128.829 477.329 124.28 482.599 112.053C482.599 112.053 470.92 93.0029 474.338 66.1333C477.614 39.4058 433.319 102.955 433.319 102.955Z" fill="#BFBFBF" stroke="#263238" stroke-width="1.09475" stroke-miterlimit="10" stroke-linecap="round" stroke-linejoin="round"/>
<path d="M475.335 78.6444C480.89 37.5579 468.499 21.2087 436.167 23.4834C403.836 25.758 403.267 61.8686 410.958 77.2227C413.521 82.3407 412.667 93.5719 428.761 111.627C434.886 118.593 451.122 113.333 462.659 101.96" fill="#BFBFBF"/>
<path d="M475.335 78.6444C480.89 37.5579 468.499 21.2087 436.167 23.4834C403.836 25.758 403.267 61.8686 410.958 77.2227C413.521 82.3407 412.667 93.5719 428.761 111.627C434.886 118.593 451.122 113.333 462.659 101.96" stroke="#263238" stroke-width="1.09475" stroke-miterlimit="10" stroke-linecap="round" stroke-linejoin="round"/>
<path d="M427.194 68.6925C427.194 68.6925 430.328 63.148 439.016 68.6925" stroke="#263238" stroke-width="1.09475" stroke-miterlimit="10" stroke-linecap="round" stroke-linejoin="round"/>
<path d="M414.233 68.6926C414.233 68.6926 409.533 64.8541 408.109 68.6926" stroke="#263238" stroke-width="1.09475" stroke-miterlimit="10" stroke-linecap="round" stroke-linejoin="round"/>
<path d="M434.886 77.2226C435.313 78.6443 434.886 79.9238 434.031 80.2082C433.177 80.4925 432.18 79.4973 431.752 78.0756C431.325 76.654 431.752 75.3745 432.607 75.0901C433.461 74.8058 434.458 75.801 434.886 77.2226Z" fill="#263238"/>
<path d="M417.367 77.2226C417.794 78.6443 417.367 79.9238 416.512 80.2082C415.658 80.4925 414.661 79.4973 414.234 78.0756C413.806 76.654 414.234 75.3745 415.088 75.0901C416.085 74.8058 417.082 75.801 417.367 77.2226Z" fill="#263238"/>
<path d="M418.079 71.8201C421.64 76.6538 418.364 82.9091 417.225 87.7428C416.085 92.5765 423.349 92.15 425.343 90.5862" stroke="#263238" stroke-width="1.09475" stroke-miterlimit="10" stroke-linecap="round" stroke-linejoin="round"/>
<path d="M457.816 74.9476C457.816 74.9476 454.825 65.2802 461.235 60.5887C467.786 55.8971 467.359 84.4728 467.359 84.4728L473.626 87.8848C473.626 87.8848 482.599 64.285 478.184 46.9406C473.911 29.5961 456.392 17.3697 432.037 23.9094C399.563 32.7238 406.827 59.167 406.827 59.167C406.827 59.167 408.251 51.6321 409.818 52.0586C411.385 52.4851 416.512 57.461 441.722 48.7887C441.722 48.7887 444.571 51.2056 444.001 57.3188C443.431 63.432 454.113 68.8344 455.822 78.9282L457.816 74.9476Z" fill="#999999"/>
<path opacity="0.4" d="M457.816 74.9476C457.816 74.9476 454.825 65.2802 461.235 60.5887C467.786 55.8971 467.359 84.4728 467.359 84.4728L473.626 87.8848C473.626 87.8848 482.599 64.285 478.184 46.9406C473.911 29.5961 456.392 17.3697 432.037 23.9094C399.563 32.7238 406.827 59.167 406.827 59.167C406.827 59.167 408.251 51.6321 409.818 52.0586C411.385 52.4851 416.512 57.461 441.722 48.7887C441.722 48.7887 444.571 51.2056 444.001 57.3188C443.431 63.432 454.113 68.8344 455.822 78.9282L457.816 74.9476Z" fill="black"/>
<path d="M457.816 74.9476C457.816 74.9476 454.825 65.2802 461.235 60.5887C467.786 55.8971 467.359 84.4728 467.359 84.4728L473.626 87.8848C473.626 87.8848 482.599 64.285 478.184 46.9406C473.911 29.5961 456.392 17.3697 432.037 23.9094C399.563 32.7238 406.827 59.167 406.827 59.167C406.827 59.167 408.251 51.6321 409.818 52.0586C411.385 52.4851 416.512 57.461 441.722 48.7887C441.722 48.7887 444.571 51.2056 444.001 57.3188C443.431 63.432 454.113 68.8344 455.822 78.9282L457.816 74.9476Z" stroke="#263238" stroke-width="1.09475" stroke-miterlimit="10" stroke-linecap="round" stroke-linejoin="round"/>
<path d="M415.943 92.1501C415.943 92.1501 418.791 93.4296 422.637 92.8609L424.061 94.4248L425.343 93.0031C425.343 93.0031 433.319 93.9983 437.164 93.0031C441.01 92.0079 445.14 94.4248 447.134 94.4248C447.134 94.4248 455.823 84.0465 454.968 78.6442C454.113 73.2418 453.544 71.678 453.544 71.678C453.544 71.678 455.11 73.0997 456.107 72.8153C457.247 72.3888 457.247 71.678 457.247 71.678C457.247 71.678 465.65 88.7381 465.508 102.528C465.508 102.528 455.823 118.451 443.146 119.446C428.904 120.441 421.355 114.897 421.355 114.897C418.934 107.646 420.073 100.964 420.073 100.964C418.222 99.1163 416.655 98.4055 416.655 98.4055C415.8 96.4151 415.943 92.1501 415.943 92.1501Z" fill="#263238"/>
<path d="M409.818 52.2009C409.818 52.2009 402.554 48.7889 403.979 40.5432C405.261 32.2975 411.527 29.4541 415.943 26.8951C415.943 26.8951 424.916 19.2181 441.722 18.2229C461.947 17.0856 481.602 27.606 477.044 43.2444C477.044 43.2444 448.559 31.1601 441.722 48.9311C441.722 48.9311 422.067 60.3045 409.818 52.2009Z" fill="#263238"/>
<path d="M459.383 66.1333C459.383 66.1333 465.792 53.9069 469.923 58.0298C474.196 62.0105 473.056 67.9815 471.49 73.6682C470.065 79.3549 469.496 78.3597 466.932 80.9187C464.226 83.4778 461.377 86.179 460.38 83.3356C459.383 80.4922 459.81 78.2176 459.81 78.2176" fill="#BFBFBF"/>
<path d="M459.383 66.1333C459.383 66.1333 465.792 53.9069 469.923 58.0298C474.196 62.0105 473.056 67.9815 471.49 73.6682C470.065 79.3549 469.496 78.3597 466.932 80.9187C464.226 83.4778 461.377 86.179 460.38 83.3356C459.383 80.4922 459.81 78.2176 459.81 78.2176" stroke="#263238" stroke-width="1.09475" stroke-miterlimit="10" stroke-linecap="round" stroke-linejoin="round"/>
<path d="M439.871 101.533C428.476 101.817 424.773 100.111 424.773 100.111C424.203 100.822 423.491 100.68 423.491 100.68L425.343 104.519C425.343 104.519 427.194 105.656 432.037 105.656C436.167 105.656 439.871 101.533 439.871 101.533Z" fill="white"/>
<path opacity="0.2" d="M430.043 49.2156C430.043 49.2156 425.485 39.9747 437.592 34.4302C449.698 28.7435 469.353 31.0182 474.196 37.2735" stroke="white" stroke-width="1.09475" stroke-miterlimit="10" stroke-linecap="round" stroke-linejoin="round"/>
<path opacity="0.2" d="M417.509 50.9215C417.509 50.9215 404.121 50.3528 414.091 37.4156C424.061 24.4783 444.998 20.3555 444.998 20.3555" stroke="white" stroke-width="1.09475" stroke-miterlimit="10" stroke-linecap="round" stroke-linejoin="round"/>
<path d="M498.551 120.015C498.551 120.015 495.987 137.359 479.323 146.742C479.323 146.742 470.065 133.094 465.223 133.379C462.801 133.521 459.241 140.771 459.241 140.771" stroke="#263238" stroke-width="1.09475" stroke-miterlimit="10" stroke-linecap="round" stroke-linejoin="round"/>
<path d="M428.191 127.976C426.482 134.516 427.622 147.453 427.622 147.453C427.622 147.453 431.61 134.516 433.176 133.236C436.025 130.962 444.855 142.193 444.855 142.193" stroke="#263238" stroke-width="1.09475" stroke-miterlimit="10" stroke-linecap="round" stroke-linejoin="round"/>
<path d="M451.692 146.743L444.998 151.15C444.998 151.15 452.547 159.68 451.692 167.357C450.838 175.034 453.544 191.952 453.544 191.952" stroke="#263238" stroke-width="1.09475" stroke-miterlimit="10" stroke-linecap="round" stroke-linejoin="round"/>
<path d="M387.172 224.366C394.863 239.578 392.442 253.652 392.442 253.652C392.442 253.652 382.472 267.443 374.781 269.433C356.123 274.409 345.014 233.18 322.652 177.735C321.228 174.181 333.904 155.415 333.904 155.415L370.793 212.708C370.793 212.85 381.76 213.703 387.172 224.366Z" fill="#BFBFBF" stroke="#263238" stroke-width="1.09475" stroke-miterlimit="10" stroke-linecap="round" stroke-linejoin="round"/>
<path d="M332.48 159.68L322.937 146.885C322.937 146.885 308.694 138.781 307.128 143.615C304.849 150.866 293.17 153.14 293.17 153.14C294.167 156.837 305.561 173.47 312.113 177.309C318.522 181.005 319.234 182.142 321.94 182.853C328.777 184.701 330.343 179.868 330.343 179.868" fill="#BFBFBF"/>
<path d="M332.48 159.68L322.937 146.885C322.937 146.885 308.694 138.781 307.128 143.615C304.849 150.866 293.17 153.14 293.17 153.14C294.167 156.837 305.561 173.47 312.113 177.309C318.522 181.005 319.234 182.142 321.94 182.853C328.777 184.701 330.343 179.868 330.343 179.868" stroke="#263238" stroke-width="1.09475" stroke-miterlimit="10" stroke-linecap="round" stroke-linejoin="round"/>
<path d="M256.993 215.409C256.993 215.409 205.007 167.214 269.527 149.728C334.189 132.241 317.098 196.074 317.098 196.074L312.825 196.785C312.825 196.785 329.774 139.634 271.663 154.562C213.552 169.489 259.272 212.424 259.272 212.424L256.993 215.409Z" fill="#21737C" stroke="#263238" stroke-width="1.09475" stroke-miterlimit="10" stroke-linecap="round" stroke-linejoin="round"/>
<path d="M326.213 168.494C315.246 163.234 319.092 153.424 308.409 147.311C305.561 145.605 296.303 146.6 293.455 144.61C289.039 141.482 290.606 139.492 290.748 139.065C290.891 138.212 294.024 140.914 304.421 137.928C308.552 136.791 320.089 140.345 323.649 143.473C332.053 150.723 339.459 159.395 338.604 166.077C338.177 169.916 333.762 171.48 333.762 171.48" fill="#BFBFBF"/>
<path d="M326.213 168.494C315.246 163.234 319.092 153.424 308.409 147.311C305.561 145.605 296.303 146.6 293.455 144.61C289.039 141.482 290.606 139.492 290.748 139.065C290.891 138.212 294.024 140.914 304.421 137.928C308.552 136.791 320.089 140.345 323.649 143.473C332.053 150.723 339.459 159.395 338.604 166.077C338.177 169.916 333.762 171.48 333.762 171.48" stroke="#263238" stroke-width="1.09475" stroke-miterlimit="10" stroke-linecap="round" stroke-linejoin="round"/>
<path d="M294.879 152.003C294.879 152.003 303.994 149.728 306.985 149.728C310.973 149.728 312.255 150.297 313.252 152.003C314.249 153.709 313.11 155.841 313.11 155.841C313.11 155.841 315.673 156.979 316.385 159.253C317.098 161.528 315.531 163.945 315.531 163.945C315.531 163.945 318.237 164.656 319.661 166.504C321.655 168.778 319.946 170.769 319.946 170.769C319.946 170.769 325.074 174.323 322.225 176.456C319.376 178.588 311.543 181.716 307.982 181.431C304.279 180.863 281.918 153.993 294.879 152.003Z" fill="#BFBFBF" stroke="#263238" stroke-width="1.09475" stroke-miterlimit="10" stroke-linecap="round" stroke-linejoin="round"/>
<path d="M312.967 155.841C312.967 155.841 298.44 160.248 294.452 160.248" stroke="#263238" stroke-width="1.09475" stroke-miterlimit="10" stroke-linecap="round" stroke-linejoin="round"/>
<path d="M315.388 163.945C315.388 163.945 302.997 168.352 300.433 168.92" stroke="#263238" stroke-width="1.09475" stroke-miterlimit="10" stroke-linecap="round" stroke-linejoin="round"/>
<path d="M319.804 170.626C319.804 170.626 310.261 174.607 306.131 175.318" stroke="#263238" stroke-width="1.09475" stroke-miterlimit="10" stroke-linecap="round" stroke-linejoin="round"/>
<path d="M256.138 208.159C256.138 208.159 272.09 180.862 311.685 185.838L344.159 253.51C344.159 253.51 323.792 292.18 265.966 283.081L256.138 208.159Z" fill="#21737C" stroke="#263238" stroke-width="1.09475" stroke-miterlimit="10" stroke-linecap="round" stroke-linejoin="round"/>
<path d="M271.378 262.182C271.378 262.182 236.626 236.45 212.983 262.609L223.665 270.57C223.665 270.57 234.632 247.539 271.805 275.973" fill="#21737C"/>
<path d="M271.378 262.182C271.378 262.182 236.626 236.45 212.983 262.609L223.665 270.57C223.665 270.57 234.632 247.539 271.805 275.973" stroke="#263238" stroke-width="1.09475" stroke-miterlimit="10" stroke-linecap="round" stroke-linejoin="round"/>
<path d="M259.414 208.443C259.414 208.443 297.015 212.14 308.552 187.687L259.414 208.443Z" fill="#21737C"/>
<path d="M259.414 208.443C259.414 208.443 297.015 212.14 308.552 187.687" stroke="#263238" stroke-width="1.09475" stroke-miterlimit="10" stroke-linecap="round" stroke-linejoin="round"/>
<path d="M193.185 264.884C193.185 264.884 207.998 254.505 221.101 262.182C234.204 269.859 231.071 283.508 231.071 283.508C231.071 283.508 211.416 285.071 193.185 264.884Z" fill="#21737C" stroke="#263238" stroke-width="1.09475" stroke-miterlimit="10" stroke-linecap="round" stroke-linejoin="round"/>
<path d="M200.449 265.026C200.449 265.026 223.38 271.139 231.071 283.65" stroke="#263238" stroke-width="1.09475" stroke-miterlimit="10" stroke-linecap="round" stroke-linejoin="round"/>
<path d="M289.039 190.957L286.333 179.868C286.333 179.868 271.521 179.441 266.393 187.971L272.945 196.643" fill="#21737C"/>
<path d="M289.039 190.957L286.333 179.868C286.333 179.868 271.521 179.441 266.393 187.971L272.945 196.643" stroke="#263238" stroke-width="1.09475" stroke-miterlimit="10" stroke-linecap="round" stroke-linejoin="round"/>
<path d="M288.327 193.231C288.327 193.231 284.482 195.648 278.784 196.075" stroke="#263238" stroke-width="1.09475" stroke-miterlimit="10" stroke-linecap="round" stroke-linejoin="round"/>
<path d="M275.793 264.315C275.793 264.315 279.212 268.864 274.939 274.551" stroke="#263238" stroke-width="1.09475" stroke-miterlimit="10" stroke-linecap="round" stroke-linejoin="round"/>
<path opacity="0.2" d="M542.704 208.585C542.704 208.585 528.888 255.927 498.551 279.669C484.735 290.474 421.213 272.987 421.213 272.987L425.343 248.392L446.137 238.583C446.137 238.583 482.884 181.147 502.824 175.318C522.764 169.773 542.704 208.585 542.704 208.585Z" fill="#A23834"/>
<path d="M524.758 141.909C510.088 142.335 471.632 212.85 471.632 212.85C461.235 216.831 466.22 225.93 466.22 225.93C466.22 225.93 490.717 256.922 495.275 259.623C506.669 266.163 510.8 254.647 510.8 254.647C510.8 254.647 558.94 211.002 555.665 175.46C552.389 139.918 541.422 140.771 541.422 140.771" fill="white"/>
<path d="M524.758 141.909C510.088 142.335 471.632 212.85 471.632 212.85C461.235 216.831 466.22 225.93 466.22 225.93C466.22 225.93 490.717 256.922 495.275 259.623C506.669 266.163 510.8 254.647 510.8 254.647C510.8 254.647 558.94 211.002 555.665 175.46C552.389 139.918 541.422 140.771 541.422 140.771" stroke="#263238" stroke-width="1.09475" stroke-miterlimit="10" stroke-linecap="round" stroke-linejoin="round"/>
<path d="M468.641 223.086L453.971 238.867C422.779 235.881 365.95 259.339 349.571 250.809C340.028 245.833 317.098 250.951 313.679 252.657C310.261 254.363 302.997 263.32 305.703 264.457C308.409 265.594 314.249 260.334 317.525 260.761C320.801 261.187 326.783 260.619 326.783 260.619C326.783 260.619 312.397 274.409 309.122 274.978C305.846 275.546 289.467 282.512 295.448 283.792C303.852 285.498 306.985 284.645 306.985 284.645C306.985 284.645 314.534 290.047 320.089 290.616C322.937 290.9 338.747 288.057 338.747 288.057L353.132 274.267C353.132 274.267 449.271 279.243 466.077 272.134C488.154 262.893 495.133 255.216 495.133 255.216C495.133 255.216 485.875 228.347 468.641 223.086Z" fill="#BFBFBF" stroke="#263238" stroke-width="1.09475" stroke-miterlimit="10" stroke-linecap="round" stroke-linejoin="round"/>
<path d="M454.683 339.095C454.398 338.953 447.277 381.034 457.247 389.849C457.247 389.849 463.086 409.895 461.947 423.685C460.808 437.475 468.356 465.482 468.356 465.482L473.341 497.328" stroke="#263238" stroke-width="1.09475" stroke-miterlimit="10" stroke-linecap="round" stroke-linejoin="round"/>
<path d="M462.089 340.374C462.089 340.374 458.529 361.131 459.953 368.666C461.377 376.201 458.244 383.735 453.971 384.02" stroke="#263238" stroke-width="1.09475" stroke-miterlimit="10" stroke-linecap="round" stroke-linejoin="round"/>
<path d="M528.461 333.977C528.461 333.977 534.87 368.524 545.552 371.509" stroke="#263238" stroke-width="1.09475" stroke-miterlimit="10" stroke-linecap="round" stroke-linejoin="round"/>
<path d="M541.422 329.286C541.422 329.286 546.264 351.321 545.41 381.887C544.555 412.311 551.534 473.443 552.104 480.978C552.674 488.371 552.104 497.47 552.104 497.47" stroke="#263238" stroke-width="1.09475" stroke-miterlimit="10" stroke-linecap="round" stroke-linejoin="round"/>
<path d="M484.308 379.186C481.602 380.324 448.131 390.275 441.722 398.095" stroke="#263238" stroke-width="1.09475" stroke-miterlimit="10" stroke-linecap="round" stroke-linejoin="round"/>
<path d="M462.089 398.948C462.089 398.948 485.163 426.955 496.414 429.798" stroke="#263238" stroke-width="1.09475" stroke-miterlimit="10" stroke-linecap="round" stroke-linejoin="round"/>
<path d="M451.977 401.649C451.977 401.649 416.37 436.337 410.245 432.499" stroke="#263238" stroke-width="1.09475" stroke-miterlimit="10" stroke-linecap="round" stroke-linejoin="round"/>
<path d="M463.086 442.166C463.086 442.166 453.259 480.836 453.971 485.101C454.683 489.366 450.695 497.469 450.695 497.469" stroke="#263238" stroke-width="1.09475" stroke-miterlimit="10" stroke-linecap="round" stroke-linejoin="round"/>
<path d="M453.544 290.616C453.544 290.616 455.68 301.705 453.544 308.529C451.407 315.353 453.686 325.589 456.677 326.158" stroke="#263238" stroke-width="1.09475" stroke-miterlimit="10" stroke-linecap="round" stroke-linejoin="round"/>
<path d="M370.793 212.85C370.793 212.85 382.187 225.077 382.187 234.744" stroke="#263238" stroke-width="1.09475" stroke-miterlimit="10" stroke-linecap="round" stroke-linejoin="round"/>
<path d="M226.656 290.616C226.656 290.616 225.659 293.601 224.377 298.861" stroke="#263238" stroke-width="1.09475" stroke-linecap="round" stroke-linejoin="round"/>
<path d="M222.383 307.249C221.528 311.088 220.674 315.353 219.819 320.044" stroke="#263238" stroke-width="1.09475" stroke-linecap="round" stroke-linejoin="round" stroke-dasharray="6.69 6.69"/>
<path d="M218.965 324.309C218.537 327.011 218.11 329.854 217.683 332.697" stroke="#263238" stroke-width="1.09475" stroke-linecap="round" stroke-linejoin="round"/>
<path d="M207.286 283.223C207.286 283.223 205.576 285.924 203.013 290.616" stroke="#263238" stroke-width="1.09475" stroke-linecap="round" stroke-linejoin="round"/>
<path d="M197.458 301.563C195.179 306.539 192.615 312.367 190.479 318.623" stroke="#263238" stroke-width="1.09475" stroke-linecap="round" stroke-linejoin="round" stroke-dasharray="9.48 9.48"/>
<path d="M188.627 324.594C187.773 327.295 187.061 329.996 186.491 332.839" stroke="#263238" stroke-width="1.09475" stroke-linecap="round" stroke-linejoin="round"/>
<path d="M193.185 271.565C192.331 271.707 189.482 273.129 185.779 275.688" stroke="#263238" stroke-width="1.09475" stroke-linecap="round" stroke-linejoin="round"/>
<path d="M178.088 281.517C174.812 284.361 171.251 287.773 167.833 291.753" stroke="#263238" stroke-width="1.09475" stroke-linecap="round" stroke-linejoin="round" stroke-dasharray="7.46 7.46"/>
<path d="M164.7 295.592C162.99 297.866 161.424 300.141 159.999 302.7" stroke="#263238" stroke-width="1.09475" stroke-linecap="round" stroke-linejoin="round"/>
<path d="M471.632 212.708C482.314 214.272 497.981 233.891 500.83 241.284" stroke="#263238" stroke-width="1.09475" stroke-miterlimit="10" stroke-linecap="round" stroke-linejoin="round"/>
<path d="M552.246 187.545C552.246 187.545 526.467 203.183 500.83 204.747" stroke="#263238" stroke-width="1.09475" stroke-miterlimit="10" stroke-linecap="round" stroke-linejoin="round"/>
<path d="M369.369 204.747C369.369 204.747 382.615 202.045 389.309 212.85C396.003 223.655 398.139 234.744 398.139 234.744" stroke="#263238" stroke-width="1.09475" stroke-miterlimit="10" stroke-linecap="round" stroke-linejoin="round"/>
<path d="M387.884 181.289C387.884 181.289 394.294 195.222 401.7 201.05" stroke="#263238" stroke-width="1.09475" stroke-miterlimit="10" stroke-linecap="round" stroke-linejoin="round"/>
<path d="M453.544 221.807C453.544 221.807 454.683 232.327 454.113 238.867" stroke="#263238" stroke-width="1.09475" stroke-miterlimit="10" stroke-linecap="round" stroke-linejoin="round"/>
<path d="M432.749 287.204C432.749 287.204 460.95 318.765 504.248 310.235" stroke="#263238" stroke-width="1.09475" stroke-miterlimit="10" stroke-linecap="round" stroke-linejoin="round"/>
<path d="M455.823 154.988C455.823 155.841 455.11 156.694 454.256 156.694C453.401 156.694 452.689 155.983 452.689 154.988C452.689 154.135 453.401 153.282 454.256 153.282C455.11 153.282 455.823 153.993 455.823 154.988Z" fill="#263238"/>
<path d="M457.817 196.927C457.817 197.78 457.104 198.633 456.25 198.633C455.395 198.633 454.683 197.923 454.683 196.927C454.683 196.074 455.395 195.221 456.25 195.221C457.104 195.221 457.817 195.932 457.817 196.927Z" fill="#263238"/>
<path d="M11.8742 497.469H621.466" stroke="#263238" stroke-width="1.09475" stroke-miterlimit="10" stroke-linecap="round" stroke-linejoin="round"/>
<path d="M136.641 415.865C136.641 415.865 159.572 407.762 144.617 362.41C129.662 317.059 148.748 318.054 157.293 295.165C165.839 272.276 153.163 256.638 153.163 256.638" stroke="#263238" stroke-width="3.28424" stroke-miterlimit="10" stroke-linecap="round" stroke-linejoin="round"/>
<path d="M147.893 404.634H143.62H80.9519C80.9519 404.634 89.9248 472.59 92.631 492.209C93.0583 495.763 95.9068 497.612 99.3251 497.612C107.443 497.612 133.365 497.612 143.62 497.612C146.326 497.612 147.893 497.612 147.893 497.612C158.148 497.612 184.07 497.612 192.188 497.612C195.606 497.612 198.455 495.906 198.882 492.209C201.446 472.59 210.561 404.634 210.561 404.634H147.893Z" fill="#263238"/>
<path d="M216.259 407.193C216.259 408.899 214.834 410.321 213.125 410.321H78.5306C76.8214 410.321 75.3971 408.899 75.3971 407.193V402.217C75.3971 400.511 76.8214 399.09 78.5306 399.09H213.125C214.834 399.09 216.259 400.511 216.259 402.217V407.193Z" fill="#263238"/>
<path d="M88.2157 410.321H156.011" stroke="white" stroke-width="1.09475" stroke-miterlimit="10" stroke-linecap="round" stroke-linejoin="round"/>
<path d="M164.557 410.321H169.827" stroke="white" stroke-width="1.09475" stroke-miterlimit="10" stroke-linecap="round" stroke-linejoin="round"/>
<path d="M201.161 410.321H191.618" stroke="white" stroke-width="1.09475" stroke-miterlimit="10" stroke-linecap="round" stroke-linejoin="round"/>
<path d="M93.3431 432.641H119.977" stroke="white" stroke-width="1.09475" stroke-miterlimit="10" stroke-linecap="round" stroke-linejoin="round"/>
<path d="M135.217 432.641H142.338" stroke="white" stroke-width="1.09475" stroke-miterlimit="10" stroke-linecap="round" stroke-linejoin="round"/>
<path d="M199.31 432.641H173.673" stroke="white" stroke-width="1.09475" stroke-miterlimit="10" stroke-linecap="round" stroke-linejoin="round"/>
<path d="M196.461 451.123H191.618" stroke="white" stroke-width="1.09475" stroke-miterlimit="10" stroke-linecap="round" stroke-linejoin="round"/>
<path d="M119.977 451.123H110.007" stroke="white" stroke-width="1.09475" stroke-miterlimit="10" stroke-linecap="round" stroke-linejoin="round"/>
<path d="M167.263 469.036H183.642" stroke="white" stroke-width="1.09475" stroke-miterlimit="10" stroke-linecap="round" stroke-linejoin="round"/>
<path d="M128.95 469.036H103.313" stroke="white" stroke-width="1.09475" stroke-miterlimit="10" stroke-linecap="round" stroke-linejoin="round"/>
<path d="M98.1856 485.243H106.731" stroke="white" stroke-width="1.09475" stroke-miterlimit="10" stroke-linecap="round" stroke-linejoin="round"/>
<path d="M119.977 485.243H169.827" stroke="white" stroke-width="1.09475" stroke-miterlimit="10" stroke-linecap="round" stroke-linejoin="round"/>
<path d="M194.04 485.243H186.491" stroke="white" stroke-width="1.09475" stroke-miterlimit="10" stroke-linecap="round" stroke-linejoin="round"/>
<path d="M170.254 448.28C170.254 461.786 159.287 472.732 145.757 472.732C132.226 472.732 121.259 461.786 121.259 448.28C121.259 434.774 132.226 423.827 145.757 423.827C159.287 423.827 170.254 434.774 170.254 448.28Z" fill="#A23834" stroke="#263238" stroke-width="1.09475" stroke-miterlimit="10" stroke-linecap="round" stroke-linejoin="round"/>
<path d="M143.905 437.048V435.484H147.751V437.048C151.026 437.617 152.736 439.465 152.736 442.451V443.162H148.32V442.308C148.32 440.745 147.466 440.176 146.041 440.176C144.617 440.176 143.763 440.745 143.763 442.308C143.763 443.872 144.617 445.01 147.751 446.858C151.596 449.133 152.878 450.839 152.878 453.398C152.878 456.383 151.169 458.231 147.893 458.8V460.364H144.047V458.8C140.772 458.231 139.062 456.383 139.062 453.398V451.834H143.478V453.54C143.478 455.104 144.475 455.672 145.899 455.672C147.323 455.672 148.32 455.104 148.32 453.54C148.32 451.976 147.466 450.839 144.332 448.99C140.487 446.716 139.205 445.01 139.205 442.451C139.062 439.465 140.629 437.475 143.905 437.048Z" fill="white" stroke="#263238" stroke-width="1.09475" stroke-miterlimit="10" stroke-linecap="round" stroke-linejoin="round"/>
<path d="M166.124 448.28C166.124 459.511 157.008 468.61 145.757 468.61C134.505 468.61 125.389 459.511 125.389 448.28C125.389 437.049 134.505 427.95 145.757 427.95C157.008 427.95 166.124 437.049 166.124 448.28Z" stroke="#263238" stroke-width="1.09475" stroke-miterlimit="10" stroke-linecap="round" stroke-linejoin="round"/>
<path d="M142.766 356.582C142.766 356.582 147.608 331.276 168.118 329.285C188.627 327.295 190.906 311.372 190.906 311.372" stroke="#263238" stroke-width="3.28424" stroke-miterlimit="10" stroke-linecap="round" stroke-linejoin="round"/>
<path d="M144.902 312.652C144.902 312.652 139.917 310.235 121.544 299.004C103.171 287.773 103.883 270.002 103.883 270.002" stroke="#263238" stroke-width="3.28424" stroke-miterlimit="10" stroke-linecap="round" stroke-linejoin="round"/>
<path d="M148.748 379.186C148.748 379.186 112.713 377.764 107.301 348.193" stroke="#263238" stroke-width="3.28424" stroke-miterlimit="10" stroke-linecap="round" stroke-linejoin="round"/>
<path d="M171.536 243.985C170.397 252.941 162.278 259.197 153.448 258.059C144.475 256.922 138.208 248.819 139.347 240.004C140.487 231.048 148.605 224.792 157.436 225.93C166.409 226.925 172.675 235.028 171.536 243.985Z" fill="white"/>
<path d="M171.536 243.985C170.397 252.941 162.278 259.197 153.448 258.059C144.475 256.922 138.208 248.819 139.347 240.004C140.487 231.048 148.605 224.792 157.436 225.93C166.409 226.925 172.675 235.028 171.536 243.985Z" stroke="#263238" stroke-width="1.09475" stroke-miterlimit="10" stroke-linecap="round" stroke-linejoin="round"/>
<path d="M168.545 243.558C167.691 250.809 161.139 255.927 153.875 254.931C146.611 254.078 141.484 247.539 142.481 240.288C143.335 233.038 149.887 227.92 157.151 228.915C164.272 229.91 169.4 236.45 168.545 243.558Z" stroke="#263238" stroke-width="1.09475" stroke-miterlimit="10" stroke-linecap="round" stroke-linejoin="round"/>
<path d="M153.448 235.455C153.875 234.886 154.587 234.602 155.442 234.459L155.584 233.322L157.436 233.606L157.293 234.744C158.005 235.028 158.575 235.455 159.002 236.165C159.287 236.876 159.43 237.587 159.287 238.582V239.009L157.151 238.724L157.293 238.156C157.293 237.729 157.293 237.303 157.151 237.018C157.008 236.734 156.724 236.592 156.296 236.592C155.869 236.592 155.584 236.592 155.442 236.876C155.157 237.018 155.014 237.445 155.014 237.871C155.014 238.298 155.014 238.724 155.157 239.009C155.299 239.435 155.442 239.72 155.727 240.004C156.011 240.288 156.296 240.715 156.724 241.141C157.151 241.568 157.578 242.136 157.863 242.421C158.148 242.847 158.433 243.274 158.575 243.842C158.718 244.411 158.86 244.98 158.718 245.691C158.575 246.686 158.29 247.397 157.721 247.965C157.293 248.534 156.581 248.818 155.727 248.96L155.584 249.956L153.733 249.671L153.875 248.676C153.02 248.392 152.451 247.965 152.166 247.254C151.881 246.544 151.739 245.833 151.881 244.838L152.023 243.842L154.16 244.127L154.017 245.264C153.875 246.259 154.302 246.686 155.014 246.828C155.869 246.97 156.296 246.544 156.439 245.548C156.439 245.122 156.439 244.695 156.296 244.411C156.154 243.985 156.011 243.7 155.727 243.416C155.442 243.132 155.157 242.705 154.73 242.279C154.302 241.852 153.875 241.283 153.59 240.999C153.305 240.573 153.02 240.146 152.878 239.577C152.736 239.009 152.593 238.44 152.736 237.729C152.736 236.876 153.02 236.023 153.448 235.455Z" fill="#263238"/>
<path d="M120.404 256.922C121.686 265.737 115.419 273.982 106.446 275.262C97.6159 276.541 89.3551 270.286 88.0732 261.329C86.7914 252.515 93.0582 244.269 102.031 242.99C111.004 241.71 119.265 247.966 120.404 256.922Z" fill="white"/>
<path d="M120.404 256.922C121.686 265.737 115.419 273.982 106.446 275.262C97.6159 276.541 89.3551 270.286 88.0732 261.329C86.7914 252.515 93.0582 244.269 102.031 242.99C111.004 241.71 119.265 247.966 120.404 256.922Z" stroke="#263238" stroke-width="1.09475" stroke-miterlimit="10" stroke-linecap="round" stroke-linejoin="round"/>
<path d="M117.271 257.349C118.268 264.457 113.283 271.139 106.019 272.134C98.8977 273.129 92.2036 268.154 91.2066 260.903C90.2096 253.795 95.1946 247.113 102.458 246.118C109.722 245.122 116.274 250.098 117.271 257.349Z" stroke="#263238" stroke-width="1.09475" stroke-miterlimit="10" stroke-linecap="round" stroke-linejoin="round"/>
<path d="M100.749 253.226C101.034 252.515 101.604 252.088 102.316 251.804L102.174 250.667L104.025 250.382L104.168 251.52C105.022 251.52 105.592 251.946 106.162 252.373C106.589 252.941 107.016 253.652 107.159 254.647V255.074L105.022 255.358L104.88 254.79C104.88 254.363 104.595 253.937 104.452 253.794C104.168 253.652 103.883 253.51 103.598 253.51C103.171 253.51 102.886 253.652 102.743 253.937C102.601 254.221 102.601 254.505 102.601 255.074C102.601 255.5 102.743 255.927 103.028 256.211C103.313 256.496 103.455 256.78 103.74 257.064C104.025 257.349 104.452 257.491 104.88 257.917C105.449 258.202 106.019 258.628 106.304 258.912C106.731 259.197 107.016 259.623 107.301 260.05C107.586 260.476 107.871 261.187 107.871 261.756C108.013 262.751 107.871 263.604 107.586 264.173C107.301 264.884 106.731 265.31 105.877 265.594L106.019 266.59L104.168 266.874L104.025 265.879C103.171 265.879 102.458 265.452 102.031 265.026C101.604 264.457 101.177 263.746 101.034 262.751L100.892 261.756L103.028 261.472L103.171 262.609C103.313 263.604 103.74 264.031 104.595 263.888C105.449 263.746 105.734 263.32 105.592 262.325C105.592 261.898 105.449 261.471 105.165 261.187C104.88 260.903 104.737 260.619 104.452 260.334C104.168 260.05 103.74 259.908 103.313 259.481C102.743 259.197 102.174 258.77 101.889 258.486C101.604 258.202 101.177 257.775 100.892 257.349C100.607 256.922 100.322 256.211 100.322 255.643C100.322 254.647 100.464 253.937 100.749 253.226Z" fill="#263238"/>
<path d="M119.407 334.545C120.12 343.502 113.425 351.321 104.452 352.032C95.4795 352.743 87.6459 346.061 86.9338 337.104C86.2216 328.148 92.9158 320.329 101.889 319.618C110.862 318.907 118.695 325.589 119.407 334.545Z" fill="white"/>
<path d="M119.407 334.545C120.12 343.502 113.425 351.321 104.452 352.032C95.4795 352.743 87.6459 346.061 86.9338 337.104C86.2216 328.148 92.9158 320.329 101.889 319.618C110.862 318.907 118.695 325.589 119.407 334.545Z" stroke="#263238" stroke-width="1.09475" stroke-miterlimit="10" stroke-linecap="round" stroke-linejoin="round"/>
<path d="M116.416 334.83C116.986 342.08 111.574 348.336 104.31 348.905C97.0462 349.473 90.7793 344.071 90.2096 336.82C89.6399 329.57 95.0522 323.314 102.316 322.746C109.437 322.177 115.847 327.579 116.416 334.83Z" stroke="#263238" stroke-width="1.09475" stroke-miterlimit="10" stroke-linecap="round" stroke-linejoin="round"/>
<path d="M100.037 329.854C100.464 329.285 101.034 328.717 101.746 328.575L101.604 327.437L103.455 327.295L103.598 328.432C104.452 328.575 105.022 328.859 105.592 329.428C106.019 329.996 106.304 330.849 106.446 331.844V332.271L104.31 332.413V331.844C104.31 331.276 104.168 330.991 103.883 330.707C103.598 330.423 103.313 330.423 103.028 330.423C102.601 330.423 102.316 330.565 102.174 330.849C102.031 331.134 101.889 331.418 102.031 331.987C102.031 332.413 102.174 332.84 102.316 333.124C102.458 333.408 102.743 333.693 103.028 333.977C103.313 334.261 103.74 334.546 104.168 334.83C104.737 335.256 105.165 335.541 105.592 335.967C106.019 336.252 106.304 336.678 106.589 337.247C106.874 337.815 107.016 338.384 107.159 339.095C107.301 340.09 107.159 340.943 106.731 341.512C106.304 342.223 105.734 342.649 105.022 342.791L105.165 343.786L103.313 343.929L103.171 342.933C102.316 342.791 101.746 342.507 101.177 341.938C100.749 341.37 100.464 340.517 100.322 339.521L100.18 338.526L102.316 338.384L102.458 339.521C102.601 340.517 103.028 340.943 103.74 340.801C104.595 340.801 104.88 340.232 104.88 339.237C104.88 338.811 104.737 338.384 104.595 338.1C104.452 337.815 104.168 337.531 103.883 337.247C103.598 336.962 103.171 336.678 102.743 336.394C102.174 335.967 101.746 335.683 101.319 335.256C100.892 334.972 100.607 334.546 100.322 333.977C100.037 333.408 99.8947 332.84 99.7523 332.129C99.4675 331.276 99.6099 330.565 100.037 329.854Z" fill="#263238"/>
<path d="M214.264 306.681C210.419 314.784 200.876 318.338 192.615 314.642C184.497 310.804 180.936 301.278 184.639 293.033C188.485 284.929 198.028 281.375 206.289 285.071C214.549 288.91 218.11 298.577 214.264 306.681Z" fill="white"/>
<path d="M214.264 306.681C210.419 314.784 200.876 318.338 192.615 314.642C184.497 310.804 180.936 301.278 184.639 293.033C188.485 284.929 198.028 281.375 206.289 285.071C214.549 288.91 218.11 298.577 214.264 306.681Z" stroke="#263238" stroke-width="1.09475" stroke-miterlimit="10" stroke-linecap="round" stroke-linejoin="round"/>
<path d="M211.416 305.401C208.425 311.941 200.591 314.784 194.04 311.799C187.488 308.813 184.639 300.994 187.63 294.454C190.621 287.914 198.455 285.071 205.007 288.057C211.701 290.9 214.549 298.719 211.416 305.401Z" stroke="#263238" stroke-width="1.09475" stroke-miterlimit="10" stroke-linecap="round" stroke-linejoin="round"/>
<path d="M199.594 293.033C200.164 292.606 200.876 292.606 201.731 292.748L202.158 291.753L203.867 292.606L203.44 293.601C204.152 294.028 204.437 294.739 204.579 295.449C204.722 296.16 204.579 297.013 204.152 297.866L204.01 298.293L202.016 297.44L202.301 296.871C202.443 296.445 202.585 296.018 202.443 295.734C202.301 295.449 202.158 295.165 201.873 295.023C201.588 294.881 201.161 294.881 201.019 295.023C200.734 295.165 200.449 295.449 200.307 295.876C200.164 296.302 200.022 296.587 200.022 297.013C200.022 297.44 200.164 297.724 200.164 298.151C200.307 298.435 200.449 298.861 200.734 299.43C201.019 299.999 201.304 300.567 201.446 300.994C201.588 301.42 201.731 301.989 201.731 302.558C201.731 303.127 201.588 303.695 201.304 304.406C200.876 305.259 200.307 305.97 199.737 306.396C199.025 306.823 198.313 306.823 197.6 306.681L197.173 307.676L195.464 306.823L195.891 305.828C195.179 305.401 194.752 304.69 194.752 303.98C194.609 303.269 194.752 302.416 195.179 301.563L195.606 300.71L197.6 301.563L197.173 302.558C196.746 303.411 196.888 303.98 197.6 304.406C198.313 304.69 198.882 304.406 199.31 303.553C199.452 303.127 199.594 302.842 199.594 302.416C199.594 301.989 199.452 301.705 199.452 301.278C199.31 300.994 199.167 300.567 198.882 299.999C198.597 299.43 198.313 298.861 198.17 298.435C198.028 298.008 197.885 297.44 197.885 296.871C197.885 296.302 198.028 295.734 198.313 295.023C198.455 294.028 199.025 293.459 199.594 293.033Z" fill="#263238"/>
<path d="M190.194 314.073C190.194 315.068 205.434 304.122 220.104 311.088C220.104 311.088 204.722 325.02 189.767 316.348C174.812 307.676 176.948 286.351 176.948 286.351C176.948 286.351 191.476 296.444 190.194 314.073Z" fill="#A23834" stroke="#263238" stroke-width="1.09475" stroke-miterlimit="10" stroke-linecap="round" stroke-linejoin="round"/>
<path d="M155.442 258.628C155.869 259.481 162.706 241.994 178.942 239.862C178.942 239.862 173.53 259.907 156.296 260.76C139.063 261.471 129.235 242.421 129.235 242.421C129.235 242.421 146.896 243.132 155.442 258.628Z" fill="#A23834" stroke="#263238" stroke-width="1.09475" stroke-miterlimit="10" stroke-linecap="round" stroke-linejoin="round"/>
<path d="M106.162 276.967C106.731 277.82 110.719 259.481 126.529 254.789C126.529 254.789 124.392 275.546 107.586 278.958C90.6369 282.37 77.9608 265.168 77.9608 265.168C77.9608 265.168 95.1946 263.035 106.162 276.967Z" fill="#A23834" stroke="#263238" stroke-width="1.09475" stroke-miterlimit="10" stroke-linecap="round" stroke-linejoin="round"/>
<path d="M109.437 354.307C110.15 355.018 111.004 336.252 125.674 329.001C125.674 329.001 127.099 349.758 111.147 356.013C95.0522 362.268 79.67 347.483 79.67 347.483C79.67 347.483 96.3341 342.507 109.437 354.307Z" fill="#A23834" stroke="#263238" stroke-width="1.09475" stroke-miterlimit="10" stroke-linecap="round" stroke-linejoin="round"/>
<path d="M318.807 404.634H314.534H251.866C251.866 404.634 260.838 472.59 263.545 492.209C263.972 495.764 266.82 497.612 270.239 497.612C278.357 497.612 304.279 497.612 314.534 497.612C317.24 497.612 318.807 497.612 318.807 497.612C329.062 497.612 354.983 497.612 363.102 497.612C366.52 497.612 369.369 495.906 369.796 492.209C372.36 472.59 381.475 404.634 381.475 404.634H318.807Z" fill="#263238"/>
<path d="M387.172 407.193C387.172 408.899 385.748 410.321 384.039 410.321H249.444C247.735 410.321 246.311 408.899 246.311 407.193V402.217C246.311 400.511 247.735 399.09 249.444 399.09H384.039C385.748 399.09 387.172 400.511 387.172 402.217V407.193Z" fill="#263238"/>
<path d="M259.129 410.321H326.925" stroke="white" stroke-width="1.09475" stroke-miterlimit="10" stroke-linecap="round" stroke-linejoin="round"/>
<path d="M335.471 410.321H340.741" stroke="white" stroke-width="1.09475" stroke-miterlimit="10" stroke-linecap="round" stroke-linejoin="round"/>
<path d="M372.075 410.321H362.532" stroke="white" stroke-width="1.09475" stroke-miterlimit="10" stroke-linecap="round" stroke-linejoin="round"/>
<path d="M264.257 432.641H290.891" stroke="white" stroke-width="1.09475" stroke-miterlimit="10" stroke-linecap="round" stroke-linejoin="round"/>
<path d="M306.131 432.641H313.252" stroke="white" stroke-width="1.09475" stroke-miterlimit="10" stroke-linecap="round" stroke-linejoin="round"/>
<path d="M370.223 432.641H344.586" stroke="white" stroke-width="1.09475" stroke-miterlimit="10" stroke-linecap="round" stroke-linejoin="round"/>
<path d="M367.375 451.123H362.532" stroke="white" stroke-width="1.09475" stroke-miterlimit="10" stroke-linecap="round" stroke-linejoin="round"/>
<path d="M290.891 451.123H280.921" stroke="white" stroke-width="1.09475" stroke-miterlimit="10" stroke-linecap="round" stroke-linejoin="round"/>
<path d="M338.177 469.036H354.556" stroke="white" stroke-width="1.09475" stroke-miterlimit="10" stroke-linecap="round" stroke-linejoin="round"/>
<path d="M299.864 469.036H274.227" stroke="white" stroke-width="1.09475" stroke-miterlimit="10" stroke-linecap="round" stroke-linejoin="round"/>
<path d="M269.099 485.243H277.645" stroke="white" stroke-width="1.09475" stroke-miterlimit="10" stroke-linecap="round" stroke-linejoin="round"/>
<path d="M290.891 485.243H340.741" stroke="white" stroke-width="1.09475" stroke-miterlimit="10" stroke-linecap="round" stroke-linejoin="round"/>
<path d="M364.953 485.243H357.405" stroke="white" stroke-width="1.09475" stroke-miterlimit="10" stroke-linecap="round" stroke-linejoin="round"/>
<path d="M341.168 448.28C341.168 461.786 330.201 472.733 316.67 472.733C303.14 472.733 292.173 461.786 292.173 448.28C292.173 434.774 303.14 423.827 316.67 423.827C330.201 423.827 341.168 434.774 341.168 448.28Z" fill="#A23834" stroke="#263238" stroke-width="1.09475" stroke-miterlimit="10" stroke-linecap="round" stroke-linejoin="round"/>
<path d="M337.037 448.28C337.037 459.511 327.922 468.61 316.67 468.61C305.418 468.61 296.303 459.511 296.303 448.28C296.303 437.049 305.418 427.95 316.67 427.95C327.922 427.95 337.037 437.049 337.037 448.28Z" stroke="#263238" stroke-width="1.09475" stroke-miterlimit="10" stroke-linecap="round" stroke-linejoin="round"/>
<path d="M323.288 441.254V456.033H327.119V441.254H323.288Z" fill="white"/>
<path d="M328.761 452.748V456.033H332.046V452.748H328.761Z" fill="white"/>
<path fill-rule="evenodd" clip-rule="evenodd" d="M301.393 456.033H305.772L306.866 453.296H312.34L313.435 456.033H318.361H321.645V452.748H318.361V456.033L311.245 441.254H307.961L301.393 456.033ZM309.603 446.18L307.961 450.012H311.245L309.603 446.18Z" fill="white"/>
<path d="M318.361 456.033H313.435L312.34 453.296H306.866L305.772 456.033H301.393L307.961 441.254H311.245L318.361 456.033ZM318.361 456.033V452.748H321.645V456.033H318.361ZM307.961 450.012L309.603 446.18L311.245 450.012H307.961ZM323.288 456.033V441.254H327.119V456.033H323.288ZM328.761 456.033V452.748H332.046V456.033H328.761Z" stroke="#263238" stroke-width="1.09475"/>
<path d="M317.952 411.6C317.952 411.6 326.498 395.251 305.988 381.034C285.479 366.818 281.063 352.032 284.339 340.943" stroke="#263238" stroke-width="3.28424" stroke-miterlimit="10" stroke-linecap="round" stroke-linejoin="round"/>
<path d="M314.676 388.996C314.676 388.996 312.255 378.333 331.055 370.798C349.856 363.263 352.562 340.943 352.562 340.943" stroke="#263238" stroke-width="3.28424" stroke-miterlimit="10" stroke-linecap="round" stroke-linejoin="round"/>
<path d="M294.879 323.172C297.87 323.172 297.3 341.938 283.485 345.493C283.485 345.493 276.79 343.36 275.651 334.261C274.512 325.163 280.921 321.182 280.921 321.182C280.921 321.182 282.63 326.726 284.481 329.712C284.481 329.854 289.182 323.172 294.879 323.172Z" fill="#A23834" stroke="#263238" stroke-width="1.09475" stroke-miterlimit="10" stroke-linecap="round" stroke-linejoin="round"/>
<path d="M284.481 329.854C284.481 329.854 280.636 332.982 283.484 338.811L284.481 329.854Z" fill="#A23834"/>
<path d="M284.481 329.854C284.481 329.854 280.636 332.982 283.484 338.811" stroke="#263238" stroke-width="1.09475" stroke-miterlimit="10" stroke-linecap="round" stroke-linejoin="round"/>
<path d="M351.565 345.493C351.565 345.493 341.595 336.394 344.586 329.712C347.577 323.03 353.986 319.902 353.986 319.902C353.986 319.902 356.123 324.025 357.405 326.016L362.532 323.03C362.532 323.172 372.929 343.36 351.565 345.493Z" fill="#A23834" stroke="#263238" stroke-width="1.09475" stroke-miterlimit="10" stroke-linecap="round" stroke-linejoin="round"/>
<path d="M357.405 326.158C357.405 326.158 363.671 336.109 355.838 341.085L357.405 326.158Z" fill="#A23834"/>
<path d="M357.405 326.158C357.405 326.158 363.671 336.109 355.838 341.085" stroke="#263238" stroke-width="1.09475" stroke-miterlimit="10" stroke-linecap="round" stroke-linejoin="round"/>
<path d="M321.228 376.201C321.228 376.201 311.543 352.032 319.519 324.878" stroke="#263238" stroke-width="3.28424" stroke-miterlimit="10" stroke-linecap="round" stroke-linejoin="round"/>
<path d="M320.089 325.163C320.089 325.163 332.907 321.04 332.907 313.789C332.907 306.539 328.349 300.994 328.349 300.994C328.349 300.994 324.646 303.838 322.795 305.117L319.376 300.283C319.376 300.283 301.43 314.358 320.089 325.163Z" fill="#A23834" stroke="#263238" stroke-width="1.09475" stroke-miterlimit="10" stroke-linecap="round" stroke-linejoin="round"/>
<path d="M322.795 305.117C322.795 305.117 312.967 311.657 318.095 319.334L322.795 305.117Z" fill="#A23834"/>
<path d="M322.795 305.117C322.795 305.117 312.967 311.657 318.095 319.334" stroke="#263238" stroke-width="1.09475" stroke-miterlimit="10" stroke-linecap="round" stroke-linejoin="round"/>
<path d="M489.72 404.634H485.448H422.779C422.779 404.634 431.752 472.59 434.458 492.209C434.886 495.763 437.734 497.611 441.152 497.611C449.271 497.611 475.193 497.611 485.448 497.611C488.154 497.611 489.72 497.611 489.72 497.611C499.975 497.611 525.897 497.611 534.015 497.611C537.434 497.611 540.282 495.905 540.71 492.209C543.273 472.59 552.389 404.634 552.389 404.634H489.72Z" fill="#263238"/>
<path d="M558.086 407.193C558.086 408.899 556.662 410.321 554.952 410.321H420.358C418.649 410.321 417.225 408.899 417.225 407.193V402.217C417.225 400.511 418.649 399.089 420.358 399.089H554.952C556.662 399.089 558.086 400.511 558.086 402.217V407.193Z" fill="#263238"/>
<path d="M430.043 410.32H497.839" stroke="white" stroke-width="1.09475" stroke-miterlimit="10" stroke-linecap="round" stroke-linejoin="round"/>
<path d="M506.384 410.32H511.654" stroke="white" stroke-width="1.09475" stroke-miterlimit="10" stroke-linecap="round" stroke-linejoin="round"/>
<path d="M542.988 410.32H533.446" stroke="white" stroke-width="1.09475" stroke-miterlimit="10" stroke-linecap="round" stroke-linejoin="round"/>
<path d="M435.17 432.641H461.804" stroke="white" stroke-width="1.09475" stroke-miterlimit="10" stroke-linecap="round" stroke-linejoin="round"/>
<path d="M477.044 432.641H484.166" stroke="white" stroke-width="1.09475" stroke-miterlimit="10" stroke-linecap="round" stroke-linejoin="round"/>
<path d="M541.137 432.641H515.5" stroke="white" stroke-width="1.09475" stroke-miterlimit="10" stroke-linecap="round" stroke-linejoin="round"/>
<path d="M538.288 451.123H533.446" stroke="white" stroke-width="1.09475" stroke-miterlimit="10" stroke-linecap="round" stroke-linejoin="round"/>
<path d="M461.804 451.123H451.835" stroke="white" stroke-width="1.09475" stroke-miterlimit="10" stroke-linecap="round" stroke-linejoin="round"/>
<path d="M509.091 469.036H525.47" stroke="white" stroke-width="1.09475" stroke-miterlimit="10" stroke-linecap="round" stroke-linejoin="round"/>
<path d="M470.777 469.036H445.14" stroke="white" stroke-width="1.09475" stroke-miterlimit="10" stroke-linecap="round" stroke-linejoin="round"/>
<path d="M440.013 485.243H448.559" stroke="white" stroke-width="1.09475" stroke-miterlimit="10" stroke-linecap="round" stroke-linejoin="round"/>
<path d="M461.804 485.243H511.654" stroke="white" stroke-width="1.09475" stroke-miterlimit="10" stroke-linecap="round" stroke-linejoin="round"/>
<path d="M535.867 485.243H528.318" stroke="white" stroke-width="1.09475" stroke-miterlimit="10" stroke-linecap="round" stroke-linejoin="round"/>
<path d="M512.082 448.279C512.082 461.785 501.115 472.732 487.584 472.732C474.053 472.732 463.086 461.785 463.086 448.279C463.086 434.774 474.053 423.827 487.584 423.827C501.115 423.827 512.082 434.774 512.082 448.279Z" fill="#A23834" stroke="#263238" stroke-width="1.09475" stroke-miterlimit="10" stroke-linecap="round" stroke-linejoin="round"/>
<path d="M496.984 445.578V454.108C496.984 454.108 495.133 457.094 487.584 457.094C480.035 457.094 478.184 454.108 478.184 454.108V445.578" fill="white"/>
<path d="M496.984 445.578V454.108C496.984 454.108 495.133 457.094 487.584 457.094C480.035 457.094 478.184 454.108 478.184 454.108V445.578" stroke="#263238" stroke-width="1.09475" stroke-miterlimit="10" stroke-linecap="round" stroke-linejoin="round"/>
<path d="M487.584 439.323L500.545 444.157L487.584 448.99L474.623 444.157L487.584 439.323Z" fill="white" stroke="#263238" stroke-width="1.09475" stroke-miterlimit="10" stroke-linecap="round" stroke-linejoin="round"/>
<path d="M487.584 444.156L493.139 447V459.937" stroke="#263238" stroke-width="1.09475" stroke-miterlimit="10" stroke-linecap="round" stroke-linejoin="round"/>
<path d="M507.951 448.28C507.951 459.511 498.836 468.61 487.584 468.61C476.332 468.61 467.217 459.511 467.217 448.28C467.217 437.048 476.332 427.95 487.584 427.95C498.836 427.95 507.951 437.048 507.951 448.28Z" stroke="#263238" stroke-width="1.09475" stroke-miterlimit="10" stroke-linecap="round" stroke-linejoin="round"/>
<path d="M487.584 417.145C487.584 417.145 481.032 400.511 487.584 379.186" stroke="#263238" stroke-width="3.28424" stroke-miterlimit="10" stroke-linecap="round" stroke-linejoin="round"/>
<path d="M487.584 361.131C487.584 361.131 507.951 374.921 484.735 388.569C484.735 388.711 461.804 374.921 487.584 361.131Z" fill="#A23834" stroke="#263238" stroke-width="1.09475" stroke-miterlimit="10" stroke-linecap="round" stroke-linejoin="round"/>
<path d="M487.584 361.131C487.584 361.131 491.002 366.391 487.584 371.082C484.166 375.774 485.59 381.887 485.59 381.887" stroke="#263238" stroke-width="1.09475" stroke-miterlimit="10" stroke-linecap="round" stroke-linejoin="round"/>
</g>
<defs>
<clipPath id="clip0_131_633">
<rect width="622.91" height="481.688" fill="white" transform="translate(0.337555 16.4919)"/>
</clipPath>
</defs>
</svg>
