<svg width="202" height="283" viewBox="0 0 202 283" fill="none" xmlns="http://www.w3.org/2000/svg">
<path d="M103.517 150.002H97.4155H7.93164C7.93164 150.002 20.7441 247.037 24.6082 275.051C25.2183 280.126 29.2857 282.765 34.1667 282.765C45.7589 282.765 82.7727 282.765 97.4155 282.765C101.28 282.765 103.517 282.765 103.517 282.765C118.159 282.765 155.173 282.765 166.765 282.765C171.646 282.765 175.714 280.329 176.324 275.051C179.985 247.037 193 150.002 193 150.002H103.517Z" fill="#A23834"/>
<path d="M201.135 153.656C201.135 156.092 199.102 158.122 196.661 158.122H4.47419C2.03372 158.122 0 156.092 0 153.656V146.551C0 144.115 2.03372 142.085 4.47419 142.085H196.661C199.102 142.085 201.135 144.115 201.135 146.551V153.656Z" fill="#A23834"/>
<path d="M18.3032 158.122H115.109" stroke="white" stroke-width="0.839113" stroke-miterlimit="10" stroke-linecap="round" stroke-linejoin="round"/>
<path d="M127.311 158.122H134.836" stroke="white" stroke-width="0.839113" stroke-miterlimit="10" stroke-linecap="round" stroke-linejoin="round"/>
<path d="M179.579 158.122H165.953" stroke="white" stroke-width="0.839113" stroke-miterlimit="10" stroke-linecap="round" stroke-linejoin="round"/>
<path d="M25.625 189.993H63.6556" stroke="white" stroke-width="0.839113" stroke-miterlimit="10" stroke-linecap="round" stroke-linejoin="round"/>
<path d="M85.4165 189.993H95.5851" stroke="white" stroke-width="0.839113" stroke-miterlimit="10" stroke-linecap="round" stroke-linejoin="round"/>
<path d="M176.934 189.993H140.327" stroke="white" stroke-width="0.839113" stroke-miterlimit="10" stroke-linecap="round" stroke-linejoin="round"/>
<path d="M172.867 216.383H165.953" stroke="white" stroke-width="0.839113" stroke-miterlimit="10" stroke-linecap="round" stroke-linejoin="round"/>
<path d="M63.6559 216.383H49.4199" stroke="white" stroke-width="0.839113" stroke-miterlimit="10" stroke-linecap="round" stroke-linejoin="round"/>
<path d="M131.175 241.961H154.563" stroke="white" stroke-width="0.839113" stroke-miterlimit="10" stroke-linecap="round" stroke-linejoin="round"/>
<path d="M76.4683 241.961H39.8613" stroke="white" stroke-width="0.839113" stroke-miterlimit="10" stroke-linecap="round" stroke-linejoin="round"/>
<path d="M32.5396 265.104H44.7419" stroke="white" stroke-width="0.839113" stroke-miterlimit="10" stroke-linecap="round" stroke-linejoin="round"/>
<path d="M63.6558 265.104H134.836" stroke="white" stroke-width="0.839113" stroke-miterlimit="10" stroke-linecap="round" stroke-linejoin="round"/>
<path d="M169.41 265.104H158.631" stroke="white" stroke-width="0.839113" stroke-miterlimit="10" stroke-linecap="round" stroke-linejoin="round"/>
<path d="M135.446 212.324C135.446 231.609 119.786 247.24 100.466 247.24C81.1455 247.24 65.4858 231.609 65.4858 212.324C65.4858 193.039 81.1455 177.408 100.466 177.408C119.786 177.408 135.446 193.039 135.446 212.324Z" fill="#263238" stroke="#A23834" stroke-width="0.839113" stroke-miterlimit="10" stroke-linecap="round" stroke-linejoin="round"/>
<path d="M129.548 212.323C129.548 228.361 116.532 241.353 100.466 241.353C84.3996 241.353 71.3838 228.361 71.3838 212.323C71.3838 196.286 84.3996 183.294 100.466 183.294C116.532 183.294 129.548 196.286 129.548 212.323Z" stroke="#A23834" stroke-width="0.839113" stroke-miterlimit="10" stroke-linecap="round" stroke-linejoin="round"/>
<path d="M100.466 195.881L92.1273 204.407V198.52H89.2801V207.046L84.6025 211.512H88.67V225.519H112.465V211.512H116.532L100.466 195.881Z" fill="white" stroke="#A23834" stroke-width="0.839113" stroke-miterlimit="10" stroke-linecap="round" stroke-linejoin="round"/>
<path d="M102.296 159.949C102.296 159.949 114.498 136.604 85.2127 116.304C55.9271 96.0037 49.6225 74.8916 54.3001 59.0576" stroke="#A23834" stroke-width="2.51734" stroke-miterlimit="10" stroke-linecap="round" stroke-linejoin="round"/>
<path d="M97.6187 127.672C97.6187 127.672 94.1613 112.447 121.007 101.688C147.852 90.9286 151.716 59.0576 151.716 59.0576" stroke="#A23834" stroke-width="2.51734" stroke-miterlimit="10" stroke-linecap="round" stroke-linejoin="round"/>
<path d="M69.3503 33.6831C73.6211 33.6831 72.8076 60.4791 53.0805 65.5541C53.0805 65.5541 43.522 62.5091 41.895 49.5171C40.268 36.525 49.4197 30.8411 49.4197 30.8411C49.4197 30.8411 51.8602 38.7581 54.5041 43.0211C54.5041 43.2241 61.2154 33.6831 69.3503 33.6831Z" fill="white" stroke="#A23834" stroke-width="0.839113" stroke-miterlimit="10" stroke-linecap="round" stroke-linejoin="round"/>
<path d="M54.504 43.2239C54.504 43.2239 49.0131 47.6898 53.0804 56.0128L54.504 43.2239Z" fill="white"/>
<path d="M54.504 43.2239C54.504 43.2239 49.0131 47.6898 53.0804 56.0128" stroke="#A23834" stroke-width="0.839113" stroke-miterlimit="10" stroke-linecap="round" stroke-linejoin="round"/>
<path d="M150.292 65.554C150.292 65.554 136.056 52.5619 140.327 43.0209C144.598 33.4799 153.75 29.0139 153.75 29.0139C153.75 29.0139 156.8 34.9009 158.631 37.7429L165.952 33.4799C165.952 33.6829 180.798 62.509 150.292 65.554Z" fill="white" stroke="#A23834" stroke-width="0.839113" stroke-miterlimit="10" stroke-linecap="round" stroke-linejoin="round"/>
<path d="M158.631 37.9463C158.631 37.9463 167.579 52.1563 156.394 59.2614L158.631 37.9463Z" fill="white"/>
<path d="M158.631 37.9463C158.631 37.9463 167.579 52.1563 156.394 59.2614" stroke="#A23834" stroke-width="0.839113" stroke-miterlimit="10" stroke-linecap="round" stroke-linejoin="round"/>
<path d="M106.974 109.402C106.974 109.402 93.1445 74.892 104.533 36.1189" stroke="#A23834" stroke-width="2.51734" stroke-miterlimit="10" stroke-linecap="round" stroke-linejoin="round"/>
<path d="M105.347 36.5251C105.347 36.5251 123.651 30.638 123.651 20.285C123.651 9.93201 117.143 2.015 117.143 2.015C117.143 2.015 111.855 6.07503 109.211 7.90203L104.33 1C104.33 1 78.7053 21.097 105.347 36.5251Z" fill="white" stroke="#A23834" stroke-width="0.839113" stroke-miterlimit="10" stroke-linecap="round" stroke-linejoin="round"/>
<path d="M109.211 7.90161C109.211 7.90161 95.1778 17.2396 102.499 28.2016L109.211 7.90161Z" fill="white"/>
<path d="M109.211 7.90161C109.211 7.90161 95.1778 17.2396 102.499 28.2016" stroke="#A23834" stroke-width="0.839113" stroke-miterlimit="10" stroke-linecap="round" stroke-linejoin="round"/>
</svg>
