<svg width="134" height="34" viewBox="0 0 134 34" fill="none" xmlns="http://www.w3.org/2000/svg">
<g clip-path="url(#clip0_2_503)">
<path d="M31.003 30.0003V29.999H31.0105V18.9965C31.0105 13.614 29.8469 9.46777 23.5282 9.46777C20.4906 9.46777 18.4521 11.1278 17.6199 12.7015H17.5321V9.97027H11.5409V29.999H17.7793V20.0815C17.7793 17.4703 18.2764 14.9453 21.5236 14.9453C24.7232 14.9453 24.7709 17.9253 24.7709 20.249V30.0003H31.003Z" fill="white"/>
<path d="M1.38552 9.97168H7.63144V30.0004H1.38552V9.97168Z" fill="white"/>
<path d="M4.50487 0C2.50783 0 0.88736 1.61375 0.88736 3.6025C0.88736 5.59125 2.50783 7.23875 4.50487 7.23875C6.50191 7.23875 8.12238 5.59125 8.12238 3.6025C8.12112 1.61375 6.50065 0 4.50487 0V0Z" fill="white"/>
</g>
<path d="M48.979 26C48.8324 26 48.7124 25.9533 48.619 25.86C48.5257 25.7667 48.479 25.6467 48.479 25.5V12.5C48.479 12.3533 48.5257 12.2333 48.619 12.14C48.7124 12.0467 48.8324 12 48.979 12H51.619C51.7524 12 51.8657 12.0467 51.959 12.14C52.0657 12.2333 52.119 12.3533 52.119 12.5V22.98H58.159C58.3057 22.98 58.4257 23.0333 58.519 23.14C58.6257 23.2333 58.679 23.3533 58.679 23.5V25.5C58.679 25.6467 58.6257 25.7667 58.519 25.86C58.4257 25.9533 58.3057 26 58.159 26H48.979ZM60.6926 26C60.546 26 60.426 25.9533 60.3326 25.86C60.2393 25.7667 60.1926 25.6467 60.1926 25.5V16.1C60.1926 15.9533 60.2393 15.8333 60.3326 15.74C60.426 15.6467 60.546 15.6 60.6926 15.6H63.0526C63.186 15.6 63.2993 15.6467 63.3926 15.74C63.4993 15.8333 63.5526 15.9533 63.5526 16.1V25.5C63.5526 25.6467 63.4993 25.7667 63.3926 25.86C63.2993 25.9533 63.186 26 63.0526 26H60.6926ZM60.6726 14.1C60.526 14.1 60.406 14.0533 60.3126 13.96C60.2193 13.8667 60.1726 13.7467 60.1726 13.6V11.82C60.1726 11.6733 60.2193 11.5533 60.3126 11.46C60.406 11.3533 60.526 11.3 60.6726 11.3H63.0526C63.1993 11.3 63.3193 11.3533 63.4126 11.46C63.5193 11.5533 63.5726 11.6733 63.5726 11.82V13.6C63.5726 13.7467 63.5193 13.8667 63.4126 13.96C63.3193 14.0533 63.1993 14.1 63.0526 14.1H60.6726ZM67.0207 26C66.8741 26 66.7541 25.9533 66.6607 25.86C66.5674 25.7667 66.5207 25.6467 66.5207 25.5V16.1C66.5207 15.9533 66.5674 15.8333 66.6607 15.74C66.7541 15.6467 66.8741 15.6 67.0207 15.6H69.3207C69.4674 15.6 69.5874 15.6467 69.6807 15.74C69.7741 15.8333 69.8207 15.9533 69.8207 16.1V16.86C70.1674 16.4467 70.6207 16.1 71.1807 15.82C71.7407 15.54 72.4007 15.4 73.1607 15.4C73.9341 15.4 74.6141 15.5733 75.2007 15.92C75.8007 16.2667 76.2674 16.78 76.6007 17.46C76.9474 18.1267 77.1207 18.9467 77.1207 19.92V25.5C77.1207 25.6467 77.0674 25.7667 76.9607 25.86C76.8674 25.9533 76.7541 26 76.6207 26H74.1007C73.9674 26 73.8474 25.9533 73.7407 25.86C73.6474 25.7667 73.6007 25.6467 73.6007 25.5V20.04C73.6007 19.4133 73.4474 18.9333 73.1407 18.6C72.8474 18.2533 72.4074 18.08 71.8207 18.08C71.2741 18.08 70.8341 18.2533 70.5007 18.6C70.1807 18.9333 70.0207 19.4133 70.0207 20.04V25.5C70.0207 25.6467 69.9674 25.7667 69.8607 25.86C69.7674 25.9533 69.6541 26 69.5207 26H67.0207ZM79.8528 26C79.7061 26 79.5861 25.9533 79.4928 25.86C79.3994 25.7667 79.3528 25.6467 79.3528 25.5V12.3C79.3528 12.1533 79.3994 12.0333 79.4928 11.94C79.5861 11.8467 79.7061 11.8 79.8528 11.8H82.1728C82.3061 11.8 82.4194 11.8467 82.5128 11.94C82.6194 12.0333 82.6728 12.1533 82.6728 12.3V19L85.4528 15.94C85.5328 15.8467 85.6194 15.7667 85.7128 15.7C85.8061 15.6333 85.9394 15.6 86.1128 15.6H88.7928C88.9128 15.6 89.0128 15.6467 89.0928 15.74C89.1861 15.82 89.2328 15.92 89.2328 16.04C89.2328 16.0933 89.2194 16.1533 89.1928 16.22C89.1661 16.2867 89.1261 16.34 89.0728 16.38L85.4728 20.26L89.5728 25.24C89.6794 25.3467 89.7328 25.4533 89.7328 25.56C89.7328 25.68 89.6861 25.7867 89.5928 25.88C89.5128 25.96 89.4061 26 89.2728 26H86.5328C86.3328 26 86.1861 25.9667 86.0928 25.9C85.9994 25.82 85.9128 25.74 85.8328 25.66L82.6728 21.86V25.5C82.6728 25.6467 82.6194 25.7667 82.5128 25.86C82.4194 25.9533 82.3061 26 82.1728 26H79.8528ZM95.3637 26.2C93.7904 26.2 92.537 25.7733 91.6037 24.92C90.6704 24.0667 90.1837 22.8 90.1437 21.12C90.1437 21.0267 90.1437 20.9067 90.1437 20.76C90.1437 20.6133 90.1437 20.5 90.1437 20.42C90.1837 19.3667 90.417 18.4667 90.8437 17.72C91.2837 16.96 91.8837 16.3867 92.6437 16C93.417 15.6 94.317 15.4 95.3437 15.4C96.517 15.4 97.4837 15.6333 98.2437 16.1C99.017 16.5667 99.597 17.2 99.9837 18C100.37 18.8 100.564 19.7133 100.564 20.74V21.22C100.564 21.3667 100.51 21.4867 100.404 21.58C100.31 21.6733 100.197 21.72 100.064 21.72H93.6637C93.6637 21.7333 93.6637 21.7533 93.6637 21.78C93.6637 21.8067 93.6637 21.8333 93.6637 21.86C93.677 22.2467 93.7437 22.6 93.8637 22.92C93.9837 23.24 94.1704 23.4933 94.4237 23.68C94.677 23.8667 94.9837 23.96 95.3437 23.96C95.6104 23.96 95.8304 23.92 96.0037 23.84C96.1904 23.7467 96.3437 23.6467 96.4637 23.54C96.5837 23.42 96.677 23.32 96.7437 23.24C96.8637 23.1067 96.957 23.0267 97.0237 23C97.1037 22.96 97.2237 22.94 97.3837 22.94H99.8637C99.997 22.94 100.104 22.98 100.184 23.06C100.277 23.1267 100.317 23.2267 100.304 23.36C100.29 23.5867 100.177 23.86 99.9637 24.18C99.7504 24.5 99.437 24.82 99.0237 25.14C98.6237 25.4467 98.117 25.7 97.5037 25.9C96.8904 26.1 96.177 26.2 95.3637 26.2ZM93.6637 19.74H97.0437V19.7C97.0437 19.2733 96.977 18.9 96.8437 18.58C96.7237 18.26 96.5304 18.0133 96.2637 17.84C96.0104 17.6667 95.7037 17.58 95.3437 17.58C94.9837 17.58 94.677 17.6667 94.4237 17.84C94.1837 18.0133 93.997 18.26 93.8637 18.58C93.7304 18.9 93.6637 19.2733 93.6637 19.7V19.74ZM106.319 26.2C105.679 26.2 105.099 26.1 104.579 25.9C104.072 25.6867 103.632 25.38 103.259 24.98C102.899 24.5667 102.619 24.0733 102.419 23.5C102.219 22.9133 102.105 22.2467 102.079 21.5C102.065 21.2333 102.059 21 102.059 20.8C102.059 20.5867 102.065 20.3533 102.079 20.1C102.105 19.38 102.219 18.7333 102.419 18.16C102.619 17.5867 102.899 17.0933 103.259 16.68C103.619 16.2667 104.059 15.9533 104.579 15.74C105.099 15.5133 105.679 15.4 106.319 15.4C106.985 15.4 107.559 15.5133 108.039 15.74C108.519 15.9533 108.925 16.2333 109.259 16.58V12.3C109.259 12.1533 109.305 12.0333 109.399 11.94C109.492 11.8467 109.612 11.8 109.759 11.8H112.199C112.332 11.8 112.445 11.8467 112.539 11.94C112.645 12.0333 112.699 12.1533 112.699 12.3V25.5C112.699 25.6467 112.645 25.7667 112.539 25.86C112.445 25.9533 112.332 26 112.199 26H109.939C109.792 26 109.672 25.9533 109.579 25.86C109.485 25.7667 109.439 25.6467 109.439 25.5V24.86C109.119 25.2467 108.705 25.5667 108.199 25.82C107.692 26.0733 107.065 26.2 106.319 26.2ZM107.399 23.52C107.852 23.52 108.205 23.4267 108.459 23.24C108.725 23.04 108.919 22.7867 109.039 22.48C109.172 22.1733 109.245 21.84 109.259 21.48C109.272 21.2133 109.279 20.96 109.279 20.72C109.279 20.48 109.272 20.2333 109.259 19.98C109.245 19.6467 109.172 19.34 109.039 19.06C108.905 18.7667 108.705 18.5333 108.439 18.36C108.172 18.1733 107.825 18.08 107.399 18.08C106.959 18.08 106.605 18.1733 106.339 18.36C106.085 18.5467 105.905 18.8 105.799 19.12C105.692 19.44 105.625 19.7933 105.599 20.18C105.559 20.5933 105.559 21.0067 105.599 21.42C105.625 21.8067 105.692 22.16 105.799 22.48C105.905 22.8 106.085 23.0533 106.339 23.24C106.605 23.4267 106.959 23.52 107.399 23.52ZM115.556 26C115.409 26 115.289 25.9533 115.196 25.86C115.103 25.7667 115.056 25.6467 115.056 25.5V16.1C115.056 15.9533 115.103 15.8333 115.196 15.74C115.289 15.6467 115.409 15.6 115.556 15.6H117.916C118.049 15.6 118.163 15.6467 118.256 15.74C118.363 15.8333 118.416 15.9533 118.416 16.1V25.5C118.416 25.6467 118.363 25.7667 118.256 25.86C118.163 25.9533 118.049 26 117.916 26H115.556ZM115.536 14.1C115.389 14.1 115.269 14.0533 115.176 13.96C115.083 13.8667 115.036 13.7467 115.036 13.6V11.82C115.036 11.6733 115.083 11.5533 115.176 11.46C115.269 11.3533 115.389 11.3 115.536 11.3H117.916C118.063 11.3 118.183 11.3533 118.276 11.46C118.383 11.5533 118.436 11.6733 118.436 11.82V13.6C118.436 13.7467 118.383 13.8667 118.276 13.96C118.183 14.0533 118.063 14.1 117.916 14.1H115.536ZM121.884 26C121.737 26 121.617 25.9533 121.524 25.86C121.431 25.7667 121.384 25.6467 121.384 25.5V16.1C121.384 15.9533 121.431 15.8333 121.524 15.74C121.617 15.6467 121.737 15.6 121.884 15.6H124.184C124.331 15.6 124.451 15.6467 124.544 15.74C124.637 15.8333 124.684 15.9533 124.684 16.1V16.86C125.031 16.4467 125.484 16.1 126.044 15.82C126.604 15.54 127.264 15.4 128.024 15.4C128.797 15.4 129.477 15.5733 130.064 15.92C130.664 16.2667 131.131 16.78 131.464 17.46C131.811 18.1267 131.984 18.9467 131.984 19.92V25.5C131.984 25.6467 131.931 25.7667 131.824 25.86C131.731 25.9533 131.617 26 131.484 26H128.964C128.831 26 128.711 25.9533 128.604 25.86C128.511 25.7667 128.464 25.6467 128.464 25.5V20.04C128.464 19.4133 128.311 18.9333 128.004 18.6C127.711 18.2533 127.271 18.08 126.684 18.08C126.137 18.08 125.697 18.2533 125.364 18.6C125.044 18.9333 124.884 19.4133 124.884 20.04V25.5C124.884 25.6467 124.831 25.7667 124.724 25.86C124.631 25.9533 124.517 26 124.384 26H121.884Z" fill="white"/>
<defs>
<clipPath id="clip0_2_503">
<rect width="30.125" height="30" fill="white" transform="translate(0.88736)"/>
</clipPath>
</defs>
</svg>
