<svg width="90" height="90" viewBox="0 0 90 90" fill="none" xmlns="http://www.w3.org/2000/svg">
<circle opacity="0.2" cx="50" cy="40" r="40" fill="#C0655D"/>
<g clip-path="url(#clip0_41_1206)">
<path d="M28.3649 54.5811C28.5951 54.7021 28.8466 54.7618 29.0973 54.7618C29.4165 54.7618 29.7346 54.6649 30.0054 54.474C30.4888 54.1332 30.7407 53.5505 30.6577 52.9649L29.4393 44.3616C31.2866 41.7715 32.3524 38.6258 32.4543 35.4287C32.5671 31.8852 31.5448 28.4773 29.4982 25.5733C27.001 22.0285 23.2729 19.668 19.0007 18.9271C14.7284 18.1862 10.4234 19.1533 6.87883 21.6508C-0.438513 26.8066 -2.19804 36.9543 2.95649 44.2718C5.00274 47.1774 7.86836 49.2872 11.2432 50.373C14.2868 51.3522 17.6074 51.4076 20.6691 50.5408L28.3649 54.5811ZM5.53336 42.4568C1.37946 36.5599 2.79743 28.3823 8.6943 24.2273C11.5507 22.2148 15.0199 21.4355 18.4621 22.0326C21.9049 22.6298 24.9091 24.5318 26.9218 27.3888C30.2154 32.0621 30.0609 38.4693 26.5459 42.9701C26.2826 43.3074 26.1676 43.7372 26.2276 44.161L27.1056 50.3602L21.5606 47.4488C21.3323 47.3291 21.0807 47.2682 20.828 47.2682C20.6616 47.2682 20.4948 47.2946 20.3337 47.3479C14.8235 49.1685 8.87586 47.203 5.53336 42.4568Z" fill="#21737C"/>
<path d="M15.9064 24.9447C13.2639 24.9447 11.1143 27.0947 11.1143 29.7374V30.3614C11.1143 31.2317 11.8197 31.9374 12.69 31.9374C13.5604 31.9374 14.2658 31.2317 14.2658 30.3614V29.7374C14.2658 28.848 15.0171 28.0966 15.9063 28.0966C16.7955 28.0966 17.5468 28.848 17.5468 29.7374V30.3614C17.5468 30.603 17.0388 31.2099 16.7025 31.6116C15.9569 32.5024 15.0291 33.6109 15.0291 35.1294V37.098C15.0291 37.9683 15.7346 38.6739 16.6049 38.6739C17.4752 38.6739 18.1807 37.9684 18.1807 37.098V35.1294C18.1807 34.7559 18.6794 34.1602 19.1193 33.6345C19.8229 32.7941 20.6983 31.748 20.6983 30.3616V29.7375C20.6986 27.0947 18.5488 24.9447 15.9064 24.9447Z" fill="#A23834"/>
<path d="M16.61 41.5425C15.7396 41.5425 15.0342 42.2479 15.0342 43.1184V43.1228C15.0342 43.9931 15.7396 44.6965 16.61 44.6965C17.4803 44.6965 18.1857 43.9889 18.1857 43.1184C18.1859 42.2479 17.4803 41.5425 16.61 41.5425Z" fill="#A23834"/>
<path d="M79.6599 75.6042C77.8932 67.6209 74.0594 58.2287 60.1219 55.663V49.7687C63.2229 46.6153 64.9904 43.09 64.9904 40.0203V36.2334C66.2305 35.5412 67.769 34.4475 68.9666 32.1934C70.5808 29.155 71.2041 24.7084 70.8716 18.5997C70.8436 18.0866 70.5672 17.6192 70.131 17.3476C69.6949 17.0759 69.1538 17.0341 68.6807 17.2355C63.056 19.6306 57.6468 18.9337 52.8746 18.3191C49.9515 17.9425 47.4268 17.6175 45.1669 18.0166C42.5897 18.4719 40.7555 19.8361 39.5739 22.1806C35.1936 24.9103 35.1935 30.1808 35.1935 35.2831V40.0203C35.1935 43.0987 36.9711 46.6353 40.0883 49.7956V55.663C26.1507 58.2287 22.3169 67.6208 20.5504 75.6031C20.1555 77.3812 19.8622 79.6216 21.1091 81.1756C22.3288 82.6958 24.4571 82.8908 26.1754 82.8908H35.7936C36.6639 82.8908 37.3694 82.1852 37.3694 81.3148C37.3694 80.4445 36.6639 79.7389 35.7936 79.7389H26.1754C24.2802 79.7389 23.728 79.4033 23.5675 79.2033C23.3957 78.9889 23.1746 78.325 23.6275 76.2853C24.9797 70.1753 27.4664 63.7959 34.9679 60.4725L41.7719 70.9123C42.0379 71.3205 42.4775 71.5827 42.9632 71.6225C43.0063 71.6261 43.0494 71.6278 43.0922 71.6278C43.5322 71.6278 43.9546 71.4434 44.2544 71.1161L50.1049 64.7261L55.9555 71.1161C56.2552 71.4436 56.6777 71.6278 57.1177 71.6278C57.1605 71.6278 57.2036 71.6261 57.2468 71.6225C57.7324 71.5827 58.1721 71.3205 58.438 70.9123L65.2421 60.4725C72.7435 63.7959 75.2304 70.1755 76.5825 76.2864C77.0354 78.325 76.8144 78.9889 76.6424 79.2031C76.4819 79.4031 75.9297 79.7387 74.0346 79.7387H50.9093C50.0389 79.7387 49.3335 80.4442 49.3335 81.3147C49.3335 82.185 50.0391 82.8906 50.9093 82.8906H74.0349C75.753 82.8906 77.8815 82.6956 79.1011 81.1755C80.348 79.6214 80.0546 77.3811 79.6599 75.6042ZM41.5444 24.6786C41.8491 24.5125 42.0902 24.2505 42.2307 23.9333C43.7583 20.4842 46.6329 20.6928 52.4719 21.445C56.843 22.0081 62.1652 22.6934 67.8 20.9169C67.8644 25.2808 67.3222 28.5705 66.1832 30.7144C65.2607 32.4506 64.1044 33.1491 63.0447 33.7008C54.6424 33.5464 49.5047 32.3236 45.3727 29.5072C45.1027 29.3231 44.7933 29.2334 44.4858 29.2334C44.0619 29.2334 43.6416 29.4041 43.3341 29.7331C41.7224 31.457 40.3558 32.3216 38.3622 33.0803C38.4464 28.8525 38.9291 26.1051 41.5444 24.6786ZM38.3454 40.0203V36.4331C40.6432 35.6692 42.603 34.7862 44.7038 32.8209C48.966 35.3851 54.1154 36.5844 61.8386 36.8239V40.0203C61.8386 42.3527 60.2079 45.3187 57.4763 47.9547C54.9629 50.3803 51.9954 52.0098 50.0919 52.0098C48.1885 52.0098 45.221 50.3802 42.7075 47.9547C39.9761 45.3187 38.3454 42.3527 38.3454 40.0203ZM43.3027 67.4883L38.0166 59.3778C39.0408 59.0862 40.1386 58.8412 41.3174 58.6486L47.6766 62.7109L43.3027 67.4883ZM43.2402 56.137V52.4801C45.6447 54.175 48.1082 55.1619 50.0921 55.1619C52.0832 55.1619 54.5574 54.1677 56.9702 52.4612V56.137L50.1052 60.5223L43.2402 56.137ZM56.9077 67.4884L52.5336 62.7109L58.893 58.6486C60.0718 58.8412 61.1697 59.0862 62.1938 59.3778L56.9077 67.4884Z" fill="#21737C"/>
<path d="M43.3512 79.7386C42.4809 79.7386 41.7754 80.4441 41.7754 81.3146C41.7754 82.1849 42.4809 82.8905 43.3512 82.8905H43.3601C44.2304 82.8905 44.9315 82.1851 44.9315 81.3146C44.9315 80.4441 44.2215 79.7386 43.3512 79.7386Z" fill="#21737C"/>
</g>
<defs>
<clipPath id="clip0_41_1206">
<rect width="80" height="80" fill="white" transform="translate(0 10)"/>
</clipPath>
</defs>
</svg>
