<svg width="90" height="90" viewBox="0 0 90 90" fill="none" xmlns="http://www.w3.org/2000/svg">
<circle opacity="0.2" cx="50" cy="40" r="40" fill="#C0655D"/>
<g clip-path="url(#clip0_41_1166)">
<path d="M67.537 25.517C65.9416 25.517 64.5011 26.1896 63.4837 27.2662L45.5003 16.9006C45.6046 16.4697 45.6583 16.026 45.6583 15.5792C45.6583 12.5031 43.1553 10 40.0791 10C37.0029 10 34.4999 12.5031 34.4999 15.5792C34.4999 16.0345 34.5548 16.4771 34.658 16.9006L16.6752 27.2662C15.6571 26.1896 14.2167 25.517 12.6218 25.517C9.54505 25.517 7.04199 28.02 7.04199 31.0962C7.04199 34.173 9.54505 36.676 12.6218 36.676C15.698 36.676 18.2011 34.173 18.2011 31.0962C18.2011 30.7391 18.1675 30.3894 18.1028 30.0507L36.2217 19.6069C37.2245 20.5676 38.5844 21.1591 40.0791 21.1591C41.5318 21.1591 42.9124 20.5872 43.9384 19.6069L62.0561 30.0507C61.9914 30.3894 61.9578 30.7391 61.9578 31.0962C61.9578 34.173 64.4608 36.676 67.537 36.676C70.6138 36.676 73.1162 34.173 73.1162 31.0962C73.1162 28.02 70.6132 25.517 67.537 25.517ZM12.6212 33.551C11.2681 33.551 10.167 32.45 10.167 31.0962C10.167 29.7431 11.2681 28.642 12.6212 28.642C13.975 28.642 15.0761 29.7431 15.0761 31.0962C15.0761 32.45 13.975 33.551 12.6212 33.551ZM40.0791 18.0341C38.726 18.0341 37.6249 16.933 37.6249 15.5792C37.6249 14.2261 38.726 13.125 40.0791 13.125C41.4323 13.125 42.5333 14.2261 42.5333 15.5792C42.5333 16.0101 42.421 16.4331 42.208 16.803C42.2074 16.8036 42.2068 16.8048 42.2062 16.8054C42.2062 16.806 42.2056 16.8066 42.2056 16.8073C41.7667 17.5641 40.9525 18.0341 40.0791 18.0341ZM67.537 33.551C66.1839 33.551 65.0822 32.45 65.0822 31.0962C65.0822 29.7431 66.1839 28.642 67.537 28.642C68.8902 28.642 69.9912 29.7431 69.9912 31.0962C69.9912 32.45 68.8902 33.551 67.537 33.551Z" fill="#A23834"/>
<path d="M18.9488 67.8143V47.1759C18.9488 43.6816 16.1161 40.8484 12.6212 40.8484C9.12759 40.8484 6.29433 43.681 6.29433 47.1759V67.8143C2.77871 70.0049 0.474018 73.9642 0.63271 78.4375C0.851216 84.6063 5.80117 89.6521 11.9651 89.9823C18.8767 90.3528 24.6183 84.8358 24.6183 78.0029C24.6183 73.7085 22.3502 69.9341 18.9488 67.8143ZM9.41934 47.1759C9.41934 45.4071 10.8531 43.9734 12.6212 43.9734C14.39 43.9734 15.8238 45.4071 15.8238 47.1759V66.4404C13.7382 65.8624 11.5086 65.8612 9.41995 66.4404V47.1759H9.41934ZM7.64809 85.3467C7.66824 85.2466 7.67861 85.1435 7.67861 85.0373C7.67861 83.49 8.38662 82.0685 9.57559 81.1426C10.4514 81.7157 11.4982 82.049 12.6212 82.049C13.7449 82.049 14.791 81.7157 15.6675 81.1426C16.8559 82.0685 17.5645 83.49 17.5645 85.0373C17.5645 85.1428 17.5749 85.2466 17.595 85.3467C16.1753 86.3111 14.4633 86.875 12.6212 86.875C10.7798 86.875 9.06777 86.3111 7.64809 85.3467ZM12.6212 78.924C11.2681 78.924 10.167 77.8229 10.167 76.4697C10.167 75.1166 11.2681 74.0155 12.6212 74.0155C13.975 74.0155 15.0761 75.1166 15.0761 76.4697C15.0761 77.8229 13.975 78.924 12.6212 78.924ZM20.2787 82.4805C19.7965 81.0272 18.9079 79.7394 17.7055 78.7683C18.0235 78.067 18.2011 77.2888 18.2011 76.4697C18.2011 73.3936 15.698 70.8905 12.6219 70.8905C9.54507 70.8905 7.04201 73.3936 7.04201 76.4697C7.04201 77.2888 7.21963 78.0676 7.53823 78.7683C6.33523 79.74 5.44655 81.0272 4.96438 82.4805C4.19289 81.1658 3.74978 79.635 3.74978 78.0036C3.74978 73.1116 7.72988 69.1315 12.6219 69.1315C17.5138 69.1315 21.4933 73.1116 21.4933 78.0036C21.4933 79.635 21.0502 81.1658 20.2787 82.4805Z" fill="#21737C"/>
<path d="M73.8638 67.8143V47.1759C73.8638 43.6816 71.0311 40.8484 67.5369 40.8484C64.0426 40.8484 61.21 43.681 61.21 47.1759V67.8143C57.6944 70.0049 55.3891 73.9636 55.5477 78.4369C55.7663 84.6063 60.7162 89.6521 66.8801 89.9823C73.7918 90.3528 79.5333 84.8358 79.5333 78.0029C79.5333 73.7085 77.2653 69.9341 73.8638 67.8143ZM64.335 47.1759C64.335 45.4071 65.7681 43.9734 67.5369 43.9734C69.3051 43.9734 70.7388 45.4071 70.7388 47.1759V66.4404C69.7189 66.1578 68.6453 66.0065 67.5369 66.0065C66.4285 66.0065 65.3543 66.1578 64.335 66.4404V47.1759ZM62.5943 85.3675V85.0373C62.5943 83.49 63.3023 82.0679 64.4906 81.1426C65.3671 81.7157 66.4138 82.049 67.5369 82.049C68.6599 82.049 69.7067 81.7157 70.5832 81.1426C71.7715 82.0685 72.4795 83.49 72.4795 85.0373V85.3675C71.0604 86.3318 69.3783 86.875 67.5369 86.875C65.6948 86.875 64.0133 86.3318 62.5943 85.3675ZM67.5369 78.924C66.1837 78.924 65.0821 77.8229 65.0821 76.4697C65.0821 75.1166 66.1837 74.0155 67.5369 74.0155C68.89 74.0155 69.9911 75.1166 69.9911 76.4697C69.9911 77.8229 68.89 78.924 67.5369 78.924ZM75.1937 82.4805C74.7116 81.0272 73.8229 79.7394 72.6205 78.7683C72.9391 78.067 73.1161 77.2888 73.1161 76.4697C73.1161 73.3936 70.6131 70.8905 67.5369 70.8905C63.4903 70.8905 60.7833 75.0903 62.4533 78.7683C61.2503 79.74 60.3616 81.0272 59.88 82.4805C56.4309 76.6046 60.6869 69.1315 67.5369 69.1315C72.4289 69.1315 76.4083 73.1116 76.4083 78.0036C76.4083 79.635 75.9652 81.1658 75.1937 82.4805Z" fill="#21737C"/>
<path d="M46.4067 67.8142V54.5836C46.4067 53.7517 45.7787 53.0248 44.9486 52.9711C44.0385 52.9119 43.2817 53.6327 43.2817 54.5299V66.4403C42.2618 66.1577 41.1882 66.0064 40.0798 66.0064C38.9714 66.0064 37.8978 66.1577 36.8779 66.4403V37.1196C36.8779 35.3508 38.3116 33.9177 40.0798 33.9177C41.8486 33.9177 43.2817 35.3508 43.2817 37.1196V41.9768C43.2817 42.8087 43.9098 43.5357 44.7404 43.5894C45.6505 43.6486 46.4067 42.9277 46.4067 42.0299V37.1196C46.4067 33.6254 43.5741 30.7927 40.0798 30.7927C36.5855 30.7927 33.7529 33.6254 33.7529 37.1196V67.8142C30.2373 70.0048 27.9326 73.9635 28.0907 78.4374C28.3098 84.6062 33.2591 89.652 39.4237 89.9822C46.3353 90.3527 52.0763 84.8357 52.0763 78.0028C52.0763 73.7084 49.8082 69.934 46.4067 67.8142ZM35.1378 85.3673L35.1372 85.0371C35.1372 83.4899 35.8452 82.0684 37.0335 81.1425C37.0518 81.1541 37.0695 81.1657 37.0879 81.1773C37.921 81.7089 38.9043 82.0251 39.959 82.0476C39.9705 82.0482 39.9821 82.0482 39.9937 82.0482C40.0017 82.0489 40.0096 82.0489 40.0175 82.0489H40.0798H40.1421C40.15 82.0489 40.1585 82.0489 40.1665 82.0482C40.1781 82.0482 40.1891 82.0482 40.2007 82.0476C41.2553 82.0257 42.2386 81.7089 43.0717 81.1773C43.0901 81.1657 43.1084 81.1541 43.1261 81.1425C44.3144 82.0684 45.0224 83.4899 45.0224 85.0371V85.3673C43.6028 86.3317 41.9218 86.8749 40.0798 86.8749C38.2384 86.8749 36.5569 86.3317 35.1378 85.3673ZM40.0798 78.9239C38.7267 78.9239 37.6256 77.8228 37.6256 76.4696C37.6256 75.1165 38.7267 74.0154 40.0798 74.0154C41.433 74.0154 42.534 75.1165 42.534 76.4696C42.534 77.8228 41.433 78.9239 40.0798 78.9239ZM47.7367 82.4804C47.2551 81.0271 46.3658 79.7393 45.1634 78.7682C46.8364 75.0823 44.1191 70.8904 40.0798 70.8904C37.0036 70.8904 34.5006 73.3935 34.5006 76.4696C34.5006 77.2887 34.6776 78.0669 34.9962 78.7682C33.7938 79.7393 32.9051 81.0265 32.4229 82.4804C31.6508 81.1651 31.2083 79.6349 31.2083 78.0034C31.2083 73.1115 35.1884 69.1314 40.0798 69.1314C44.9718 69.1314 48.9513 73.1115 48.9513 78.0034C48.9513 79.6349 48.5088 81.1651 47.7367 82.4804Z" fill="#21737C"/>
<path d="M44.8438 46.7201C43.9807 46.7201 43.2812 47.4214 43.2812 48.2844C43.2812 49.1475 43.9807 49.8469 44.8438 49.8469C45.7068 49.8469 46.4063 49.1475 46.4063 48.2844V48.2808C46.4063 47.4177 45.7068 46.7201 44.8438 46.7201Z" fill="#21737C"/>
</g>
<defs>
<clipPath id="clip0_41_1166">
<rect width="80" height="80" fill="white" transform="translate(0 10)"/>
</clipPath>
</defs>
</svg>
